<?xml version="1.0" encoding="UTF-8" standalone="no"?>
<!DOCTYPE svg PUBLIC "-//W3C//DTD SVG 1.1//EN"
 "http://www.w3.org/Graphics/SVG/1.1/DTD/svg11.dtd">
<!-- Generated by graphviz version 2.43.0 (0)
 -->
<!-- Title: %3 Pages: 1 -->
<svg width="476pt" height="667pt"
 viewBox="0.00 0.00 475.50 667.00" xmlns="http://www.w3.org/2000/svg" xmlns:xlink="http://www.w3.org/1999/xlink">
<g id="graph0" class="graph" transform="scale(1 1) rotate(0) translate(4 663)">
<title>%3</title>
<polygon fill="white" stroke="transparent" points="-4,4 -4,-663 471.5,-663 471.5,4 -4,4"/>
<!-- F -->
<g id="node1" class="node">
<title>F</title>
<polygon fill="black" stroke="transparent" points="266.5,-659 83.5,-659 83.5,-623 266.5,-623 266.5,-659"/>
<text text-anchor="start" x="91.5" y="-638.3" font-family="Helvetica,sans-Serif" font-size="14.00" fill="white">Core_with_req_a(</text>
<text text-anchor="start" x="209.5" y="-638.3" font-family="Helvetica,sans-Serif" font-style="italic" font-size="14.00" fill="white">Req_a</text>
<text text-anchor="start" x="252.5" y="-638.3" font-family="Helvetica,sans-Serif" font-size="14.00" fill="white">)</text>
</g>
<!-- Core -->
<g id="node7" class="node">
<title>Core</title>
<polygon fill="black" stroke="transparent" points="303,-587 247,-587 247,-551 303,-551 303,-587"/>
<text text-anchor="middle" x="275" y="-565.3" font-family="Helvetica,sans-Serif" font-size="14.00" fill="white">CORE</text>
</g>
<!-- F&#45;&gt;Core -->
<g id="edge1" class="edge">
<title>F&#45;&gt;Core</title>
<path fill="none" stroke="gray" d="M199.46,-622.88C212.3,-613.89 228.2,-602.76 242.09,-593.03"/>
<polygon fill="gray" stroke="gray" points="244.26,-595.79 250.44,-587.19 240.24,-590.06 244.26,-595.79"/>
</g>
<!-- G -->
<g id="node2" class="node">
<title>G</title>
<polygon fill="black" stroke="transparent" points="467.5,-659 284.5,-659 284.5,-623 467.5,-623 467.5,-659"/>
<text text-anchor="start" x="292.5" y="-638.3" font-family="Helvetica,sans-Serif" font-size="14.00" fill="white">Core_with_req_b(</text>
<text text-anchor="start" x="410.5" y="-638.3" font-family="Helvetica,sans-Serif" font-style="italic" font-size="14.00" fill="white">Req_b</text>
<text text-anchor="start" x="453.5" y="-638.3" font-family="Helvetica,sans-Serif" font-size="14.00" fill="white">)</text>
</g>
<!-- G&#45;&gt;Core -->
<g id="edge2" class="edge">
<title>G&#45;&gt;Core</title>
<path fill="none" stroke="gray" d="M351.29,-622.88C338.33,-613.89 322.27,-602.76 308.23,-593.03"/>
<polygon fill="gray" stroke="gray" points="310.02,-590.01 299.8,-587.19 306.03,-595.76 310.02,-590.01"/>
</g>
<!-- Operation_f -->
<g id="node3" class="node">
<title>Operation_f</title>
<polygon fill="black" stroke="transparent" points="294,-515 164,-515 164,-479 294,-479 294,-515"/>
<text text-anchor="start" x="172" y="-494.3" font-family="Helvetica,sans-Serif" font-size="14.00" fill="white">Operation(</text>
<text text-anchor="start" x="247" y="-494.3" font-family="Helvetica,sans-Serif" font-style="italic" font-size="14.00" fill="white">Core</text>
<text text-anchor="start" x="280" y="-494.3" font-family="Helvetica,sans-Serif" font-size="14.00" fill="white">)</text>
</g>
<!-- Operation -->
<g id="node8" class="node">
<title>Operation</title>
<polygon fill="black" stroke="transparent" points="257.5,-443 160.5,-443 160.5,-407 257.5,-407 257.5,-443"/>
<text text-anchor="middle" x="209" y="-421.3" font-family="Helvetica,sans-Serif" font-size="14.00" fill="white">OPERATION</text>
</g>
<!-- Operation_f&#45;&gt;Operation -->
<g id="edge4" class="edge">
<title>Operation_f&#45;&gt;Operation</title>
<path fill="none" stroke="gray" d="M224.06,-478.7C221.83,-470.9 219.15,-461.51 216.67,-452.83"/>
<polygon fill="gray" stroke="gray" points="220,-451.76 213.89,-443.1 213.27,-453.68 220,-451.76"/>
</g>
<!-- Infix_f -->
<g id="node4" class="node">
<title>Infix_f</title>
<polygon fill="black" stroke="transparent" points="178,-371 0,-371 0,-335 178,-335 178,-371"/>
<text text-anchor="start" x="8" y="-350.3" font-family="Helvetica,sans-Serif" font-size="14.00" fill="white">Infix(</text>
<text text-anchor="start" x="45" y="-350.3" font-family="Helvetica,sans-Serif" font-style="italic" font-size="14.00" fill="white">Core</text>
<text text-anchor="start" x="78" y="-350.3" font-family="Helvetica,sans-Serif" font-size="14.00" fill="white">) (</text>
<text text-anchor="start" x="94" y="-350.3" font-family="Helvetica,sans-Serif" font-style="italic" font-size="14.00" fill="white">Operation</text>
<text text-anchor="start" x="164" y="-350.3" font-family="Helvetica,sans-Serif" font-size="14.00" fill="white">)</text>
</g>
<!-- Infix -->
<g id="node9" class="node">
<title>Infix</title>
<polygon fill="black" stroke="transparent" points="147,-299 93,-299 93,-263 147,-263 147,-299"/>
<text text-anchor="middle" x="120" y="-277.3" font-family="Helvetica,sans-Serif" font-size="14.00" fill="white">INFIX</text>
</g>
<!-- Infix_f&#45;&gt;Infix -->
<g id="edge6" class="edge">
<title>Infix_f&#45;&gt;Infix</title>
<path fill="none" stroke="gray" d="M96.66,-334.7C100.19,-326.73 104.46,-317.1 108.37,-308.26"/>
<polygon fill="gray" stroke="gray" points="111.58,-309.67 112.43,-299.1 105.18,-306.83 111.58,-309.67"/>
</g>
<!-- Syntax_f -->
<g id="node5" class="node">
<title>Syntax_f</title>
<polygon fill="black" stroke="transparent" points="428.5,-371 233.5,-371 233.5,-335 428.5,-335 428.5,-371"/>
<text text-anchor="start" x="241.5" y="-350.3" font-family="Helvetica,sans-Serif" font-size="14.00" fill="white">Syntax(</text>
<text text-anchor="start" x="295.5" y="-350.3" font-family="Helvetica,sans-Serif" font-style="italic" font-size="14.00" fill="white">Core</text>
<text text-anchor="start" x="328.5" y="-350.3" font-family="Helvetica,sans-Serif" font-size="14.00" fill="white">) (</text>
<text text-anchor="start" x="344.5" y="-350.3" font-family="Helvetica,sans-Serif" font-style="italic" font-size="14.00" fill="white">Operation</text>
<text text-anchor="start" x="414.5" y="-350.3" font-family="Helvetica,sans-Serif" font-size="14.00" fill="white">)</text>
</g>
<!-- Syntax -->
<g id="node10" class="node">
<title>Syntax</title>
<polygon fill="black" stroke="transparent" points="336.5,-299 265.5,-299 265.5,-263 336.5,-263 336.5,-299"/>
<text text-anchor="middle" x="301" y="-277.3" font-family="Helvetica,sans-Serif" font-size="14.00" fill="white">SYNTAX</text>
</g>
<!-- Syntax_f&#45;&gt;Syntax -->
<g id="edge9" class="edge">
<title>Syntax_f&#45;&gt;Syntax</title>
<path fill="none" stroke="gray" d="M323.58,-334.7C320.21,-326.81 316.13,-317.3 312.38,-308.55"/>
<polygon fill="gray" stroke="gray" points="315.49,-306.92 308.33,-299.1 309.05,-309.67 315.49,-306.92"/>
</g>
<!-- Via -->
<g id="node6" class="node">
<title>Via</title>
<polygon fill="black" stroke="transparent" points="408,-227 128,-227 128,-191 408,-191 408,-227"/>
<text text-anchor="start" x="136" y="-206.3" font-family="Helvetica,sans-Serif" font-size="14.00" fill="white">Via(</text>
<text text-anchor="start" x="163" y="-206.3" font-family="Helvetica,sans-Serif" font-style="italic" font-size="14.00" fill="white">Core</text>
<text text-anchor="start" x="196" y="-206.3" font-family="Helvetica,sans-Serif" font-size="14.00" fill="white">) (</text>
<text text-anchor="start" x="212" y="-206.3" font-family="Helvetica,sans-Serif" font-style="italic" font-size="14.00" fill="white">Operation</text>
<text text-anchor="start" x="282" y="-206.3" font-family="Helvetica,sans-Serif" font-size="14.00" fill="white">) (</text>
<text text-anchor="start" x="298" y="-206.3" font-family="Helvetica,sans-Serif" font-style="italic" font-size="14.00" fill="white">Infix</text>
<text text-anchor="start" x="329" y="-206.3" font-family="Helvetica,sans-Serif" font-size="14.00" fill="white">) (</text>
<text text-anchor="start" x="345" y="-206.3" font-family="Helvetica,sans-Serif" font-style="italic" font-size="14.00" fill="white">Syntax</text>
<text text-anchor="start" x="394" y="-206.3" font-family="Helvetica,sans-Serif" font-size="14.00" fill="white">)</text>
</g>
<!-- Api -->
<g id="node11" class="node">
<title>Api</title>
<polygon fill="white" stroke="transparent" points="346,-155 190,-155 190,0 346,0 346,-155"/>
<polygon fill="black" stroke="transparent" points="198,-129.5 198,-150.5 338,-150.5 338,-129.5 198,-129.5"/>
<polygon fill="none" stroke="black" points="198,-129.5 198,-150.5 338,-150.5 338,-129.5 198,-129.5"/>
<text text-anchor="start" x="242" y="-136.3" font-family="Helvetica,sans-Serif" font-size="14.00" fill="white">Full API</text>
<polygon fill="none" stroke="black" points="198,-108.5 198,-129.5 338,-129.5 338,-108.5 198,-108.5"/>
<text text-anchor="start" x="222" y="-116.3" font-family="Helvetica,sans-Serif" font-size="14.00">include </text>
<text text-anchor="start" x="277" y="-116.3" font-family="Helvetica,sans-Serif" font-weight="bold" font-size="14.00">Core</text>
<polygon fill="none" stroke="black" points="198,-87.5 198,-108.5 338,-108.5 338,-87.5 198,-87.5"/>
<text text-anchor="start" x="201" y="-95.3" font-family="Helvetica,sans-Serif" font-size="14.00">include </text>
<text text-anchor="start" x="256" y="-95.3" font-family="Helvetica,sans-Serif" font-weight="bold" font-size="14.00">Operation</text>
<polygon fill="none" stroke="black" points="198,-66.5 198,-87.5 338,-87.5 338,-66.5 198,-66.5"/>
<text text-anchor="start" x="222" y="-74.3" font-family="Helvetica,sans-Serif" font-size="14.00">module </text>
<text text-anchor="start" x="279" y="-74.3" font-family="Helvetica,sans-Serif" font-weight="bold" font-size="14.00">Infix</text>
<polygon fill="none" stroke="black" points="198,-45.5 198,-66.5 338,-66.5 338,-45.5 198,-45.5"/>
<text text-anchor="start" x="212" y="-53.3" font-family="Helvetica,sans-Serif" font-size="14.00">module </text>
<text text-anchor="start" x="269" y="-53.3" font-family="Helvetica,sans-Serif" font-weight="bold" font-size="14.00">Syntax</text>
<polygon fill="none" stroke="black" points="198,-24.5 198,-45.5 338,-45.5 338,-24.5 198,-24.5"/>
<text text-anchor="start" x="223" y="-32.3" font-family="Helvetica,sans-Serif" font-size="14.00">include </text>
<text text-anchor="start" x="278" y="-32.3" font-family="Helvetica,sans-Serif" font-weight="bold" font-size="14.00">Infix</text>
<polygon fill="none" stroke="black" points="198,-3.5 198,-24.5 338,-24.5 338,-3.5 198,-3.5"/>
<text text-anchor="start" x="213" y="-11.3" font-family="Helvetica,sans-Serif" font-size="14.00">include </text>
<text text-anchor="start" x="268" y="-11.3" font-family="Helvetica,sans-Serif" font-weight="bold" font-size="14.00">Syntax</text>
</g>
<!-- Via&#45;&gt;Api -->
<g id="edge15" class="edge">
<title>Via&#45;&gt;Api</title>
<path fill="none" stroke="gray" d="M268,-190.8C268,-183.71 268,-174.91 268,-165.39"/>
<polygon fill="gray" stroke="gray" points="271.5,-165.24 268,-155.24 264.5,-165.24 271.5,-165.24"/>
</g>
<!-- Core&#45;&gt;Operation_f -->
<g id="edge3" class="edge">
<title>Core&#45;&gt;Operation_f</title>
<path fill="none" stroke="gray" d="M263.63,-550.7C258.28,-542.56 251.8,-532.69 245.89,-523.7"/>
<polygon fill="gray" stroke="gray" points="248.66,-521.54 240.24,-515.1 242.81,-525.38 248.66,-521.54"/>
</g>
<!-- Core&#45;&gt;Infix_f -->
<g id="edge5" class="edge">
<title>Core&#45;&gt;Infix_f</title>
<path fill="none" stroke="gray" d="M247,-562.05C220.18,-555.02 180.18,-540.87 155,-515 118.33,-477.34 101.02,-416.49 93.69,-381.38"/>
<polygon fill="gray" stroke="gray" points="97.09,-380.5 91.73,-371.36 90.22,-381.85 97.09,-380.5"/>
</g>
<!-- Core&#45;&gt;Syntax_f -->
<g id="edge8" class="edge">
<title>Core&#45;&gt;Syntax_f</title>
<path fill="none" stroke="gray" d="M285.77,-550.95C291.69,-540.86 298.69,-527.61 303,-515 318.49,-469.65 325.73,-414.06 328.86,-381.48"/>
<polygon fill="gray" stroke="gray" points="332.36,-381.63 329.77,-371.36 325.39,-381.01 332.36,-381.63"/>
</g>
<!-- Core&#45;&gt;Via -->
<g id="edge11" class="edge">
<title>Core&#45;&gt;Via</title>
<path fill="none" stroke="gray" d="M303.28,-560.19C354.19,-544.22 456,-502.68 456,-426 456,-426 456,-426 456,-352 456,-289.97 390.03,-251.6 336.25,-230.63"/>
<polygon fill="gray" stroke="gray" points="337.3,-227.29 326.71,-227.04 334.84,-233.84 337.3,-227.29"/>
</g>
<!-- Operation&#45;&gt;Infix_f -->
<g id="edge7" class="edge">
<title>Operation&#45;&gt;Infix_f</title>
<path fill="none" stroke="gray" d="M179.64,-406.88C163.95,-397.72 144.44,-386.34 127.55,-376.48"/>
<polygon fill="gray" stroke="gray" points="128.87,-373.21 118.47,-371.19 125.34,-379.25 128.87,-373.21"/>
</g>
<!-- Operation&#45;&gt;Syntax_f -->
<g id="edge10" class="edge">
<title>Operation&#45;&gt;Syntax_f</title>
<path fill="none" stroke="gray" d="M238.84,-406.88C254.94,-397.64 275,-386.13 292.29,-376.21"/>
<polygon fill="gray" stroke="gray" points="294.11,-379.2 301.04,-371.19 290.63,-373.13 294.11,-379.2"/>
</g>
<!-- Operation&#45;&gt;Via -->
<g id="edge12" class="edge">
<title>Operation&#45;&gt;Via</title>
<path fill="none" stroke="gray" d="M211.01,-406.75C213.33,-388.69 217.65,-359.58 224,-335 232.95,-300.35 247.27,-261.65 257.13,-236.62"/>
<polygon fill="gray" stroke="gray" points="260.47,-237.69 260.92,-227.1 253.97,-235.09 260.47,-237.69"/>
</g>
<!-- Infix&#45;&gt;Via -->
<g id="edge13" class="edge">
<title>Infix&#45;&gt;Via</title>
<path fill="none" stroke="gray" d="M147.15,-267.16C168.23,-257.19 197.95,-243.13 222.63,-231.46"/>
<polygon fill="gray" stroke="gray" points="224.28,-234.55 231.82,-227.11 221.29,-228.22 224.28,-234.55"/>
</g>
<!-- Syntax&#45;&gt;Via -->
<g id="edge14" class="edge">
<title>Syntax&#45;&gt;Via</title>
<path fill="none" stroke="gray" d="M292.84,-262.7C289.09,-254.73 284.55,-245.1 280.38,-236.26"/>
<polygon fill="gray" stroke="gray" points="283.49,-234.66 276.06,-227.1 277.16,-237.64 283.49,-234.66"/>
</g>
</g>
</svg>
