<?xml version="1.0" encoding="UTF-8" standalone="no"?>
<!DOCTYPE svg PUBLIC "-//W3C//DTD SVG 1.1//EN"
 "http://www.w3.org/Graphics/SVG/1.1/DTD/svg11.dtd">
<!-- Generated by graphviz version 2.43.0 (0)
 -->
<!-- Title: %3 Pages: 1 -->
<svg width="1094pt" height="476pt"
 viewBox="0.00 0.00 1093.50 476.00" xmlns="http://www.w3.org/2000/svg" xmlns:xlink="http://www.w3.org/1999/xlink">
<g id="graph0" class="graph" transform="scale(1 1) rotate(0) translate(4 472)">
<title>%3</title>
<polygon fill="white" stroke="transparent" points="-4,4 -4,-472 1089.5,-472 1089.5,4 -4,4"/>
<!-- Invariant -->
<g id="node1" class="node">
<title>Invariant</title>
<polygon fill="black" stroke="transparent" points="674,-468 595,-468 595,-432 674,-432 674,-468"/>
<text text-anchor="middle" x="634.5" y="-446.3" font-family="Helvetica,sans-Serif" font-size="14.00" fill="white">Invariant</text>
</g>
<!-- Functor -->
<g id="node2" class="node">
<title>Functor</title>
<polygon fill="black" stroke="transparent" points="463,-396 394,-396 394,-360 463,-360 463,-396"/>
<text text-anchor="middle" x="428.5" y="-374.3" font-family="Helvetica,sans-Serif" font-size="14.00" fill="white">Functor</text>
</g>
<!-- Invariant&#45;&#45;Functor -->
<g id="edge1" class="edge">
<title>Invariant&#45;&#45;Functor</title>
<path fill="none" stroke="gray" d="M594.78,-435.5C556.67,-422.55 499.68,-403.19 463.3,-390.83"/>
</g>
<!-- Contravariant -->
<g id="node3" class="node">
<title>Contravariant</title>
<polygon fill="black" stroke="transparent" points="937.5,-396 825.5,-396 825.5,-360 937.5,-360 937.5,-396"/>
<text text-anchor="middle" x="881.5" y="-374.3" font-family="Helvetica,sans-Serif" font-size="14.00" fill="white">Contravariant</text>
</g>
<!-- Invariant&#45;&#45;Contravariant -->
<g id="edge2" class="edge">
<title>Invariant&#45;&#45;Contravariant</title>
<path fill="none" stroke="gray" d="M674.18,-437.75C715.1,-426.16 779.24,-407.98 825.35,-394.91"/>
</g>
<!-- Applicative -->
<g id="node5" class="node">
<title>Applicative</title>
<polygon fill="black" stroke="transparent" points="151,-252 58,-252 58,-216 151,-216 151,-252"/>
<text text-anchor="middle" x="104.5" y="-230.3" font-family="Helvetica,sans-Serif" font-size="14.00" fill="white">Applicative</text>
</g>
<!-- Functor&#45;&#45;Applicative -->
<g id="edge3" class="edge">
<title>Functor&#45;&#45;Applicative</title>
<path fill="none" stroke="gray" d="M393.97,-371.76C356.12,-364.94 294.51,-350.62 247.5,-324 226.97,-312.38 227.86,-301.48 208.5,-288 188.55,-274.1 164.45,-261.59 144.47,-252.21"/>
</g>
<!-- Alt -->
<g id="node10" class="node">
<title>Alt</title>
<polygon fill="black" stroke="transparent" points="199.5,-324 145.5,-324 145.5,-288 199.5,-288 199.5,-324"/>
<text text-anchor="middle" x="172.5" y="-302.3" font-family="Helvetica,sans-Serif" font-size="14.00" fill="white">Alt</text>
</g>
<!-- Functor&#45;&#45;Alt -->
<g id="edge8" class="edge">
<title>Functor&#45;&#45;Alt</title>
<path fill="none" stroke="gray" d="M393.79,-370.14C350.9,-361.27 275.96,-344.52 213.5,-324 208.96,-322.51 204.22,-320.74 199.63,-318.92"/>
</g>
<!-- Comonad -->
<g id="node11" class="node">
<title>Comonad</title>
<polygon fill="black" stroke="transparent" points="470,-324 387,-324 387,-288 470,-288 470,-324"/>
<text text-anchor="middle" x="428.5" y="-302.3" font-family="Helvetica,sans-Serif" font-size="14.00" fill="white">Comonad</text>
</g>
<!-- Functor&#45;&#45;Comonad -->
<g id="edge9" class="edge">
<title>Functor&#45;&#45;Comonad</title>
<path fill="none" stroke="gray" d="M428.5,-359.7C428.5,-348.85 428.5,-334.92 428.5,-324.1"/>
</g>
<!-- Free_selective -->
<g id="node15" class="node">
<title>Free_selective</title>
<polygon fill="black" stroke="transparent" points="369,-324 256,-324 256,-288 369,-288 369,-324"/>
<text text-anchor="middle" x="312.5" y="-302.3" font-family="Helvetica,sans-Serif" font-size="14.00" fill="white">Free_selective</text>
</g>
<!-- Functor&#45;&#45;Free_selective -->
<g id="edge16" class="edge">
<title>Functor&#45;&#45;Free_selective</title>
<path fill="none" stroke="gray" stroke-dasharray="1,5" d="M400.12,-359.88C382.15,-349.03 358.98,-335.05 340.99,-324.19"/>
</g>
<!-- Free_applicative -->
<g id="node16" class="node">
<title>Free_applicative</title>
<polygon fill="black" stroke="transparent" points="127,-324 0,-324 0,-288 127,-288 127,-324"/>
<text text-anchor="middle" x="63.5" y="-302.3" font-family="Helvetica,sans-Serif" font-size="14.00" fill="white">Free_applicative</text>
</g>
<!-- Functor&#45;&#45;Free_applicative -->
<g id="edge17" class="edge">
<title>Functor&#45;&#45;Free_applicative</title>
<path fill="none" stroke="gray" stroke-dasharray="1,5" d="M393.78,-371.27C338.97,-362.09 229.08,-343.17 136.5,-324 133.44,-323.37 130.32,-322.7 127.16,-322.02"/>
</g>
<!-- Free_monad -->
<g id="node17" class="node">
<title>Free_monad</title>
<polygon fill="black" stroke="transparent" points="531.5,-180 431.5,-180 431.5,-144 531.5,-144 531.5,-180"/>
<text text-anchor="middle" x="481.5" y="-158.3" font-family="Helvetica,sans-Serif" font-size="14.00" fill="white">Free_monad</text>
</g>
<!-- Functor&#45;&#45;Free_monad -->
<g id="edge18" class="edge">
<title>Functor&#45;&#45;Free_monad</title>
<path fill="none" stroke="gray" stroke-dasharray="1,5" d="M457.43,-359.92C489.54,-339.09 539.61,-300.56 560.5,-252 566.82,-237.3 568.03,-230.12 560.5,-216 552.18,-200.41 537.02,-188.59 522.18,-180.12"/>
</g>
<!-- Profunctor -->
<g id="node20" class="node">
<title>Profunctor</title>
<polygon fill="black" stroke="transparent" points="926,-324 837,-324 837,-288 926,-288 926,-324"/>
<text text-anchor="middle" x="881.5" y="-302.3" font-family="Helvetica,sans-Serif" font-size="14.00" fill="white">Profunctor</text>
</g>
<!-- Functor&#45;&#45;Profunctor -->
<g id="edge26" class="edge">
<title>Functor&#45;&#45;Profunctor</title>
<path fill="none" stroke="gray" d="M463.11,-374.51C532.9,-369.03 695.22,-353.95 828.5,-324 831.23,-323.39 834.03,-322.69 836.84,-321.95"/>
</g>
<!-- Bifunctor -->
<g id="node21" class="node">
<title>Bifunctor</title>
<polygon fill="black" stroke="transparent" points="687.5,-324 607.5,-324 607.5,-288 687.5,-288 687.5,-324"/>
<text text-anchor="middle" x="647.5" y="-302.3" font-family="Helvetica,sans-Serif" font-size="14.00" fill="white">Bifunctor</text>
</g>
<!-- Functor&#45;&#45;Bifunctor -->
<g id="edge27" class="edge">
<title>Functor&#45;&#45;Bifunctor</title>
<path fill="none" stroke="gray" d="M463.2,-365.91C502.4,-353.38 566.09,-333.02 607.39,-319.82"/>
</g>
<!-- Divisible -->
<g id="node4" class="node">
<title>Divisible</title>
<polygon fill="black" stroke="transparent" points="1019,-324 944,-324 944,-288 1019,-288 1019,-324"/>
<text text-anchor="middle" x="981.5" y="-302.3" font-family="Helvetica,sans-Serif" font-size="14.00" fill="white">Divisible</text>
</g>
<!-- Contravariant&#45;&#45;Divisible -->
<g id="edge24" class="edge">
<title>Contravariant&#45;&#45;Divisible</title>
<path fill="none" stroke="gray" d="M905.96,-359.88C921.46,-349.03 941.43,-335.05 956.94,-324.19"/>
</g>
<!-- Contravariant&#45;&#45;Profunctor -->
<g id="edge25" class="edge">
<title>Contravariant&#45;&#45;Profunctor</title>
<path fill="none" stroke="gray" d="M881.5,-359.7C881.5,-348.85 881.5,-334.92 881.5,-324.1"/>
</g>
<!-- Selective -->
<g id="node6" class="node">
<title>Selective</title>
<polygon fill="black" stroke="transparent" points="289,-180 210,-180 210,-144 289,-144 289,-180"/>
<text text-anchor="middle" x="249.5" y="-158.3" font-family="Helvetica,sans-Serif" font-size="14.00" fill="white">Selective</text>
</g>
<!-- Applicative&#45;&#45;Selective -->
<g id="edge4" class="edge">
<title>Applicative&#45;&#45;Selective</title>
<path fill="none" stroke="gray" d="M139.97,-215.88C162.52,-204.99 191.61,-190.95 214.14,-180.07"/>
</g>
<!-- Alternative -->
<g id="node8" class="node">
<title>Alternative</title>
<polygon fill="black" stroke="transparent" points="150.5,-180 58.5,-180 58.5,-144 150.5,-144 150.5,-180"/>
<text text-anchor="middle" x="104.5" y="-158.3" font-family="Helvetica,sans-Serif" font-size="14.00" fill="white">Alternative</text>
</g>
<!-- Applicative&#45;&#45;Alternative -->
<g id="edge6" class="edge">
<title>Applicative&#45;&#45;Alternative</title>
<path fill="none" stroke="gray" d="M104.5,-215.7C104.5,-204.85 104.5,-190.92 104.5,-180.1"/>
</g>
<!-- Traversable -->
<g id="node28" class="node">
<title>Traversable</title>
<polygon fill="black" stroke="transparent" points="229,-36 132,-36 132,0 229,0 229,-36"/>
<text text-anchor="middle" x="180.5" y="-14.3" font-family="Helvetica,sans-Serif" font-size="14.00" fill="white">Traversable</text>
</g>
<!-- Applicative&#45;&#45;Traversable -->
<g id="edge34" class="edge">
<title>Applicative&#45;&#45;Traversable</title>
<path fill="none" stroke="gray" d="M128.79,-215.82C140.01,-206.53 152.4,-194.09 159.5,-180 183.6,-132.17 183.5,-66.65 181.84,-36.05"/>
</g>
<!-- Monad -->
<g id="node7" class="node">
<title>Monad</title>
<polygon fill="black" stroke="transparent" points="391,-108 328,-108 328,-72 391,-72 391,-108"/>
<text text-anchor="middle" x="359.5" y="-86.3" font-family="Helvetica,sans-Serif" font-size="14.00" fill="white">Monad</text>
</g>
<!-- Selective&#45;&#45;Monad -->
<g id="edge5" class="edge">
<title>Selective&#45;&#45;Monad</title>
<path fill="none" stroke="gray" d="M276.41,-143.88C293.45,-133.03 315.42,-119.05 332.49,-108.19"/>
</g>
<!-- Monad_plus -->
<g id="node9" class="node">
<title>Monad_plus</title>
<polygon fill="black" stroke="transparent" points="506,-36 407,-36 407,0 506,0 506,-36"/>
<text text-anchor="middle" x="456.5" y="-14.3" font-family="Helvetica,sans-Serif" font-size="14.00" fill="white">Monad_plus</text>
</g>
<!-- Monad&#45;&#45;Monad_plus -->
<g id="edge7" class="edge">
<title>Monad&#45;&#45;Monad_plus</title>
<path fill="none" stroke="gray" d="M383.48,-71.7C398.51,-60.85 417.82,-46.92 432.8,-36.1"/>
</g>
<!-- State -->
<g id="node22" class="node">
<title>State</title>
<polygon fill="black" stroke="transparent" points="578.5,-36 524.5,-36 524.5,0 578.5,0 578.5,-36"/>
<text text-anchor="middle" x="551.5" y="-14.3" font-family="Helvetica,sans-Serif" font-size="14.00" fill="white">State</text>
</g>
<!-- Monad&#45;&#45;State -->
<g id="edge28" class="edge">
<title>Monad&#45;&#45;State</title>
<path fill="none" stroke="gray" d="M391.26,-79.38C423.06,-69.47 473.21,-53.11 515.5,-36 518.32,-34.86 521.23,-33.61 524.13,-32.32"/>
</g>
<!-- Reader -->
<g id="node23" class="node">
<title>Reader</title>
<polygon fill="black" stroke="transparent" points="312,-36 247,-36 247,0 312,0 312,-36"/>
<text text-anchor="middle" x="279.5" y="-14.3" font-family="Helvetica,sans-Serif" font-size="14.00" fill="white">Reader</text>
</g>
<!-- Monad&#45;&#45;Reader -->
<g id="edge29" class="edge">
<title>Monad&#45;&#45;Reader</title>
<path fill="none" stroke="gray" d="M339.72,-71.7C327.32,-60.85 311.4,-46.92 299.05,-36.1"/>
</g>
<!-- Writer -->
<g id="node24" class="node">
<title>Writer</title>
<polygon fill="black" stroke="transparent" points="389,-36 330,-36 330,0 389,0 389,-36"/>
<text text-anchor="middle" x="359.5" y="-14.3" font-family="Helvetica,sans-Serif" font-size="14.00" fill="white">Writer</text>
</g>
<!-- Monad&#45;&#45;Writer -->
<g id="edge30" class="edge">
<title>Monad&#45;&#45;Writer</title>
<path fill="none" stroke="gray" d="M359.5,-71.7C359.5,-60.85 359.5,-46.92 359.5,-36.1"/>
</g>
<!-- Monad&#45;&#45;Traversable -->
<g id="edge35" class="edge">
<title>Monad&#45;&#45;Traversable</title>
<path fill="none" stroke="gray" d="M327.91,-76.65C299.11,-65.38 256.28,-48.63 224.19,-36.09"/>
</g>
<!-- Store -->
<g id="node25" class="node">
<title>Store</title>
<polygon fill="black" stroke="transparent" points="413.5,-252 359.5,-252 359.5,-216 413.5,-216 413.5,-252"/>
<text text-anchor="middle" x="386.5" y="-230.3" font-family="Helvetica,sans-Serif" font-size="14.00" fill="white">Store</text>
</g>
<!-- Comonad&#45;&#45;Store -->
<g id="edge31" class="edge">
<title>Comonad&#45;&#45;Store</title>
<path fill="none" stroke="gray" d="M418.12,-287.7C411.61,-276.85 403.25,-262.92 396.76,-252.1"/>
</g>
<!-- Env -->
<g id="node26" class="node">
<title>Env</title>
<polygon fill="black" stroke="transparent" points="261.5,-252 207.5,-252 207.5,-216 261.5,-216 261.5,-252"/>
<text text-anchor="middle" x="234.5" y="-230.3" font-family="Helvetica,sans-Serif" font-size="14.00" fill="white">Env</text>
</g>
<!-- Comonad&#45;&#45;Env -->
<g id="edge32" class="edge">
<title>Comonad&#45;&#45;Env</title>
<path fill="none" stroke="gray" d="M386.76,-290.79C383.97,-289.84 381.19,-288.91 378.5,-288 330.55,-271.86 317.46,-270.84 270.5,-252 267.68,-250.87 264.76,-249.62 261.87,-248.34"/>
</g>
<!-- Traced -->
<g id="node27" class="node">
<title>Traced</title>
<polygon fill="black" stroke="transparent" points="341.5,-252 279.5,-252 279.5,-216 341.5,-216 341.5,-252"/>
<text text-anchor="middle" x="310.5" y="-230.3" font-family="Helvetica,sans-Serif" font-size="14.00" fill="white">Traced</text>
</g>
<!-- Comonad&#45;&#45;Traced -->
<g id="edge33" class="edge">
<title>Comonad&#45;&#45;Traced</title>
<path fill="none" stroke="gray" d="M399.63,-287.88C381.35,-277.03 357.78,-263.05 339.48,-252.19"/>
</g>
<!-- Semigroup -->
<g id="node12" class="node">
<title>Semigroup</title>
<polygon fill="black" stroke="transparent" points="699.5,-252 607.5,-252 607.5,-216 699.5,-216 699.5,-252"/>
<text text-anchor="middle" x="653.5" y="-230.3" font-family="Helvetica,sans-Serif" font-size="14.00" fill="white">Semigroup</text>
</g>
<!-- Semigroup&#45;&#45;Alt -->
<g id="edge13" class="edge">
<title>Semigroup&#45;&#45;Alt</title>
<path fill="none" stroke="gray" stroke-dasharray="1,5" d="M607.24,-244.08C592.35,-246.84 575.76,-249.73 560.5,-252 422,-272.6 385.54,-264.49 247.5,-288 231.57,-290.71 213.95,-294.66 199.79,-298.07"/>
</g>
<!-- Monoid -->
<g id="node13" class="node">
<title>Monoid</title>
<polygon fill="black" stroke="transparent" points="618,-180 551,-180 551,-144 618,-144 618,-180"/>
<text text-anchor="middle" x="584.5" y="-158.3" font-family="Helvetica,sans-Serif" font-size="14.00" fill="white">Monoid</text>
</g>
<!-- Semigroup&#45;&#45;Monoid -->
<g id="edge10" class="edge">
<title>Semigroup&#45;&#45;Monoid</title>
<path fill="none" stroke="gray" d="M636.44,-215.7C625.75,-204.85 612.02,-190.92 601.36,-180.1"/>
</g>
<!-- Semigroupoid -->
<g id="node29" class="node">
<title>Semigroupoid</title>
<polygon fill="black" stroke="transparent" points="819,-324 706,-324 706,-288 819,-288 819,-324"/>
<text text-anchor="middle" x="762.5" y="-302.3" font-family="Helvetica,sans-Serif" font-size="14.00" fill="white">Semigroupoid</text>
</g>
<!-- Semigroup&#45;&#45;Semigroupoid -->
<g id="edge36" class="edge">
<title>Semigroup&#45;&#45;Semigroupoid</title>
<path fill="none" stroke="gray" stroke-dasharray="1,5" d="M680.27,-252.19C697.18,-263.05 718.94,-277.03 735.84,-287.88"/>
</g>
<!-- Arrow_alt -->
<g id="node36" class="node">
<title>Arrow_alt</title>
<polygon fill="black" stroke="transparent" points="692.5,-108 612.5,-108 612.5,-72 692.5,-72 692.5,-108"/>
<text text-anchor="middle" x="652.5" y="-86.3" font-family="Helvetica,sans-Serif" font-size="14.00" fill="white">Arrow_alt</text>
</g>
<!-- Semigroup&#45;&#45;Arrow_alt -->
<g id="edge52" class="edge">
<title>Semigroup&#45;&#45;Arrow_alt</title>
<path fill="none" stroke="gray" stroke-dasharray="1,5" d="M653.38,-215.87C653.19,-188.58 652.81,-135.52 652.62,-108.19"/>
</g>
<!-- Monoid&#45;&#45;Monad -->
<g id="edge14" class="edge">
<title>Monoid&#45;&#45;Monad</title>
<path fill="none" stroke="gray" stroke-dasharray="1,5" d="M550.97,-147.71C547.45,-146.42 543.91,-145.16 540.5,-144 488.71,-126.45 427.47,-109.24 391.14,-99.4"/>
</g>
<!-- Monoid&#45;&#45;Alternative -->
<g id="edge11" class="edge">
<title>Monoid&#45;&#45;Alternative</title>
<path fill="none" stroke="gray" stroke-dasharray="1,5" d="M564.11,-180.07C554.83,-187.12 543.3,-194.37 531.5,-198 463.32,-218.97 280.88,-209.63 210.5,-198 189.12,-194.47 166.26,-187.18 147.26,-180.09"/>
</g>
<!-- Monoid&#45;&#45;Monad_plus -->
<g id="edge12" class="edge">
<title>Monoid&#45;&#45;Monad_plus</title>
<path fill="none" stroke="gray" stroke-dasharray="1,5" d="M550.62,-147.11C547.23,-145.96 543.82,-144.9 540.5,-144 492.48,-130.96 351.73,-145.91 319.5,-108 309.14,-95.81 310.45,-85.2 319.5,-72 324.83,-64.22 369.79,-47.72 406.77,-35.18"/>
</g>
<!-- Foldable -->
<g id="node14" class="node">
<title>Foldable</title>
<polygon fill="black" stroke="transparent" points="556.5,-108 482.5,-108 482.5,-72 556.5,-72 556.5,-108"/>
<text text-anchor="middle" x="519.5" y="-86.3" font-family="Helvetica,sans-Serif" font-size="14.00" fill="white">Foldable</text>
</g>
<!-- Monoid&#45;&#45;Foldable -->
<g id="edge15" class="edge">
<title>Monoid&#45;&#45;Foldable</title>
<path fill="none" stroke="gray" d="M568.43,-143.7C558.36,-132.85 545.42,-118.92 535.38,-108.1"/>
</g>
<!-- Category -->
<g id="node30" class="node">
<title>Category</title>
<polygon fill="black" stroke="transparent" points="802.5,-252 722.5,-252 722.5,-216 802.5,-216 802.5,-252"/>
<text text-anchor="middle" x="762.5" y="-230.3" font-family="Helvetica,sans-Serif" font-size="14.00" fill="white">Category</text>
</g>
<!-- Monoid&#45;&#45;Category -->
<g id="edge37" class="edge">
<title>Monoid&#45;&#45;Category</title>
<path fill="none" stroke="gray" stroke-dasharray="1,5" d="M618.16,-176.24C647.7,-187.85 690.72,-204.77 722.11,-217.12"/>
</g>
<!-- Arrow_plus -->
<g id="node37" class="node">
<title>Arrow_plus</title>
<polygon fill="black" stroke="transparent" points="854.5,-36 762.5,-36 762.5,0 854.5,0 854.5,-36"/>
<text text-anchor="middle" x="808.5" y="-14.3" font-family="Helvetica,sans-Serif" font-size="14.00" fill="white">Arrow_plus</text>
</g>
<!-- Monoid&#45;&#45;Arrow_plus -->
<g id="edge51" class="edge">
<title>Monoid&#45;&#45;Arrow_plus</title>
<path fill="none" stroke="gray" stroke-dasharray="1,5" d="M583.19,-143.83C582.66,-123.89 585.03,-91.28 603.5,-72 625.18,-49.37 708.92,-33.38 762.43,-25.21"/>
</g>
<!-- Free_selective&#45;&#45;Selective -->
<g id="edge19" class="edge">
<title>Free_selective&#45;&#45;Selective</title>
<path fill="none" stroke="gray" d="M255.86,-292.59C234.07,-284.76 211.35,-272.15 198.5,-252 189.9,-238.51 192.52,-230.84 198.5,-216 204.18,-201.91 215.6,-189.46 226.2,-180.18"/>
</g>
<!-- Free_applicative&#45;&#45;Applicative -->
<g id="edge21" class="edge">
<title>Free_applicative&#45;&#45;Applicative</title>
<path fill="none" stroke="gray" d="M73.63,-287.7C79.99,-276.85 88.15,-262.92 94.48,-252.1"/>
</g>
<!-- Free_monad&#45;&#45;Monad -->
<g id="edge22" class="edge">
<title>Free_monad&#45;&#45;Monad</title>
<path fill="none" stroke="gray" d="M451.66,-143.88C432.75,-133.03 408.39,-119.05 389.46,-108.19"/>
</g>
<!-- Freer_selective -->
<g id="node18" class="node">
<title>Freer_selective</title>
<polygon fill="black" stroke="transparent" points="551,-252 432,-252 432,-216 551,-216 551,-252"/>
<text text-anchor="middle" x="491.5" y="-230.3" font-family="Helvetica,sans-Serif" font-size="14.00" fill="white">Freer_selective</text>
</g>
<!-- Freer_selective&#45;&#45;Selective -->
<g id="edge20" class="edge">
<title>Freer_selective&#45;&#45;Selective</title>
<path fill="none" stroke="gray" d="M431.73,-217.89C393.21,-207.85 342.15,-193.98 297.5,-180 294.8,-179.15 292.03,-178.25 289.24,-177.33"/>
</g>
<!-- Freer_monad -->
<g id="node19" class="node">
<title>Freer_monad</title>
<polygon fill="black" stroke="transparent" points="412.5,-180 306.5,-180 306.5,-144 412.5,-144 412.5,-180"/>
<text text-anchor="middle" x="359.5" y="-158.3" font-family="Helvetica,sans-Serif" font-size="14.00" fill="white">Freer_monad</text>
</g>
<!-- Freer_monad&#45;&#45;Monad -->
<g id="edge23" class="edge">
<title>Freer_monad&#45;&#45;Monad</title>
<path fill="none" stroke="gray" d="M359.5,-143.7C359.5,-132.85 359.5,-118.92 359.5,-108.1"/>
</g>
<!-- Strong -->
<g id="node32" class="node">
<title>Strong</title>
<polygon fill="black" stroke="transparent" points="882.5,-252 820.5,-252 820.5,-216 882.5,-216 882.5,-252"/>
<text text-anchor="middle" x="851.5" y="-230.3" font-family="Helvetica,sans-Serif" font-size="14.00" fill="white">Strong</text>
</g>
<!-- Profunctor&#45;&#45;Strong -->
<g id="edge40" class="edge">
<title>Profunctor&#45;&#45;Strong</title>
<path fill="none" stroke="gray" d="M874.08,-287.7C869.43,-276.85 863.46,-262.92 858.83,-252.1"/>
</g>
<!-- Choice -->
<g id="node33" class="node">
<title>Choice</title>
<polygon fill="black" stroke="transparent" points="964,-252 901,-252 901,-216 964,-216 964,-252"/>
<text text-anchor="middle" x="932.5" y="-230.3" font-family="Helvetica,sans-Serif" font-size="14.00" fill="white">Choice</text>
</g>
<!-- Profunctor&#45;&#45;Choice -->
<g id="edge41" class="edge">
<title>Profunctor&#45;&#45;Choice</title>
<path fill="none" stroke="gray" d="M894.11,-287.7C902.01,-276.85 912.16,-262.92 920.04,-252.1"/>
</g>
<!-- Closed -->
<g id="node34" class="node">
<title>Closed</title>
<polygon fill="black" stroke="transparent" points="1045,-252 982,-252 982,-216 1045,-216 1045,-252"/>
<text text-anchor="middle" x="1013.5" y="-230.3" font-family="Helvetica,sans-Serif" font-size="14.00" fill="white">Closed</text>
</g>
<!-- Profunctor&#45;&#45;Closed -->
<g id="edge42" class="edge">
<title>Profunctor&#45;&#45;Closed</title>
<path fill="none" stroke="gray" d="M913.79,-287.88C934.55,-276.87 961.39,-262.63 982,-251.71"/>
</g>
<!-- Semigroupoid&#45;&#45;Category -->
<g id="edge38" class="edge">
<title>Semigroupoid&#45;&#45;Category</title>
<path fill="none" stroke="gray" d="M762.5,-287.7C762.5,-276.85 762.5,-262.92 762.5,-252.1"/>
</g>
<!-- Arrow -->
<g id="node31" class="node">
<title>Arrow</title>
<polygon fill="black" stroke="transparent" points="879.5,-180 823.5,-180 823.5,-144 879.5,-144 879.5,-180"/>
<text text-anchor="middle" x="851.5" y="-158.3" font-family="Helvetica,sans-Serif" font-size="14.00" fill="white">Arrow</text>
</g>
<!-- Category&#45;&#45;Arrow -->
<g id="edge39" class="edge">
<title>Category&#45;&#45;Arrow</title>
<path fill="none" stroke="gray" d="M784.5,-215.7C798.3,-204.85 816.01,-190.92 829.75,-180.1"/>
</g>
<!-- Arrow_zero -->
<g id="node35" class="node">
<title>Arrow_zero</title>
<polygon fill="black" stroke="transparent" points="1085.5,-108 993.5,-108 993.5,-72 1085.5,-72 1085.5,-108"/>
<text text-anchor="middle" x="1039.5" y="-86.3" font-family="Helvetica,sans-Serif" font-size="14.00" fill="white">Arrow_zero</text>
</g>
<!-- Arrow&#45;&#45;Arrow_zero -->
<g id="edge44" class="edge">
<title>Arrow&#45;&#45;Arrow_zero</title>
<path fill="none" stroke="gray" d="M879.65,-150.52C909.76,-139.31 958,-121.35 993.62,-108.08"/>
</g>
<!-- Arrow&#45;&#45;Arrow_alt -->
<g id="edge45" class="edge">
<title>Arrow&#45;&#45;Arrow_alt</title>
<path fill="none" stroke="gray" d="M823.41,-151.12C789.34,-139.13 731.66,-118.85 692.84,-105.19"/>
</g>
<!-- Arrow&#45;&#45;Arrow_plus -->
<g id="edge46" class="edge">
<title>Arrow&#45;&#45;Arrow_plus</title>
<path fill="none" stroke="gray" d="M879.95,-153.68C902.41,-146.24 932.25,-132.27 946.5,-108 954.6,-94.2 955.56,-85.19 946.5,-72 926.01,-42.18 886.22,-29.13 854.62,-23.42"/>
</g>
<!-- Arrow_choice -->
<g id="node38" class="node">
<title>Arrow_choice</title>
<polygon fill="black" stroke="transparent" points="818,-108 711,-108 711,-72 818,-72 818,-108"/>
<text text-anchor="middle" x="764.5" y="-86.3" font-family="Helvetica,sans-Serif" font-size="14.00" fill="white">Arrow_choice</text>
</g>
<!-- Arrow&#45;&#45;Arrow_choice -->
<g id="edge47" class="edge">
<title>Arrow&#45;&#45;Arrow_choice</title>
<path fill="none" stroke="gray" d="M829.99,-143.7C816.51,-132.85 799.2,-118.92 785.76,-108.1"/>
</g>
<!-- Arrow_apply -->
<g id="node39" class="node">
<title>Arrow_apply</title>
<polygon fill="black" stroke="transparent" points="937,-108 836,-108 836,-72 937,-72 937,-108"/>
<text text-anchor="middle" x="886.5" y="-86.3" font-family="Helvetica,sans-Serif" font-size="14.00" fill="white">Arrow_apply</text>
</g>
<!-- Arrow&#45;&#45;Arrow_apply -->
<g id="edge48" class="edge">
<title>Arrow&#45;&#45;Arrow_apply</title>
<path fill="none" stroke="gray" d="M860.15,-143.7C865.58,-132.85 872.54,-118.92 877.95,-108.1"/>
</g>
<!-- Strong&#45;&#45;Arrow -->
<g id="edge43" class="edge">
<title>Strong&#45;&#45;Arrow</title>
<path fill="none" stroke="gray" d="M851.5,-215.7C851.5,-204.85 851.5,-190.92 851.5,-180.1"/>
</g>
<!-- Arrow_zero&#45;&#45;Arrow_plus -->
<g id="edge49" class="edge">
<title>Arrow_zero&#45;&#45;Arrow_plus</title>
<path fill="none" stroke="gray" stroke-dasharray="1,5" d="M993.31,-75C953.02,-62.79 894.88,-45.17 854.61,-32.97"/>
</g>
<!-- Arrow_alt&#45;&#45;Arrow_plus -->
<g id="edge50" class="edge">
<title>Arrow_alt&#45;&#45;Arrow_plus</title>
<path fill="none" stroke="gray" stroke-dasharray="1,5" d="M690.66,-71.88C714.93,-60.99 746.22,-46.95 770.46,-36.07"/>
</g>
</g>
</svg>
