<?xml version="1.0" encoding="UTF-8" standalone="no"?>
<!DOCTYPE svg PUBLIC "-//W3C//DTD SVG 1.1//EN"
 "http://www.w3.org/Graphics/SVG/1.1/DTD/svg11.dtd">
<!-- Generated by graphviz version 2.43.0 (0)
 -->
<!-- Title: %3 Pages: 1 -->
<svg width="2679pt" height="476pt"
 viewBox="0.00 0.00 2679.43 476.00" xmlns="http://www.w3.org/2000/svg" xmlns:xlink="http://www.w3.org/1999/xlink">
<g id="graph0" class="graph" transform="scale(1 1) rotate(0) translate(4 472)">
<title>%3</title>
<polygon fill="white" stroke="transparent" points="-4,4 -4,-472 2675.43,-472 2675.43,4 -4,4"/>
<!-- Invariant -->
<g id="node1" class="node">
<title>Invariant</title>
<polygon fill="black" stroke="transparent" points="823.93,-468 744.93,-468 744.93,-432 823.93,-432 823.93,-468"/>
<text text-anchor="middle" x="784.43" y="-446.3" font-family="Helvetica,sans-Serif" font-size="14.00" fill="white">Invariant</text>
</g>
<!-- Functor -->
<g id="node2" class="node">
<title>Functor</title>
<polygon fill="black" stroke="transparent" points="493.93,-396 424.93,-396 424.93,-360 493.93,-360 493.93,-396"/>
<text text-anchor="middle" x="459.43" y="-374.3" font-family="Helvetica,sans-Serif" font-size="14.00" fill="white">Functor</text>
</g>
<!-- Invariant&#45;&#45;Functor -->
<g id="edge1" class="edge">
<title>Invariant&#45;&#45;Functor</title>
<path fill="none" stroke="gray" d="M744.9,-440.49C680.79,-426.68 555.17,-399.62 494.23,-386.5"/>
</g>
<!-- Contravariant -->
<g id="node3" class="node">
<title>Contravariant</title>
<polygon fill="black" stroke="transparent" points="1124.43,-396 1012.43,-396 1012.43,-360 1124.43,-360 1124.43,-396"/>
<text text-anchor="middle" x="1068.43" y="-374.3" font-family="Helvetica,sans-Serif" font-size="14.00" fill="white">Contravariant</text>
</g>
<!-- Invariant&#45;&#45;Contravariant -->
<g id="edge2" class="edge">
<title>Invariant&#45;&#45;Contravariant</title>
<path fill="none" stroke="gray" d="M824.22,-439.19C873.22,-427.11 956.77,-406.52 1012.29,-392.84"/>
</g>
<!-- Applicative -->
<g id="node6" class="node">
<title>Applicative</title>
<polygon fill="black" stroke="transparent" points="311.93,-252 218.93,-252 218.93,-216 311.93,-216 311.93,-252"/>
<text text-anchor="middle" x="265.43" y="-230.3" font-family="Helvetica,sans-Serif" font-size="14.00" fill="white">Applicative</text>
</g>
<!-- Functor&#45;&#45;Applicative -->
<g id="edge3" class="edge">
<title>Functor&#45;&#45;Applicative</title>
<path fill="none" stroke="gray" d="M424.68,-375.49C324.36,-370.76 39.74,-354.74 12.43,-324 -47.88,-256.12 130.49,-240.01 218.91,-236.19"/>
</g>
<!-- Apply -->
<g id="node9" class="node">
<title>Apply</title>
<polygon fill="black" stroke="transparent" points="77.43,-324 21.43,-324 21.43,-288 77.43,-288 77.43,-324"/>
<text text-anchor="middle" x="49.43" y="-302.3" font-family="Helvetica,sans-Serif" font-size="14.00" fill="white">Apply</text>
</g>
<!-- Functor&#45;&#45;Apply -->
<g id="edge6" class="edge">
<title>Functor&#45;&#45;Apply</title>
<path fill="none" stroke="gray" stroke-dasharray="1,5" d="M424.88,-374.82C359.02,-370.04 211.39,-356.4 91.43,-324 86.87,-322.77 82.15,-321.18 77.58,-319.47"/>
</g>
<!-- Bind -->
<g id="node10" class="node">
<title>Bind</title>
<polygon fill="black" stroke="transparent" points="391.43,-180 337.43,-180 337.43,-144 391.43,-144 391.43,-180"/>
<text text-anchor="middle" x="364.43" y="-158.3" font-family="Helvetica,sans-Serif" font-size="14.00" fill="white">Bind</text>
</g>
<!-- Functor&#45;&#45;Bind -->
<g id="edge9" class="edge">
<title>Functor&#45;&#45;Bind</title>
<path fill="none" stroke="gray" stroke-dasharray="1,5" d="M424.72,-376.94C347,-375.99 162.82,-368.94 124.43,-324 114.04,-311.83 114.19,-300.29 124.43,-288 181.12,-219.95 249.74,-305.36 320.43,-252 343.95,-234.24 355.68,-200.5 360.88,-180.05"/>
</g>
<!-- Alt -->
<g id="node13" class="node">
<title>Alt</title>
<polygon fill="black" stroke="transparent" points="431.43,-324 377.43,-324 377.43,-288 431.43,-288 431.43,-324"/>
<text text-anchor="middle" x="404.43" y="-302.3" font-family="Helvetica,sans-Serif" font-size="14.00" fill="white">Alt</text>
</g>
<!-- Functor&#45;&#45;Alt -->
<g id="edge12" class="edge">
<title>Functor&#45;&#45;Alt</title>
<path fill="none" stroke="gray" d="M445.83,-359.7C437.31,-348.85 426.36,-334.92 417.87,-324.1"/>
</g>
<!-- Comonad -->
<g id="node14" class="node">
<title>Comonad</title>
<polygon fill="black" stroke="transparent" points="767.93,-324 684.93,-324 684.93,-288 767.93,-288 767.93,-324"/>
<text text-anchor="middle" x="726.43" y="-302.3" font-family="Helvetica,sans-Serif" font-size="14.00" fill="white">Comonad</text>
</g>
<!-- Functor&#45;&#45;Comonad -->
<g id="edge13" class="edge">
<title>Functor&#45;&#45;Comonad</title>
<path fill="none" stroke="gray" d="M494.06,-367.92C543.02,-355.08 632.35,-331.66 684.84,-317.9"/>
</g>
<!-- Indexed_functor -->
<g id="node15" class="node">
<title>Indexed_functor</title>
<polygon fill="black" stroke="transparent" points="1772.93,-468 1643.93,-468 1643.93,-432 1772.93,-432 1772.93,-468"/>
<text text-anchor="middle" x="1708.43" y="-446.3" font-family="Helvetica,sans-Serif" font-size="14.00" fill="white">Indexed_functor</text>
</g>
<!-- Functor&#45;&#45;Indexed_functor -->
<g id="edge14" class="edge">
<title>Functor&#45;&#45;Indexed_functor</title>
<path fill="none" stroke="gray" stroke-dasharray="1,5" d="M493.98,-380.94C664.53,-390.5 1417.62,-432.7 1643.91,-445.38"/>
</g>
<!-- Free_selective -->
<g id="node29" class="node">
<title>Free_selective</title>
<polygon fill="black" stroke="transparent" points="600.93,-324 487.93,-324 487.93,-288 600.93,-288 600.93,-324"/>
<text text-anchor="middle" x="544.43" y="-302.3" font-family="Helvetica,sans-Serif" font-size="14.00" fill="white">Free_selective</text>
</g>
<!-- Functor&#45;&#45;Free_selective -->
<g id="edge42" class="edge">
<title>Functor&#45;&#45;Free_selective</title>
<path fill="none" stroke="gray" stroke-dasharray="1,5" d="M480.44,-359.7C493.62,-348.85 510.53,-334.92 523.66,-324.1"/>
</g>
<!-- Free_applicative -->
<g id="node30" class="node">
<title>Free_applicative</title>
<polygon fill="black" stroke="transparent" points="358.93,-324 231.93,-324 231.93,-288 358.93,-288 358.93,-324"/>
<text text-anchor="middle" x="295.43" y="-302.3" font-family="Helvetica,sans-Serif" font-size="14.00" fill="white">Free_applicative</text>
</g>
<!-- Functor&#45;&#45;Free_applicative -->
<g id="edge43" class="edge">
<title>Functor&#45;&#45;Free_applicative</title>
<path fill="none" stroke="gray" stroke-dasharray="1,5" d="M424.65,-362.15C398.51,-351 362.66,-335.7 335.35,-324.04"/>
</g>
<!-- Free_monad -->
<g id="node31" class="node">
<title>Free_monad</title>
<polygon fill="black" stroke="transparent" points="509.43,-180 409.43,-180 409.43,-144 509.43,-144 509.43,-180"/>
<text text-anchor="middle" x="459.43" y="-158.3" font-family="Helvetica,sans-Serif" font-size="14.00" fill="white">Free_monad</text>
</g>
<!-- Functor&#45;&#45;Free_monad -->
<g id="edge44" class="edge">
<title>Functor&#45;&#45;Free_monad</title>
<path fill="none" stroke="gray" stroke-dasharray="1,5" d="M459.43,-359.85C459.43,-319.78 459.43,-220.38 459.43,-180.23"/>
</g>
<!-- Profunctor -->
<g id="node34" class="node">
<title>Profunctor</title>
<polygon fill="black" stroke="transparent" points="1112.93,-324 1023.93,-324 1023.93,-288 1112.93,-288 1112.93,-324"/>
<text text-anchor="middle" x="1068.43" y="-302.3" font-family="Helvetica,sans-Serif" font-size="14.00" fill="white">Profunctor</text>
</g>
<!-- Functor&#45;&#45;Profunctor -->
<g id="edge53" class="edge">
<title>Functor&#45;&#45;Profunctor</title>
<path fill="none" stroke="gray" d="M494.36,-372.99C598.62,-361 907.51,-325.5 1023.63,-312.15"/>
</g>
<!-- Bifunctor -->
<g id="node35" class="node">
<title>Bifunctor</title>
<polygon fill="black" stroke="transparent" points="213.43,-324 133.43,-324 133.43,-288 213.43,-288 213.43,-324"/>
<text text-anchor="middle" x="173.43" y="-302.3" font-family="Helvetica,sans-Serif" font-size="14.00" fill="white">Bifunctor</text>
</g>
<!-- Functor&#45;&#45;Bifunctor -->
<g id="edge54" class="edge">
<title>Functor&#45;&#45;Bifunctor</title>
<path fill="none" stroke="gray" d="M424.58,-370.5C378.09,-361.53 293.4,-344.18 222.43,-324 219.57,-323.19 216.64,-322.3 213.69,-321.38"/>
</g>
<!-- Divisible -->
<g id="node4" class="node">
<title>Divisible</title>
<polygon fill="black" stroke="transparent" points="1607.93,-324 1532.93,-324 1532.93,-288 1607.93,-288 1607.93,-324"/>
<text text-anchor="middle" x="1570.43" y="-302.3" font-family="Helvetica,sans-Serif" font-size="14.00" fill="white">Divisible</text>
</g>
<!-- Contravariant&#45;&#45;Divisible -->
<g id="edge50" class="edge">
<title>Contravariant&#45;&#45;Divisible</title>
<path fill="none" stroke="gray" d="M1124.55,-369.17C1227.79,-354.78 1445.23,-324.46 1532.75,-312.25"/>
</g>
<!-- Contravariant&#45;&#45;Profunctor -->
<g id="edge52" class="edge">
<title>Contravariant&#45;&#45;Profunctor</title>
<path fill="none" stroke="gray" d="M1068.43,-359.7C1068.43,-348.85 1068.43,-334.92 1068.43,-324.1"/>
</g>
<!-- Decidable -->
<g id="node5" class="node">
<title>Decidable</title>
<polygon fill="black" stroke="transparent" points="1612.93,-252 1527.93,-252 1527.93,-216 1612.93,-216 1612.93,-252"/>
<text text-anchor="middle" x="1570.43" y="-230.3" font-family="Helvetica,sans-Serif" font-size="14.00" fill="white">Decidable</text>
</g>
<!-- Divisible&#45;&#45;Decidable -->
<g id="edge51" class="edge">
<title>Divisible&#45;&#45;Decidable</title>
<path fill="none" stroke="gray" d="M1570.43,-287.7C1570.43,-276.85 1570.43,-262.92 1570.43,-252.1"/>
</g>
<!-- Selective -->
<g id="node7" class="node">
<title>Selective</title>
<polygon fill="black" stroke="transparent" points="606.93,-180 527.93,-180 527.93,-144 606.93,-144 606.93,-180"/>
<text text-anchor="middle" x="567.43" y="-158.3" font-family="Helvetica,sans-Serif" font-size="14.00" fill="white">Selective</text>
</g>
<!-- Applicative&#45;&#45;Selective -->
<g id="edge4" class="edge">
<title>Applicative&#45;&#45;Selective</title>
<path fill="none" stroke="gray" d="M312.02,-225.08C363.11,-215.97 447.29,-199.71 518.43,-180 521.47,-179.16 524.59,-178.23 527.72,-177.25"/>
</g>
<!-- Alternative -->
<g id="node11" class="node">
<title>Alternative</title>
<polygon fill="black" stroke="transparent" points="281.43,-180 189.43,-180 189.43,-144 281.43,-144 281.43,-180"/>
<text text-anchor="middle" x="235.43" y="-158.3" font-family="Helvetica,sans-Serif" font-size="14.00" fill="white">Alternative</text>
</g>
<!-- Applicative&#45;&#45;Alternative -->
<g id="edge10" class="edge">
<title>Applicative&#45;&#45;Alternative</title>
<path fill="none" stroke="gray" d="M258.01,-215.7C253.36,-204.85 247.39,-190.92 242.76,-180.1"/>
</g>
<!-- Indexed_applicative -->
<g id="node18" class="node">
<title>Indexed_applicative</title>
<polygon fill="black" stroke="transparent" points="1966.43,-396 1812.43,-396 1812.43,-360 1966.43,-360 1966.43,-396"/>
<text text-anchor="middle" x="1889.43" y="-374.3" font-family="Helvetica,sans-Serif" font-size="14.00" fill="white">Indexed_applicative</text>
</g>
<!-- Applicative&#45;&#45;Indexed_applicative -->
<g id="edge17" class="edge">
<title>Applicative&#45;&#45;Indexed_applicative</title>
<path fill="none" stroke="gray" stroke-dasharray="1,5" d="M312.31,-238.57C362.9,-242.32 445.84,-248.2 517.43,-252 723.96,-262.96 1246.44,-239.24 1447.43,-288 1484.14,-296.91 1488.24,-313.17 1524.43,-324 1538.08,-328.08 1709.21,-352.11 1812.23,-366.38"/>
</g>
<!-- Traversable -->
<g id="node42" class="node">
<title>Traversable</title>
<polygon fill="black" stroke="transparent" points="366.93,-36 269.93,-36 269.93,0 366.93,0 366.93,-36"/>
<text text-anchor="middle" x="318.43" y="-14.3" font-family="Helvetica,sans-Serif" font-size="14.00" fill="white">Traversable</text>
</g>
<!-- Applicative&#45;&#45;Traversable -->
<g id="edge61" class="edge">
<title>Applicative&#45;&#45;Traversable</title>
<path fill="none" stroke="gray" d="M274.98,-215.81C280.25,-205.67 286.5,-192.42 290.43,-180 306.52,-129.15 314.08,-66.16 316.96,-36.28"/>
</g>
<!-- Monad -->
<g id="node8" class="node">
<title>Monad</title>
<polygon fill="black" stroke="transparent" points="566.93,-108 503.93,-108 503.93,-72 566.93,-72 566.93,-108"/>
<text text-anchor="middle" x="535.43" y="-86.3" font-family="Helvetica,sans-Serif" font-size="14.00" fill="white">Monad</text>
</g>
<!-- Selective&#45;&#45;Monad -->
<g id="edge5" class="edge">
<title>Selective&#45;&#45;Monad</title>
<path fill="none" stroke="gray" d="M559.52,-143.7C554.56,-132.85 548.19,-118.92 543.25,-108.1"/>
</g>
<!-- Indexed_selective -->
<g id="node20" class="node">
<title>Indexed_selective</title>
<polygon fill="black" stroke="transparent" points="2061.43,-324 1921.43,-324 1921.43,-288 2061.43,-288 2061.43,-324"/>
<text text-anchor="middle" x="1991.43" y="-302.3" font-family="Helvetica,sans-Serif" font-size="14.00" fill="white">Indexed_selective</text>
</g>
<!-- Selective&#45;&#45;Indexed_selective -->
<g id="edge19" class="edge">
<title>Selective&#45;&#45;Indexed_selective</title>
<path fill="none" stroke="gray" stroke-dasharray="1,5" d="M606.99,-178C609.82,-178.77 612.65,-179.45 615.43,-180 765.37,-209.83 1160.16,-160.05 1302.43,-216 1325.62,-225.12 1322.28,-242.75 1345.43,-252 1462.67,-298.86 1787.37,-270.67 1912.43,-288 1915.35,-288.4 1918.32,-288.86 1921.31,-289.35"/>
</g>
<!-- Monad_plus -->
<g id="node12" class="node">
<title>Monad_plus</title>
<polygon fill="black" stroke="transparent" points="576.93,-36 477.93,-36 477.93,0 576.93,0 576.93,-36"/>
<text text-anchor="middle" x="527.43" y="-14.3" font-family="Helvetica,sans-Serif" font-size="14.00" fill="white">Monad_plus</text>
</g>
<!-- Monad&#45;&#45;Monad_plus -->
<g id="edge11" class="edge">
<title>Monad&#45;&#45;Monad_plus</title>
<path fill="none" stroke="gray" d="M533.45,-71.7C532.21,-60.85 530.62,-46.92 529.38,-36.1"/>
</g>
<!-- Indexed_monad -->
<g id="node22" class="node">
<title>Indexed_monad</title>
<polygon fill="black" stroke="transparent" points="2125.93,-252 1998.93,-252 1998.93,-216 2125.93,-216 2125.93,-252"/>
<text text-anchor="middle" x="2062.43" y="-230.3" font-family="Helvetica,sans-Serif" font-size="14.00" fill="white">Indexed_monad</text>
</g>
<!-- Monad&#45;&#45;Indexed_monad -->
<g id="edge21" class="edge">
<title>Monad&#45;&#45;Indexed_monad</title>
<path fill="none" stroke="gray" stroke-dasharray="1,5" d="M567.02,-95.32C627.34,-103.71 762.99,-123.19 876.43,-144 952.39,-157.94 969.85,-169.96 1046.43,-180 1140.4,-192.32 1790.93,-221.24 1998.75,-230.26"/>
</g>
<!-- State -->
<g id="node36" class="node">
<title>State</title>
<polygon fill="black" stroke="transparent" points="649.43,-36 595.43,-36 595.43,0 649.43,0 649.43,-36"/>
<text text-anchor="middle" x="622.43" y="-14.3" font-family="Helvetica,sans-Serif" font-size="14.00" fill="white">State</text>
</g>
<!-- Monad&#45;&#45;State -->
<g id="edge55" class="edge">
<title>Monad&#45;&#45;State</title>
<path fill="none" stroke="gray" d="M556.93,-71.7C570.42,-60.85 587.73,-46.92 601.17,-36.1"/>
</g>
<!-- Reader -->
<g id="node37" class="node">
<title>Reader</title>
<polygon fill="black" stroke="transparent" points="732.93,-36 667.93,-36 667.93,0 732.93,0 732.93,-36"/>
<text text-anchor="middle" x="700.43" y="-14.3" font-family="Helvetica,sans-Serif" font-size="14.00" fill="white">Reader</text>
</g>
<!-- Monad&#45;&#45;Reader -->
<g id="edge56" class="edge">
<title>Monad&#45;&#45;Reader</title>
<path fill="none" stroke="gray" d="M567.24,-75.5C596.18,-63.23 638.7,-45.19 667.87,-32.81"/>
</g>
<!-- Writer -->
<g id="node38" class="node">
<title>Writer</title>
<polygon fill="black" stroke="transparent" points="459.93,-36 400.93,-36 400.93,0 459.93,0 459.93,-36"/>
<text text-anchor="middle" x="430.43" y="-14.3" font-family="Helvetica,sans-Serif" font-size="14.00" fill="white">Writer</text>
</g>
<!-- Monad&#45;&#45;Writer -->
<g id="edge57" class="edge">
<title>Monad&#45;&#45;Writer</title>
<path fill="none" stroke="gray" d="M509.74,-71.88C493.47,-61.03 472.5,-47.05 456.21,-36.19"/>
</g>
<!-- Monad&#45;&#45;Traversable -->
<g id="edge62" class="edge">
<title>Monad&#45;&#45;Traversable</title>
<path fill="none" stroke="gray" d="M503.88,-78.82C468.02,-67.26 409.08,-48.24 367.28,-34.76"/>
</g>
<!-- Apply&#45;&#45;Applicative -->
<g id="edge7" class="edge">
<title>Apply&#45;&#45;Applicative</title>
<path fill="none" stroke="gray" d="M77.76,-293.13C82.31,-291.34 86.98,-289.57 91.43,-288 134.15,-272.88 183.65,-258.06 218.9,-247.95"/>
</g>
<!-- Indexed_apply -->
<g id="node17" class="node">
<title>Indexed_apply</title>
<polygon fill="black" stroke="transparent" points="1947.93,-468 1830.93,-468 1830.93,-432 1947.93,-432 1947.93,-468"/>
<text text-anchor="middle" x="1889.43" y="-446.3" font-family="Helvetica,sans-Serif" font-size="14.00" fill="white">Indexed_apply</text>
</g>
<!-- Apply&#45;&#45;Indexed_apply -->
<g id="edge16" class="edge">
<title>Apply&#45;&#45;Indexed_apply</title>
<path fill="none" stroke="gray" stroke-dasharray="1,5" d="M77.68,-314.83C91.63,-318.34 108.79,-322.1 124.43,-324 175.48,-330.22 1939.42,-323.28 1975.43,-360 1986.63,-371.42 1983.23,-382.03 1975.43,-396 1966.54,-411.93 1950.68,-423.66 1934.98,-431.98"/>
</g>
<!-- Bind&#45;&#45;Monad -->
<g id="edge8" class="edge">
<title>Bind&#45;&#45;Monad</title>
<path fill="none" stroke="gray" d="M391.47,-147.99C394.48,-146.62 397.51,-145.26 400.43,-144 435.45,-128.88 476.3,-113.09 503.82,-102.72"/>
</g>
<!-- Indexed_bind -->
<g id="node21" class="node">
<title>Indexed_bind</title>
<polygon fill="black" stroke="transparent" points="2189.43,-324 2079.43,-324 2079.43,-288 2189.43,-288 2189.43,-324"/>
<text text-anchor="middle" x="2134.43" y="-302.3" font-family="Helvetica,sans-Serif" font-size="14.00" fill="white">Indexed_bind</text>
</g>
<!-- Bind&#45;&#45;Indexed_bind -->
<g id="edge20" class="edge">
<title>Bind&#45;&#45;Indexed_bind</title>
<path fill="none" stroke="gray" stroke-dasharray="1,5" d="M391.52,-177.19C394.47,-178.31 397.47,-179.28 400.43,-180 625.82,-234.64 1218.07,-161.22 1443.43,-216 1479.75,-224.83 1483.25,-242.62 1519.43,-252 1756.98,-313.62 1828.25,-248.31 2070.43,-288 2073.38,-288.48 2076.39,-289.04 2079.42,-289.66"/>
</g>
<!-- Indexed_alternative -->
<g id="node19" class="node">
<title>Indexed_alternative</title>
<polygon fill="black" stroke="transparent" points="1903.43,-324 1751.43,-324 1751.43,-288 1903.43,-288 1903.43,-324"/>
<text text-anchor="middle" x="1827.43" y="-302.3" font-family="Helvetica,sans-Serif" font-size="14.00" fill="white">Indexed_alternative</text>
</g>
<!-- Alternative&#45;&#45;Indexed_alternative -->
<g id="edge18" class="edge">
<title>Alternative&#45;&#45;Indexed_alternative</title>
<path fill="none" stroke="gray" stroke-dasharray="1,5" d="M281.6,-172.77C296.48,-175.56 313.09,-178.3 328.43,-180 528.03,-202.11 1037.07,-165.43 1231.43,-216 1265.67,-224.91 1268.48,-242.05 1302.43,-252 1344.41,-264.3 1615.99,-287.75 1751.2,-298.86"/>
</g>
<!-- Indexed_monad_plus -->
<g id="node23" class="node">
<title>Indexed_monad_plus</title>
<polygon fill="black" stroke="transparent" points="2143.93,-180 1980.93,-180 1980.93,-144 2143.93,-144 2143.93,-180"/>
<text text-anchor="middle" x="2062.43" y="-158.3" font-family="Helvetica,sans-Serif" font-size="14.00" fill="white">Indexed_monad_plus</text>
</g>
<!-- Monad_plus&#45;&#45;Indexed_monad_plus -->
<g id="edge22" class="edge">
<title>Monad_plus&#45;&#45;Indexed_monad_plus</title>
<path fill="none" stroke="gray" stroke-dasharray="1,5" d="M577.13,-34.21C580.26,-34.89 583.38,-35.5 586.43,-36 932.8,-92.99 1025.73,-41.42 1375.43,-72 1594.98,-91.2 1852.23,-128.51 1980.71,-148.17"/>
</g>
<!-- Indexed_alt -->
<g id="node16" class="node">
<title>Indexed_alt</title>
<polygon fill="black" stroke="transparent" points="1756.43,-396 1660.43,-396 1660.43,-360 1756.43,-360 1756.43,-396"/>
<text text-anchor="middle" x="1708.43" y="-374.3" font-family="Helvetica,sans-Serif" font-size="14.00" fill="white">Indexed_alt</text>
</g>
<!-- Alt&#45;&#45;Indexed_alt -->
<g id="edge15" class="edge">
<title>Alt&#45;&#45;Indexed_alt</title>
<path fill="none" stroke="gray" stroke-dasharray="1,5" d="M431.61,-314.58C445.5,-318.12 462.74,-321.98 478.43,-324 995.72,-390.71 1136.53,-276.77 1651.43,-360 1654.28,-360.46 1657.2,-361.03 1660.12,-361.66"/>
</g>
<!-- Indexed_comonad -->
<g id="node24" class="node">
<title>Indexed_comonad</title>
<polygon fill="black" stroke="transparent" points="1641.93,-396 1498.93,-396 1498.93,-360 1641.93,-360 1641.93,-396"/>
<text text-anchor="middle" x="1570.43" y="-374.3" font-family="Helvetica,sans-Serif" font-size="14.00" fill="white">Indexed_comonad</text>
</g>
<!-- Comonad&#45;&#45;Indexed_comonad -->
<g id="edge23" class="edge">
<title>Comonad&#45;&#45;Indexed_comonad</title>
<path fill="none" stroke="gray" stroke-dasharray="1,5" d="M768.22,-310.47C903.19,-321.66 1328.48,-356.93 1498.83,-371.06"/>
</g>
<!-- Store -->
<g id="node39" class="node">
<title>Store</title>
<polygon fill="black" stroke="transparent" points="717.43,-252 663.43,-252 663.43,-216 717.43,-216 717.43,-252"/>
<text text-anchor="middle" x="690.43" y="-230.3" font-family="Helvetica,sans-Serif" font-size="14.00" fill="white">Store</text>
</g>
<!-- Comonad&#45;&#45;Store -->
<g id="edge58" class="edge">
<title>Comonad&#45;&#45;Store</title>
<path fill="none" stroke="gray" d="M717.53,-287.7C711.95,-276.85 704.79,-262.92 699.23,-252.1"/>
</g>
<!-- Env -->
<g id="node40" class="node">
<title>Env</title>
<polygon fill="black" stroke="transparent" points="789.43,-252 735.43,-252 735.43,-216 789.43,-216 789.43,-252"/>
<text text-anchor="middle" x="762.43" y="-230.3" font-family="Helvetica,sans-Serif" font-size="14.00" fill="white">Env</text>
</g>
<!-- Comonad&#45;&#45;Env -->
<g id="edge59" class="edge">
<title>Comonad&#45;&#45;Env</title>
<path fill="none" stroke="gray" d="M735.33,-287.7C740.91,-276.85 748.07,-262.92 753.63,-252.1"/>
</g>
<!-- Traced -->
<g id="node41" class="node">
<title>Traced</title>
<polygon fill="black" stroke="transparent" points="869.43,-252 807.43,-252 807.43,-216 869.43,-216 869.43,-252"/>
<text text-anchor="middle" x="838.43" y="-230.3" font-family="Helvetica,sans-Serif" font-size="14.00" fill="white">Traced</text>
</g>
<!-- Comonad&#45;&#45;Traced -->
<g id="edge60" class="edge">
<title>Comonad&#45;&#45;Traced</title>
<path fill="none" stroke="gray" d="M753.83,-287.88C771.18,-277.03 793.55,-263.05 810.93,-252.19"/>
</g>
<!-- Indexed_functor&#45;&#45;Indexed_alt -->
<g id="edge34" class="edge">
<title>Indexed_functor&#45;&#45;Indexed_alt</title>
<path fill="none" stroke="gray" d="M1708.43,-431.7C1708.43,-420.85 1708.43,-406.92 1708.43,-396.1"/>
</g>
<!-- Indexed_functor&#45;&#45;Indexed_apply -->
<g id="edge28" class="edge">
<title>Indexed_functor&#45;&#45;Indexed_apply</title>
<path fill="none" stroke="gray" stroke-dasharray="1,5" d="M1773.12,-450C1792.36,-450 1811.59,-450 1830.82,-450"/>
</g>
<!-- Indexed_functor&#45;&#45;Indexed_applicative -->
<g id="edge25" class="edge">
<title>Indexed_functor&#45;&#45;Indexed_applicative</title>
<path fill="none" stroke="gray" d="M1752.71,-431.88C1780.86,-420.99 1817.17,-406.95 1845.3,-396.07"/>
</g>
<!-- Indexed_functor&#45;&#45;Indexed_bind -->
<g id="edge31" class="edge">
<title>Indexed_functor&#45;&#45;Indexed_bind</title>
<path fill="none" stroke="gray" stroke-dasharray="1,5" d="M1726.95,-431.86C1738.12,-421.5 1752.62,-408.02 1765.43,-396 1782.39,-380.08 1782.44,-370.04 1803.43,-360 1911.45,-308.33 1953,-347.42 2070.43,-324 2073.36,-323.42 2076.36,-322.77 2079.37,-322.09"/>
</g>
<!-- Indexed_functor&#45;&#45;Indexed_comonad -->
<g id="edge35" class="edge">
<title>Indexed_functor&#45;&#45;Indexed_comonad</title>
<path fill="none" stroke="gray" d="M1674.67,-431.88C1653.29,-421.03 1625.73,-407.05 1604.32,-396.19"/>
</g>
<!-- Indexed_apply&#45;&#45;Indexed_applicative -->
<g id="edge29" class="edge">
<title>Indexed_apply&#45;&#45;Indexed_applicative</title>
<path fill="none" stroke="gray" d="M1889.43,-431.7C1889.43,-420.85 1889.43,-406.92 1889.43,-396.1"/>
</g>
<!-- Indexed_applicative&#45;&#45;Indexed_alternative -->
<g id="edge32" class="edge">
<title>Indexed_applicative&#45;&#45;Indexed_alternative</title>
<path fill="none" stroke="gray" d="M1874.1,-359.7C1864.49,-348.85 1852.16,-334.92 1842.58,-324.1"/>
</g>
<!-- Indexed_applicative&#45;&#45;Indexed_selective -->
<g id="edge26" class="edge">
<title>Indexed_applicative&#45;&#45;Indexed_selective</title>
<path fill="none" stroke="gray" d="M1914.38,-359.88C1930.19,-349.03 1950.56,-335.05 1966.38,-324.19"/>
</g>
<!-- Indexed_selective&#45;&#45;Indexed_monad -->
<g id="edge27" class="edge">
<title>Indexed_selective&#45;&#45;Indexed_monad</title>
<path fill="none" stroke="gray" d="M2008.98,-287.7C2019.99,-276.85 2034.11,-262.92 2045.08,-252.1"/>
</g>
<!-- Indexed_bind&#45;&#45;Indexed_monad -->
<g id="edge30" class="edge">
<title>Indexed_bind&#45;&#45;Indexed_monad</title>
<path fill="none" stroke="gray" d="M2116.63,-287.7C2105.47,-276.85 2091.14,-262.92 2080.02,-252.1"/>
</g>
<!-- Indexed_monad&#45;&#45;Indexed_monad_plus -->
<g id="edge33" class="edge">
<title>Indexed_monad&#45;&#45;Indexed_monad_plus</title>
<path fill="none" stroke="gray" d="M2062.43,-215.7C2062.43,-204.85 2062.43,-190.92 2062.43,-180.1"/>
</g>
<!-- Foldable -->
<g id="node25" class="node">
<title>Foldable</title>
<polygon fill="black" stroke="transparent" points="837.43,-108 763.43,-108 763.43,-72 837.43,-72 837.43,-108"/>
<text text-anchor="middle" x="800.43" y="-86.3" font-family="Helvetica,sans-Serif" font-size="14.00" fill="white">Foldable</text>
</g>
<!-- Indexed_foldable -->
<g id="node26" class="node">
<title>Indexed_foldable</title>
<polygon fill="black" stroke="transparent" points="1022.43,-468 888.43,-468 888.43,-432 1022.43,-432 1022.43,-468"/>
<text text-anchor="middle" x="955.43" y="-446.3" font-family="Helvetica,sans-Serif" font-size="14.00" fill="white">Indexed_foldable</text>
</g>
<!-- Foldable&#45;&#45;Indexed_foldable -->
<g id="edge24" class="edge">
<title>Foldable&#45;&#45;Indexed_foldable</title>
<path fill="none" stroke="gray" stroke-dasharray="1,5" d="M837.77,-106.57C885.47,-125.97 970.92,-159.13 1046.43,-180 1127.17,-202.32 1150.42,-194.71 1231.43,-216 1237.55,-217.61 1443.73,-282.87 1447.43,-288 1456.78,-300.98 1457.25,-311.37 1447.43,-324 1395.49,-390.79 1144.71,-427.71 1022.57,-441.99"/>
</g>
<!-- Semigroup -->
<g id="node27" class="node">
<title>Semigroup</title>
<polygon fill="black" stroke="transparent" points="979.43,-252 887.43,-252 887.43,-216 979.43,-216 979.43,-252"/>
<text text-anchor="middle" x="933.43" y="-230.3" font-family="Helvetica,sans-Serif" font-size="14.00" fill="white">Semigroup</text>
</g>
<!-- Semigroup&#45;&#45;Alt -->
<g id="edge39" class="edge">
<title>Semigroup&#45;&#45;Alt</title>
<path fill="none" stroke="gray" stroke-dasharray="1,5" d="M887.4,-250C884.38,-250.74 881.37,-251.42 878.43,-252 703.31,-286.55 654.71,-259.95 478.43,-288 462.81,-290.49 445.57,-294.38 431.67,-297.81"/>
</g>
<!-- Monoid -->
<g id="node28" class="node">
<title>Monoid</title>
<polygon fill="black" stroke="transparent" points="866.93,-180 799.93,-180 799.93,-144 866.93,-144 866.93,-180"/>
<text text-anchor="middle" x="833.43" y="-158.3" font-family="Helvetica,sans-Serif" font-size="14.00" fill="white">Monoid</text>
</g>
<!-- Semigroup&#45;&#45;Monoid -->
<g id="edge36" class="edge">
<title>Semigroup&#45;&#45;Monoid</title>
<path fill="none" stroke="gray" d="M908.97,-215.88C893.47,-205.03 873.5,-191.05 857.99,-180.19"/>
</g>
<!-- Semigroupoid -->
<g id="node43" class="node">
<title>Semigroupoid</title>
<polygon fill="black" stroke="transparent" points="1437.93,-324 1324.93,-324 1324.93,-288 1437.93,-288 1437.93,-324"/>
<text text-anchor="middle" x="1381.43" y="-302.3" font-family="Helvetica,sans-Serif" font-size="14.00" fill="white">Semigroupoid</text>
</g>
<!-- Semigroup&#45;&#45;Semigroupoid -->
<g id="edge63" class="edge">
<title>Semigroup&#45;&#45;Semigroupoid</title>
<path fill="none" stroke="gray" stroke-dasharray="1,5" d="M979.49,-249.85C982.5,-250.63 985.5,-251.35 988.43,-252 1106.59,-278.04 1247.74,-293.31 1324.62,-300.32"/>
</g>
<!-- Arrow_alt -->
<g id="node50" class="node">
<title>Arrow_alt</title>
<polygon fill="black" stroke="transparent" points="973.43,-108 893.43,-108 893.43,-72 973.43,-72 973.43,-108"/>
<text text-anchor="middle" x="933.43" y="-86.3" font-family="Helvetica,sans-Serif" font-size="14.00" fill="white">Arrow_alt</text>
</g>
<!-- Semigroup&#45;&#45;Arrow_alt -->
<g id="edge79" class="edge">
<title>Semigroup&#45;&#45;Arrow_alt</title>
<path fill="none" stroke="gray" stroke-dasharray="1,5" d="M933.43,-215.87C933.43,-188.58 933.43,-135.52 933.43,-108.19"/>
</g>
<!-- Monoid&#45;&#45;Monad -->
<g id="edge40" class="edge">
<title>Monoid&#45;&#45;Monad</title>
<path fill="none" stroke="gray" stroke-dasharray="1,5" d="M799.82,-153.11C741.83,-139.48 623.74,-111.74 567.11,-98.44"/>
</g>
<!-- Monoid&#45;&#45;Alternative -->
<g id="edge37" class="edge">
<title>Monoid&#45;&#45;Alternative</title>
<path fill="none" stroke="gray" stroke-dasharray="1,5" d="M799.86,-176.96C780.08,-184.94 754.33,-193.94 730.43,-198 644.33,-212.61 423.51,-212.74 337.43,-198 316.88,-194.48 294.98,-187.25 276.76,-180.18"/>
</g>
<!-- Monoid&#45;&#45;Monad_plus -->
<g id="edge38" class="edge">
<title>Monoid&#45;&#45;Monad_plus</title>
<path fill="none" stroke="gray" stroke-dasharray="1,5" d="M799.81,-145.4C742.05,-118.6 624.44,-64.02 564.43,-36.17"/>
</g>
<!-- Monoid&#45;&#45;Foldable -->
<g id="edge41" class="edge">
<title>Monoid&#45;&#45;Foldable</title>
<path fill="none" stroke="gray" d="M825.27,-143.7C820.16,-132.85 813.59,-118.92 808.49,-108.1"/>
</g>
<!-- Category -->
<g id="node44" class="node">
<title>Category</title>
<polygon fill="black" stroke="transparent" points="1434.43,-252 1354.43,-252 1354.43,-216 1434.43,-216 1434.43,-252"/>
<text text-anchor="middle" x="1394.43" y="-230.3" font-family="Helvetica,sans-Serif" font-size="14.00" fill="white">Category</text>
</g>
<!-- Monoid&#45;&#45;Category -->
<g id="edge64" class="edge">
<title>Monoid&#45;&#45;Category</title>
<path fill="none" stroke="gray" stroke-dasharray="1,5" d="M867.25,-166.35C976.95,-177.23 1317.19,-211.18 1340.43,-216 1344.95,-216.94 1349.63,-218.11 1354.27,-219.39"/>
</g>
<!-- Arrow_plus -->
<g id="node51" class="node">
<title>Arrow_plus</title>
<polygon fill="black" stroke="transparent" points="1013.43,-36 921.43,-36 921.43,0 1013.43,0 1013.43,-36"/>
<text text-anchor="middle" x="967.43" y="-14.3" font-family="Helvetica,sans-Serif" font-size="14.00" fill="white">Arrow_plus</text>
</g>
<!-- Monoid&#45;&#45;Arrow_plus -->
<g id="edge78" class="edge">
<title>Monoid&#45;&#45;Arrow_plus</title>
<path fill="none" stroke="gray" stroke-dasharray="1,5" d="M840.34,-143.67C848.64,-124.47 864.03,-93.4 884.43,-72 898.23,-57.52 916.75,-45.21 932.8,-36.1"/>
</g>
<!-- Free_selective&#45;&#45;Selective -->
<g id="edge45" class="edge">
<title>Free_selective&#45;&#45;Selective</title>
<path fill="none" stroke="gray" d="M532.48,-287.98C521.32,-269.85 507.71,-240.46 517.43,-216 523.03,-201.89 534.37,-189.37 544.83,-180.04"/>
</g>
<!-- Free_applicative&#45;&#45;Applicative -->
<g id="edge47" class="edge">
<title>Free_applicative&#45;&#45;Applicative</title>
<path fill="none" stroke="gray" d="M288.01,-287.7C283.36,-276.85 277.39,-262.92 272.76,-252.1"/>
</g>
<!-- Free_monad&#45;&#45;Monad -->
<g id="edge48" class="edge">
<title>Free_monad&#45;&#45;Monad</title>
<path fill="none" stroke="gray" d="M478.22,-143.7C490,-132.85 505.12,-118.92 516.86,-108.1"/>
</g>
<!-- Freer_selective -->
<g id="node32" class="node">
<title>Freer_selective</title>
<polygon fill="black" stroke="transparent" points="644.93,-252 525.93,-252 525.93,-216 644.93,-216 644.93,-252"/>
<text text-anchor="middle" x="585.43" y="-230.3" font-family="Helvetica,sans-Serif" font-size="14.00" fill="white">Freer_selective</text>
</g>
<!-- Freer_selective&#45;&#45;Selective -->
<g id="edge46" class="edge">
<title>Freer_selective&#45;&#45;Selective</title>
<path fill="none" stroke="gray" d="M580.98,-215.7C578.19,-204.85 574.61,-190.92 571.83,-180.1"/>
</g>
<!-- Freer_monad -->
<g id="node33" class="node">
<title>Freer_monad</title>
<polygon fill="black" stroke="transparent" points="730.43,-180 624.43,-180 624.43,-144 730.43,-144 730.43,-180"/>
<text text-anchor="middle" x="677.43" y="-158.3" font-family="Helvetica,sans-Serif" font-size="14.00" fill="white">Freer_monad</text>
</g>
<!-- Freer_monad&#45;&#45;Monad -->
<g id="edge49" class="edge">
<title>Freer_monad&#45;&#45;Monad</title>
<path fill="none" stroke="gray" d="M642.69,-143.88C619.7,-132.54 589.78,-117.79 567.38,-106.75"/>
</g>
<!-- Strong -->
<g id="node46" class="node">
<title>Strong</title>
<polygon fill="black" stroke="transparent" points="1059.43,-252 997.43,-252 997.43,-216 1059.43,-216 1059.43,-252"/>
<text text-anchor="middle" x="1028.43" y="-230.3" font-family="Helvetica,sans-Serif" font-size="14.00" fill="white">Strong</text>
</g>
<!-- Profunctor&#45;&#45;Strong -->
<g id="edge67" class="edge">
<title>Profunctor&#45;&#45;Strong</title>
<path fill="none" stroke="gray" d="M1058.54,-287.7C1052.34,-276.85 1044.38,-262.92 1038.2,-252.1"/>
</g>
<!-- Choice -->
<g id="node47" class="node">
<title>Choice</title>
<polygon fill="black" stroke="transparent" points="1221.93,-252 1158.93,-252 1158.93,-216 1221.93,-216 1221.93,-252"/>
<text text-anchor="middle" x="1190.43" y="-230.3" font-family="Helvetica,sans-Serif" font-size="14.00" fill="white">Choice</text>
</g>
<!-- Profunctor&#45;&#45;Choice -->
<g id="edge68" class="edge">
<title>Profunctor&#45;&#45;Choice</title>
<path fill="none" stroke="gray" d="M1098.27,-287.88C1117.18,-277.03 1141.54,-263.05 1160.47,-252.19"/>
</g>
<!-- Closed -->
<g id="node48" class="node">
<title>Closed</title>
<polygon fill="black" stroke="transparent" points="1140.93,-252 1077.93,-252 1077.93,-216 1140.93,-216 1140.93,-252"/>
<text text-anchor="middle" x="1109.43" y="-230.3" font-family="Helvetica,sans-Serif" font-size="14.00" fill="white">Closed</text>
</g>
<!-- Profunctor&#45;&#45;Closed -->
<g id="edge69" class="edge">
<title>Profunctor&#45;&#45;Closed</title>
<path fill="none" stroke="gray" d="M1078.56,-287.7C1084.92,-276.85 1093.08,-262.92 1099.41,-252.1"/>
</g>
<!-- Semigroupoid&#45;&#45;Category -->
<g id="edge65" class="edge">
<title>Semigroupoid&#45;&#45;Category</title>
<path fill="none" stroke="gray" d="M1384.64,-287.7C1386.66,-276.85 1389.24,-262.92 1391.25,-252.1"/>
</g>
<!-- Arrow -->
<g id="node45" class="node">
<title>Arrow</title>
<polygon fill="black" stroke="transparent" points="1111.43,-180 1055.43,-180 1055.43,-144 1111.43,-144 1111.43,-180"/>
<text text-anchor="middle" x="1083.43" y="-158.3" font-family="Helvetica,sans-Serif" font-size="14.00" fill="white">Arrow</text>
</g>
<!-- Category&#45;&#45;Arrow -->
<g id="edge66" class="edge">
<title>Category&#45;&#45;Arrow</title>
<path fill="none" stroke="gray" d="M1354.16,-219.83C1349.55,-218.47 1344.9,-217.16 1340.43,-216 1258.2,-194.64 1159.38,-176.27 1111.79,-167.87"/>
</g>
<!-- Arrow_zero -->
<g id="node49" class="node">
<title>Arrow_zero</title>
<polygon fill="black" stroke="transparent" points="1366.43,-108 1274.43,-108 1274.43,-72 1366.43,-72 1366.43,-108"/>
<text text-anchor="middle" x="1320.43" y="-86.3" font-family="Helvetica,sans-Serif" font-size="14.00" fill="white">Arrow_zero</text>
</g>
<!-- Arrow&#45;&#45;Arrow_zero -->
<g id="edge71" class="edge">
<title>Arrow&#45;&#45;Arrow_zero</title>
<path fill="none" stroke="gray" d="M1111.53,-152.97C1147.32,-142.71 1211.06,-124.32 1265.43,-108 1268.3,-107.14 1271.26,-106.24 1274.23,-105.34"/>
</g>
<!-- Arrow&#45;&#45;Arrow_alt -->
<g id="edge72" class="edge">
<title>Arrow&#45;&#45;Arrow_alt</title>
<path fill="none" stroke="gray" d="M1055.22,-147.83C1031.11,-136.59 996.28,-120.33 970.03,-108.08"/>
</g>
<!-- Arrow&#45;&#45;Arrow_plus -->
<g id="edge73" class="edge">
<title>Arrow&#45;&#45;Arrow_plus</title>
<path fill="none" stroke="gray" d="M1060.05,-143.93C1047.7,-134.23 1032.8,-121.38 1021.43,-108 1002.12,-85.28 985.27,-54.87 975.73,-36.13"/>
</g>
<!-- Arrow_choice -->
<g id="node52" class="node">
<title>Arrow_choice</title>
<polygon fill="black" stroke="transparent" points="1136.93,-108 1029.93,-108 1029.93,-72 1136.93,-72 1136.93,-108"/>
<text text-anchor="middle" x="1083.43" y="-86.3" font-family="Helvetica,sans-Serif" font-size="14.00" fill="white">Arrow_choice</text>
</g>
<!-- Arrow&#45;&#45;Arrow_choice -->
<g id="edge74" class="edge">
<title>Arrow&#45;&#45;Arrow_choice</title>
<path fill="none" stroke="gray" d="M1083.43,-143.7C1083.43,-132.85 1083.43,-118.92 1083.43,-108.1"/>
</g>
<!-- Arrow_apply -->
<g id="node53" class="node">
<title>Arrow_apply</title>
<polygon fill="black" stroke="transparent" points="1255.93,-108 1154.93,-108 1154.93,-72 1255.93,-72 1255.93,-108"/>
<text text-anchor="middle" x="1205.43" y="-86.3" font-family="Helvetica,sans-Serif" font-size="14.00" fill="white">Arrow_apply</text>
</g>
<!-- Arrow&#45;&#45;Arrow_apply -->
<g id="edge75" class="edge">
<title>Arrow&#45;&#45;Arrow_apply</title>
<path fill="none" stroke="gray" d="M1111.73,-144.76C1130.87,-133.78 1156.12,-119.29 1175.58,-108.12"/>
</g>
<!-- Strong&#45;&#45;Arrow -->
<g id="edge70" class="edge">
<title>Strong&#45;&#45;Arrow</title>
<path fill="none" stroke="gray" d="M1042.02,-215.7C1050.55,-204.85 1061.49,-190.92 1069.99,-180.1"/>
</g>
<!-- Arrow_zero&#45;&#45;Arrow_plus -->
<g id="edge76" class="edge">
<title>Arrow_zero&#45;&#45;Arrow_plus</title>
<path fill="none" stroke="gray" stroke-dasharray="1,5" d="M1274.33,-74.3C1271.33,-73.48 1268.34,-72.71 1265.43,-72 1177.21,-50.61 1072.35,-33.95 1013.49,-25.38"/>
</g>
<!-- Arrow_alt&#45;&#45;Arrow_plus -->
<g id="edge77" class="edge">
<title>Arrow_alt&#45;&#45;Arrow_plus</title>
<path fill="none" stroke="gray" stroke-dasharray="1,5" d="M941.83,-71.7C947.1,-60.85 953.87,-46.92 959.12,-36.1"/>
</g>
<!-- Meet_semilattice -->
<g id="node54" class="node">
<title>Meet_semilattice</title>
<polygon fill="black" stroke="transparent" points="2339.43,-468 2207.43,-468 2207.43,-432 2339.43,-432 2339.43,-468"/>
<text text-anchor="middle" x="2273.43" y="-446.3" font-family="Helvetica,sans-Serif" font-size="14.00" fill="white">Meet_semilattice</text>
</g>
<!-- Meet_semilattice&#45;&#45;Semigroup -->
<g id="edge80" class="edge">
<title>Meet_semilattice&#45;&#45;Semigroup</title>
<path fill="none" stroke="gray" stroke-dasharray="1,5" d="M2207.07,-440.79C2179.22,-433.7 2149.4,-420.51 2132.43,-396 2123.32,-382.85 2124.26,-373.76 2132.43,-360 2149.49,-331.27 2181.37,-352.73 2198.43,-324 2206.6,-310.24 2209.57,-299.48 2198.43,-288 2151.59,-239.74 1054.77,-263.03 988.43,-252 985.57,-251.52 982.65,-250.94 979.73,-250.27"/>
</g>
<!-- Bounded_meet_semilattice -->
<g id="node55" class="node">
<title>Bounded_meet_semilattice</title>
<polygon fill="black" stroke="transparent" points="2343.93,-396 2140.93,-396 2140.93,-360 2343.93,-360 2343.93,-396"/>
<text text-anchor="middle" x="2242.43" y="-374.3" font-family="Helvetica,sans-Serif" font-size="14.00" fill="white">Bounded_meet_semilattice</text>
</g>
<!-- Meet_semilattice&#45;&#45;Bounded_meet_semilattice -->
<g id="edge81" class="edge">
<title>Meet_semilattice&#45;&#45;Bounded_meet_semilattice</title>
<path fill="none" stroke="gray" d="M2265.77,-431.7C2260.96,-420.85 2254.79,-406.92 2250,-396.1"/>
</g>
<!-- Lattice -->
<g id="node59" class="node">
<title>Lattice</title>
<polygon fill="black" stroke="transparent" points="2423.43,-396 2361.43,-396 2361.43,-360 2423.43,-360 2423.43,-396"/>
<text text-anchor="middle" x="2392.43" y="-374.3" font-family="Helvetica,sans-Serif" font-size="14.00" fill="white">Lattice</text>
</g>
<!-- Meet_semilattice&#45;&#45;Lattice -->
<g id="edge89" class="edge">
<title>Meet_semilattice&#45;&#45;Lattice</title>
<path fill="none" stroke="gray" d="M2302.54,-431.88C2320.98,-421.03 2344.74,-407.05 2363.21,-396.19"/>
</g>
<!-- Bounded_lattice -->
<g id="node58" class="node">
<title>Bounded_lattice</title>
<polygon fill="black" stroke="transparent" points="2526.43,-324 2398.43,-324 2398.43,-288 2526.43,-288 2526.43,-324"/>
<text text-anchor="middle" x="2462.43" y="-302.3" font-family="Helvetica,sans-Serif" font-size="14.00" fill="white">Bounded_lattice</text>
</g>
<!-- Bounded_meet_semilattice&#45;&#45;Bounded_lattice -->
<g id="edge87" class="edge">
<title>Bounded_meet_semilattice&#45;&#45;Bounded_lattice</title>
<path fill="none" stroke="gray" d="M2295.97,-359.97C2330.18,-349.08 2374.39,-335.01 2408.65,-324.11"/>
</g>
<!-- Join_semilattice -->
<g id="node56" class="node">
<title>Join_semilattice</title>
<polygon fill="black" stroke="transparent" points="2483.43,-468 2359.43,-468 2359.43,-432 2483.43,-432 2483.43,-468"/>
<text text-anchor="middle" x="2421.43" y="-446.3" font-family="Helvetica,sans-Serif" font-size="14.00" fill="white">Join_semilattice</text>
</g>
<!-- Join_semilattice&#45;&#45;Semigroup -->
<g id="edge82" class="edge">
<title>Join_semilattice&#45;&#45;Semigroup</title>
<path fill="none" stroke="gray" stroke-dasharray="1,5" d="M2427.54,-431.77C2435.11,-412.37 2449.63,-380.85 2470.43,-360 2493.75,-336.62 2518.66,-352.45 2535.43,-324 2543.55,-310.22 2546.61,-299.44 2535.43,-288 2475.35,-226.51 1073.28,-265.83 988.43,-252 985.57,-251.53 982.65,-250.96 979.72,-250.3"/>
</g>
<!-- Join_semilattice&#45;&#45;Meet_semilattice -->
<g id="edge84" class="edge">
<title>Join_semilattice&#45;&#45;Meet_semilattice</title>
<path fill="none" stroke="gray" stroke-dasharray="1,5" d="M2359.12,-450C2352.62,-450 2346.12,-450 2339.62,-450"/>
</g>
<!-- Bounded_join_semilattice -->
<g id="node57" class="node">
<title>Bounded_join_semilattice</title>
<polygon fill="black" stroke="transparent" points="2671.43,-396 2479.43,-396 2479.43,-360 2671.43,-360 2671.43,-396"/>
<text text-anchor="middle" x="2575.43" y="-374.3" font-family="Helvetica,sans-Serif" font-size="14.00" fill="white">Bounded_join_semilattice</text>
</g>
<!-- Join_semilattice&#45;&#45;Bounded_join_semilattice -->
<g id="edge83" class="edge">
<title>Join_semilattice&#45;&#45;Bounded_join_semilattice</title>
<path fill="none" stroke="gray" d="M2459.1,-431.88C2483.06,-420.99 2513.95,-406.95 2537.88,-396.07"/>
</g>
<!-- Join_semilattice&#45;&#45;Lattice -->
<g id="edge88" class="edge">
<title>Join_semilattice&#45;&#45;Lattice</title>
<path fill="none" stroke="gray" d="M2414.26,-431.7C2409.77,-420.85 2403.99,-406.92 2399.52,-396.1"/>
</g>
<!-- Bounded_join_semilattice&#45;&#45;Bounded_meet_semilattice -->
<g id="edge85" class="edge">
<title>Bounded_join_semilattice&#45;&#45;Bounded_meet_semilattice</title>
<path fill="none" stroke="gray" stroke-dasharray="1,5" d="M2523.19,-396.04C2479.92,-408.76 2416.77,-422.19 2361.43,-414 2337.62,-410.48 2311.98,-403.19 2290.61,-396.09"/>
</g>
<!-- Bounded_join_semilattice&#45;&#45;Bounded_lattice -->
<g id="edge86" class="edge">
<title>Bounded_join_semilattice&#45;&#45;Bounded_lattice</title>
<path fill="none" stroke="gray" d="M2547.79,-359.88C2530.28,-349.03 2507.71,-335.05 2490.18,-324.19"/>
</g>
</g>
</svg>
