<?xml version="1.0" encoding="UTF-8" standalone="no"?>
<!DOCTYPE svg PUBLIC "-//W3C//DTD SVG 1.1//EN"
 "http://www.w3.org/Graphics/SVG/1.1/DTD/svg11.dtd">
<!-- Generated by graphviz version 2.43.0 (0)
 -->
<!-- Title: %3 Pages: 1 -->
<svg width="1358pt" height="476pt"
 viewBox="0.00 0.00 1357.50 476.00" xmlns="http://www.w3.org/2000/svg" xmlns:xlink="http://www.w3.org/1999/xlink">
<g id="graph0" class="graph" transform="scale(1 1) rotate(0) translate(4 472)">
<title>%3</title>
<polygon fill="white" stroke="transparent" points="-4,4 -4,-472 1353.5,-472 1353.5,4 -4,4"/>
<!-- Invariant -->
<g id="node1" class="node">
<title>Invariant</title>
<polygon fill="black" stroke="transparent" points="633,-468 554,-468 554,-432 633,-432 633,-468"/>
<text text-anchor="middle" x="593.5" y="-446.3" font-family="Helvetica,sans-Serif" font-size="14.00" fill="white">Invariant</text>
</g>
<!-- Functor -->
<g id="node2" class="node">
<title>Functor</title>
<polygon fill="black" stroke="transparent" points="802,-396 733,-396 733,-360 802,-360 802,-396"/>
<text text-anchor="middle" x="767.5" y="-374.3" font-family="Helvetica,sans-Serif" font-size="14.00" fill="white">Functor</text>
</g>
<!-- Invariant&#45;&#45;Functor -->
<g id="edge1" class="edge">
<title>Invariant&#45;&#45;Functor</title>
<path fill="none" stroke="gray" d="M633.42,-432.94C663.42,-420.87 704.11,-404.5 732.77,-392.97"/>
</g>
<!-- Contravariant -->
<g id="node3" class="node">
<title>Contravariant</title>
<polygon fill="black" stroke="transparent" points="475.5,-396 363.5,-396 363.5,-360 475.5,-360 475.5,-396"/>
<text text-anchor="middle" x="419.5" y="-374.3" font-family="Helvetica,sans-Serif" font-size="14.00" fill="white">Contravariant</text>
</g>
<!-- Invariant&#45;&#45;Contravariant -->
<g id="edge2" class="edge">
<title>Invariant&#45;&#45;Contravariant</title>
<path fill="none" stroke="gray" d="M553.58,-432.94C526.19,-421.92 489.89,-407.32 461.97,-396.08"/>
</g>
<!-- Applicative -->
<g id="node6" class="node">
<title>Applicative</title>
<polygon fill="black" stroke="transparent" points="925,-252 832,-252 832,-216 925,-216 925,-252"/>
<text text-anchor="middle" x="878.5" y="-230.3" font-family="Helvetica,sans-Serif" font-size="14.00" fill="white">Applicative</text>
</g>
<!-- Functor&#45;&#45;Applicative -->
<g id="edge3" class="edge">
<title>Functor&#45;&#45;Applicative</title>
<path fill="none" stroke="gray" d="M802.3,-370.99C861.15,-360.49 975.07,-338.53 986.5,-324 996.39,-311.43 994.96,-301.58 986.5,-288 979.21,-276.3 950.72,-262.58 924.84,-252.02"/>
</g>
<!-- Apply -->
<g id="node9" class="node">
<title>Apply</title>
<polygon fill="black" stroke="transparent" points="977.5,-324 921.5,-324 921.5,-288 977.5,-288 977.5,-324"/>
<text text-anchor="middle" x="949.5" y="-302.3" font-family="Helvetica,sans-Serif" font-size="14.00" fill="white">Apply</text>
</g>
<!-- Functor&#45;&#45;Apply -->
<g id="edge6" class="edge">
<title>Functor&#45;&#45;Apply</title>
<path fill="none" stroke="gray" stroke-dasharray="1,5" d="M802.08,-365.24C831.64,-354.98 875.2,-339.36 912.5,-324 915.38,-322.82 918.36,-321.54 921.32,-320.23"/>
</g>
<!-- Bind -->
<g id="node10" class="node">
<title>Bind</title>
<polygon fill="black" stroke="transparent" points="1107.5,-180 1053.5,-180 1053.5,-144 1107.5,-144 1107.5,-180"/>
<text text-anchor="middle" x="1080.5" y="-158.3" font-family="Helvetica,sans-Serif" font-size="14.00" fill="white">Bind</text>
</g>
<!-- Functor&#45;&#45;Bind -->
<g id="edge9" class="edge">
<title>Functor&#45;&#45;Bind</title>
<path fill="none" stroke="gray" stroke-dasharray="1,5" d="M732.74,-374.4C662.65,-368.73 499.6,-353.34 365.5,-324 363.85,-323.64 133.51,-253.36 132.5,-252 123,-239.12 121.41,-227.53 132.5,-216 167.64,-179.45 995.25,-192.07 1044.5,-180 1047.45,-179.28 1050.46,-178.3 1053.4,-177.18"/>
</g>
<!-- Alt -->
<g id="node13" class="node">
<title>Alt</title>
<polygon fill="black" stroke="transparent" points="903.5,-324 849.5,-324 849.5,-288 903.5,-288 903.5,-324"/>
<text text-anchor="middle" x="876.5" y="-302.3" font-family="Helvetica,sans-Serif" font-size="14.00" fill="white">Alt</text>
</g>
<!-- Functor&#45;&#45;Alt -->
<g id="edge12" class="edge">
<title>Functor&#45;&#45;Alt</title>
<path fill="none" stroke="gray" d="M794.16,-359.88C811.06,-349.03 832.82,-335.05 849.73,-324.19"/>
</g>
<!-- Comonad -->
<g id="node14" class="node">
<title>Comonad</title>
<polygon fill="black" stroke="transparent" points="587,-324 504,-324 504,-288 587,-288 587,-324"/>
<text text-anchor="middle" x="545.5" y="-302.3" font-family="Helvetica,sans-Serif" font-size="14.00" fill="white">Comonad</text>
</g>
<!-- Functor&#45;&#45;Comonad -->
<g id="edge13" class="edge">
<title>Functor&#45;&#45;Comonad</title>
<path fill="none" stroke="gray" d="M732.72,-366.46C698.12,-355.91 643.55,-339.13 596.5,-324 593.48,-323.03 590.36,-322.02 587.22,-320.99"/>
</g>
<!-- Free_selective -->
<g id="node18" class="node">
<title>Free_selective</title>
<polygon fill="black" stroke="transparent" points="1147,-324 1034,-324 1034,-288 1147,-288 1147,-324"/>
<text text-anchor="middle" x="1090.5" y="-302.3" font-family="Helvetica,sans-Serif" font-size="14.00" fill="white">Free_selective</text>
</g>
<!-- Functor&#45;&#45;Free_selective -->
<g id="edge20" class="edge">
<title>Functor&#45;&#45;Free_selective</title>
<path fill="none" stroke="gray" stroke-dasharray="1,5" d="M802.19,-367.8C812.55,-365.16 823.96,-362.36 834.5,-360 916.24,-341.69 937.64,-341.76 1019.5,-324 1024.21,-322.98 1029.08,-321.89 1033.97,-320.77"/>
</g>
<!-- Free_applicative -->
<g id="node19" class="node">
<title>Free_applicative</title>
<polygon fill="black" stroke="transparent" points="831,-324 704,-324 704,-288 831,-288 831,-324"/>
<text text-anchor="middle" x="767.5" y="-302.3" font-family="Helvetica,sans-Serif" font-size="14.00" fill="white">Free_applicative</text>
</g>
<!-- Functor&#45;&#45;Free_applicative -->
<g id="edge21" class="edge">
<title>Functor&#45;&#45;Free_applicative</title>
<path fill="none" stroke="gray" stroke-dasharray="1,5" d="M767.5,-359.7C767.5,-348.85 767.5,-334.92 767.5,-324.1"/>
</g>
<!-- Free_monad -->
<g id="node20" class="node">
<title>Free_monad</title>
<polygon fill="black" stroke="transparent" points="1225.5,-180 1125.5,-180 1125.5,-144 1225.5,-144 1225.5,-180"/>
<text text-anchor="middle" x="1175.5" y="-158.3" font-family="Helvetica,sans-Serif" font-size="14.00" fill="white">Free_monad</text>
</g>
<!-- Functor&#45;&#45;Free_monad -->
<g id="edge22" class="edge">
<title>Functor&#45;&#45;Free_monad</title>
<path fill="none" stroke="gray" stroke-dasharray="1,5" d="M802.15,-371.42C823.79,-367.99 852.24,-363.58 877.5,-360 939.4,-351.23 1112.54,-368.44 1156.5,-324 1194.8,-285.28 1186.06,-213.11 1179.5,-180.18"/>
</g>
<!-- Profunctor -->
<g id="node23" class="node">
<title>Profunctor</title>
<polygon fill="black" stroke="transparent" points="464,-324 375,-324 375,-288 464,-288 464,-324"/>
<text text-anchor="middle" x="419.5" y="-302.3" font-family="Helvetica,sans-Serif" font-size="14.00" fill="white">Profunctor</text>
</g>
<!-- Functor&#45;&#45;Profunctor -->
<g id="edge31" class="edge">
<title>Functor&#45;&#45;Profunctor</title>
<path fill="none" stroke="gray" d="M732.95,-370.65C681.08,-361.03 580.02,-341.99 494.5,-324 484.7,-321.94 474.21,-319.63 464.26,-317.39"/>
</g>
<!-- Bifunctor -->
<g id="node24" class="node">
<title>Bifunctor</title>
<polygon fill="black" stroke="transparent" points="685.5,-324 605.5,-324 605.5,-288 685.5,-288 685.5,-324"/>
<text text-anchor="middle" x="645.5" y="-302.3" font-family="Helvetica,sans-Serif" font-size="14.00" fill="white">Bifunctor</text>
</g>
<!-- Functor&#45;&#45;Bifunctor -->
<g id="edge32" class="edge">
<title>Functor&#45;&#45;Bifunctor</title>
<path fill="none" stroke="gray" d="M737.66,-359.88C718.75,-349.03 694.39,-335.05 675.46,-324.19"/>
</g>
<!-- Divisible -->
<g id="node4" class="node">
<title>Divisible</title>
<polygon fill="black" stroke="transparent" points="94,-324 19,-324 19,-288 94,-288 94,-324"/>
<text text-anchor="middle" x="56.5" y="-302.3" font-family="Helvetica,sans-Serif" font-size="14.00" fill="white">Divisible</text>
</g>
<!-- Contravariant&#45;&#45;Divisible -->
<g id="edge28" class="edge">
<title>Contravariant&#45;&#45;Divisible</title>
<path fill="none" stroke="gray" d="M363.39,-369.07C302.1,-359.99 201.25,-343.77 115.5,-324 108.54,-322.4 101.18,-320.47 94.11,-318.49"/>
</g>
<!-- Contravariant&#45;&#45;Profunctor -->
<g id="edge30" class="edge">
<title>Contravariant&#45;&#45;Profunctor</title>
<path fill="none" stroke="gray" d="M419.5,-359.7C419.5,-348.85 419.5,-334.92 419.5,-324.1"/>
</g>
<!-- Decidable -->
<g id="node5" class="node">
<title>Decidable</title>
<polygon fill="black" stroke="transparent" points="85,-252 0,-252 0,-216 85,-216 85,-252"/>
<text text-anchor="middle" x="42.5" y="-230.3" font-family="Helvetica,sans-Serif" font-size="14.00" fill="white">Decidable</text>
</g>
<!-- Divisible&#45;&#45;Decidable -->
<g id="edge29" class="edge">
<title>Divisible&#45;&#45;Decidable</title>
<path fill="none" stroke="gray" d="M53.04,-287.7C50.87,-276.85 48.08,-262.92 45.92,-252.1"/>
</g>
<!-- Selective -->
<g id="node7" class="node">
<title>Selective</title>
<polygon fill="black" stroke="transparent" points="1035,-180 956,-180 956,-144 1035,-144 1035,-180"/>
<text text-anchor="middle" x="995.5" y="-158.3" font-family="Helvetica,sans-Serif" font-size="14.00" fill="white">Selective</text>
</g>
<!-- Applicative&#45;&#45;Selective -->
<g id="edge4" class="edge">
<title>Applicative&#45;&#45;Selective</title>
<path fill="none" stroke="gray" d="M907.12,-215.88C925.25,-205.03 948.62,-191.05 966.77,-180.19"/>
</g>
<!-- Alternative -->
<g id="node11" class="node">
<title>Alternative</title>
<polygon fill="black" stroke="transparent" points="873.5,-180 781.5,-180 781.5,-144 873.5,-144 873.5,-180"/>
<text text-anchor="middle" x="827.5" y="-158.3" font-family="Helvetica,sans-Serif" font-size="14.00" fill="white">Alternative</text>
</g>
<!-- Applicative&#45;&#45;Alternative -->
<g id="edge10" class="edge">
<title>Applicative&#45;&#45;Alternative</title>
<path fill="none" stroke="gray" d="M865.89,-215.7C857.99,-204.85 847.84,-190.92 839.96,-180.1"/>
</g>
<!-- Traversable -->
<g id="node31" class="node">
<title>Traversable</title>
<polygon fill="black" stroke="transparent" points="950,-36 853,-36 853,0 950,0 950,-36"/>
<text text-anchor="middle" x="901.5" y="-14.3" font-family="Helvetica,sans-Serif" font-size="14.00" fill="white">Traversable</text>
</g>
<!-- Applicative&#45;&#45;Traversable -->
<g id="edge39" class="edge">
<title>Applicative&#45;&#45;Traversable</title>
<path fill="none" stroke="gray" d="M880.34,-215.85C884.65,-175.78 895.33,-76.38 899.65,-36.23"/>
</g>
<!-- Monad -->
<g id="node8" class="node">
<title>Monad</title>
<polygon fill="black" stroke="transparent" points="1112,-108 1049,-108 1049,-72 1112,-72 1112,-108"/>
<text text-anchor="middle" x="1080.5" y="-86.3" font-family="Helvetica,sans-Serif" font-size="14.00" fill="white">Monad</text>
</g>
<!-- Selective&#45;&#45;Monad -->
<g id="edge5" class="edge">
<title>Selective&#45;&#45;Monad</title>
<path fill="none" stroke="gray" d="M1016.51,-143.7C1029.69,-132.85 1046.6,-118.92 1059.73,-108.1"/>
</g>
<!-- Monad_plus -->
<g id="node12" class="node">
<title>Monad_plus</title>
<polygon fill="black" stroke="transparent" points="1227,-36 1128,-36 1128,0 1227,0 1227,-36"/>
<text text-anchor="middle" x="1177.5" y="-14.3" font-family="Helvetica,sans-Serif" font-size="14.00" fill="white">Monad_plus</text>
</g>
<!-- Monad&#45;&#45;Monad_plus -->
<g id="edge11" class="edge">
<title>Monad&#45;&#45;Monad_plus</title>
<path fill="none" stroke="gray" d="M1104.48,-71.7C1119.51,-60.85 1138.82,-46.92 1153.8,-36.1"/>
</g>
<!-- State -->
<g id="node25" class="node">
<title>State</title>
<polygon fill="black" stroke="transparent" points="1299.5,-36 1245.5,-36 1245.5,0 1299.5,0 1299.5,-36"/>
<text text-anchor="middle" x="1272.5" y="-14.3" font-family="Helvetica,sans-Serif" font-size="14.00" fill="white">State</text>
</g>
<!-- Monad&#45;&#45;State -->
<g id="edge33" class="edge">
<title>Monad&#45;&#45;State</title>
<path fill="none" stroke="gray" d="M1112.26,-79.38C1144.06,-69.47 1194.21,-53.11 1236.5,-36 1239.32,-34.86 1242.23,-33.61 1245.13,-32.32"/>
</g>
<!-- Reader -->
<g id="node26" class="node">
<title>Reader</title>
<polygon fill="black" stroke="transparent" points="1033,-36 968,-36 968,0 1033,0 1033,-36"/>
<text text-anchor="middle" x="1000.5" y="-14.3" font-family="Helvetica,sans-Serif" font-size="14.00" fill="white">Reader</text>
</g>
<!-- Monad&#45;&#45;Reader -->
<g id="edge34" class="edge">
<title>Monad&#45;&#45;Reader</title>
<path fill="none" stroke="gray" d="M1060.72,-71.7C1048.32,-60.85 1032.4,-46.92 1020.05,-36.1"/>
</g>
<!-- Writer -->
<g id="node27" class="node">
<title>Writer</title>
<polygon fill="black" stroke="transparent" points="1110,-36 1051,-36 1051,0 1110,0 1110,-36"/>
<text text-anchor="middle" x="1080.5" y="-14.3" font-family="Helvetica,sans-Serif" font-size="14.00" fill="white">Writer</text>
</g>
<!-- Monad&#45;&#45;Writer -->
<g id="edge35" class="edge">
<title>Monad&#45;&#45;Writer</title>
<path fill="none" stroke="gray" d="M1080.5,-71.7C1080.5,-60.85 1080.5,-46.92 1080.5,-36.1"/>
</g>
<!-- Monad&#45;&#45;Traversable -->
<g id="edge40" class="edge">
<title>Monad&#45;&#45;Traversable</title>
<path fill="none" stroke="gray" d="M1048.91,-76.65C1020.11,-65.38 977.28,-48.63 945.19,-36.09"/>
</g>
<!-- Apply&#45;&#45;Applicative -->
<g id="edge7" class="edge">
<title>Apply&#45;&#45;Applicative</title>
<path fill="none" stroke="gray" d="M931.95,-287.7C920.94,-276.85 906.82,-262.92 895.85,-252.1"/>
</g>
<!-- Bind&#45;&#45;Monad -->
<g id="edge8" class="edge">
<title>Bind&#45;&#45;Monad</title>
<path fill="none" stroke="gray" d="M1080.5,-143.7C1080.5,-132.85 1080.5,-118.92 1080.5,-108.1"/>
</g>
<!-- Store -->
<g id="node28" class="node">
<title>Store</title>
<polygon fill="black" stroke="transparent" points="727.5,-252 673.5,-252 673.5,-216 727.5,-216 727.5,-252"/>
<text text-anchor="middle" x="700.5" y="-230.3" font-family="Helvetica,sans-Serif" font-size="14.00" fill="white">Store</text>
</g>
<!-- Comonad&#45;&#45;Store -->
<g id="edge36" class="edge">
<title>Comonad&#45;&#45;Store</title>
<path fill="none" stroke="gray" d="M584.45,-287.91C607.74,-277.63 637.88,-264.21 664.5,-252 667.39,-250.67 670.4,-249.28 673.4,-247.87"/>
</g>
<!-- Env -->
<g id="node29" class="node">
<title>Env</title>
<polygon fill="black" stroke="transparent" points="799.5,-252 745.5,-252 745.5,-216 799.5,-216 799.5,-252"/>
<text text-anchor="middle" x="772.5" y="-230.3" font-family="Helvetica,sans-Serif" font-size="14.00" fill="white">Env</text>
</g>
<!-- Comonad&#45;&#45;Env -->
<g id="edge37" class="edge">
<title>Comonad&#45;&#45;Env</title>
<path fill="none" stroke="gray" d="M587.17,-290.84C590.32,-289.86 593.46,-288.9 596.5,-288 658.12,-269.83 676.07,-273.81 736.5,-252 739.36,-250.97 742.3,-249.79 745.21,-248.54"/>
</g>
<!-- Traced -->
<g id="node30" class="node">
<title>Traced</title>
<polygon fill="black" stroke="transparent" points="655.5,-252 593.5,-252 593.5,-216 655.5,-216 655.5,-252"/>
<text text-anchor="middle" x="624.5" y="-230.3" font-family="Helvetica,sans-Serif" font-size="14.00" fill="white">Traced</text>
</g>
<!-- Comonad&#45;&#45;Traced -->
<g id="edge38" class="edge">
<title>Comonad&#45;&#45;Traced</title>
<path fill="none" stroke="gray" d="M565.03,-287.7C577.27,-276.85 592.99,-262.92 605.2,-252.1"/>
</g>
<!-- Semigroup -->
<g id="node15" class="node">
<title>Semigroup</title>
<polygon fill="black" stroke="transparent" points="575.5,-252 483.5,-252 483.5,-216 575.5,-216 575.5,-252"/>
<text text-anchor="middle" x="529.5" y="-230.3" font-family="Helvetica,sans-Serif" font-size="14.00" fill="white">Semigroup</text>
</g>
<!-- Semigroup&#45;&#45;Alt -->
<g id="edge17" class="edge">
<title>Semigroup&#45;&#45;Alt</title>
<path fill="none" stroke="gray" stroke-dasharray="1,5" d="M575.57,-249.83C578.58,-250.61 581.57,-251.35 584.5,-252 696.63,-277.05 730.41,-255.1 840.5,-288 843.41,-288.87 846.39,-289.94 849.32,-291.13"/>
</g>
<!-- Monoid -->
<g id="node16" class="node">
<title>Monoid</title>
<polygon fill="black" stroke="transparent" points="663,-180 596,-180 596,-144 663,-144 663,-180"/>
<text text-anchor="middle" x="629.5" y="-158.3" font-family="Helvetica,sans-Serif" font-size="14.00" fill="white">Monoid</text>
</g>
<!-- Semigroup&#45;&#45;Monoid -->
<g id="edge14" class="edge">
<title>Semigroup&#45;&#45;Monoid</title>
<path fill="none" stroke="gray" d="M553.96,-215.88C569.46,-205.03 589.43,-191.05 604.94,-180.19"/>
</g>
<!-- Semigroupoid -->
<g id="node32" class="node">
<title>Semigroupoid</title>
<polygon fill="black" stroke="transparent" points="238,-324 125,-324 125,-288 238,-288 238,-324"/>
<text text-anchor="middle" x="181.5" y="-302.3" font-family="Helvetica,sans-Serif" font-size="14.00" fill="white">Semigroupoid</text>
</g>
<!-- Semigroup&#45;&#45;Semigroupoid -->
<g id="edge41" class="edge">
<title>Semigroup&#45;&#45;Semigroupoid</title>
<path fill="none" stroke="gray" stroke-dasharray="1,5" d="M483.47,-249.43C480.11,-250.35 476.76,-251.21 473.5,-252 392.49,-271.58 297.28,-287.57 238.15,-296.7"/>
</g>
<!-- Arrow_alt -->
<g id="node39" class="node">
<title>Arrow_alt</title>
<polygon fill="black" stroke="transparent" points="569.5,-108 489.5,-108 489.5,-72 569.5,-72 569.5,-108"/>
<text text-anchor="middle" x="529.5" y="-86.3" font-family="Helvetica,sans-Serif" font-size="14.00" fill="white">Arrow_alt</text>
</g>
<!-- Semigroup&#45;&#45;Arrow_alt -->
<g id="edge57" class="edge">
<title>Semigroup&#45;&#45;Arrow_alt</title>
<path fill="none" stroke="gray" stroke-dasharray="1,5" d="M529.5,-215.87C529.5,-188.58 529.5,-135.52 529.5,-108.19"/>
</g>
<!-- Monoid&#45;&#45;Monad -->
<g id="edge18" class="edge">
<title>Monoid&#45;&#45;Monad</title>
<path fill="none" stroke="gray" stroke-dasharray="1,5" d="M663.03,-155.8C747.24,-142.73 966.74,-108.66 1048.87,-95.91"/>
</g>
<!-- Monoid&#45;&#45;Alternative -->
<g id="edge15" class="edge">
<title>Monoid&#45;&#45;Alternative</title>
<path fill="none" stroke="gray" stroke-dasharray="1,5" d="M663.14,-162C702.52,-162 741.9,-162 781.28,-162"/>
</g>
<!-- Monoid&#45;&#45;Monad_plus -->
<g id="edge16" class="edge">
<title>Monoid&#45;&#45;Monad_plus</title>
<path fill="none" stroke="gray" stroke-dasharray="1,5" d="M595.99,-160.25C511.81,-157.32 302.93,-142.9 370.5,-72 427.98,-11.69 1037.33,-49.81 1119.5,-36 1122.19,-35.55 1124.93,-35.01 1127.69,-34.41"/>
</g>
<!-- Foldable -->
<g id="node17" class="node">
<title>Foldable</title>
<polygon fill="black" stroke="transparent" points="699.5,-108 625.5,-108 625.5,-72 699.5,-72 699.5,-108"/>
<text text-anchor="middle" x="662.5" y="-86.3" font-family="Helvetica,sans-Serif" font-size="14.00" fill="white">Foldable</text>
</g>
<!-- Monoid&#45;&#45;Foldable -->
<g id="edge19" class="edge">
<title>Monoid&#45;&#45;Foldable</title>
<path fill="none" stroke="gray" d="M637.66,-143.7C642.77,-132.85 649.34,-118.92 654.44,-108.1"/>
</g>
<!-- Category -->
<g id="node33" class="node">
<title>Category</title>
<polygon fill="black" stroke="transparent" points="221.5,-252 141.5,-252 141.5,-216 221.5,-216 221.5,-252"/>
<text text-anchor="middle" x="181.5" y="-230.3" font-family="Helvetica,sans-Serif" font-size="14.00" fill="white">Category</text>
</g>
<!-- Monoid&#45;&#45;Category -->
<g id="edge42" class="edge">
<title>Monoid&#45;&#45;Category</title>
<path fill="none" stroke="gray" stroke-dasharray="1,5" d="M595.98,-165.16C526.85,-170.11 363.76,-184.38 230.5,-216 227.61,-216.69 224.65,-217.48 221.69,-218.34"/>
</g>
<!-- Arrow_plus -->
<g id="node40" class="node">
<title>Arrow_plus</title>
<polygon fill="black" stroke="transparent" points="523.5,-36 431.5,-36 431.5,0 523.5,0 523.5,-36"/>
<text text-anchor="middle" x="477.5" y="-14.3" font-family="Helvetica,sans-Serif" font-size="14.00" fill="white">Arrow_plus</text>
</g>
<!-- Monoid&#45;&#45;Arrow_plus -->
<g id="edge56" class="edge">
<title>Monoid&#45;&#45;Arrow_plus</title>
<path fill="none" stroke="gray" stroke-dasharray="1,5" d="M623.06,-143.69C615.09,-124.22 599.92,-92.64 578.5,-72 562.67,-56.75 541.58,-44.76 522.77,-36.07"/>
</g>
<!-- Free_selective&#45;&#45;Selective -->
<g id="edge23" class="edge">
<title>Free_selective&#45;&#45;Selective</title>
<path fill="none" stroke="gray" d="M1090.48,-287.84C1089.69,-268.79 1086.01,-237.85 1071.5,-216 1061.54,-200.99 1045.74,-188.97 1031.13,-180.2"/>
</g>
<!-- Free_applicative&#45;&#45;Applicative -->
<g id="edge25" class="edge">
<title>Free_applicative&#45;&#45;Applicative</title>
<path fill="none" stroke="gray" d="M794.65,-287.88C811.85,-277.03 834.02,-263.05 851.24,-252.19"/>
</g>
<!-- Free_monad&#45;&#45;Monad -->
<g id="edge26" class="edge">
<title>Free_monad&#45;&#45;Monad</title>
<path fill="none" stroke="gray" d="M1152.02,-143.7C1137.29,-132.85 1118.39,-118.92 1103.71,-108.1"/>
</g>
<!-- Freer_selective -->
<g id="node21" class="node">
<title>Freer_selective</title>
<polygon fill="black" stroke="transparent" points="1062,-252 943,-252 943,-216 1062,-216 1062,-252"/>
<text text-anchor="middle" x="1002.5" y="-230.3" font-family="Helvetica,sans-Serif" font-size="14.00" fill="white">Freer_selective</text>
</g>
<!-- Freer_selective&#45;&#45;Selective -->
<g id="edge24" class="edge">
<title>Freer_selective&#45;&#45;Selective</title>
<path fill="none" stroke="gray" d="M1000.77,-215.7C999.68,-204.85 998.29,-190.92 997.21,-180.1"/>
</g>
<!-- Freer_monad -->
<g id="node22" class="node">
<title>Freer_monad</title>
<polygon fill="black" stroke="transparent" points="1349.5,-180 1243.5,-180 1243.5,-144 1349.5,-144 1349.5,-180"/>
<text text-anchor="middle" x="1296.5" y="-158.3" font-family="Helvetica,sans-Serif" font-size="14.00" fill="white">Freer_monad</text>
</g>
<!-- Freer_monad&#45;&#45;Monad -->
<g id="edge27" class="edge">
<title>Freer_monad&#45;&#45;Monad</title>
<path fill="none" stroke="gray" d="M1243.94,-143.97C1202.73,-130.61 1146.74,-112.47 1112.15,-101.26"/>
</g>
<!-- Strong -->
<g id="node35" class="node">
<title>Strong</title>
<polygon fill="black" stroke="transparent" points="383.5,-252 321.5,-252 321.5,-216 383.5,-216 383.5,-252"/>
<text text-anchor="middle" x="352.5" y="-230.3" font-family="Helvetica,sans-Serif" font-size="14.00" fill="white">Strong</text>
</g>
<!-- Profunctor&#45;&#45;Strong -->
<g id="edge45" class="edge">
<title>Profunctor&#45;&#45;Strong</title>
<path fill="none" stroke="gray" d="M402.94,-287.7C392.55,-276.85 379.22,-262.92 368.87,-252.1"/>
</g>
<!-- Choice -->
<g id="node36" class="node">
<title>Choice</title>
<polygon fill="black" stroke="transparent" points="303,-252 240,-252 240,-216 303,-216 303,-252"/>
<text text-anchor="middle" x="271.5" y="-230.3" font-family="Helvetica,sans-Serif" font-size="14.00" fill="white">Choice</text>
</g>
<!-- Profunctor&#45;&#45;Choice -->
<g id="edge46" class="edge">
<title>Profunctor&#45;&#45;Choice</title>
<path fill="none" stroke="gray" d="M383.3,-287.88C358.82,-276.3 326.81,-261.16 303.31,-250.05"/>
</g>
<!-- Closed -->
<g id="node37" class="node">
<title>Closed</title>
<polygon fill="black" stroke="transparent" points="465,-252 402,-252 402,-216 465,-216 465,-252"/>
<text text-anchor="middle" x="433.5" y="-230.3" font-family="Helvetica,sans-Serif" font-size="14.00" fill="white">Closed</text>
</g>
<!-- Profunctor&#45;&#45;Closed -->
<g id="edge47" class="edge">
<title>Profunctor&#45;&#45;Closed</title>
<path fill="none" stroke="gray" d="M422.96,-287.7C425.13,-276.85 427.92,-262.92 430.08,-252.1"/>
</g>
<!-- Semigroupoid&#45;&#45;Category -->
<g id="edge43" class="edge">
<title>Semigroupoid&#45;&#45;Category</title>
<path fill="none" stroke="gray" d="M181.5,-287.7C181.5,-276.85 181.5,-262.92 181.5,-252.1"/>
</g>
<!-- Arrow -->
<g id="node34" class="node">
<title>Arrow</title>
<polygon fill="black" stroke="transparent" points="379.5,-180 323.5,-180 323.5,-144 379.5,-144 379.5,-180"/>
<text text-anchor="middle" x="351.5" y="-158.3" font-family="Helvetica,sans-Serif" font-size="14.00" fill="white">Arrow</text>
</g>
<!-- Category&#45;&#45;Arrow -->
<g id="edge44" class="edge">
<title>Category&#45;&#45;Arrow</title>
<path fill="none" stroke="gray" d="M221.79,-216.41C253.11,-203.51 295.75,-185.95 323.45,-174.55"/>
</g>
<!-- Arrow_zero -->
<g id="node38" class="node">
<title>Arrow_zero</title>
<polygon fill="black" stroke="transparent" points="471.5,-108 379.5,-108 379.5,-72 471.5,-72 471.5,-108"/>
<text text-anchor="middle" x="425.5" y="-86.3" font-family="Helvetica,sans-Serif" font-size="14.00" fill="white">Arrow_zero</text>
</g>
<!-- Arrow&#45;&#45;Arrow_zero -->
<g id="edge49" class="edge">
<title>Arrow&#45;&#45;Arrow_zero</title>
<path fill="none" stroke="gray" d="M369.79,-143.7C381.26,-132.85 395.99,-118.92 407.42,-108.1"/>
</g>
<!-- Arrow&#45;&#45;Arrow_alt -->
<g id="edge50" class="edge">
<title>Arrow&#45;&#45;Arrow_alt</title>
<path fill="none" stroke="gray" d="M379.7,-149.91C409.21,-138.3 455.8,-119.98 489.18,-106.86"/>
</g>
<!-- Arrow&#45;&#45;Arrow_plus -->
<g id="edge51" class="edge">
<title>Arrow&#45;&#45;Arrow_plus</title>
<path fill="none" stroke="gray" d="M350.92,-143.76C351.16,-124.36 354.31,-92.83 370.5,-72 385.64,-52.52 409.82,-39.7 431.37,-31.55"/>
</g>
<!-- Arrow_choice -->
<g id="node41" class="node">
<title>Arrow_choice</title>
<polygon fill="black" stroke="transparent" points="166,-108 59,-108 59,-72 166,-72 166,-108"/>
<text text-anchor="middle" x="112.5" y="-86.3" font-family="Helvetica,sans-Serif" font-size="14.00" fill="white">Arrow_choice</text>
</g>
<!-- Arrow&#45;&#45;Arrow_choice -->
<g id="edge52" class="edge">
<title>Arrow&#45;&#45;Arrow_choice</title>
<path fill="none" stroke="gray" d="M323.15,-152.7C284.57,-141.4 214.78,-120.96 166.15,-106.71"/>
</g>
<!-- Arrow_apply -->
<g id="node42" class="node">
<title>Arrow_apply</title>
<polygon fill="black" stroke="transparent" points="285,-108 184,-108 184,-72 285,-72 285,-108"/>
<text text-anchor="middle" x="234.5" y="-86.3" font-family="Helvetica,sans-Serif" font-size="14.00" fill="white">Arrow_apply</text>
</g>
<!-- Arrow&#45;&#45;Arrow_apply -->
<g id="edge53" class="edge">
<title>Arrow&#45;&#45;Arrow_apply</title>
<path fill="none" stroke="gray" d="M323.48,-144.23C305.22,-133.31 281.48,-119.11 263.11,-108.12"/>
</g>
<!-- Strong&#45;&#45;Arrow -->
<g id="edge48" class="edge">
<title>Strong&#45;&#45;Arrow</title>
<path fill="none" stroke="gray" d="M352.25,-215.7C352.1,-204.85 351.9,-190.92 351.74,-180.1"/>
</g>
<!-- Arrow_zero&#45;&#45;Arrow_plus -->
<g id="edge54" class="edge">
<title>Arrow_zero&#45;&#45;Arrow_plus</title>
<path fill="none" stroke="gray" stroke-dasharray="1,5" d="M438.35,-71.7C446.41,-60.85 456.76,-46.92 464.79,-36.1"/>
</g>
<!-- Arrow_alt&#45;&#45;Arrow_plus -->
<g id="edge55" class="edge">
<title>Arrow_alt&#45;&#45;Arrow_plus</title>
<path fill="none" stroke="gray" stroke-dasharray="1,5" d="M516.65,-71.7C508.59,-60.85 498.24,-46.92 490.21,-36.1"/>
</g>
<!-- Meet_semilattice -->
<g id="node43" class="node">
<title>Meet_semilattice</title>
<polygon fill="black" stroke="transparent" points="1053.5,-468 921.5,-468 921.5,-432 1053.5,-432 1053.5,-468"/>
<text text-anchor="middle" x="987.5" y="-446.3" font-family="Helvetica,sans-Serif" font-size="14.00" fill="white">Meet_semilattice</text>
</g>
<!-- Meet_semilattice&#45;&#45;Semigroup -->
<g id="edge58" class="edge">
<title>Meet_semilattice&#45;&#45;Semigroup</title>
<path fill="none" stroke="gray" stroke-dasharray="1,5" d="M922.68,-431.95C905,-424 887.87,-412.51 877.5,-396 868.99,-382.45 866.93,-372.02 877.5,-360 960.06,-266.11 1073.94,-417.89 1156.5,-324 1167.07,-311.98 1167.45,-299.66 1156.5,-288 1112.91,-241.58 647.14,-263.48 584.5,-252 581.55,-251.46 578.54,-250.81 575.52,-250.09"/>
</g>
<!-- Bounded_meet_semilattice -->
<g id="node44" class="node">
<title>Bounded_meet_semilattice</title>
<polygon fill="black" stroke="transparent" points="1089,-396 886,-396 886,-360 1089,-360 1089,-396"/>
<text text-anchor="middle" x="987.5" y="-374.3" font-family="Helvetica,sans-Serif" font-size="14.00" fill="white">Bounded_meet_semilattice</text>
</g>
<!-- Meet_semilattice&#45;&#45;Bounded_meet_semilattice -->
<g id="edge59" class="edge">
<title>Meet_semilattice&#45;&#45;Bounded_meet_semilattice</title>
<path fill="none" stroke="gray" d="M987.5,-431.7C987.5,-420.85 987.5,-406.92 987.5,-396.1"/>
</g>
<!-- Join_semilattice -->
<g id="node45" class="node">
<title>Join_semilattice</title>
<polygon fill="black" stroke="transparent" points="1231.5,-468 1107.5,-468 1107.5,-432 1231.5,-432 1231.5,-468"/>
<text text-anchor="middle" x="1169.5" y="-446.3" font-family="Helvetica,sans-Serif" font-size="14.00" fill="white">Join_semilattice</text>
</g>
<!-- Join_semilattice&#45;&#45;Semigroup -->
<g id="edge60" class="edge">
<title>Join_semilattice&#45;&#45;Semigroup</title>
<path fill="none" stroke="gray" stroke-dasharray="1,5" d="M1176.88,-431.94C1189.75,-399.23 1211.58,-327.41 1174.5,-288 1129.5,-240.17 649.11,-263.78 584.5,-252 581.55,-251.46 578.54,-250.82 575.51,-250.1"/>
</g>
<!-- Join_semilattice&#45;&#45;Meet_semilattice -->
<g id="edge61" class="edge">
<title>Join_semilattice&#45;&#45;Meet_semilattice</title>
<path fill="none" stroke="gray" stroke-dasharray="1,5" d="M1107.48,-450C1089.53,-450 1071.57,-450 1053.62,-450"/>
</g>
</g>
</svg>
