<?xml version="1.0" encoding="UTF-8" standalone="no"?>
<!DOCTYPE svg PUBLIC "-//W3C//DTD SVG 1.1//EN"
 "http://www.w3.org/Graphics/SVG/1.1/DTD/svg11.dtd">
<!-- Generated by graphviz version 2.43.0 (0)
 -->
<!-- Title: %3 Pages: 1 -->
<svg width="1032pt" height="404pt"
 viewBox="0.00 0.00 1032.00 404.00" xmlns="http://www.w3.org/2000/svg" xmlns:xlink="http://www.w3.org/1999/xlink">
<g id="graph0" class="graph" transform="scale(1 1) rotate(0) translate(4 400)">
<title>%3</title>
<polygon fill="white" stroke="transparent" points="-4,4 -4,-400 1028,-400 1028,4 -4,4"/>
<!-- Contravariant -->
<g id="node1" class="node">
<title>Contravariant</title>
<polygon fill="black" stroke="transparent" points="230,-396 118,-396 118,-360 230,-360 230,-396"/>
<text text-anchor="middle" x="174" y="-374.3" font-family="Helvetica,sans-Serif" font-size="14.00" fill="white">Contravariant</text>
</g>
<!-- Divisible -->
<g id="node2" class="node">
<title>Divisible</title>
<polygon fill="black" stroke="transparent" points="161.5,-324 86.5,-324 86.5,-288 161.5,-288 161.5,-324"/>
<text text-anchor="middle" x="124" y="-302.3" font-family="Helvetica,sans-Serif" font-size="14.00" fill="white">Divisible</text>
</g>
<!-- Contravariant&#45;&#45;Divisible -->
<g id="edge21" class="edge">
<title>Contravariant&#45;&#45;Divisible</title>
<path fill="none" stroke="gray" d="M161.64,-359.7C153.89,-348.85 143.94,-334.92 136.22,-324.1"/>
</g>
<!-- Profunctor -->
<g id="node18" class="node">
<title>Profunctor</title>
<polygon fill="black" stroke="transparent" points="268.5,-324 179.5,-324 179.5,-288 268.5,-288 268.5,-324"/>
<text text-anchor="middle" x="224" y="-302.3" font-family="Helvetica,sans-Serif" font-size="14.00" fill="white">Profunctor</text>
</g>
<!-- Contravariant&#45;&#45;Profunctor -->
<g id="edge22" class="edge">
<title>Contravariant&#45;&#45;Profunctor</title>
<path fill="none" stroke="gray" d="M186.36,-359.7C194.11,-348.85 204.06,-334.92 211.78,-324.1"/>
</g>
<!-- Functor -->
<g id="node3" class="node">
<title>Functor</title>
<polygon fill="black" stroke="transparent" points="611.5,-396 542.5,-396 542.5,-360 611.5,-360 611.5,-396"/>
<text text-anchor="middle" x="577" y="-374.3" font-family="Helvetica,sans-Serif" font-size="14.00" fill="white">Functor</text>
</g>
<!-- Applicative -->
<g id="node4" class="node">
<title>Applicative</title>
<polygon fill="black" stroke="transparent" points="950.5,-252 857.5,-252 857.5,-216 950.5,-216 950.5,-252"/>
<text text-anchor="middle" x="904" y="-230.3" font-family="Helvetica,sans-Serif" font-size="14.00" fill="white">Applicative</text>
</g>
<!-- Functor&#45;&#45;Applicative -->
<g id="edge1" class="edge">
<title>Functor&#45;&#45;Applicative</title>
<path fill="none" stroke="gray" d="M611.56,-369.52C648.3,-360.95 707.65,-345.28 756,-324 780.29,-313.31 841.74,-274.86 877.35,-252.14"/>
</g>
<!-- Alt -->
<g id="node9" class="node">
<title>Alt</title>
<polygon fill="black" stroke="transparent" points="577,-324 523,-324 523,-288 577,-288 577,-324"/>
<text text-anchor="middle" x="550" y="-302.3" font-family="Helvetica,sans-Serif" font-size="14.00" fill="white">Alt</text>
</g>
<!-- Functor&#45;&#45;Alt -->
<g id="edge6" class="edge">
<title>Functor&#45;&#45;Alt</title>
<path fill="none" stroke="gray" d="M570.33,-359.7C566.14,-348.85 560.77,-334.92 556.6,-324.1"/>
</g>
<!-- Comonad -->
<g id="node10" class="node">
<title>Comonad</title>
<polygon fill="black" stroke="transparent" points="746.5,-324 663.5,-324 663.5,-288 746.5,-288 746.5,-324"/>
<text text-anchor="middle" x="705" y="-302.3" font-family="Helvetica,sans-Serif" font-size="14.00" fill="white">Comonad</text>
</g>
<!-- Functor&#45;&#45;Comonad -->
<g id="edge7" class="edge">
<title>Functor&#45;&#45;Comonad</title>
<path fill="none" stroke="gray" d="M608.31,-359.88C628.15,-349.03 653.71,-335.05 673.57,-324.19"/>
</g>
<!-- Free_selective -->
<g id="node14" class="node">
<title>Free_selective</title>
<polygon fill="black" stroke="transparent" points="504.5,-324 391.5,-324 391.5,-288 504.5,-288 504.5,-324"/>
<text text-anchor="middle" x="448" y="-302.3" font-family="Helvetica,sans-Serif" font-size="14.00" fill="white">Free_selective</text>
</g>
<!-- Functor&#45;&#45;Free_selective -->
<g id="edge14" class="edge">
<title>Functor&#45;&#45;Free_selective</title>
<path fill="none" stroke="gray" stroke-dasharray="1,5" d="M545.44,-359.88C525.45,-349.03 499.69,-335.05 479.68,-324.19"/>
</g>
<!-- Free_applicative -->
<g id="node15" class="node">
<title>Free_applicative</title>
<polygon fill="black" stroke="transparent" points="957.5,-324 830.5,-324 830.5,-288 957.5,-288 957.5,-324"/>
<text text-anchor="middle" x="894" y="-302.3" font-family="Helvetica,sans-Serif" font-size="14.00" fill="white">Free_applicative</text>
</g>
<!-- Functor&#45;&#45;Free_applicative -->
<g id="edge15" class="edge">
<title>Functor&#45;&#45;Free_applicative</title>
<path fill="none" stroke="gray" stroke-dasharray="1,5" d="M611.53,-369.38C663.92,-357.81 764.36,-335.63 830.26,-321.07"/>
</g>
<!-- Free_monad -->
<g id="node16" class="node">
<title>Free_monad</title>
<polygon fill="black" stroke="transparent" points="654,-180 554,-180 554,-144 654,-144 654,-180"/>
<text text-anchor="middle" x="604" y="-158.3" font-family="Helvetica,sans-Serif" font-size="14.00" fill="white">Free_monad</text>
</g>
<!-- Functor&#45;&#45;Free_monad -->
<g id="edge16" class="edge">
<title>Functor&#45;&#45;Free_monad</title>
<path fill="none" stroke="gray" stroke-dasharray="1,5" d="M580.17,-359.85C582.02,-349.49 584.31,-336.01 586,-324 593.33,-271.92 599.55,-210.02 602.38,-180.43"/>
</g>
<!-- Functor&#45;&#45;Profunctor -->
<g id="edge23" class="edge">
<title>Functor&#45;&#45;Profunctor</title>
<path fill="none" stroke="gray" d="M542.5,-371.87C487.49,-363.45 376.66,-345.46 284,-324 279.04,-322.85 273.88,-321.55 268.76,-320.2"/>
</g>
<!-- Bifunctor -->
<g id="node19" class="node">
<title>Bifunctor</title>
<polygon fill="black" stroke="transparent" points="373,-324 293,-324 293,-288 373,-288 373,-324"/>
<text text-anchor="middle" x="333" y="-302.3" font-family="Helvetica,sans-Serif" font-size="14.00" fill="white">Bifunctor</text>
</g>
<!-- Functor&#45;&#45;Bifunctor -->
<g id="edge24" class="edge">
<title>Functor&#45;&#45;Bifunctor</title>
<path fill="none" stroke="gray" d="M542.47,-368.25C503.54,-358.22 438.42,-340.97 383,-324 379.76,-323.01 376.41,-321.95 373.05,-320.86"/>
</g>
<!-- Selective -->
<g id="node5" class="node">
<title>Selective</title>
<polygon fill="black" stroke="transparent" points="751.5,-180 672.5,-180 672.5,-144 751.5,-144 751.5,-180"/>
<text text-anchor="middle" x="712" y="-158.3" font-family="Helvetica,sans-Serif" font-size="14.00" fill="white">Selective</text>
</g>
<!-- Applicative&#45;&#45;Selective -->
<g id="edge2" class="edge">
<title>Applicative&#45;&#45;Selective</title>
<path fill="none" stroke="gray" d="M857.03,-215.88C824.73,-204.1 782.29,-188.63 751.68,-177.47"/>
</g>
<!-- Alternative -->
<g id="node7" class="node">
<title>Alternative</title>
<polygon fill="black" stroke="transparent" points="1024,-180 932,-180 932,-144 1024,-144 1024,-180"/>
<text text-anchor="middle" x="978" y="-158.3" font-family="Helvetica,sans-Serif" font-size="14.00" fill="white">Alternative</text>
</g>
<!-- Applicative&#45;&#45;Alternative -->
<g id="edge4" class="edge">
<title>Applicative&#45;&#45;Alternative</title>
<path fill="none" stroke="gray" d="M922.29,-215.7C933.76,-204.85 948.49,-190.92 959.92,-180.1"/>
</g>
<!-- Traversable -->
<g id="node26" class="node">
<title>Traversable</title>
<polygon fill="black" stroke="transparent" points="952.5,-36 855.5,-36 855.5,0 952.5,0 952.5,-36"/>
<text text-anchor="middle" x="904" y="-14.3" font-family="Helvetica,sans-Serif" font-size="14.00" fill="white">Traversable</text>
</g>
<!-- Applicative&#45;&#45;Traversable -->
<g id="edge31" class="edge">
<title>Applicative&#45;&#45;Traversable</title>
<path fill="none" stroke="gray" d="M904,-215.85C904,-175.78 904,-76.38 904,-36.23"/>
</g>
<!-- Monad -->
<g id="node6" class="node">
<title>Monad</title>
<polygon fill="black" stroke="transparent" points="722.5,-108 659.5,-108 659.5,-72 722.5,-72 722.5,-108"/>
<text text-anchor="middle" x="691" y="-86.3" font-family="Helvetica,sans-Serif" font-size="14.00" fill="white">Monad</text>
</g>
<!-- Selective&#45;&#45;Monad -->
<g id="edge3" class="edge">
<title>Selective&#45;&#45;Monad</title>
<path fill="none" stroke="gray" d="M706.81,-143.7C703.55,-132.85 699.38,-118.92 696.13,-108.1"/>
</g>
<!-- Monad_plus -->
<g id="node8" class="node">
<title>Monad_plus</title>
<polygon fill="black" stroke="transparent" points="837.5,-36 738.5,-36 738.5,0 837.5,0 837.5,-36"/>
<text text-anchor="middle" x="788" y="-14.3" font-family="Helvetica,sans-Serif" font-size="14.00" fill="white">Monad_plus</text>
</g>
<!-- Monad&#45;&#45;Monad_plus -->
<g id="edge5" class="edge">
<title>Monad&#45;&#45;Monad_plus</title>
<path fill="none" stroke="gray" d="M714.98,-71.7C730.01,-60.85 749.32,-46.92 764.3,-36.1"/>
</g>
<!-- State -->
<g id="node20" class="node">
<title>State</title>
<polygon fill="black" stroke="transparent" points="560,-36 506,-36 506,0 560,0 560,-36"/>
<text text-anchor="middle" x="533" y="-14.3" font-family="Helvetica,sans-Serif" font-size="14.00" fill="white">State</text>
</g>
<!-- Monad&#45;&#45;State -->
<g id="edge25" class="edge">
<title>Monad&#45;&#45;State</title>
<path fill="none" stroke="gray" d="M659.34,-75.32C634.89,-64.7 600.24,-49.57 570,-36 566.78,-34.55 563.4,-33.02 560.05,-31.5"/>
</g>
<!-- Reader -->
<g id="node21" class="node">
<title>Reader</title>
<polygon fill="black" stroke="transparent" points="643.5,-36 578.5,-36 578.5,0 643.5,0 643.5,-36"/>
<text text-anchor="middle" x="611" y="-14.3" font-family="Helvetica,sans-Serif" font-size="14.00" fill="white">Reader</text>
</g>
<!-- Monad&#45;&#45;Reader -->
<g id="edge26" class="edge">
<title>Monad&#45;&#45;Reader</title>
<path fill="none" stroke="gray" d="M671.22,-71.7C658.82,-60.85 642.9,-46.92 630.55,-36.1"/>
</g>
<!-- Writer -->
<g id="node22" class="node">
<title>Writer</title>
<polygon fill="black" stroke="transparent" points="720.5,-36 661.5,-36 661.5,0 720.5,0 720.5,-36"/>
<text text-anchor="middle" x="691" y="-14.3" font-family="Helvetica,sans-Serif" font-size="14.00" fill="white">Writer</text>
</g>
<!-- Monad&#45;&#45;Writer -->
<g id="edge27" class="edge">
<title>Monad&#45;&#45;Writer</title>
<path fill="none" stroke="gray" d="M691,-71.7C691,-60.85 691,-46.92 691,-36.1"/>
</g>
<!-- Monad&#45;&#45;Traversable -->
<g id="edge32" class="edge">
<title>Monad&#45;&#45;Traversable</title>
<path fill="none" stroke="gray" d="M722.89,-78.52C757.94,-67 814.65,-48.36 855.28,-35.01"/>
</g>
<!-- Store -->
<g id="node23" class="node">
<title>Store</title>
<polygon fill="black" stroke="transparent" points="839,-252 785,-252 785,-216 839,-216 839,-252"/>
<text text-anchor="middle" x="812" y="-230.3" font-family="Helvetica,sans-Serif" font-size="14.00" fill="white">Store</text>
</g>
<!-- Comonad&#45;&#45;Store -->
<g id="edge28" class="edge">
<title>Comonad&#45;&#45;Store</title>
<path fill="none" stroke="gray" d="M731.18,-287.88C747.76,-277.03 769.12,-263.05 785.72,-252.19"/>
</g>
<!-- Env -->
<g id="node24" class="node">
<title>Env</title>
<polygon fill="black" stroke="transparent" points="687,-252 633,-252 633,-216 687,-216 687,-252"/>
<text text-anchor="middle" x="660" y="-230.3" font-family="Helvetica,sans-Serif" font-size="14.00" fill="white">Env</text>
</g>
<!-- Comonad&#45;&#45;Env -->
<g id="edge29" class="edge">
<title>Comonad&#45;&#45;Env</title>
<path fill="none" stroke="gray" d="M693.88,-287.7C686.9,-276.85 677.95,-262.92 671,-252.1"/>
</g>
<!-- Traced -->
<g id="node25" class="node">
<title>Traced</title>
<polygon fill="black" stroke="transparent" points="767,-252 705,-252 705,-216 767,-216 767,-252"/>
<text text-anchor="middle" x="736" y="-230.3" font-family="Helvetica,sans-Serif" font-size="14.00" fill="white">Traced</text>
</g>
<!-- Comonad&#45;&#45;Traced -->
<g id="edge30" class="edge">
<title>Comonad&#45;&#45;Traced</title>
<path fill="none" stroke="gray" d="M712.66,-287.7C717.47,-276.85 723.64,-262.92 728.43,-252.1"/>
</g>
<!-- Semigroup -->
<g id="node11" class="node">
<title>Semigroup</title>
<polygon fill="black" stroke="transparent" points="539,-252 447,-252 447,-216 539,-216 539,-252"/>
<text text-anchor="middle" x="493" y="-230.3" font-family="Helvetica,sans-Serif" font-size="14.00" fill="white">Semigroup</text>
</g>
<!-- Semigroup&#45;&#45;Alt -->
<g id="edge11" class="edge">
<title>Semigroup&#45;&#45;Alt</title>
<path fill="none" stroke="gray" stroke-dasharray="1,5" d="M506.93,-252.1C515.73,-262.92 527.07,-276.85 535.91,-287.7"/>
</g>
<!-- Monoid -->
<g id="node12" class="node">
<title>Monoid</title>
<polygon fill="black" stroke="transparent" points="534.5,-180 467.5,-180 467.5,-144 534.5,-144 534.5,-180"/>
<text text-anchor="middle" x="501" y="-158.3" font-family="Helvetica,sans-Serif" font-size="14.00" fill="white">Monoid</text>
</g>
<!-- Semigroup&#45;&#45;Monoid -->
<g id="edge8" class="edge">
<title>Semigroup&#45;&#45;Monoid</title>
<path fill="none" stroke="gray" d="M494.98,-215.7C496.22,-204.85 497.81,-190.92 499.05,-180.1"/>
</g>
<!-- Arrow_alt -->
<g id="node33" class="node">
<title>Arrow_alt</title>
<polygon fill="black" stroke="transparent" points="473,-108 393,-108 393,-72 473,-72 473,-108"/>
<text text-anchor="middle" x="433" y="-86.3" font-family="Helvetica,sans-Serif" font-size="14.00" fill="white">Arrow_alt</text>
</g>
<!-- Semigroup&#45;&#45;Arrow_alt -->
<g id="edge47" class="edge">
<title>Semigroup&#45;&#45;Arrow_alt</title>
<path fill="none" stroke="gray" stroke-dasharray="1,5" d="M480.02,-215.58C473.03,-205.57 464.71,-192.54 459,-180 448.13,-156.12 440.56,-126.57 436.5,-108.25"/>
</g>
<!-- Monoid&#45;&#45;Monad -->
<g id="edge12" class="edge">
<title>Monoid&#45;&#45;Monad</title>
<path fill="none" stroke="gray" stroke-dasharray="1,5" d="M534.6,-147.93C538.11,-146.59 541.62,-145.26 545,-144 589.26,-127.49 600.62,-124.19 645,-108 649.64,-106.31 654.54,-104.51 659.34,-102.74"/>
</g>
<!-- Monoid&#45;&#45;Alternative -->
<g id="edge9" class="edge">
<title>Monoid&#45;&#45;Alternative</title>
<path fill="none" stroke="gray" stroke-dasharray="1,5" d="M521.39,-180.07C530.67,-187.12 542.2,-194.37 554,-198 622.18,-218.97 804.67,-209.94 875,-198 895.73,-194.48 917.85,-187.25 936.25,-180.18"/>
</g>
<!-- Monoid&#45;&#45;Monad_plus -->
<g id="edge10" class="edge">
<title>Monoid&#45;&#45;Monad_plus</title>
<path fill="none" stroke="gray" stroke-dasharray="1,5" d="M534.96,-147.93C557.69,-138.43 587.78,-124.41 612,-108 631.53,-94.77 630.98,-84.48 651,-72 678.05,-55.14 711.35,-42.11 738.35,-33.19"/>
</g>
<!-- Foldable -->
<g id="node13" class="node">
<title>Foldable</title>
<polygon fill="black" stroke="transparent" points="603,-108 529,-108 529,-72 603,-72 603,-108"/>
<text text-anchor="middle" x="566" y="-86.3" font-family="Helvetica,sans-Serif" font-size="14.00" fill="white">Foldable</text>
</g>
<!-- Monoid&#45;&#45;Foldable -->
<g id="edge13" class="edge">
<title>Monoid&#45;&#45;Foldable</title>
<path fill="none" stroke="gray" d="M517.07,-143.7C527.14,-132.85 540.08,-118.92 550.12,-108.1"/>
</g>
<!-- Category -->
<g id="node27" class="node">
<title>Category</title>
<polygon fill="black" stroke="transparent" points="347,-252 267,-252 267,-216 347,-216 347,-252"/>
<text text-anchor="middle" x="307" y="-230.3" font-family="Helvetica,sans-Serif" font-size="14.00" fill="white">Category</text>
</g>
<!-- Monoid&#45;&#45;Category -->
<g id="edge33" class="edge">
<title>Monoid&#45;&#45;Category</title>
<path fill="none" stroke="gray" stroke-dasharray="1,5" d="M467.32,-175.15C433.91,-187.21 382.71,-205.68 347.2,-218.5"/>
</g>
<!-- Arrow_plus -->
<g id="node34" class="node">
<title>Arrow_plus</title>
<polygon fill="black" stroke="transparent" points="323,-36 231,-36 231,0 323,0 323,-36"/>
<text text-anchor="middle" x="277" y="-14.3" font-family="Helvetica,sans-Serif" font-size="14.00" fill="white">Arrow_plus</text>
</g>
<!-- Monoid&#45;&#45;Arrow_plus -->
<g id="edge46" class="edge">
<title>Monoid&#45;&#45;Arrow_plus</title>
<path fill="none" stroke="gray" stroke-dasharray="1,5" d="M502.31,-143.83C502.84,-123.89 500.47,-91.28 482,-72 460.32,-49.37 376.58,-33.38 323.07,-25.21"/>
</g>
<!-- Free_selective&#45;&#45;Selective -->
<g id="edge17" class="edge">
<title>Free_selective&#45;&#45;Selective</title>
<path fill="none" stroke="gray" d="M480.47,-287.89C500.05,-277.55 525.49,-264.07 548,-252 594.25,-227.2 647.64,-198.14 680.61,-180.15"/>
</g>
<!-- Free_applicative&#45;&#45;Applicative -->
<g id="edge18" class="edge">
<title>Free_applicative&#45;&#45;Applicative</title>
<path fill="none" stroke="gray" d="M896.47,-287.7C898.02,-276.85 900.01,-262.92 901.56,-252.1"/>
</g>
<!-- Free_monad&#45;&#45;Monad -->
<g id="edge19" class="edge">
<title>Free_monad&#45;&#45;Monad</title>
<path fill="none" stroke="gray" d="M625.51,-143.7C638.99,-132.85 656.3,-118.92 669.74,-108.1"/>
</g>
<!-- Freer_monad -->
<g id="node17" class="node">
<title>Freer_monad</title>
<polygon fill="black" stroke="transparent" points="875,-180 769,-180 769,-144 875,-144 875,-180"/>
<text text-anchor="middle" x="822" y="-158.3" font-family="Helvetica,sans-Serif" font-size="14.00" fill="white">Freer_monad</text>
</g>
<!-- Freer_monad&#45;&#45;Monad -->
<g id="edge20" class="edge">
<title>Freer_monad&#45;&#45;Monad</title>
<path fill="none" stroke="gray" d="M789.95,-143.88C769.5,-132.95 743.1,-118.84 722.72,-107.95"/>
</g>
<!-- Strong -->
<g id="node29" class="node">
<title>Strong</title>
<polygon fill="black" stroke="transparent" points="167,-252 105,-252 105,-216 167,-216 167,-252"/>
<text text-anchor="middle" x="136" y="-230.3" font-family="Helvetica,sans-Serif" font-size="14.00" fill="white">Strong</text>
</g>
<!-- Profunctor&#45;&#45;Strong -->
<g id="edge35" class="edge">
<title>Profunctor&#45;&#45;Strong</title>
<path fill="none" stroke="gray" d="M202.25,-287.7C188.61,-276.85 171.1,-262.92 157.5,-252.1"/>
</g>
<!-- Choice -->
<g id="node30" class="node">
<title>Choice</title>
<polygon fill="black" stroke="transparent" points="248.5,-252 185.5,-252 185.5,-216 248.5,-216 248.5,-252"/>
<text text-anchor="middle" x="217" y="-230.3" font-family="Helvetica,sans-Serif" font-size="14.00" fill="white">Choice</text>
</g>
<!-- Profunctor&#45;&#45;Choice -->
<g id="edge36" class="edge">
<title>Profunctor&#45;&#45;Choice</title>
<path fill="none" stroke="gray" d="M222.27,-287.7C221.18,-276.85 219.79,-262.92 218.71,-252.1"/>
</g>
<!-- Closed -->
<g id="node31" class="node">
<title>Closed</title>
<polygon fill="black" stroke="transparent" points="428.5,-252 365.5,-252 365.5,-216 428.5,-216 428.5,-252"/>
<text text-anchor="middle" x="397" y="-230.3" font-family="Helvetica,sans-Serif" font-size="14.00" fill="white">Closed</text>
</g>
<!-- Profunctor&#45;&#45;Closed -->
<g id="edge37" class="edge">
<title>Profunctor&#45;&#45;Closed</title>
<path fill="none" stroke="gray" d="M266.85,-287.94C292.7,-277.61 326.28,-264.13 356,-252 359,-250.78 362.11,-249.5 365.23,-248.21"/>
</g>
<!-- Arrow -->
<g id="node28" class="node">
<title>Arrow</title>
<polygon fill="black" stroke="transparent" points="230,-180 174,-180 174,-144 230,-144 230,-180"/>
<text text-anchor="middle" x="202" y="-158.3" font-family="Helvetica,sans-Serif" font-size="14.00" fill="white">Arrow</text>
</g>
<!-- Category&#45;&#45;Arrow -->
<g id="edge34" class="edge">
<title>Category&#45;&#45;Arrow</title>
<path fill="none" stroke="gray" d="M281.31,-215.88C265.04,-205.03 244.07,-191.05 227.78,-180.19"/>
</g>
<!-- Arrow_zero -->
<g id="node32" class="node">
<title>Arrow_zero</title>
<polygon fill="black" stroke="transparent" points="92,-108 0,-108 0,-72 92,-72 92,-108"/>
<text text-anchor="middle" x="46" y="-86.3" font-family="Helvetica,sans-Serif" font-size="14.00" fill="white">Arrow_zero</text>
</g>
<!-- Arrow&#45;&#45;Arrow_zero -->
<g id="edge39" class="edge">
<title>Arrow&#45;&#45;Arrow_zero</title>
<path fill="none" stroke="gray" d="M173.75,-148.32C148.64,-137.06 111.72,-120.49 84.02,-108.06"/>
</g>
<!-- Arrow&#45;&#45;Arrow_alt -->
<g id="edge40" class="edge">
<title>Arrow&#45;&#45;Arrow_alt</title>
<path fill="none" stroke="gray" d="M230.19,-153.27C266.08,-143.31 329.91,-125.25 384,-108 386.92,-107.07 389.92,-106.09 392.94,-105.08"/>
</g>
<!-- Arrow&#45;&#45;Arrow_plus -->
<g id="edge41" class="edge">
<title>Arrow&#45;&#45;Arrow_plus</title>
<path fill="none" stroke="gray" d="M173.68,-145.18C160.53,-136.17 146.24,-123.55 139,-108 132.25,-93.49 129.94,-85.19 139,-72 159.49,-42.18 199.28,-29.13 230.88,-23.42"/>
</g>
<!-- Arrow_choice -->
<g id="node35" class="node">
<title>Arrow_choice</title>
<polygon fill="black" stroke="transparent" points="255.5,-108 148.5,-108 148.5,-72 255.5,-72 255.5,-108"/>
<text text-anchor="middle" x="202" y="-86.3" font-family="Helvetica,sans-Serif" font-size="14.00" fill="white">Arrow_choice</text>
</g>
<!-- Arrow&#45;&#45;Arrow_choice -->
<g id="edge42" class="edge">
<title>Arrow&#45;&#45;Arrow_choice</title>
<path fill="none" stroke="gray" d="M202,-143.7C202,-132.85 202,-118.92 202,-108.1"/>
</g>
<!-- Arrow_apply -->
<g id="node36" class="node">
<title>Arrow_apply</title>
<polygon fill="black" stroke="transparent" points="374.5,-108 273.5,-108 273.5,-72 374.5,-72 374.5,-108"/>
<text text-anchor="middle" x="324" y="-86.3" font-family="Helvetica,sans-Serif" font-size="14.00" fill="white">Arrow_apply</text>
</g>
<!-- Arrow&#45;&#45;Arrow_apply -->
<g id="edge43" class="edge">
<title>Arrow&#45;&#45;Arrow_apply</title>
<path fill="none" stroke="gray" d="M230.3,-144.76C249.44,-133.78 274.69,-119.29 294.16,-108.12"/>
</g>
<!-- Strong&#45;&#45;Arrow -->
<g id="edge38" class="edge">
<title>Strong&#45;&#45;Arrow</title>
<path fill="none" stroke="gray" d="M152.31,-215.7C162.54,-204.85 175.68,-190.92 185.87,-180.1"/>
</g>
<!-- Arrow_zero&#45;&#45;Arrow_plus -->
<g id="edge44" class="edge">
<title>Arrow_zero&#45;&#45;Arrow_plus</title>
<path fill="none" stroke="gray" stroke-dasharray="1,5" d="M92.19,-75C132.48,-62.79 190.62,-45.17 230.89,-32.97"/>
</g>
<!-- Arrow_alt&#45;&#45;Arrow_plus -->
<g id="edge45" class="edge">
<title>Arrow_alt&#45;&#45;Arrow_plus</title>
<path fill="none" stroke="gray" stroke-dasharray="1,5" d="M394.84,-71.88C370.57,-60.99 339.28,-46.95 315.04,-36.07"/>
</g>
</g>
</svg>
