<?xml version="1.0" encoding="UTF-8" standalone="no"?>
<!DOCTYPE svg PUBLIC "-//W3C//DTD SVG 1.1//EN"
 "http://www.w3.org/Graphics/SVG/1.1/DTD/svg11.dtd">
<!-- Generated by graphviz version 2.43.0 (0)
 -->
<!-- Title: %3 Pages: 1 -->
<svg width="1260pt" height="476pt"
 viewBox="0.00 0.00 1259.50 476.00" xmlns="http://www.w3.org/2000/svg" xmlns:xlink="http://www.w3.org/1999/xlink">
<g id="graph0" class="graph" transform="scale(1 1) rotate(0) translate(4 472)">
<title>%3</title>
<polygon fill="white" stroke="transparent" points="-4,4 -4,-472 1255.5,-472 1255.5,4 -4,4"/>
<!-- Invariant -->
<g id="node1" class="node">
<title>Invariant</title>
<polygon fill="black" stroke="transparent" points="624.5,-468 545.5,-468 545.5,-432 624.5,-432 624.5,-468"/>
<text text-anchor="middle" x="585" y="-446.3" font-family="Helvetica,sans-Serif" font-size="14.00" fill="white">Invariant</text>
</g>
<!-- Functor -->
<g id="node2" class="node">
<title>Functor</title>
<polygon fill="black" stroke="transparent" points="415.5,-396 346.5,-396 346.5,-360 415.5,-360 415.5,-396"/>
<text text-anchor="middle" x="381" y="-374.3" font-family="Helvetica,sans-Serif" font-size="14.00" fill="white">Functor</text>
</g>
<!-- Invariant&#45;&#45;Functor -->
<g id="edge1" class="edge">
<title>Invariant&#45;&#45;Functor</title>
<path fill="none" stroke="gray" d="M545.18,-435.34C507.5,-422.41 451.5,-403.19 415.62,-390.88"/>
</g>
<!-- Contravariant -->
<g id="node3" class="node">
<title>Contravariant</title>
<polygon fill="black" stroke="transparent" points="846,-396 734,-396 734,-360 846,-360 846,-396"/>
<text text-anchor="middle" x="790" y="-374.3" font-family="Helvetica,sans-Serif" font-size="14.00" fill="white">Contravariant</text>
</g>
<!-- Invariant&#45;&#45;Contravariant -->
<g id="edge2" class="edge">
<title>Invariant&#45;&#45;Contravariant</title>
<path fill="none" stroke="gray" d="M624.53,-435.5C657.45,-424.26 704.53,-408.18 740.06,-396.05"/>
</g>
<!-- Applicative -->
<g id="node5" class="node">
<title>Applicative</title>
<polygon fill="black" stroke="transparent" points="629.5,-252 536.5,-252 536.5,-216 629.5,-216 629.5,-252"/>
<text text-anchor="middle" x="583" y="-230.3" font-family="Helvetica,sans-Serif" font-size="14.00" fill="white">Applicative</text>
</g>
<!-- Functor&#45;&#45;Applicative -->
<g id="edge3" class="edge">
<title>Functor&#45;&#45;Applicative</title>
<path fill="none" stroke="gray" d="M415.56,-372.49C466.17,-365.13 556.66,-348.8 577,-324 593.5,-303.88 590.93,-271.84 587.21,-252.19"/>
</g>
<!-- Alt -->
<g id="node10" class="node">
<title>Alt</title>
<polygon fill="black" stroke="transparent" points="190,-324 136,-324 136,-288 190,-288 190,-324"/>
<text text-anchor="middle" x="163" y="-302.3" font-family="Helvetica,sans-Serif" font-size="14.00" fill="white">Alt</text>
</g>
<!-- Functor&#45;&#45;Alt -->
<g id="edge8" class="edge">
<title>Functor&#45;&#45;Alt</title>
<path fill="none" stroke="gray" d="M346.25,-368.63C309.23,-359.3 249.16,-343.01 199,-324 196.16,-322.92 193.23,-321.71 190.32,-320.45"/>
</g>
<!-- Comonad -->
<g id="node11" class="node">
<title>Comonad</title>
<polygon fill="black" stroke="transparent" points="422.5,-324 339.5,-324 339.5,-288 422.5,-288 422.5,-324"/>
<text text-anchor="middle" x="381" y="-302.3" font-family="Helvetica,sans-Serif" font-size="14.00" fill="white">Comonad</text>
</g>
<!-- Functor&#45;&#45;Comonad -->
<g id="edge9" class="edge">
<title>Functor&#45;&#45;Comonad</title>
<path fill="none" stroke="gray" d="M381,-359.7C381,-348.85 381,-334.92 381,-324.1"/>
</g>
<!-- Free_selective -->
<g id="node15" class="node">
<title>Free_selective</title>
<polygon fill="black" stroke="transparent" points="321.5,-324 208.5,-324 208.5,-288 321.5,-288 321.5,-324"/>
<text text-anchor="middle" x="265" y="-302.3" font-family="Helvetica,sans-Serif" font-size="14.00" fill="white">Free_selective</text>
</g>
<!-- Functor&#45;&#45;Free_selective -->
<g id="edge16" class="edge">
<title>Functor&#45;&#45;Free_selective</title>
<path fill="none" stroke="gray" stroke-dasharray="1,5" d="M352.62,-359.88C334.65,-349.03 311.48,-335.05 293.49,-324.19"/>
</g>
<!-- Free_applicative -->
<g id="node16" class="node">
<title>Free_applicative</title>
<polygon fill="black" stroke="transparent" points="567.5,-324 440.5,-324 440.5,-288 567.5,-288 567.5,-324"/>
<text text-anchor="middle" x="504" y="-302.3" font-family="Helvetica,sans-Serif" font-size="14.00" fill="white">Free_applicative</text>
</g>
<!-- Functor&#45;&#45;Free_applicative -->
<g id="edge17" class="edge">
<title>Functor&#45;&#45;Free_applicative</title>
<path fill="none" stroke="gray" stroke-dasharray="1,5" d="M411.09,-359.88C430.15,-349.03 454.71,-335.05 473.8,-324.19"/>
</g>
<!-- Free_monad -->
<g id="node17" class="node">
<title>Free_monad</title>
<polygon fill="black" stroke="transparent" points="328,-180 228,-180 228,-144 328,-144 328,-180"/>
<text text-anchor="middle" x="278" y="-158.3" font-family="Helvetica,sans-Serif" font-size="14.00" fill="white">Free_monad</text>
</g>
<!-- Functor&#45;&#45;Free_monad -->
<g id="edge18" class="edge">
<title>Functor&#45;&#45;Free_monad</title>
<path fill="none" stroke="gray" stroke-dasharray="1,5" d="M346.43,-375.01C283.51,-370.59 154.28,-357.56 127,-324 104.29,-296.06 149.39,-221.81 155,-216 165.78,-204.83 198.76,-190.9 227.86,-180.12"/>
</g>
<!-- Profunctor -->
<g id="node20" class="node">
<title>Profunctor</title>
<polygon fill="black" stroke="transparent" points="834.5,-324 745.5,-324 745.5,-288 834.5,-288 834.5,-324"/>
<text text-anchor="middle" x="790" y="-302.3" font-family="Helvetica,sans-Serif" font-size="14.00" fill="white">Profunctor</text>
</g>
<!-- Functor&#45;&#45;Profunctor -->
<g id="edge26" class="edge">
<title>Functor&#45;&#45;Profunctor</title>
<path fill="none" stroke="gray" d="M415.52,-371.09C489.47,-358.44 663.14,-328.71 745.35,-314.64"/>
</g>
<!-- Bifunctor -->
<g id="node21" class="node">
<title>Bifunctor</title>
<polygon fill="black" stroke="transparent" points="80,-324 0,-324 0,-288 80,-288 80,-324"/>
<text text-anchor="middle" x="40" y="-302.3" font-family="Helvetica,sans-Serif" font-size="14.00" fill="white">Bifunctor</text>
</g>
<!-- Functor&#45;&#45;Bifunctor -->
<g id="edge27" class="edge">
<title>Functor&#45;&#45;Bifunctor</title>
<path fill="none" stroke="gray" d="M346.25,-371.99C291.98,-363.85 183.98,-346.38 94,-324 89.52,-322.88 84.86,-321.61 80.24,-320.26"/>
</g>
<!-- Divisible -->
<g id="node4" class="node">
<title>Divisible</title>
<polygon fill="black" stroke="transparent" points="927.5,-324 852.5,-324 852.5,-288 927.5,-288 927.5,-324"/>
<text text-anchor="middle" x="890" y="-302.3" font-family="Helvetica,sans-Serif" font-size="14.00" fill="white">Divisible</text>
</g>
<!-- Contravariant&#45;&#45;Divisible -->
<g id="edge24" class="edge">
<title>Contravariant&#45;&#45;Divisible</title>
<path fill="none" stroke="gray" d="M814.46,-359.88C829.96,-349.03 849.93,-335.05 865.44,-324.19"/>
</g>
<!-- Contravariant&#45;&#45;Profunctor -->
<g id="edge25" class="edge">
<title>Contravariant&#45;&#45;Profunctor</title>
<path fill="none" stroke="gray" d="M790,-359.7C790,-348.85 790,-334.92 790,-324.1"/>
</g>
<!-- Selective -->
<g id="node6" class="node">
<title>Selective</title>
<polygon fill="black" stroke="transparent" points="425.5,-180 346.5,-180 346.5,-144 425.5,-144 425.5,-180"/>
<text text-anchor="middle" x="386" y="-158.3" font-family="Helvetica,sans-Serif" font-size="14.00" fill="white">Selective</text>
</g>
<!-- Applicative&#45;&#45;Selective -->
<g id="edge4" class="edge">
<title>Applicative&#45;&#45;Selective</title>
<path fill="none" stroke="gray" d="M536.31,-216.41C502.63,-204.44 457.66,-188.46 425.7,-177.11"/>
</g>
<!-- Alternative -->
<g id="node8" class="node">
<title>Alternative</title>
<polygon fill="black" stroke="transparent" points="555,-180 463,-180 463,-144 555,-144 555,-180"/>
<text text-anchor="middle" x="509" y="-158.3" font-family="Helvetica,sans-Serif" font-size="14.00" fill="white">Alternative</text>
</g>
<!-- Applicative&#45;&#45;Alternative -->
<g id="edge6" class="edge">
<title>Applicative&#45;&#45;Alternative</title>
<path fill="none" stroke="gray" d="M564.71,-215.7C553.24,-204.85 538.51,-190.92 527.08,-180.1"/>
</g>
<!-- Traversable -->
<g id="node28" class="node">
<title>Traversable</title>
<polygon fill="black" stroke="transparent" points="631.5,-36 534.5,-36 534.5,0 631.5,0 631.5,-36"/>
<text text-anchor="middle" x="583" y="-14.3" font-family="Helvetica,sans-Serif" font-size="14.00" fill="white">Traversable</text>
</g>
<!-- Applicative&#45;&#45;Traversable -->
<g id="edge34" class="edge">
<title>Applicative&#45;&#45;Traversable</title>
<path fill="none" stroke="gray" d="M583,-215.85C583,-175.78 583,-76.38 583,-36.23"/>
</g>
<!-- Monad -->
<g id="node7" class="node">
<title>Monad</title>
<polygon fill="black" stroke="transparent" points="401.5,-108 338.5,-108 338.5,-72 401.5,-72 401.5,-108"/>
<text text-anchor="middle" x="370" y="-86.3" font-family="Helvetica,sans-Serif" font-size="14.00" fill="white">Monad</text>
</g>
<!-- Selective&#45;&#45;Monad -->
<g id="edge5" class="edge">
<title>Selective&#45;&#45;Monad</title>
<path fill="none" stroke="gray" d="M382.04,-143.7C379.56,-132.85 376.38,-118.92 373.91,-108.1"/>
</g>
<!-- Monad_plus -->
<g id="node9" class="node">
<title>Monad_plus</title>
<polygon fill="black" stroke="transparent" points="516.5,-36 417.5,-36 417.5,0 516.5,0 516.5,-36"/>
<text text-anchor="middle" x="467" y="-14.3" font-family="Helvetica,sans-Serif" font-size="14.00" fill="white">Monad_plus</text>
</g>
<!-- Monad&#45;&#45;Monad_plus -->
<g id="edge7" class="edge">
<title>Monad&#45;&#45;Monad_plus</title>
<path fill="none" stroke="gray" d="M393.98,-71.7C409.01,-60.85 428.32,-46.92 443.3,-36.1"/>
</g>
<!-- State -->
<g id="node22" class="node">
<title>State</title>
<polygon fill="black" stroke="transparent" points="239,-36 185,-36 185,0 239,0 239,-36"/>
<text text-anchor="middle" x="212" y="-14.3" font-family="Helvetica,sans-Serif" font-size="14.00" fill="white">State</text>
</g>
<!-- Monad&#45;&#45;State -->
<g id="edge28" class="edge">
<title>Monad&#45;&#45;State</title>
<path fill="none" stroke="gray" d="M338.34,-75.32C313.89,-64.7 279.24,-49.57 249,-36 245.78,-34.55 242.4,-33.02 239.05,-31.5"/>
</g>
<!-- Reader -->
<g id="node23" class="node">
<title>Reader</title>
<polygon fill="black" stroke="transparent" points="322.5,-36 257.5,-36 257.5,0 322.5,0 322.5,-36"/>
<text text-anchor="middle" x="290" y="-14.3" font-family="Helvetica,sans-Serif" font-size="14.00" fill="white">Reader</text>
</g>
<!-- Monad&#45;&#45;Reader -->
<g id="edge29" class="edge">
<title>Monad&#45;&#45;Reader</title>
<path fill="none" stroke="gray" d="M350.22,-71.7C337.82,-60.85 321.9,-46.92 309.55,-36.1"/>
</g>
<!-- Writer -->
<g id="node24" class="node">
<title>Writer</title>
<polygon fill="black" stroke="transparent" points="399.5,-36 340.5,-36 340.5,0 399.5,0 399.5,-36"/>
<text text-anchor="middle" x="370" y="-14.3" font-family="Helvetica,sans-Serif" font-size="14.00" fill="white">Writer</text>
</g>
<!-- Monad&#45;&#45;Writer -->
<g id="edge30" class="edge">
<title>Monad&#45;&#45;Writer</title>
<path fill="none" stroke="gray" d="M370,-71.7C370,-60.85 370,-46.92 370,-36.1"/>
</g>
<!-- Monad&#45;&#45;Traversable -->
<g id="edge35" class="edge">
<title>Monad&#45;&#45;Traversable</title>
<path fill="none" stroke="gray" d="M401.89,-78.52C436.94,-67 493.65,-48.36 534.28,-35.01"/>
</g>
<!-- Store -->
<g id="node25" class="node">
<title>Store</title>
<polygon fill="black" stroke="transparent" points="518,-252 464,-252 464,-216 518,-216 518,-252"/>
<text text-anchor="middle" x="491" y="-230.3" font-family="Helvetica,sans-Serif" font-size="14.00" fill="white">Store</text>
</g>
<!-- Comonad&#45;&#45;Store -->
<g id="edge31" class="edge">
<title>Comonad&#45;&#45;Store</title>
<path fill="none" stroke="gray" d="M407.91,-287.88C424.95,-277.03 446.92,-263.05 463.99,-252.19"/>
</g>
<!-- Env -->
<g id="node26" class="node">
<title>Env</title>
<polygon fill="black" stroke="transparent" points="228,-252 174,-252 174,-216 228,-216 228,-252"/>
<text text-anchor="middle" x="201" y="-230.3" font-family="Helvetica,sans-Serif" font-size="14.00" fill="white">Env</text>
</g>
<!-- Comonad&#45;&#45;Env -->
<g id="edge32" class="edge">
<title>Comonad&#45;&#45;Env</title>
<path fill="none" stroke="gray" d="M339.34,-290.77C310.38,-280.61 271.03,-266.26 237,-252 234.07,-250.77 231.03,-249.43 228.01,-248.07"/>
</g>
<!-- Traced -->
<g id="node27" class="node">
<title>Traced</title>
<polygon fill="black" stroke="transparent" points="308,-252 246,-252 246,-216 308,-216 308,-252"/>
<text text-anchor="middle" x="277" y="-230.3" font-family="Helvetica,sans-Serif" font-size="14.00" fill="white">Traced</text>
</g>
<!-- Comonad&#45;&#45;Traced -->
<g id="edge33" class="edge">
<title>Comonad&#45;&#45;Traced</title>
<path fill="none" stroke="gray" d="M355.56,-287.88C339.44,-277.03 318.67,-263.05 302.54,-252.19"/>
</g>
<!-- Semigroup -->
<g id="node12" class="node">
<title>Semigroup</title>
<polygon fill="black" stroke="transparent" points="740,-252 648,-252 648,-216 740,-216 740,-252"/>
<text text-anchor="middle" x="694" y="-230.3" font-family="Helvetica,sans-Serif" font-size="14.00" fill="white">Semigroup</text>
</g>
<!-- Semigroup&#45;&#45;Alt -->
<g id="edge13" class="edge">
<title>Semigroup&#45;&#45;Alt</title>
<path fill="none" stroke="gray" stroke-dasharray="1,5" d="M647.97,-250.03C644.95,-250.76 641.94,-251.43 639,-252 446.35,-289.19 388.54,-237.29 199,-288 196.06,-288.79 193.07,-289.8 190.13,-290.95"/>
</g>
<!-- Monoid -->
<g id="node13" class="node">
<title>Monoid</title>
<polygon fill="black" stroke="transparent" points="723.5,-180 656.5,-180 656.5,-144 723.5,-144 723.5,-180"/>
<text text-anchor="middle" x="690" y="-158.3" font-family="Helvetica,sans-Serif" font-size="14.00" fill="white">Monoid</text>
</g>
<!-- Semigroup&#45;&#45;Monoid -->
<g id="edge10" class="edge">
<title>Semigroup&#45;&#45;Monoid</title>
<path fill="none" stroke="gray" d="M693.01,-215.7C692.39,-204.85 691.6,-190.92 690.98,-180.1"/>
</g>
<!-- Arrow_alt -->
<g id="node35" class="node">
<title>Arrow_alt</title>
<polygon fill="black" stroke="transparent" points="859,-108 779,-108 779,-72 859,-72 859,-108"/>
<text text-anchor="middle" x="819" y="-86.3" font-family="Helvetica,sans-Serif" font-size="14.00" fill="white">Arrow_alt</text>
</g>
<!-- Semigroup&#45;&#45;Arrow_alt -->
<g id="edge50" class="edge">
<title>Semigroup&#45;&#45;Arrow_alt</title>
<path fill="none" stroke="gray" stroke-dasharray="1,5" d="M709.08,-215.87C733.1,-188.58 779.81,-135.52 803.87,-108.19"/>
</g>
<!-- Monoid&#45;&#45;Monad -->
<g id="edge14" class="edge">
<title>Monoid&#45;&#45;Monad</title>
<path fill="none" stroke="gray" stroke-dasharray="1,5" d="M656.36,-153.64C594.26,-140.06 462.43,-111.22 401.77,-97.95"/>
</g>
<!-- Monoid&#45;&#45;Alternative -->
<g id="edge11" class="edge">
<title>Monoid&#45;&#45;Alternative</title>
<path fill="none" stroke="gray" stroke-dasharray="1,5" d="M656.33,-162C622.66,-162 588.98,-162 555.31,-162"/>
</g>
<!-- Monoid&#45;&#45;Monad_plus -->
<g id="edge12" class="edge">
<title>Monoid&#45;&#45;Monad_plus</title>
<path fill="none" stroke="gray" stroke-dasharray="1,5" d="M663.1,-143.87C620.24,-116.58 536.92,-63.52 493.99,-36.19"/>
</g>
<!-- Foldable -->
<g id="node14" class="node">
<title>Foldable</title>
<polygon fill="black" stroke="transparent" points="723,-108 649,-108 649,-72 723,-72 723,-108"/>
<text text-anchor="middle" x="686" y="-86.3" font-family="Helvetica,sans-Serif" font-size="14.00" fill="white">Foldable</text>
</g>
<!-- Monoid&#45;&#45;Foldable -->
<g id="edge15" class="edge">
<title>Monoid&#45;&#45;Foldable</title>
<path fill="none" stroke="gray" d="M689.01,-143.7C688.39,-132.85 687.6,-118.92 686.98,-108.1"/>
</g>
<!-- Category -->
<g id="node29" class="node">
<title>Category</title>
<polygon fill="black" stroke="transparent" points="1081,-252 1001,-252 1001,-216 1081,-216 1081,-252"/>
<text text-anchor="middle" x="1041" y="-230.3" font-family="Helvetica,sans-Serif" font-size="14.00" fill="white">Category</text>
</g>
<!-- Monoid&#45;&#45;Category -->
<g id="edge36" class="edge">
<title>Monoid&#45;&#45;Category</title>
<path fill="none" stroke="gray" stroke-dasharray="1,5" d="M723.89,-167.14C780.16,-174.42 896.16,-191.14 992,-216 994.88,-216.75 997.83,-217.58 1000.78,-218.47"/>
</g>
<!-- Arrow_plus -->
<g id="node36" class="node">
<title>Arrow_plus</title>
<polygon fill="black" stroke="transparent" points="917,-36 825,-36 825,0 917,0 917,-36"/>
<text text-anchor="middle" x="871" y="-14.3" font-family="Helvetica,sans-Serif" font-size="14.00" fill="white">Arrow_plus</text>
</g>
<!-- Monoid&#45;&#45;Arrow_plus -->
<g id="edge49" class="edge">
<title>Monoid&#45;&#45;Arrow_plus</title>
<path fill="none" stroke="gray" stroke-dasharray="1,5" d="M702.35,-143.93C716.91,-124.68 742.61,-93.3 770,-72 788.45,-57.66 811.35,-45.28 830.67,-36.09"/>
</g>
<!-- Free_selective&#45;&#45;Selective -->
<g id="edge19" class="edge">
<title>Free_selective&#45;&#45;Selective</title>
<path fill="none" stroke="gray" d="M208.56,-287.96C191.56,-279.89 174.83,-268.33 165,-252 156.75,-238.29 154.91,-228.42 165,-216 214.24,-155.38 261.73,-200.84 337,-180 340.04,-179.16 343.16,-178.23 346.29,-177.25"/>
</g>
<!-- Free_applicative&#45;&#45;Applicative -->
<g id="edge21" class="edge">
<title>Free_applicative&#45;&#45;Applicative</title>
<path fill="none" stroke="gray" d="M523.53,-287.7C535.77,-276.85 551.49,-262.92 563.7,-252.1"/>
</g>
<!-- Free_monad&#45;&#45;Monad -->
<g id="edge22" class="edge">
<title>Free_monad&#45;&#45;Monad</title>
<path fill="none" stroke="gray" d="M300.74,-143.7C315,-132.85 333.31,-118.92 347.52,-108.1"/>
</g>
<!-- Freer_selective -->
<g id="node18" class="node">
<title>Freer_selective</title>
<polygon fill="black" stroke="transparent" points="445.5,-252 326.5,-252 326.5,-216 445.5,-216 445.5,-252"/>
<text text-anchor="middle" x="386" y="-230.3" font-family="Helvetica,sans-Serif" font-size="14.00" fill="white">Freer_selective</text>
</g>
<!-- Freer_selective&#45;&#45;Selective -->
<g id="edge20" class="edge">
<title>Freer_selective&#45;&#45;Selective</title>
<path fill="none" stroke="gray" d="M386,-215.7C386,-204.85 386,-190.92 386,-180.1"/>
</g>
<!-- Freer_monad -->
<g id="node19" class="node">
<title>Freer_monad</title>
<polygon fill="black" stroke="transparent" points="210,-180 104,-180 104,-144 210,-144 210,-180"/>
<text text-anchor="middle" x="157" y="-158.3" font-family="Helvetica,sans-Serif" font-size="14.00" fill="white">Freer_monad</text>
</g>
<!-- Freer_monad&#45;&#45;Monad -->
<g id="edge23" class="edge">
<title>Freer_monad&#45;&#45;Monad</title>
<path fill="none" stroke="gray" d="M208.83,-143.97C249.35,-130.65 304.34,-112.58 338.48,-101.36"/>
</g>
<!-- Strong -->
<g id="node31" class="node">
<title>Strong</title>
<polygon fill="black" stroke="transparent" points="983,-252 921,-252 921,-216 983,-216 983,-252"/>
<text text-anchor="middle" x="952" y="-230.3" font-family="Helvetica,sans-Serif" font-size="14.00" fill="white">Strong</text>
</g>
<!-- Profunctor&#45;&#45;Strong -->
<g id="edge38" class="edge">
<title>Profunctor&#45;&#45;Strong</title>
<path fill="none" stroke="gray" d="M829.63,-287.88C857.73,-275.73 894.91,-259.67 920.89,-248.44"/>
</g>
<!-- Choice -->
<g id="node32" class="node">
<title>Choice</title>
<polygon fill="black" stroke="transparent" points="821.5,-252 758.5,-252 758.5,-216 821.5,-216 821.5,-252"/>
<text text-anchor="middle" x="790" y="-230.3" font-family="Helvetica,sans-Serif" font-size="14.00" fill="white">Choice</text>
</g>
<!-- Profunctor&#45;&#45;Choice -->
<g id="edge39" class="edge">
<title>Profunctor&#45;&#45;Choice</title>
<path fill="none" stroke="gray" d="M790,-287.7C790,-276.85 790,-262.92 790,-252.1"/>
</g>
<!-- Closed -->
<g id="node33" class="node">
<title>Closed</title>
<polygon fill="black" stroke="transparent" points="902.5,-252 839.5,-252 839.5,-216 902.5,-216 902.5,-252"/>
<text text-anchor="middle" x="871" y="-230.3" font-family="Helvetica,sans-Serif" font-size="14.00" fill="white">Closed</text>
</g>
<!-- Profunctor&#45;&#45;Closed -->
<g id="edge40" class="edge">
<title>Profunctor&#45;&#45;Closed</title>
<path fill="none" stroke="gray" d="M810.02,-287.7C822.58,-276.85 838.7,-262.92 851.21,-252.1"/>
</g>
<!-- Arrow -->
<g id="node30" class="node">
<title>Arrow</title>
<polygon fill="black" stroke="transparent" points="1025,-180 969,-180 969,-144 1025,-144 1025,-180"/>
<text text-anchor="middle" x="997" y="-158.3" font-family="Helvetica,sans-Serif" font-size="14.00" fill="white">Arrow</text>
</g>
<!-- Category&#45;&#45;Arrow -->
<g id="edge37" class="edge">
<title>Category&#45;&#45;Arrow</title>
<path fill="none" stroke="gray" d="M1030.12,-215.7C1023.3,-204.85 1014.55,-190.92 1007.75,-180.1"/>
</g>
<!-- Arrow_zero -->
<g id="node34" class="node">
<title>Arrow_zero</title>
<polygon fill="black" stroke="transparent" points="969,-108 877,-108 877,-72 969,-72 969,-108"/>
<text text-anchor="middle" x="923" y="-86.3" font-family="Helvetica,sans-Serif" font-size="14.00" fill="white">Arrow_zero</text>
</g>
<!-- Arrow&#45;&#45;Arrow_zero -->
<g id="edge42" class="edge">
<title>Arrow&#45;&#45;Arrow_zero</title>
<path fill="none" stroke="gray" d="M978.71,-143.7C967.24,-132.85 952.51,-118.92 941.08,-108.1"/>
</g>
<!-- Arrow&#45;&#45;Arrow_alt -->
<g id="edge43" class="edge">
<title>Arrow&#45;&#45;Arrow_alt</title>
<path fill="none" stroke="gray" d="M968.8,-149.91C939.29,-138.3 892.7,-119.98 859.32,-106.86"/>
</g>
<!-- Arrow&#45;&#45;Arrow_plus -->
<g id="edge44" class="edge">
<title>Arrow&#45;&#45;Arrow_plus</title>
<path fill="none" stroke="gray" d="M997.58,-143.76C997.34,-124.36 994.19,-92.83 978,-72 962.86,-52.52 938.68,-39.7 917.13,-31.55"/>
</g>
<!-- Arrow_choice -->
<g id="node37" class="node">
<title>Arrow_choice</title>
<polygon fill="black" stroke="transparent" points="1132.5,-108 1025.5,-108 1025.5,-72 1132.5,-72 1132.5,-108"/>
<text text-anchor="middle" x="1079" y="-86.3" font-family="Helvetica,sans-Serif" font-size="14.00" fill="white">Arrow_choice</text>
</g>
<!-- Arrow&#45;&#45;Arrow_choice -->
<g id="edge45" class="edge">
<title>Arrow&#45;&#45;Arrow_choice</title>
<path fill="none" stroke="gray" d="M1017.27,-143.7C1029.98,-132.85 1046.3,-118.92 1058.96,-108.1"/>
</g>
<!-- Arrow_apply -->
<g id="node38" class="node">
<title>Arrow_apply</title>
<polygon fill="black" stroke="transparent" points="1251.5,-108 1150.5,-108 1150.5,-72 1251.5,-72 1251.5,-108"/>
<text text-anchor="middle" x="1201" y="-86.3" font-family="Helvetica,sans-Serif" font-size="14.00" fill="white">Arrow_apply</text>
</g>
<!-- Arrow&#45;&#45;Arrow_apply -->
<g id="edge46" class="edge">
<title>Arrow&#45;&#45;Arrow_apply</title>
<path fill="none" stroke="gray" d="M1025.37,-151.27C1057.88,-140.11 1111.77,-121.62 1151.3,-108.05"/>
</g>
<!-- Strong&#45;&#45;Arrow -->
<g id="edge41" class="edge">
<title>Strong&#45;&#45;Arrow</title>
<path fill="none" stroke="gray" d="M963.12,-215.7C970.1,-204.85 979.05,-190.92 986,-180.1"/>
</g>
<!-- Arrow_zero&#45;&#45;Arrow_plus -->
<g id="edge47" class="edge">
<title>Arrow_zero&#45;&#45;Arrow_plus</title>
<path fill="none" stroke="gray" stroke-dasharray="1,5" d="M910.15,-71.7C902.09,-60.85 891.74,-46.92 883.71,-36.1"/>
</g>
<!-- Arrow_alt&#45;&#45;Arrow_plus -->
<g id="edge48" class="edge">
<title>Arrow_alt&#45;&#45;Arrow_plus</title>
<path fill="none" stroke="gray" stroke-dasharray="1,5" d="M831.85,-71.7C839.91,-60.85 850.26,-46.92 858.29,-36.1"/>
</g>
</g>
</svg>
