<?xml version="1.0" encoding="UTF-8" standalone="no"?>
<!DOCTYPE svg PUBLIC "-//W3C//DTD SVG 1.1//EN"
 "http://www.w3.org/Graphics/SVG/1.1/DTD/svg11.dtd">
<!-- Generated by graphviz version 2.43.0 (0)
 -->
<!-- Title: %3 Pages: 1 -->
<svg width="1508pt" height="476pt"
 viewBox="0.00 0.00 1508.00 476.00" xmlns="http://www.w3.org/2000/svg" xmlns:xlink="http://www.w3.org/1999/xlink">
<g id="graph0" class="graph" transform="scale(1 1) rotate(0) translate(4 472)">
<title>%3</title>
<polygon fill="white" stroke="transparent" points="-4,4 -4,-472 1504,-472 1504,4 -4,4"/>
<!-- Invariant -->
<g id="node1" class="node">
<title>Invariant</title>
<polygon fill="black" stroke="transparent" points="770.5,-468 691.5,-468 691.5,-432 770.5,-432 770.5,-468"/>
<text text-anchor="middle" x="731" y="-446.3" font-family="Helvetica,sans-Serif" font-size="14.00" fill="white">Invariant</text>
</g>
<!-- Functor -->
<g id="node2" class="node">
<title>Functor</title>
<polygon fill="black" stroke="transparent" points="560.5,-396 491.5,-396 491.5,-360 560.5,-360 560.5,-396"/>
<text text-anchor="middle" x="526" y="-374.3" font-family="Helvetica,sans-Serif" font-size="14.00" fill="white">Functor</text>
</g>
<!-- Invariant&#45;&#45;Functor -->
<g id="edge1" class="edge">
<title>Invariant&#45;&#45;Functor</title>
<path fill="none" stroke="gray" d="M691.47,-435.5C653.54,-422.55 596.83,-403.19 560.63,-390.83"/>
</g>
<!-- Contravariant -->
<g id="node3" class="node">
<title>Contravariant</title>
<polygon fill="black" stroke="transparent" points="992,-396 880,-396 880,-360 992,-360 992,-396"/>
<text text-anchor="middle" x="936" y="-374.3" font-family="Helvetica,sans-Serif" font-size="14.00" fill="white">Contravariant</text>
</g>
<!-- Invariant&#45;&#45;Contravariant -->
<g id="edge2" class="edge">
<title>Invariant&#45;&#45;Contravariant</title>
<path fill="none" stroke="gray" d="M770.53,-435.5C803.45,-424.26 850.53,-408.18 886.06,-396.05"/>
</g>
<!-- Applicative -->
<g id="node6" class="node">
<title>Applicative</title>
<polygon fill="black" stroke="transparent" points="128.5,-252 35.5,-252 35.5,-216 128.5,-216 128.5,-252"/>
<text text-anchor="middle" x="82" y="-230.3" font-family="Helvetica,sans-Serif" font-size="14.00" fill="white">Applicative</text>
</g>
<!-- Functor&#45;&#45;Applicative -->
<g id="edge3" class="edge">
<title>Functor&#45;&#45;Applicative</title>
<path fill="none" stroke="gray" d="M491.45,-370.58C456.56,-363.06 401.96,-348.43 360,-324 339.61,-312.13 341.9,-298.93 321,-288 304.1,-279.16 193.4,-256.66 128.74,-244"/>
</g>
<!-- Apply -->
<g id="node9" class="node">
<title>Apply</title>
<polygon fill="black" stroke="transparent" points="56,-324 0,-324 0,-288 56,-288 56,-324"/>
<text text-anchor="middle" x="28" y="-302.3" font-family="Helvetica,sans-Serif" font-size="14.00" fill="white">Apply</text>
</g>
<!-- Functor&#45;&#45;Apply -->
<g id="edge6" class="edge">
<title>Functor&#45;&#45;Apply</title>
<path fill="none" stroke="gray" stroke-dasharray="1,5" d="M491.46,-376.72C413.78,-375.31 219.98,-367.32 65,-324 62.14,-323.2 59.22,-322.21 56.34,-321.1"/>
</g>
<!-- Bind -->
<g id="node10" class="node">
<title>Bind</title>
<polygon fill="black" stroke="transparent" points="224,-180 170,-180 170,-144 224,-144 224,-180"/>
<text text-anchor="middle" x="197" y="-158.3" font-family="Helvetica,sans-Serif" font-size="14.00" fill="white">Bind</text>
</g>
<!-- Functor&#45;&#45;Bind -->
<g id="edge9" class="edge">
<title>Functor&#45;&#45;Bind</title>
<path fill="none" stroke="gray" stroke-dasharray="1,5" d="M491.07,-376.71C436.37,-374.9 328.54,-365.79 249,-324 243.96,-321.35 178.2,-257.26 176,-252 166.01,-228.13 177.26,-198.57 186.75,-180.25"/>
</g>
<!-- Alt -->
<g id="node13" class="node">
<title>Alt</title>
<polygon fill="black" stroke="transparent" points="312,-324 258,-324 258,-288 312,-288 312,-324"/>
<text text-anchor="middle" x="285" y="-302.3" font-family="Helvetica,sans-Serif" font-size="14.00" fill="white">Alt</text>
</g>
<!-- Functor&#45;&#45;Alt -->
<g id="edge12" class="edge">
<title>Functor&#45;&#45;Alt</title>
<path fill="none" stroke="gray" d="M491.26,-369.29C451.03,-360.01 383,-343.27 326,-324 321.47,-322.47 316.74,-320.68 312.15,-318.86"/>
</g>
<!-- Comonad -->
<g id="node14" class="node">
<title>Comonad</title>
<polygon fill="black" stroke="transparent" points="451.5,-324 368.5,-324 368.5,-288 451.5,-288 451.5,-324"/>
<text text-anchor="middle" x="410" y="-302.3" font-family="Helvetica,sans-Serif" font-size="14.00" fill="white">Comonad</text>
</g>
<!-- Functor&#45;&#45;Comonad -->
<g id="edge13" class="edge">
<title>Functor&#45;&#45;Comonad</title>
<path fill="none" stroke="gray" d="M497.62,-359.88C479.65,-349.03 456.48,-335.05 438.49,-324.19"/>
</g>
<!-- Free_selective -->
<g id="node18" class="node">
<title>Free_selective</title>
<polygon fill="black" stroke="transparent" points="582.5,-324 469.5,-324 469.5,-288 582.5,-288 582.5,-324"/>
<text text-anchor="middle" x="526" y="-302.3" font-family="Helvetica,sans-Serif" font-size="14.00" fill="white">Free_selective</text>
</g>
<!-- Functor&#45;&#45;Free_selective -->
<g id="edge20" class="edge">
<title>Functor&#45;&#45;Free_selective</title>
<path fill="none" stroke="gray" stroke-dasharray="1,5" d="M526,-359.7C526,-348.85 526,-334.92 526,-324.1"/>
</g>
<!-- Free_applicative -->
<g id="node19" class="node">
<title>Free_applicative</title>
<polygon fill="black" stroke="transparent" points="201.5,-324 74.5,-324 74.5,-288 201.5,-288 201.5,-324"/>
<text text-anchor="middle" x="138" y="-302.3" font-family="Helvetica,sans-Serif" font-size="14.00" fill="white">Free_applicative</text>
</g>
<!-- Functor&#45;&#45;Free_applicative -->
<g id="edge21" class="edge">
<title>Functor&#45;&#45;Free_applicative</title>
<path fill="none" stroke="gray" stroke-dasharray="1,5" d="M491.04,-371.55C433.53,-362.47 315.42,-343.32 216,-324 211.37,-323.1 206.6,-322.14 201.8,-321.15"/>
</g>
<!-- Free_monad -->
<g id="node20" class="node">
<title>Free_monad</title>
<polygon fill="black" stroke="transparent" points="440,-180 340,-180 340,-144 440,-144 440,-180"/>
<text text-anchor="middle" x="390" y="-158.3" font-family="Helvetica,sans-Serif" font-size="14.00" fill="white">Free_monad</text>
</g>
<!-- Functor&#45;&#45;Free_monad -->
<g id="edge22" class="edge">
<title>Functor&#45;&#45;Free_monad</title>
<path fill="none" stroke="gray" stroke-dasharray="1,5" d="M558.05,-359.88C571.12,-351.05 584.82,-338.97 592,-324 613.88,-278.38 594.43,-248.91 556,-216 551.39,-212.05 487.31,-192.22 440.14,-177.98"/>
</g>
<!-- Profunctor -->
<g id="node23" class="node">
<title>Profunctor</title>
<polygon fill="black" stroke="transparent" points="980.5,-324 891.5,-324 891.5,-288 980.5,-288 980.5,-324"/>
<text text-anchor="middle" x="936" y="-302.3" font-family="Helvetica,sans-Serif" font-size="14.00" fill="white">Profunctor</text>
</g>
<!-- Functor&#45;&#45;Profunctor -->
<g id="edge31" class="edge">
<title>Functor&#45;&#45;Profunctor</title>
<path fill="none" stroke="gray" d="M560.74,-372.22C621.59,-363.68 751.29,-344.76 860,-324 870.23,-322.05 881.18,-319.73 891.49,-317.45"/>
</g>
<!-- Bifunctor -->
<g id="node24" class="node">
<title>Bifunctor</title>
<polygon fill="black" stroke="transparent" points="719,-324 639,-324 639,-288 719,-288 719,-324"/>
<text text-anchor="middle" x="679" y="-302.3" font-family="Helvetica,sans-Serif" font-size="14.00" fill="white">Bifunctor</text>
</g>
<!-- Functor&#45;&#45;Bifunctor -->
<g id="edge32" class="edge">
<title>Functor&#45;&#45;Bifunctor</title>
<path fill="none" stroke="gray" d="M560.72,-361.12C584.88,-350.06 617.05,-335.34 641.75,-324.04"/>
</g>
<!-- Divisible -->
<g id="node4" class="node">
<title>Divisible</title>
<polygon fill="black" stroke="transparent" points="1122.5,-324 1047.5,-324 1047.5,-288 1122.5,-288 1122.5,-324"/>
<text text-anchor="middle" x="1085" y="-302.3" font-family="Helvetica,sans-Serif" font-size="14.00" fill="white">Divisible</text>
</g>
<!-- Contravariant&#45;&#45;Divisible -->
<g id="edge28" class="edge">
<title>Contravariant&#45;&#45;Divisible</title>
<path fill="none" stroke="gray" d="M972.45,-359.88C995.63,-348.99 1025.52,-334.95 1048.67,-324.07"/>
</g>
<!-- Contravariant&#45;&#45;Profunctor -->
<g id="edge30" class="edge">
<title>Contravariant&#45;&#45;Profunctor</title>
<path fill="none" stroke="gray" d="M936,-359.7C936,-348.85 936,-334.92 936,-324.1"/>
</g>
<!-- Decidable -->
<g id="node5" class="node">
<title>Decidable</title>
<polygon fill="black" stroke="transparent" points="1175.5,-252 1090.5,-252 1090.5,-216 1175.5,-216 1175.5,-252"/>
<text text-anchor="middle" x="1133" y="-230.3" font-family="Helvetica,sans-Serif" font-size="14.00" fill="white">Decidable</text>
</g>
<!-- Divisible&#45;&#45;Decidable -->
<g id="edge29" class="edge">
<title>Divisible&#45;&#45;Decidable</title>
<path fill="none" stroke="gray" d="M1096.87,-287.7C1104.31,-276.85 1113.86,-262.92 1121.27,-252.1"/>
</g>
<!-- Selective -->
<g id="node7" class="node">
<title>Selective</title>
<polygon fill="black" stroke="transparent" points="321.5,-180 242.5,-180 242.5,-144 321.5,-144 321.5,-180"/>
<text text-anchor="middle" x="282" y="-158.3" font-family="Helvetica,sans-Serif" font-size="14.00" fill="white">Selective</text>
</g>
<!-- Applicative&#45;&#45;Selective -->
<g id="edge4" class="edge">
<title>Applicative&#45;&#45;Selective</title>
<path fill="none" stroke="gray" d="M128.64,-216.68C163.15,-204.6 209.66,-188.32 242.38,-176.87"/>
</g>
<!-- Alternative -->
<g id="node11" class="node">
<title>Alternative</title>
<polygon fill="black" stroke="transparent" points="114,-180 22,-180 22,-144 114,-144 114,-180"/>
<text text-anchor="middle" x="68" y="-158.3" font-family="Helvetica,sans-Serif" font-size="14.00" fill="white">Alternative</text>
</g>
<!-- Applicative&#45;&#45;Alternative -->
<g id="edge10" class="edge">
<title>Applicative&#45;&#45;Alternative</title>
<path fill="none" stroke="gray" d="M78.54,-215.7C76.37,-204.85 73.58,-190.92 71.42,-180.1"/>
</g>
<!-- Traversable -->
<g id="node31" class="node">
<title>Traversable</title>
<polygon fill="black" stroke="transparent" points="195.5,-36 98.5,-36 98.5,0 195.5,0 195.5,-36"/>
<text text-anchor="middle" x="147" y="-14.3" font-family="Helvetica,sans-Serif" font-size="14.00" fill="white">Traversable</text>
</g>
<!-- Applicative&#45;&#45;Traversable -->
<g id="edge39" class="edge">
<title>Applicative&#45;&#45;Traversable</title>
<path fill="none" stroke="gray" d="M98.95,-215.84C107.54,-206.12 117.34,-193.27 123,-180 143.96,-130.87 147.05,-66.53 147.24,-36.22"/>
</g>
<!-- Monad -->
<g id="node8" class="node">
<title>Monad</title>
<polygon fill="black" stroke="transparent" points="403.5,-108 340.5,-108 340.5,-72 403.5,-72 403.5,-108"/>
<text text-anchor="middle" x="372" y="-86.3" font-family="Helvetica,sans-Serif" font-size="14.00" fill="white">Monad</text>
</g>
<!-- Selective&#45;&#45;Monad -->
<g id="edge5" class="edge">
<title>Selective&#45;&#45;Monad</title>
<path fill="none" stroke="gray" d="M304.25,-143.7C318.2,-132.85 336.11,-118.92 350.01,-108.1"/>
</g>
<!-- Monad_plus -->
<g id="node12" class="node">
<title>Monad_plus</title>
<polygon fill="black" stroke="transparent" points="321.5,-36 222.5,-36 222.5,0 321.5,0 321.5,-36"/>
<text text-anchor="middle" x="272" y="-14.3" font-family="Helvetica,sans-Serif" font-size="14.00" fill="white">Monad_plus</text>
</g>
<!-- Monad&#45;&#45;Monad_plus -->
<g id="edge11" class="edge">
<title>Monad&#45;&#45;Monad_plus</title>
<path fill="none" stroke="gray" d="M347.54,-71.88C332.04,-61.03 312.07,-47.05 296.56,-36.19"/>
</g>
<!-- State -->
<g id="node25" class="node">
<title>State</title>
<polygon fill="black" stroke="transparent" points="394,-36 340,-36 340,0 394,0 394,-36"/>
<text text-anchor="middle" x="367" y="-14.3" font-family="Helvetica,sans-Serif" font-size="14.00" fill="white">State</text>
</g>
<!-- Monad&#45;&#45;State -->
<g id="edge33" class="edge">
<title>Monad&#45;&#45;State</title>
<path fill="none" stroke="gray" d="M370.76,-71.7C369.99,-60.85 368.99,-46.92 368.22,-36.1"/>
</g>
<!-- Reader -->
<g id="node26" class="node">
<title>Reader</title>
<polygon fill="black" stroke="transparent" points="477.5,-36 412.5,-36 412.5,0 477.5,0 477.5,-36"/>
<text text-anchor="middle" x="445" y="-14.3" font-family="Helvetica,sans-Serif" font-size="14.00" fill="white">Reader</text>
</g>
<!-- Monad&#45;&#45;Reader -->
<g id="edge34" class="edge">
<title>Monad&#45;&#45;Reader</title>
<path fill="none" stroke="gray" d="M390.04,-71.7C401.36,-60.85 415.89,-46.92 427.16,-36.1"/>
</g>
<!-- Writer -->
<g id="node27" class="node">
<title>Writer</title>
<polygon fill="black" stroke="transparent" points="554.5,-36 495.5,-36 495.5,0 554.5,0 554.5,-36"/>
<text text-anchor="middle" x="525" y="-14.3" font-family="Helvetica,sans-Serif" font-size="14.00" fill="white">Writer</text>
</g>
<!-- Monad&#45;&#45;Writer -->
<g id="edge35" class="edge">
<title>Monad&#45;&#45;Writer</title>
<path fill="none" stroke="gray" d="M403.7,-74.5C430.66,-62.16 469.08,-44.58 495.42,-32.54"/>
</g>
<!-- Monad&#45;&#45;Traversable -->
<g id="edge40" class="edge">
<title>Monad&#45;&#45;Traversable</title>
<path fill="none" stroke="gray" d="M340.24,-79.12C302.57,-67.4 239.36,-47.74 195.54,-34.1"/>
</g>
<!-- Apply&#45;&#45;Applicative -->
<g id="edge7" class="edge">
<title>Apply&#45;&#45;Applicative</title>
<path fill="none" stroke="gray" d="M41.35,-287.7C49.72,-276.85 60.46,-262.92 68.81,-252.1"/>
</g>
<!-- Bind&#45;&#45;Monad -->
<g id="edge8" class="edge">
<title>Bind&#45;&#45;Monad</title>
<path fill="none" stroke="gray" d="M224.03,-147.96C227.04,-146.59 230.07,-145.25 233,-144 269.35,-128.51 311.9,-112.61 340.26,-102.31"/>
</g>
<!-- Store -->
<g id="node28" class="node">
<title>Store</title>
<polygon fill="black" stroke="transparent" points="529,-252 475,-252 475,-216 529,-216 529,-252"/>
<text text-anchor="middle" x="502" y="-230.3" font-family="Helvetica,sans-Serif" font-size="14.00" fill="white">Store</text>
</g>
<!-- Comonad&#45;&#45;Store -->
<g id="edge36" class="edge">
<title>Comonad&#45;&#45;Store</title>
<path fill="none" stroke="gray" d="M432.74,-287.7C447,-276.85 465.31,-262.92 479.52,-252.1"/>
</g>
<!-- Env -->
<g id="node29" class="node">
<title>Env</title>
<polygon fill="black" stroke="transparent" points="377,-252 323,-252 323,-216 377,-216 377,-252"/>
<text text-anchor="middle" x="350" y="-230.3" font-family="Helvetica,sans-Serif" font-size="14.00" fill="white">Env</text>
</g>
<!-- Comonad&#45;&#45;Env -->
<g id="edge37" class="edge">
<title>Comonad&#45;&#45;Env</title>
<path fill="none" stroke="gray" d="M395.17,-287.7C385.87,-276.85 373.93,-262.92 364.66,-252.1"/>
</g>
<!-- Traced -->
<g id="node30" class="node">
<title>Traced</title>
<polygon fill="black" stroke="transparent" points="457,-252 395,-252 395,-216 457,-216 457,-252"/>
<text text-anchor="middle" x="426" y="-230.3" font-family="Helvetica,sans-Serif" font-size="14.00" fill="white">Traced</text>
</g>
<!-- Comonad&#45;&#45;Traced -->
<g id="edge38" class="edge">
<title>Comonad&#45;&#45;Traced</title>
<path fill="none" stroke="gray" d="M413.96,-287.7C416.44,-276.85 419.62,-262.92 422.09,-252.1"/>
</g>
<!-- Semigroup -->
<g id="node15" class="node">
<title>Semigroup</title>
<polygon fill="black" stroke="transparent" points="731,-252 639,-252 639,-216 731,-216 731,-252"/>
<text text-anchor="middle" x="685" y="-230.3" font-family="Helvetica,sans-Serif" font-size="14.00" fill="white">Semigroup</text>
</g>
<!-- Semigroup&#45;&#45;Alt -->
<g id="edge17" class="edge">
<title>Semigroup&#45;&#45;Alt</title>
<path fill="none" stroke="gray" stroke-dasharray="1,5" d="M638.83,-241.62C575.67,-250.88 458.9,-268.75 360,-288 344.14,-291.09 326.52,-295.05 312.34,-298.38"/>
</g>
<!-- Monoid -->
<g id="node16" class="node">
<title>Monoid</title>
<polygon fill="black" stroke="transparent" points="649.5,-180 582.5,-180 582.5,-144 649.5,-144 649.5,-180"/>
<text text-anchor="middle" x="616" y="-158.3" font-family="Helvetica,sans-Serif" font-size="14.00" fill="white">Monoid</text>
</g>
<!-- Semigroup&#45;&#45;Monoid -->
<g id="edge14" class="edge">
<title>Semigroup&#45;&#45;Monoid</title>
<path fill="none" stroke="gray" d="M667.94,-215.7C657.25,-204.85 643.52,-190.92 632.86,-180.1"/>
</g>
<!-- Semigroupoid -->
<g id="node32" class="node">
<title>Semigroupoid</title>
<polygon fill="black" stroke="transparent" points="850.5,-324 737.5,-324 737.5,-288 850.5,-288 850.5,-324"/>
<text text-anchor="middle" x="794" y="-302.3" font-family="Helvetica,sans-Serif" font-size="14.00" fill="white">Semigroupoid</text>
</g>
<!-- Semigroup&#45;&#45;Semigroupoid -->
<g id="edge41" class="edge">
<title>Semigroup&#45;&#45;Semigroupoid</title>
<path fill="none" stroke="gray" stroke-dasharray="1,5" d="M711.77,-252.19C728.68,-263.05 750.44,-277.03 767.34,-287.88"/>
</g>
<!-- Arrow_alt -->
<g id="node39" class="node">
<title>Arrow_alt</title>
<polygon fill="black" stroke="transparent" points="751,-108 671,-108 671,-72 751,-72 751,-108"/>
<text text-anchor="middle" x="711" y="-86.3" font-family="Helvetica,sans-Serif" font-size="14.00" fill="white">Arrow_alt</text>
</g>
<!-- Semigroup&#45;&#45;Arrow_alt -->
<g id="edge57" class="edge">
<title>Semigroup&#45;&#45;Arrow_alt</title>
<path fill="none" stroke="gray" stroke-dasharray="1,5" d="M688.14,-215.87C693.13,-188.58 702.85,-135.52 707.85,-108.19"/>
</g>
<!-- Monoid&#45;&#45;Monad -->
<g id="edge18" class="edge">
<title>Monoid&#45;&#45;Monad</title>
<path fill="none" stroke="gray" stroke-dasharray="1,5" d="M582.34,-147.25C579.2,-146.1 576.05,-145 573,-144 514.02,-124.64 443.56,-107.37 403.67,-98.12"/>
</g>
<!-- Monoid&#45;&#45;Alternative -->
<g id="edge15" class="edge">
<title>Monoid&#45;&#45;Alternative</title>
<path fill="none" stroke="gray" stroke-dasharray="1,5" d="M595.8,-180.26C586.75,-187.25 575.53,-194.4 564,-198 480.43,-224.11 256.3,-212.78 170,-198 149.45,-194.48 127.55,-187.25 109.33,-180.18"/>
</g>
<!-- Monoid&#45;&#45;Monad_plus -->
<g id="edge16" class="edge">
<title>Monoid&#45;&#45;Monad_plus</title>
<path fill="none" stroke="gray" stroke-dasharray="1,5" d="M582.47,-145.64C542.41,-127.44 473.24,-96.51 413,-72 381.99,-59.39 346.74,-46.14 319.25,-36.04"/>
</g>
<!-- Foldable -->
<g id="node17" class="node">
<title>Foldable</title>
<polygon fill="black" stroke="transparent" points="653,-108 579,-108 579,-72 653,-72 653,-108"/>
<text text-anchor="middle" x="616" y="-86.3" font-family="Helvetica,sans-Serif" font-size="14.00" fill="white">Foldable</text>
</g>
<!-- Monoid&#45;&#45;Foldable -->
<g id="edge19" class="edge">
<title>Monoid&#45;&#45;Foldable</title>
<path fill="none" stroke="gray" d="M616,-143.7C616,-132.85 616,-118.92 616,-108.1"/>
</g>
<!-- Category -->
<g id="node33" class="node">
<title>Category</title>
<polygon fill="black" stroke="transparent" points="829,-252 749,-252 749,-216 829,-216 829,-252"/>
<text text-anchor="middle" x="789" y="-230.3" font-family="Helvetica,sans-Serif" font-size="14.00" fill="white">Category</text>
</g>
<!-- Monoid&#45;&#45;Category -->
<g id="edge42" class="edge">
<title>Monoid&#45;&#45;Category</title>
<path fill="none" stroke="gray" stroke-dasharray="1,5" d="M649.51,-176.56C677.92,-188.05 718.73,-204.57 748.88,-216.76"/>
</g>
<!-- Arrow_plus -->
<g id="node40" class="node">
<title>Arrow_plus</title>
<polygon fill="black" stroke="transparent" points="931,-36 839,-36 839,0 931,0 931,-36"/>
<text text-anchor="middle" x="885" y="-14.3" font-family="Helvetica,sans-Serif" font-size="14.00" fill="white">Arrow_plus</text>
</g>
<!-- Monoid&#45;&#45;Arrow_plus -->
<g id="edge56" class="edge">
<title>Monoid&#45;&#45;Arrow_plus</title>
<path fill="none" stroke="gray" stroke-dasharray="1,5" d="M596.03,-143.91C576.23,-124.92 551.35,-94.04 570,-72 603.89,-31.93 759.82,-22.14 838.83,-19.76"/>
</g>
<!-- Free_selective&#45;&#45;Selective -->
<g id="edge23" class="edge">
<title>Free_selective&#45;&#45;Selective</title>
<path fill="none" stroke="gray" d="M535.26,-287.79C544.42,-268.11 554.86,-236.05 538,-216 507.95,-180.27 376.2,-191.69 331,-180 327.95,-179.21 324.82,-178.32 321.68,-177.37"/>
</g>
<!-- Free_applicative&#45;&#45;Applicative -->
<g id="edge25" class="edge">
<title>Free_applicative&#45;&#45;Applicative</title>
<path fill="none" stroke="gray" d="M124.16,-287.7C115.48,-276.85 104.33,-262.92 95.68,-252.1"/>
</g>
<!-- Free_monad&#45;&#45;Monad -->
<g id="edge26" class="edge">
<title>Free_monad&#45;&#45;Monad</title>
<path fill="none" stroke="gray" d="M385.55,-143.7C382.76,-132.85 379.18,-118.92 376.4,-108.1"/>
</g>
<!-- Freer_selective -->
<g id="node21" class="node">
<title>Freer_selective</title>
<polygon fill="black" stroke="transparent" points="304.5,-252 185.5,-252 185.5,-216 304.5,-216 304.5,-252"/>
<text text-anchor="middle" x="245" y="-230.3" font-family="Helvetica,sans-Serif" font-size="14.00" fill="white">Freer_selective</text>
</g>
<!-- Freer_selective&#45;&#45;Selective -->
<g id="edge24" class="edge">
<title>Freer_selective&#45;&#45;Selective</title>
<path fill="none" stroke="gray" d="M254.15,-215.7C259.88,-204.85 267.24,-190.92 272.96,-180.1"/>
</g>
<!-- Freer_monad -->
<g id="node22" class="node">
<title>Freer_monad</title>
<polygon fill="black" stroke="transparent" points="564,-180 458,-180 458,-144 564,-144 564,-180"/>
<text text-anchor="middle" x="511" y="-158.3" font-family="Helvetica,sans-Serif" font-size="14.00" fill="white">Freer_monad</text>
</g>
<!-- Freer_monad&#45;&#45;Monad -->
<g id="edge27" class="edge">
<title>Freer_monad&#45;&#45;Monad</title>
<path fill="none" stroke="gray" d="M477,-143.88C454.65,-132.62 425.62,-118 403.75,-106.99"/>
</g>
<!-- Strong -->
<g id="node35" class="node">
<title>Strong</title>
<polygon fill="black" stroke="transparent" points="1072,-252 1010,-252 1010,-216 1072,-216 1072,-252"/>
<text text-anchor="middle" x="1041" y="-230.3" font-family="Helvetica,sans-Serif" font-size="14.00" fill="white">Strong</text>
</g>
<!-- Profunctor&#45;&#45;Strong -->
<g id="edge45" class="edge">
<title>Profunctor&#45;&#45;Strong</title>
<path fill="none" stroke="gray" d="M961.69,-287.88C977.96,-277.03 998.93,-263.05 1015.22,-252.19"/>
</g>
<!-- Choice -->
<g id="node36" class="node">
<title>Choice</title>
<polygon fill="black" stroke="transparent" points="991.5,-252 928.5,-252 928.5,-216 991.5,-216 991.5,-252"/>
<text text-anchor="middle" x="960" y="-230.3" font-family="Helvetica,sans-Serif" font-size="14.00" fill="white">Choice</text>
</g>
<!-- Profunctor&#45;&#45;Choice -->
<g id="edge46" class="edge">
<title>Profunctor&#45;&#45;Choice</title>
<path fill="none" stroke="gray" d="M941.93,-287.7C945.65,-276.85 950.43,-262.92 954.14,-252.1"/>
</g>
<!-- Closed -->
<g id="node37" class="node">
<title>Closed</title>
<polygon fill="black" stroke="transparent" points="910.5,-252 847.5,-252 847.5,-216 910.5,-216 910.5,-252"/>
<text text-anchor="middle" x="879" y="-230.3" font-family="Helvetica,sans-Serif" font-size="14.00" fill="white">Closed</text>
</g>
<!-- Profunctor&#45;&#45;Closed -->
<g id="edge47" class="edge">
<title>Profunctor&#45;&#45;Closed</title>
<path fill="none" stroke="gray" d="M921.91,-287.7C913.07,-276.85 901.73,-262.92 892.93,-252.1"/>
</g>
<!-- Semigroupoid&#45;&#45;Category -->
<g id="edge43" class="edge">
<title>Semigroupoid&#45;&#45;Category</title>
<path fill="none" stroke="gray" d="M792.76,-287.7C791.99,-276.85 790.99,-262.92 790.22,-252.1"/>
</g>
<!-- Arrow -->
<g id="node34" class="node">
<title>Arrow</title>
<polygon fill="black" stroke="transparent" points="973,-180 917,-180 917,-144 973,-144 973,-180"/>
<text text-anchor="middle" x="945" y="-158.3" font-family="Helvetica,sans-Serif" font-size="14.00" fill="white">Arrow</text>
</g>
<!-- Category&#45;&#45;Arrow -->
<g id="edge44" class="edge">
<title>Category&#45;&#45;Arrow</title>
<path fill="none" stroke="gray" d="M827.16,-215.88C854.76,-203.49 891.46,-187.02 916.53,-175.78"/>
</g>
<!-- Arrow_zero -->
<g id="node38" class="node">
<title>Arrow_zero</title>
<polygon fill="black" stroke="transparent" points="1106,-108 1014,-108 1014,-72 1106,-72 1106,-108"/>
<text text-anchor="middle" x="1060" y="-86.3" font-family="Helvetica,sans-Serif" font-size="14.00" fill="white">Arrow_zero</text>
</g>
<!-- Arrow&#45;&#45;Arrow_zero -->
<g id="edge49" class="edge">
<title>Arrow&#45;&#45;Arrow_zero</title>
<path fill="none" stroke="gray" d="M973.13,-143.88C990.95,-133.03 1013.92,-119.05 1031.76,-108.19"/>
</g>
<!-- Arrow&#45;&#45;Arrow_alt -->
<g id="edge50" class="edge">
<title>Arrow&#45;&#45;Arrow_alt</title>
<path fill="none" stroke="gray" d="M916.82,-153.33C880.61,-143.37 815.87,-125.22 761,-108 757.76,-106.98 754.42,-105.91 751.06,-104.81"/>
</g>
<!-- Arrow&#45;&#45;Arrow_plus -->
<g id="edge51" class="edge">
<title>Arrow&#45;&#45;Arrow_plus</title>
<path fill="none" stroke="gray" d="M973.11,-157.38C1031.29,-148.75 1156.18,-123.74 1115,-72 1092.48,-43.7 991.69,-29.23 931.25,-22.97"/>
</g>
<!-- Arrow_choice -->
<g id="node41" class="node">
<title>Arrow_choice</title>
<polygon fill="black" stroke="transparent" points="876.5,-108 769.5,-108 769.5,-72 876.5,-72 876.5,-108"/>
<text text-anchor="middle" x="823" y="-86.3" font-family="Helvetica,sans-Serif" font-size="14.00" fill="white">Arrow_choice</text>
</g>
<!-- Arrow&#45;&#45;Arrow_choice -->
<g id="edge52" class="edge">
<title>Arrow&#45;&#45;Arrow_choice</title>
<path fill="none" stroke="gray" d="M916.7,-144.76C897.56,-133.78 872.31,-119.29 852.84,-108.12"/>
</g>
<!-- Arrow_apply -->
<g id="node42" class="node">
<title>Arrow_apply</title>
<polygon fill="black" stroke="transparent" points="995.5,-108 894.5,-108 894.5,-72 995.5,-72 995.5,-108"/>
<text text-anchor="middle" x="945" y="-86.3" font-family="Helvetica,sans-Serif" font-size="14.00" fill="white">Arrow_apply</text>
</g>
<!-- Arrow&#45;&#45;Arrow_apply -->
<g id="edge53" class="edge">
<title>Arrow&#45;&#45;Arrow_apply</title>
<path fill="none" stroke="gray" d="M945,-143.7C945,-132.85 945,-118.92 945,-108.1"/>
</g>
<!-- Strong&#45;&#45;Arrow -->
<g id="edge48" class="edge">
<title>Strong&#45;&#45;Arrow</title>
<path fill="none" stroke="gray" d="M1017.27,-215.7C1002.39,-204.85 983.29,-190.92 968.46,-180.1"/>
</g>
<!-- Arrow_zero&#45;&#45;Arrow_plus -->
<g id="edge54" class="edge">
<title>Arrow_zero&#45;&#45;Arrow_plus</title>
<path fill="none" stroke="gray" stroke-dasharray="1,5" d="M1017.19,-71.88C989.97,-60.99 954.86,-46.95 927.67,-36.07"/>
</g>
<!-- Arrow_alt&#45;&#45;Arrow_plus -->
<g id="edge55" class="edge">
<title>Arrow_alt&#45;&#45;Arrow_plus</title>
<path fill="none" stroke="gray" stroke-dasharray="1,5" d="M751.36,-72.76C778.76,-61.74 814.94,-47.19 842.74,-36"/>
</g>
<!-- Meet_semilattice -->
<g id="node43" class="node">
<title>Meet_semilattice</title>
<polygon fill="black" stroke="transparent" points="1216,-468 1084,-468 1084,-432 1216,-432 1216,-468"/>
<text text-anchor="middle" x="1150" y="-446.3" font-family="Helvetica,sans-Serif" font-size="14.00" fill="white">Meet_semilattice</text>
</g>
<!-- Meet_semilattice&#45;&#45;Semigroup -->
<g id="edge58" class="edge">
<title>Meet_semilattice&#45;&#45;Semigroup</title>
<path fill="none" stroke="gray" stroke-dasharray="1,5" d="M1085.18,-431.95C1067.5,-424 1050.37,-412.51 1040,-396 1031.49,-382.45 1030.98,-373.22 1040,-360 1064.75,-323.73 1107.25,-360.27 1132,-324 1141.02,-310.78 1142.78,-299.82 1132,-288 1102.52,-255.69 782.9,-260.5 740,-252 737.06,-251.42 734.05,-250.74 731.03,-249.99"/>
</g>
<!-- Bounded_meet_semilattice -->
<g id="node44" class="node">
<title>Bounded_meet_semilattice</title>
<polygon fill="black" stroke="transparent" points="1251.5,-396 1048.5,-396 1048.5,-360 1251.5,-360 1251.5,-396"/>
<text text-anchor="middle" x="1150" y="-374.3" font-family="Helvetica,sans-Serif" font-size="14.00" fill="white">Bounded_meet_semilattice</text>
</g>
<!-- Meet_semilattice&#45;&#45;Bounded_meet_semilattice -->
<g id="edge59" class="edge">
<title>Meet_semilattice&#45;&#45;Bounded_meet_semilattice</title>
<path fill="none" stroke="gray" d="M1150,-431.7C1150,-420.85 1150,-406.92 1150,-396.1"/>
</g>
<!-- Join_semilattice -->
<g id="node45" class="node">
<title>Join_semilattice</title>
<polygon fill="black" stroke="transparent" points="1466,-468 1342,-468 1342,-432 1466,-432 1466,-468"/>
<text text-anchor="middle" x="1404" y="-446.3" font-family="Helvetica,sans-Serif" font-size="14.00" fill="white">Join_semilattice</text>
</g>
<!-- Join_semilattice&#45;&#45;Semigroup -->
<g id="edge60" class="edge">
<title>Join_semilattice&#45;&#45;Semigroup</title>
<path fill="none" stroke="gray" stroke-dasharray="1,5" d="M1363.55,-431.95C1343.37,-422.62 1319.04,-410.1 1299,-396 1279.97,-382.62 1279.31,-374.35 1261,-360 1214.43,-323.49 1204.99,-307.15 1149,-288 976.34,-228.94 919.06,-287.14 740,-252 737.06,-251.42 734.05,-250.75 731.03,-250"/>
</g>
<!-- Join_semilattice&#45;&#45;Meet_semilattice -->
<g id="edge62" class="edge">
<title>Join_semilattice&#45;&#45;Meet_semilattice</title>
<path fill="none" stroke="gray" stroke-dasharray="1,5" d="M1341.74,-450C1299.98,-450 1258.23,-450 1216.48,-450"/>
</g>
<!-- Bounded_join_semilattice -->
<g id="node46" class="node">
<title>Bounded_join_semilattice</title>
<polygon fill="black" stroke="transparent" points="1500,-396 1308,-396 1308,-360 1500,-360 1500,-396"/>
<text text-anchor="middle" x="1404" y="-374.3" font-family="Helvetica,sans-Serif" font-size="14.00" fill="white">Bounded_join_semilattice</text>
</g>
<!-- Join_semilattice&#45;&#45;Bounded_join_semilattice -->
<g id="edge61" class="edge">
<title>Join_semilattice&#45;&#45;Bounded_join_semilattice</title>
<path fill="none" stroke="gray" d="M1404,-431.7C1404,-420.85 1404,-406.92 1404,-396.1"/>
</g>
<!-- Bounded_join_semilattice&#45;&#45;Bounded_meet_semilattice -->
<g id="edge63" class="edge">
<title>Bounded_join_semilattice&#45;&#45;Bounded_meet_semilattice</title>
<path fill="none" stroke="gray" stroke-dasharray="1,5" d="M1307.92,-378C1289.18,-378 1270.44,-378 1251.7,-378"/>
</g>
</g>
</svg>
