<?xml version="1.0" encoding="UTF-8" standalone="no"?>
<!DOCTYPE svg PUBLIC "-//W3C//DTD SVG 1.1//EN"
 "http://www.w3.org/Graphics/SVG/1.1/DTD/svg11.dtd">
<!-- Generated by graphviz version 2.43.0 (0)
 -->
<!-- Title: %3 Pages: 1 -->
<svg width="1189pt" height="476pt"
 viewBox="0.00 0.00 1188.52 476.00" xmlns="http://www.w3.org/2000/svg" xmlns:xlink="http://www.w3.org/1999/xlink">
<g id="graph0" class="graph" transform="scale(1 1) rotate(0) translate(4 472)">
<title>%3</title>
<polygon fill="white" stroke="transparent" points="-4,4 -4,-472 1184.52,-472 1184.52,4 -4,4"/>
<!-- Invariant -->
<g id="node1" class="node">
<title>Invariant</title>
<polygon fill="black" stroke="transparent" points="597.52,-468 518.52,-468 518.52,-432 597.52,-432 597.52,-468"/>
<text text-anchor="middle" x="558.02" y="-446.3" font-family="Helvetica,sans-Serif" font-size="14.00" fill="white">Invariant</text>
</g>
<!-- Functor -->
<g id="node2" class="node">
<title>Functor</title>
<polygon fill="black" stroke="transparent" points="447.52,-396 378.52,-396 378.52,-360 447.52,-360 447.52,-396"/>
<text text-anchor="middle" x="413.02" y="-374.3" font-family="Helvetica,sans-Serif" font-size="14.00" fill="white">Functor</text>
</g>
<!-- Invariant&#45;&#45;Functor -->
<g id="edge1" class="edge">
<title>Invariant&#45;&#45;Functor</title>
<path fill="none" stroke="gray" d="M522.55,-431.88C499.74,-420.87 470.26,-406.63 447.62,-395.71"/>
</g>
<!-- Contravariant -->
<g id="node3" class="node">
<title>Contravariant</title>
<polygon fill="black" stroke="transparent" points="759.02,-396 647.02,-396 647.02,-360 759.02,-360 759.02,-396"/>
<text text-anchor="middle" x="703.02" y="-374.3" font-family="Helvetica,sans-Serif" font-size="14.00" fill="white">Contravariant</text>
</g>
<!-- Invariant&#45;&#45;Contravariant -->
<g id="edge2" class="edge">
<title>Invariant&#45;&#45;Contravariant</title>
<path fill="none" stroke="gray" d="M593.49,-431.88C616.04,-420.99 645.13,-406.95 667.66,-396.07"/>
</g>
<!-- Applicative -->
<g id="node6" class="node">
<title>Applicative</title>
<polygon fill="black" stroke="transparent" points="507.52,-252 414.52,-252 414.52,-216 507.52,-216 507.52,-252"/>
<text text-anchor="middle" x="461.02" y="-230.3" font-family="Helvetica,sans-Serif" font-size="14.00" fill="white">Applicative</text>
</g>
<!-- Functor&#45;&#45;Applicative -->
<g id="edge3" class="edge">
<title>Functor&#45;&#45;Applicative</title>
<path fill="none" stroke="gray" d="M415.17,-359.86C417.8,-341.62 423.06,-312.14 432.02,-288 436.69,-275.41 443.94,-262.16 450.02,-252.06"/>
</g>
<!-- Alt -->
<g id="node11" class="node">
<title>Alt</title>
<polygon fill="black" stroke="transparent" points="495.02,-324 441.02,-324 441.02,-288 495.02,-288 495.02,-324"/>
<text text-anchor="middle" x="468.02" y="-302.3" font-family="Helvetica,sans-Serif" font-size="14.00" fill="white">Alt</text>
</g>
<!-- Functor&#45;&#45;Alt -->
<g id="edge8" class="edge">
<title>Functor&#45;&#45;Alt</title>
<path fill="none" stroke="gray" d="M426.62,-359.7C435.14,-348.85 446.08,-334.92 454.58,-324.1"/>
</g>
<!-- Comonad -->
<g id="node12" class="node">
<title>Comonad</title>
<polygon fill="black" stroke="transparent" points="155.52,-324 72.52,-324 72.52,-288 155.52,-288 155.52,-324"/>
<text text-anchor="middle" x="114.02" y="-302.3" font-family="Helvetica,sans-Serif" font-size="14.00" fill="white">Comonad</text>
</g>
<!-- Functor&#45;&#45;Comonad -->
<g id="edge9" class="edge">
<title>Functor&#45;&#45;Comonad</title>
<path fill="none" stroke="gray" d="M378.22,-370.83C329.98,-361.99 240.2,-344.5 165.02,-324 161.96,-323.17 158.81,-322.25 155.65,-321.3"/>
</g>
<!-- Free_selective -->
<g id="node16" class="node">
<title>Free_selective</title>
<polygon fill="black" stroke="transparent" points="286.52,-324 173.52,-324 173.52,-288 286.52,-288 286.52,-324"/>
<text text-anchor="middle" x="230.02" y="-302.3" font-family="Helvetica,sans-Serif" font-size="14.00" fill="white">Free_selective</text>
</g>
<!-- Functor&#45;&#45;Free_selective -->
<g id="edge16" class="edge">
<title>Functor&#45;&#45;Free_selective</title>
<path fill="none" stroke="gray" stroke-dasharray="1,5" d="M378.17,-363.67C348.72,-352.4 306.36,-336.2 274.47,-324"/>
</g>
<!-- Free_applicative -->
<g id="node17" class="node">
<title>Free_applicative</title>
<polygon fill="black" stroke="transparent" points="640.52,-324 513.52,-324 513.52,-288 640.52,-288 640.52,-324"/>
<text text-anchor="middle" x="577.02" y="-302.3" font-family="Helvetica,sans-Serif" font-size="14.00" fill="white">Free_applicative</text>
</g>
<!-- Functor&#45;&#45;Free_applicative -->
<g id="edge17" class="edge">
<title>Functor&#45;&#45;Free_applicative</title>
<path fill="none" stroke="gray" stroke-dasharray="1,5" d="M447.8,-362.15C473.94,-351 509.79,-335.7 537.1,-324.04"/>
</g>
<!-- Free_monad -->
<g id="node18" class="node">
<title>Free_monad</title>
<polygon fill="black" stroke="transparent" points="276.02,-180 176.02,-180 176.02,-144 276.02,-144 276.02,-180"/>
<text text-anchor="middle" x="226.02" y="-158.3" font-family="Helvetica,sans-Serif" font-size="14.00" fill="white">Free_monad</text>
</g>
<!-- Functor&#45;&#45;Free_monad -->
<g id="edge18" class="edge">
<title>Functor&#45;&#45;Free_monad</title>
<path fill="none" stroke="gray" stroke-dasharray="1,5" d="M378.32,-374.97C300.82,-369.92 116.31,-354.92 63.02,-324 27.72,-303.52 19.43,-290.55 6.02,-252 0.76,-236.89 -3.98,-228.49 6.02,-216 51.86,-158.78 95.98,-198.16 167.02,-180 169.91,-179.26 172.88,-178.48 175.86,-177.68"/>
</g>
<!-- Profunctor -->
<g id="node21" class="node">
<title>Profunctor</title>
<polygon fill="black" stroke="transparent" points="747.52,-324 658.52,-324 658.52,-288 747.52,-288 747.52,-324"/>
<text text-anchor="middle" x="703.02" y="-302.3" font-family="Helvetica,sans-Serif" font-size="14.00" fill="white">Profunctor</text>
</g>
<!-- Functor&#45;&#45;Profunctor -->
<g id="edge27" class="edge">
<title>Functor&#45;&#45;Profunctor</title>
<path fill="none" stroke="gray" d="M447.8,-370.25C494.21,-361 578.82,-343.34 650.02,-324 652.72,-323.27 655.5,-322.48 658.28,-321.66"/>
</g>
<!-- Bifunctor -->
<g id="node22" class="node">
<title>Bifunctor</title>
<polygon fill="black" stroke="transparent" points="385.02,-324 305.02,-324 305.02,-288 385.02,-288 385.02,-324"/>
<text text-anchor="middle" x="345.02" y="-302.3" font-family="Helvetica,sans-Serif" font-size="14.00" fill="white">Bifunctor</text>
</g>
<!-- Functor&#45;&#45;Bifunctor -->
<g id="edge28" class="edge">
<title>Functor&#45;&#45;Bifunctor</title>
<path fill="none" stroke="gray" d="M396.21,-359.7C385.67,-348.85 372.14,-334.92 361.64,-324.1"/>
</g>
<!-- Divisible -->
<g id="node4" class="node">
<title>Divisible</title>
<polygon fill="black" stroke="transparent" points="902.52,-324 827.52,-324 827.52,-288 902.52,-288 902.52,-324"/>
<text text-anchor="middle" x="865.02" y="-302.3" font-family="Helvetica,sans-Serif" font-size="14.00" fill="white">Divisible</text>
</g>
<!-- Contravariant&#45;&#45;Divisible -->
<g id="edge24" class="edge">
<title>Contravariant&#45;&#45;Divisible</title>
<path fill="none" stroke="gray" d="M742.65,-359.88C768.5,-348.7 802.04,-334.21 827.47,-323.23"/>
</g>
<!-- Contravariant&#45;&#45;Profunctor -->
<g id="edge26" class="edge">
<title>Contravariant&#45;&#45;Profunctor</title>
<path fill="none" stroke="gray" d="M703.02,-359.7C703.02,-348.85 703.02,-334.92 703.02,-324.1"/>
</g>
<!-- Decidable -->
<g id="node5" class="node">
<title>Decidable</title>
<polygon fill="black" stroke="transparent" points="971.52,-252 886.52,-252 886.52,-216 971.52,-216 971.52,-252"/>
<text text-anchor="middle" x="929.02" y="-230.3" font-family="Helvetica,sans-Serif" font-size="14.00" fill="white">Decidable</text>
</g>
<!-- Divisible&#45;&#45;Decidable -->
<g id="edge25" class="edge">
<title>Divisible&#45;&#45;Decidable</title>
<path fill="none" stroke="gray" d="M880.84,-287.7C890.76,-276.85 903.5,-262.92 913.38,-252.1"/>
</g>
<!-- Selective -->
<g id="node7" class="node">
<title>Selective</title>
<polygon fill="black" stroke="transparent" points="373.52,-180 294.52,-180 294.52,-144 373.52,-144 373.52,-180"/>
<text text-anchor="middle" x="334.02" y="-158.3" font-family="Helvetica,sans-Serif" font-size="14.00" fill="white">Selective</text>
</g>
<!-- Applicative&#45;&#45;Selective -->
<g id="edge4" class="edge">
<title>Applicative&#45;&#45;Selective</title>
<path fill="none" stroke="gray" d="M429.95,-215.88C410.27,-205.03 384.91,-191.05 365.21,-180.19"/>
</g>
<!-- Alternative -->
<g id="node9" class="node">
<title>Alternative</title>
<polygon fill="black" stroke="transparent" points="484.02,-180 392.02,-180 392.02,-144 484.02,-144 484.02,-180"/>
<text text-anchor="middle" x="438.02" y="-158.3" font-family="Helvetica,sans-Serif" font-size="14.00" fill="white">Alternative</text>
</g>
<!-- Applicative&#45;&#45;Alternative -->
<g id="edge6" class="edge">
<title>Applicative&#45;&#45;Alternative</title>
<path fill="none" stroke="gray" d="M455.33,-215.7C451.77,-204.85 447.19,-190.92 443.64,-180.1"/>
</g>
<!-- Traversable -->
<g id="node29" class="node">
<title>Traversable</title>
<polygon fill="black" stroke="transparent" points="560.52,-36 463.52,-36 463.52,0 560.52,0 560.52,-36"/>
<text text-anchor="middle" x="512.02" y="-14.3" font-family="Helvetica,sans-Serif" font-size="14.00" fill="white">Traversable</text>
</g>
<!-- Applicative&#45;&#45;Traversable -->
<g id="edge35" class="edge">
<title>Applicative&#45;&#45;Traversable</title>
<path fill="none" stroke="gray" d="M474,-215.79C480.81,-205.85 488.63,-192.81 493.02,-180 510.18,-129.95 512.38,-66.58 512.34,-36.45"/>
</g>
<!-- Monad -->
<g id="node8" class="node">
<title>Monad</title>
<polygon fill="black" stroke="transparent" points="354.52,-108 291.52,-108 291.52,-72 354.52,-72 354.52,-108"/>
<text text-anchor="middle" x="323.02" y="-86.3" font-family="Helvetica,sans-Serif" font-size="14.00" fill="white">Monad</text>
</g>
<!-- Selective&#45;&#45;Monad -->
<g id="edge5" class="edge">
<title>Selective&#45;&#45;Monad</title>
<path fill="none" stroke="gray" d="M331.3,-143.7C329.6,-132.85 327.41,-118.92 325.71,-108.1"/>
</g>
<!-- Monad_plus -->
<g id="node10" class="node">
<title>Monad_plus</title>
<polygon fill="black" stroke="transparent" points="372.52,-36 273.52,-36 273.52,0 372.52,0 372.52,-36"/>
<text text-anchor="middle" x="323.02" y="-14.3" font-family="Helvetica,sans-Serif" font-size="14.00" fill="white">Monad_plus</text>
</g>
<!-- Monad&#45;&#45;Monad_plus -->
<g id="edge7" class="edge">
<title>Monad&#45;&#45;Monad_plus</title>
<path fill="none" stroke="gray" d="M323.02,-71.7C323.02,-60.85 323.02,-46.92 323.02,-36.1"/>
</g>
<!-- State -->
<g id="node23" class="node">
<title>State</title>
<polygon fill="black" stroke="transparent" points="445.02,-36 391.02,-36 391.02,0 445.02,0 445.02,-36"/>
<text text-anchor="middle" x="418.02" y="-14.3" font-family="Helvetica,sans-Serif" font-size="14.00" fill="white">State</text>
</g>
<!-- Monad&#45;&#45;State -->
<g id="edge29" class="edge">
<title>Monad&#45;&#45;State</title>
<path fill="none" stroke="gray" d="M346.5,-71.7C361.23,-60.85 380.13,-46.92 394.81,-36.1"/>
</g>
<!-- Reader -->
<g id="node24" class="node">
<title>Reader</title>
<polygon fill="black" stroke="transparent" points="178.52,-36 113.52,-36 113.52,0 178.52,0 178.52,-36"/>
<text text-anchor="middle" x="146.02" y="-14.3" font-family="Helvetica,sans-Serif" font-size="14.00" fill="white">Reader</text>
</g>
<!-- Monad&#45;&#45;Reader -->
<g id="edge30" class="edge">
<title>Monad&#45;&#45;Reader</title>
<path fill="none" stroke="gray" d="M291.34,-76.67C263.96,-65.99 223.34,-50.08 188.02,-36 184.95,-34.78 181.76,-33.5 178.57,-32.21"/>
</g>
<!-- Writer -->
<g id="node25" class="node">
<title>Writer</title>
<polygon fill="black" stroke="transparent" points="255.52,-36 196.52,-36 196.52,0 255.52,0 255.52,-36"/>
<text text-anchor="middle" x="226.02" y="-14.3" font-family="Helvetica,sans-Serif" font-size="14.00" fill="white">Writer</text>
</g>
<!-- Monad&#45;&#45;Writer -->
<g id="edge31" class="edge">
<title>Monad&#45;&#45;Writer</title>
<path fill="none" stroke="gray" d="M299.04,-71.7C284.01,-60.85 264.7,-46.92 249.72,-36.1"/>
</g>
<!-- Monad&#45;&#45;Traversable -->
<g id="edge36" class="edge">
<title>Monad&#45;&#45;Traversable</title>
<path fill="none" stroke="gray" d="M354.65,-77.28C385.13,-66 431.57,-48.8 466.11,-36"/>
</g>
<!-- Store -->
<g id="node26" class="node">
<title>Store</title>
<polygon fill="black" stroke="transparent" points="69.02,-252 15.02,-252 15.02,-216 69.02,-216 69.02,-252"/>
<text text-anchor="middle" x="42.02" y="-230.3" font-family="Helvetica,sans-Serif" font-size="14.00" fill="white">Store</text>
</g>
<!-- Comonad&#45;&#45;Store -->
<g id="edge32" class="edge">
<title>Comonad&#45;&#45;Store</title>
<path fill="none" stroke="gray" d="M96.22,-287.7C85.06,-276.85 70.73,-262.92 59.61,-252.1"/>
</g>
<!-- Env -->
<g id="node27" class="node">
<title>Env</title>
<polygon fill="black" stroke="transparent" points="141.02,-252 87.02,-252 87.02,-216 141.02,-216 141.02,-252"/>
<text text-anchor="middle" x="114.02" y="-230.3" font-family="Helvetica,sans-Serif" font-size="14.00" fill="white">Env</text>
</g>
<!-- Comonad&#45;&#45;Env -->
<g id="edge33" class="edge">
<title>Comonad&#45;&#45;Env</title>
<path fill="none" stroke="gray" d="M114.02,-287.7C114.02,-276.85 114.02,-262.92 114.02,-252.1"/>
</g>
<!-- Traced -->
<g id="node28" class="node">
<title>Traced</title>
<polygon fill="black" stroke="transparent" points="221.02,-252 159.02,-252 159.02,-216 221.02,-216 221.02,-252"/>
<text text-anchor="middle" x="190.02" y="-230.3" font-family="Helvetica,sans-Serif" font-size="14.00" fill="white">Traced</text>
</g>
<!-- Comonad&#45;&#45;Traced -->
<g id="edge34" class="edge">
<title>Comonad&#45;&#45;Traced</title>
<path fill="none" stroke="gray" d="M132.81,-287.7C144.59,-276.85 159.71,-262.92 171.45,-252.1"/>
</g>
<!-- Semigroup -->
<g id="node13" class="node">
<title>Semigroup</title>
<polygon fill="black" stroke="transparent" points="788.02,-252 696.02,-252 696.02,-216 788.02,-216 788.02,-252"/>
<text text-anchor="middle" x="742.02" y="-230.3" font-family="Helvetica,sans-Serif" font-size="14.00" fill="white">Semigroup</text>
</g>
<!-- Semigroup&#45;&#45;Alt -->
<g id="edge13" class="edge">
<title>Semigroup&#45;&#45;Alt</title>
<path fill="none" stroke="gray" stroke-dasharray="1,5" d="M695.9,-249.64C692.91,-250.47 689.93,-251.27 687.02,-252 607.08,-272.2 583.47,-262.61 505.02,-288 501.79,-289.04 498.47,-290.3 495.21,-291.64"/>
</g>
<!-- Monoid -->
<g id="node14" class="node">
<title>Monoid</title>
<polygon fill="black" stroke="transparent" points="681.52,-180 614.52,-180 614.52,-144 681.52,-144 681.52,-180"/>
<text text-anchor="middle" x="648.02" y="-158.3" font-family="Helvetica,sans-Serif" font-size="14.00" fill="white">Monoid</text>
</g>
<!-- Semigroup&#45;&#45;Monoid -->
<g id="edge10" class="edge">
<title>Semigroup&#45;&#45;Monoid</title>
<path fill="none" stroke="gray" d="M718.78,-215.7C704.21,-204.85 685.51,-190.92 670.99,-180.1"/>
</g>
<!-- Semigroupoid -->
<g id="node30" class="node">
<title>Semigroupoid</title>
<polygon fill="black" stroke="transparent" points="1086.52,-324 973.52,-324 973.52,-288 1086.52,-288 1086.52,-324"/>
<text text-anchor="middle" x="1030.02" y="-302.3" font-family="Helvetica,sans-Serif" font-size="14.00" fill="white">Semigroupoid</text>
</g>
<!-- Semigroup&#45;&#45;Semigroupoid -->
<g id="edge37" class="edge">
<title>Semigroup&#45;&#45;Semigroupoid</title>
<path fill="none" stroke="gray" stroke-dasharray="1,5" d="M788.16,-249.54C791.15,-250.4 794.12,-251.22 797.02,-252 856.73,-267.99 925.86,-283.32 973.22,-293.35"/>
</g>
<!-- Arrow_alt -->
<g id="node37" class="node">
<title>Arrow_alt</title>
<polygon fill="black" stroke="transparent" points="788.02,-108 708.02,-108 708.02,-72 788.02,-72 788.02,-108"/>
<text text-anchor="middle" x="748.02" y="-86.3" font-family="Helvetica,sans-Serif" font-size="14.00" fill="white">Arrow_alt</text>
</g>
<!-- Semigroup&#45;&#45;Arrow_alt -->
<g id="edge53" class="edge">
<title>Semigroup&#45;&#45;Arrow_alt</title>
<path fill="none" stroke="gray" stroke-dasharray="1,5" d="M742.74,-215.87C743.9,-188.58 746.14,-135.52 747.29,-108.19"/>
</g>
<!-- Monoid&#45;&#45;Monad -->
<g id="edge14" class="edge">
<title>Monoid&#45;&#45;Monad</title>
<path fill="none" stroke="gray" stroke-dasharray="1,5" d="M614.46,-153.77C551.54,-140.22 416.61,-111.16 354.95,-97.88"/>
</g>
<!-- Monoid&#45;&#45;Alternative -->
<g id="edge11" class="edge">
<title>Monoid&#45;&#45;Alternative</title>
<path fill="none" stroke="gray" stroke-dasharray="1,5" d="M614.46,-162C571.09,-162 527.73,-162 484.37,-162"/>
</g>
<!-- Monoid&#45;&#45;Monad_plus -->
<g id="edge12" class="edge">
<title>Monoid&#45;&#45;Monad_plus</title>
<path fill="none" stroke="gray" stroke-dasharray="1,5" d="M614.46,-146.34C553.89,-119.87 426.6,-64.26 362.16,-36.1"/>
</g>
<!-- Foldable -->
<g id="node15" class="node">
<title>Foldable</title>
<polygon fill="black" stroke="transparent" points="652.02,-108 578.02,-108 578.02,-72 652.02,-72 652.02,-108"/>
<text text-anchor="middle" x="615.02" y="-86.3" font-family="Helvetica,sans-Serif" font-size="14.00" fill="white">Foldable</text>
</g>
<!-- Monoid&#45;&#45;Foldable -->
<g id="edge15" class="edge">
<title>Monoid&#45;&#45;Foldable</title>
<path fill="none" stroke="gray" d="M639.86,-143.7C634.75,-132.85 628.18,-118.92 623.08,-108.1"/>
</g>
<!-- Category -->
<g id="node31" class="node">
<title>Category</title>
<polygon fill="black" stroke="transparent" points="1070.02,-252 990.02,-252 990.02,-216 1070.02,-216 1070.02,-252"/>
<text text-anchor="middle" x="1030.02" y="-230.3" font-family="Helvetica,sans-Serif" font-size="14.00" fill="white">Category</text>
</g>
<!-- Monoid&#45;&#45;Category -->
<g id="edge38" class="edge">
<title>Monoid&#45;&#45;Category</title>
<path fill="none" stroke="gray" stroke-dasharray="1,5" d="M681.97,-166.4C742.65,-172.93 873.42,-189 981.02,-216 983.9,-216.72 986.85,-217.54 989.81,-218.42"/>
</g>
<!-- Arrow_plus -->
<g id="node38" class="node">
<title>Arrow_plus</title>
<polygon fill="black" stroke="transparent" points="846.02,-36 754.02,-36 754.02,0 846.02,0 846.02,-36"/>
<text text-anchor="middle" x="800.02" y="-14.3" font-family="Helvetica,sans-Serif" font-size="14.00" fill="white">Arrow_plus</text>
</g>
<!-- Monoid&#45;&#45;Arrow_plus -->
<g id="edge52" class="edge">
<title>Monoid&#45;&#45;Arrow_plus</title>
<path fill="none" stroke="gray" stroke-dasharray="1,5" d="M654.46,-143.69C662.43,-124.22 677.6,-92.64 699.02,-72 714.85,-56.75 735.94,-44.76 754.75,-36.07"/>
</g>
<!-- Free_selective&#45;&#45;Selective -->
<g id="edge19" class="edge">
<title>Free_selective&#45;&#45;Selective</title>
<path fill="none" stroke="gray" d="M234.92,-287.66C240.84,-268.73 252.18,-238.16 269.02,-216 279.59,-202.09 294.53,-189.57 307.43,-180.2"/>
</g>
<!-- Free_applicative&#45;&#45;Applicative -->
<g id="edge21" class="edge">
<title>Free_applicative&#45;&#45;Applicative</title>
<path fill="none" stroke="gray" d="M548.64,-287.88C530.67,-277.03 507.5,-263.05 489.51,-252.19"/>
</g>
<!-- Free_monad&#45;&#45;Monad -->
<g id="edge22" class="edge">
<title>Free_monad&#45;&#45;Monad</title>
<path fill="none" stroke="gray" d="M250,-143.7C265.03,-132.85 284.33,-118.92 299.32,-108.1"/>
</g>
<!-- Freer_selective -->
<g id="node19" class="node">
<title>Freer_selective</title>
<polygon fill="black" stroke="transparent" points="396.52,-252 277.52,-252 277.52,-216 396.52,-216 396.52,-252"/>
<text text-anchor="middle" x="337.02" y="-230.3" font-family="Helvetica,sans-Serif" font-size="14.00" fill="white">Freer_selective</text>
</g>
<!-- Freer_selective&#45;&#45;Selective -->
<g id="edge20" class="edge">
<title>Freer_selective&#45;&#45;Selective</title>
<path fill="none" stroke="gray" d="M336.28,-215.7C335.81,-204.85 335.22,-190.92 334.75,-180.1"/>
</g>
<!-- Freer_monad -->
<g id="node20" class="node">
<title>Freer_monad</title>
<polygon fill="black" stroke="transparent" points="158.02,-180 52.02,-180 52.02,-144 158.02,-144 158.02,-180"/>
<text text-anchor="middle" x="105.02" y="-158.3" font-family="Helvetica,sans-Serif" font-size="14.00" fill="white">Freer_monad</text>
</g>
<!-- Freer_monad&#45;&#45;Monad -->
<g id="edge23" class="edge">
<title>Freer_monad&#45;&#45;Monad</title>
<path fill="none" stroke="gray" d="M158.07,-143.97C199.79,-130.57 256.5,-112.36 291.39,-101.16"/>
</g>
<!-- Strong -->
<g id="node33" class="node">
<title>Strong</title>
<polygon fill="black" stroke="transparent" points="868.02,-252 806.02,-252 806.02,-216 868.02,-216 868.02,-252"/>
<text text-anchor="middle" x="837.02" y="-230.3" font-family="Helvetica,sans-Serif" font-size="14.00" fill="white">Strong</text>
</g>
<!-- Profunctor&#45;&#45;Strong -->
<g id="edge41" class="edge">
<title>Profunctor&#45;&#45;Strong</title>
<path fill="none" stroke="gray" d="M735.8,-287.88C757.18,-276.7 784.93,-262.21 805.96,-251.23"/>
</g>
<!-- Choice -->
<g id="node34" class="node">
<title>Choice</title>
<polygon fill="black" stroke="transparent" points="596.52,-252 533.52,-252 533.52,-216 596.52,-216 596.52,-252"/>
<text text-anchor="middle" x="565.02" y="-230.3" font-family="Helvetica,sans-Serif" font-size="14.00" fill="white">Choice</text>
</g>
<!-- Profunctor&#45;&#45;Choice -->
<g id="edge42" class="edge">
<title>Profunctor&#45;&#45;Choice</title>
<path fill="none" stroke="gray" d="M669.26,-287.88C647.08,-276.62 618.25,-262 596.54,-250.99"/>
</g>
<!-- Closed -->
<g id="node35" class="node">
<title>Closed</title>
<polygon fill="black" stroke="transparent" points="677.52,-252 614.52,-252 614.52,-216 677.52,-216 677.52,-252"/>
<text text-anchor="middle" x="646.02" y="-230.3" font-family="Helvetica,sans-Serif" font-size="14.00" fill="white">Closed</text>
</g>
<!-- Profunctor&#45;&#45;Closed -->
<g id="edge43" class="edge">
<title>Profunctor&#45;&#45;Closed</title>
<path fill="none" stroke="gray" d="M688.93,-287.7C680.09,-276.85 668.75,-262.92 659.95,-252.1"/>
</g>
<!-- Semigroupoid&#45;&#45;Category -->
<g id="edge39" class="edge">
<title>Semigroupoid&#45;&#45;Category</title>
<path fill="none" stroke="gray" d="M1030.02,-287.7C1030.02,-276.85 1030.02,-262.92 1030.02,-252.1"/>
</g>
<!-- Arrow -->
<g id="node32" class="node">
<title>Arrow</title>
<polygon fill="black" stroke="transparent" points="954.02,-180 898.02,-180 898.02,-144 954.02,-144 954.02,-180"/>
<text text-anchor="middle" x="926.02" y="-158.3" font-family="Helvetica,sans-Serif" font-size="14.00" fill="white">Arrow</text>
</g>
<!-- Category&#45;&#45;Arrow -->
<g id="edge40" class="edge">
<title>Category&#45;&#45;Arrow</title>
<path fill="none" stroke="gray" d="M1004.58,-215.88C988.46,-205.03 967.69,-191.05 951.56,-180.19"/>
</g>
<!-- Arrow_zero -->
<g id="node36" class="node">
<title>Arrow_zero</title>
<polygon fill="black" stroke="transparent" points="898.02,-108 806.02,-108 806.02,-72 898.02,-72 898.02,-108"/>
<text text-anchor="middle" x="852.02" y="-86.3" font-family="Helvetica,sans-Serif" font-size="14.00" fill="white">Arrow_zero</text>
</g>
<!-- Arrow&#45;&#45;Arrow_zero -->
<g id="edge45" class="edge">
<title>Arrow&#45;&#45;Arrow_zero</title>
<path fill="none" stroke="gray" d="M907.73,-143.7C896.26,-132.85 881.53,-118.92 870.1,-108.1"/>
</g>
<!-- Arrow&#45;&#45;Arrow_alt -->
<g id="edge46" class="edge">
<title>Arrow&#45;&#45;Arrow_alt</title>
<path fill="none" stroke="gray" d="M897.81,-149.91C868.31,-138.3 821.72,-119.98 788.34,-106.86"/>
</g>
<!-- Arrow&#45;&#45;Arrow_plus -->
<g id="edge47" class="edge">
<title>Arrow&#45;&#45;Arrow_plus</title>
<path fill="none" stroke="gray" d="M926.6,-143.76C926.36,-124.36 923.21,-92.83 907.02,-72 891.88,-52.52 867.7,-39.7 846.15,-31.55"/>
</g>
<!-- Arrow_choice -->
<g id="node39" class="node">
<title>Arrow_choice</title>
<polygon fill="black" stroke="transparent" points="1061.52,-108 954.52,-108 954.52,-72 1061.52,-72 1061.52,-108"/>
<text text-anchor="middle" x="1008.02" y="-86.3" font-family="Helvetica,sans-Serif" font-size="14.00" fill="white">Arrow_choice</text>
</g>
<!-- Arrow&#45;&#45;Arrow_choice -->
<g id="edge48" class="edge">
<title>Arrow&#45;&#45;Arrow_choice</title>
<path fill="none" stroke="gray" d="M946.29,-143.7C959,-132.85 975.32,-118.92 987.98,-108.1"/>
</g>
<!-- Arrow_apply -->
<g id="node40" class="node">
<title>Arrow_apply</title>
<polygon fill="black" stroke="transparent" points="1180.52,-108 1079.52,-108 1079.52,-72 1180.52,-72 1180.52,-108"/>
<text text-anchor="middle" x="1130.02" y="-86.3" font-family="Helvetica,sans-Serif" font-size="14.00" fill="white">Arrow_apply</text>
</g>
<!-- Arrow&#45;&#45;Arrow_apply -->
<g id="edge49" class="edge">
<title>Arrow&#45;&#45;Arrow_apply</title>
<path fill="none" stroke="gray" d="M954.38,-151.27C986.9,-140.11 1040.79,-121.62 1080.32,-108.05"/>
</g>
<!-- Strong&#45;&#45;Arrow -->
<g id="edge44" class="edge">
<title>Strong&#45;&#45;Arrow</title>
<path fill="none" stroke="gray" d="M859.02,-215.7C872.81,-204.85 890.53,-190.92 904.27,-180.1"/>
</g>
<!-- Arrow_zero&#45;&#45;Arrow_plus -->
<g id="edge50" class="edge">
<title>Arrow_zero&#45;&#45;Arrow_plus</title>
<path fill="none" stroke="gray" stroke-dasharray="1,5" d="M839.17,-71.7C831.11,-60.85 820.76,-46.92 812.73,-36.1"/>
</g>
<!-- Arrow_alt&#45;&#45;Arrow_plus -->
<g id="edge51" class="edge">
<title>Arrow_alt&#45;&#45;Arrow_plus</title>
<path fill="none" stroke="gray" stroke-dasharray="1,5" d="M760.87,-71.7C768.93,-60.85 779.28,-46.92 787.31,-36.1"/>
</g>
</g>
</svg>
