<?xml version="1.0" encoding="UTF-8" standalone="no"?>
<!DOCTYPE svg PUBLIC "-//W3C//DTD SVG 1.1//EN"
 "http://www.w3.org/Graphics/SVG/1.1/DTD/svg11.dtd">
<!-- Generated by graphviz version 2.43.0 (0)
 -->
<!-- Title: %3 Pages: 1 -->
<svg width="1334pt" height="476pt"
 viewBox="0.00 0.00 1334.19 476.00" xmlns="http://www.w3.org/2000/svg" xmlns:xlink="http://www.w3.org/1999/xlink">
<g id="graph0" class="graph" transform="scale(1 1) rotate(0) translate(4 472)">
<title>%3</title>
<polygon fill="white" stroke="transparent" points="-4,4 -4,-472 1330.19,-472 1330.19,4 -4,4"/>
<!-- Invariant -->
<g id="node1" class="node">
<title>Invariant</title>
<polygon fill="black" stroke="transparent" points="640,-468 561,-468 561,-432 640,-432 640,-468"/>
<text text-anchor="middle" x="600.5" y="-446.3" font-family="Helvetica,sans-Serif" font-size="14.00" fill="white">Invariant</text>
</g>
<!-- Functor -->
<g id="node2" class="node">
<title>Functor</title>
<polygon fill="black" stroke="transparent" points="856,-396 787,-396 787,-360 856,-360 856,-396"/>
<text text-anchor="middle" x="821.5" y="-374.3" font-family="Helvetica,sans-Serif" font-size="14.00" fill="white">Functor</text>
</g>
<!-- Invariant&#45;&#45;Functor -->
<g id="edge1" class="edge">
<title>Invariant&#45;&#45;Functor</title>
<path fill="none" stroke="gray" d="M640.01,-436.49C681.73,-423.27 746.85,-402.64 786.7,-390.02"/>
</g>
<!-- Contravariant -->
<g id="node3" class="node">
<title>Contravariant</title>
<polygon fill="black" stroke="transparent" points="550.5,-396 438.5,-396 438.5,-360 550.5,-360 550.5,-396"/>
<text text-anchor="middle" x="494.5" y="-374.3" font-family="Helvetica,sans-Serif" font-size="14.00" fill="white">Contravariant</text>
</g>
<!-- Invariant&#45;&#45;Contravariant -->
<g id="edge2" class="edge">
<title>Invariant&#45;&#45;Contravariant</title>
<path fill="none" stroke="gray" d="M574.57,-431.88C558.14,-421.03 536.98,-407.05 520.53,-396.19"/>
</g>
<!-- Applicative -->
<g id="node6" class="node">
<title>Applicative</title>
<polygon fill="black" stroke="transparent" points="1178,-252 1085,-252 1085,-216 1178,-216 1178,-252"/>
<text text-anchor="middle" x="1131.5" y="-230.3" font-family="Helvetica,sans-Serif" font-size="14.00" fill="white">Applicative</text>
</g>
<!-- Functor&#45;&#45;Applicative -->
<g id="edge3" class="edge">
<title>Functor&#45;&#45;Applicative</title>
<path fill="none" stroke="gray" d="M856.19,-375.57C925.93,-371.95 1079.52,-359.99 1115.5,-324 1134.26,-305.23 1135.22,-272.46 1133.71,-252.35"/>
</g>
<!-- Apply -->
<g id="node9" class="node">
<title>Apply</title>
<polygon fill="black" stroke="transparent" points="1290.5,-324 1234.5,-324 1234.5,-288 1290.5,-288 1290.5,-324"/>
<text text-anchor="middle" x="1262.5" y="-302.3" font-family="Helvetica,sans-Serif" font-size="14.00" fill="white">Apply</text>
</g>
<!-- Functor&#45;&#45;Apply -->
<g id="edge6" class="edge">
<title>Functor&#45;&#45;Apply</title>
<path fill="none" stroke="gray" stroke-dasharray="1,5" d="M856.26,-375.94C927.08,-373.01 1092.61,-362.29 1225.5,-324 1228.35,-323.18 1231.27,-322.17 1234.14,-321.05"/>
</g>
<!-- Bind -->
<g id="node10" class="node">
<title>Bind</title>
<polygon fill="black" stroke="transparent" points="901.5,-180 847.5,-180 847.5,-144 901.5,-144 901.5,-180"/>
<text text-anchor="middle" x="874.5" y="-158.3" font-family="Helvetica,sans-Serif" font-size="14.00" fill="white">Bind</text>
</g>
<!-- Functor&#45;&#45;Bind -->
<g id="edge9" class="edge">
<title>Functor&#45;&#45;Bind</title>
<path fill="none" stroke="gray" stroke-dasharray="1,5" d="M786.9,-373.36C719.77,-366.03 567.28,-348.12 440.5,-324 423.82,-320.83 154,-265.34 143.5,-252 133.61,-239.42 132.48,-227.6 143.5,-216 196.74,-159.93 763.51,-198.87 838.5,-180 841.45,-179.26 844.45,-178.27 847.39,-177.14"/>
</g>
<!-- Alt -->
<g id="node13" class="node">
<title>Alt</title>
<polygon fill="black" stroke="transparent" points="1216.5,-324 1162.5,-324 1162.5,-288 1216.5,-288 1216.5,-324"/>
<text text-anchor="middle" x="1189.5" y="-302.3" font-family="Helvetica,sans-Serif" font-size="14.00" fill="white">Alt</text>
</g>
<!-- Functor&#45;&#45;Alt -->
<g id="edge12" class="edge">
<title>Functor&#45;&#45;Alt</title>
<path fill="none" stroke="gray" d="M856.44,-374.02C916.89,-368.28 1044.5,-353.55 1148.5,-324 1153.1,-322.69 1157.87,-321.02 1162.47,-319.24"/>
</g>
<!-- Comonad -->
<g id="node14" class="node">
<title>Comonad</title>
<polygon fill="black" stroke="transparent" points="863,-324 780,-324 780,-288 863,-288 863,-324"/>
<text text-anchor="middle" x="821.5" y="-302.3" font-family="Helvetica,sans-Serif" font-size="14.00" fill="white">Comonad</text>
</g>
<!-- Functor&#45;&#45;Comonad -->
<g id="edge13" class="edge">
<title>Functor&#45;&#45;Comonad</title>
<path fill="none" stroke="gray" d="M821.5,-359.7C821.5,-348.85 821.5,-334.92 821.5,-324.1"/>
</g>
<!-- Free_selective -->
<g id="node18" class="node">
<title>Free_selective</title>
<polygon fill="black" stroke="transparent" points="762,-324 649,-324 649,-288 762,-288 762,-324"/>
<text text-anchor="middle" x="705.5" y="-302.3" font-family="Helvetica,sans-Serif" font-size="14.00" fill="white">Free_selective</text>
</g>
<!-- Functor&#45;&#45;Free_selective -->
<g id="edge20" class="edge">
<title>Functor&#45;&#45;Free_selective</title>
<path fill="none" stroke="gray" stroke-dasharray="1,5" d="M793.12,-359.88C775.15,-349.03 751.98,-335.05 733.99,-324.19"/>
</g>
<!-- Free_applicative -->
<g id="node19" class="node">
<title>Free_applicative</title>
<polygon fill="black" stroke="transparent" points="1008,-324 881,-324 881,-288 1008,-288 1008,-324"/>
<text text-anchor="middle" x="944.5" y="-302.3" font-family="Helvetica,sans-Serif" font-size="14.00" fill="white">Free_applicative</text>
</g>
<!-- Functor&#45;&#45;Free_applicative -->
<g id="edge21" class="edge">
<title>Functor&#45;&#45;Free_applicative</title>
<path fill="none" stroke="gray" stroke-dasharray="1,5" d="M851.59,-359.88C870.65,-349.03 895.21,-335.05 914.3,-324.19"/>
</g>
<!-- Free_monad -->
<g id="node20" class="node">
<title>Free_monad</title>
<polygon fill="black" stroke="transparent" points="829.5,-180 729.5,-180 729.5,-144 829.5,-144 829.5,-180"/>
<text text-anchor="middle" x="779.5" y="-158.3" font-family="Helvetica,sans-Serif" font-size="14.00" fill="white">Free_monad</text>
</g>
<!-- Functor&#45;&#45;Free_monad -->
<g id="edge22" class="edge">
<title>Functor&#45;&#45;Free_monad</title>
<path fill="none" stroke="gray" stroke-dasharray="1,5" d="M786.81,-371.89C739.12,-364.08 657.18,-347.56 639.5,-324 598.15,-268.89 690.79,-208.87 744.55,-180.17"/>
</g>
<!-- Profunctor -->
<g id="node23" class="node">
<title>Profunctor</title>
<polygon fill="black" stroke="transparent" points="539,-324 450,-324 450,-288 539,-288 539,-324"/>
<text text-anchor="middle" x="494.5" y="-302.3" font-family="Helvetica,sans-Serif" font-size="14.00" fill="white">Profunctor</text>
</g>
<!-- Functor&#45;&#45;Profunctor -->
<g id="edge31" class="edge">
<title>Functor&#45;&#45;Profunctor</title>
<path fill="none" stroke="gray" d="M786.81,-369.58C727.15,-356.8 605.15,-330.69 539.2,-316.57"/>
</g>
<!-- Bifunctor -->
<g id="node24" class="node">
<title>Bifunctor</title>
<polygon fill="black" stroke="transparent" points="1106.5,-324 1026.5,-324 1026.5,-288 1106.5,-288 1106.5,-324"/>
<text text-anchor="middle" x="1066.5" y="-302.3" font-family="Helvetica,sans-Serif" font-size="14.00" fill="white">Bifunctor</text>
</g>
<!-- Functor&#45;&#45;Bifunctor -->
<g id="edge32" class="edge">
<title>Functor&#45;&#45;Bifunctor</title>
<path fill="none" stroke="gray" d="M856.05,-368.44C895.37,-358.51 961.41,-341.29 1017.5,-324 1020.43,-323.1 1023.44,-322.14 1026.46,-321.15"/>
</g>
<!-- Divisible -->
<g id="node4" class="node">
<title>Divisible</title>
<polygon fill="black" stroke="transparent" points="260,-324 185,-324 185,-288 260,-288 260,-324"/>
<text text-anchor="middle" x="222.5" y="-302.3" font-family="Helvetica,sans-Serif" font-size="14.00" fill="white">Divisible</text>
</g>
<!-- Contravariant&#45;&#45;Divisible -->
<g id="edge28" class="edge">
<title>Contravariant&#45;&#45;Divisible</title>
<path fill="none" stroke="gray" d="M438.47,-362.58C385.13,-348.85 306.33,-328.57 260.12,-316.68"/>
</g>
<!-- Contravariant&#45;&#45;Profunctor -->
<g id="edge30" class="edge">
<title>Contravariant&#45;&#45;Profunctor</title>
<path fill="none" stroke="gray" d="M494.5,-359.7C494.5,-348.85 494.5,-334.92 494.5,-324.1"/>
</g>
<!-- Decidable -->
<g id="node5" class="node">
<title>Decidable</title>
<polygon fill="black" stroke="transparent" points="238,-252 153,-252 153,-216 238,-216 238,-252"/>
<text text-anchor="middle" x="195.5" y="-230.3" font-family="Helvetica,sans-Serif" font-size="14.00" fill="white">Decidable</text>
</g>
<!-- Divisible&#45;&#45;Decidable -->
<g id="edge29" class="edge">
<title>Divisible&#45;&#45;Decidable</title>
<path fill="none" stroke="gray" d="M215.83,-287.7C211.64,-276.85 206.27,-262.92 202.1,-252.1"/>
</g>
<!-- Selective -->
<g id="node7" class="node">
<title>Selective</title>
<polygon fill="black" stroke="transparent" points="999,-180 920,-180 920,-144 999,-144 999,-180"/>
<text text-anchor="middle" x="959.5" y="-158.3" font-family="Helvetica,sans-Serif" font-size="14.00" fill="white">Selective</text>
</g>
<!-- Applicative&#45;&#45;Selective -->
<g id="edge4" class="edge">
<title>Applicative&#45;&#45;Selective</title>
<path fill="none" stroke="gray" d="M1089.42,-215.88C1061.88,-204.66 1026.11,-190.11 999.08,-179.11"/>
</g>
<!-- Alternative -->
<g id="node11" class="node">
<title>Alternative</title>
<polygon fill="black" stroke="transparent" points="1109.5,-180 1017.5,-180 1017.5,-144 1109.5,-144 1109.5,-180"/>
<text text-anchor="middle" x="1063.5" y="-158.3" font-family="Helvetica,sans-Serif" font-size="14.00" fill="white">Alternative</text>
</g>
<!-- Applicative&#45;&#45;Alternative -->
<g id="edge10" class="edge">
<title>Applicative&#45;&#45;Alternative</title>
<path fill="none" stroke="gray" d="M1114.69,-215.7C1104.15,-204.85 1090.62,-190.92 1080.12,-180.1"/>
</g>
<!-- Traversable -->
<g id="node31" class="node">
<title>Traversable</title>
<polygon fill="black" stroke="transparent" points="1161,-36 1064,-36 1064,0 1161,0 1161,-36"/>
<text text-anchor="middle" x="1112.5" y="-14.3" font-family="Helvetica,sans-Serif" font-size="14.00" fill="white">Traversable</text>
</g>
<!-- Applicative&#45;&#45;Traversable -->
<g id="edge39" class="edge">
<title>Applicative&#45;&#45;Traversable</title>
<path fill="none" stroke="gray" d="M1129.98,-215.85C1126.42,-175.78 1117.59,-76.38 1114.03,-36.23"/>
</g>
<!-- Monad -->
<g id="node8" class="node">
<title>Monad</title>
<polygon fill="black" stroke="transparent" points="858,-108 795,-108 795,-72 858,-72 858,-108"/>
<text text-anchor="middle" x="826.5" y="-86.3" font-family="Helvetica,sans-Serif" font-size="14.00" fill="white">Monad</text>
</g>
<!-- Selective&#45;&#45;Monad -->
<g id="edge5" class="edge">
<title>Selective&#45;&#45;Monad</title>
<path fill="none" stroke="gray" d="M926.96,-143.88C906.05,-132.87 879,-118.63 858.24,-107.71"/>
</g>
<!-- Monad_plus -->
<g id="node12" class="node">
<title>Monad_plus</title>
<polygon fill="black" stroke="transparent" points="997,-36 898,-36 898,0 997,0 997,-36"/>
<text text-anchor="middle" x="947.5" y="-14.3" font-family="Helvetica,sans-Serif" font-size="14.00" fill="white">Monad_plus</text>
</g>
<!-- Monad&#45;&#45;Monad_plus -->
<g id="edge11" class="edge">
<title>Monad&#45;&#45;Monad_plus</title>
<path fill="none" stroke="gray" d="M856.1,-71.88C874.85,-61.03 899.01,-47.05 917.79,-36.19"/>
</g>
<!-- State -->
<g id="node25" class="node">
<title>State</title>
<polygon fill="black" stroke="transparent" points="719.5,-36 665.5,-36 665.5,0 719.5,0 719.5,-36"/>
<text text-anchor="middle" x="692.5" y="-14.3" font-family="Helvetica,sans-Serif" font-size="14.00" fill="white">State</text>
</g>
<!-- Monad&#45;&#45;State -->
<g id="edge33" class="edge">
<title>Monad&#45;&#45;State</title>
<path fill="none" stroke="gray" d="M794.74,-72.41C771.84,-60.44 741.24,-44.46 719.51,-33.11"/>
</g>
<!-- Reader -->
<g id="node26" class="node">
<title>Reader</title>
<polygon fill="black" stroke="transparent" points="803,-36 738,-36 738,0 803,0 803,-36"/>
<text text-anchor="middle" x="770.5" y="-14.3" font-family="Helvetica,sans-Serif" font-size="14.00" fill="white">Reader</text>
</g>
<!-- Monad&#45;&#45;Reader -->
<g id="edge34" class="edge">
<title>Monad&#45;&#45;Reader</title>
<path fill="none" stroke="gray" d="M812.66,-71.7C803.98,-60.85 792.83,-46.92 784.18,-36.1"/>
</g>
<!-- Writer -->
<g id="node27" class="node">
<title>Writer</title>
<polygon fill="black" stroke="transparent" points="880,-36 821,-36 821,0 880,0 880,-36"/>
<text text-anchor="middle" x="850.5" y="-14.3" font-family="Helvetica,sans-Serif" font-size="14.00" fill="white">Writer</text>
</g>
<!-- Monad&#45;&#45;Writer -->
<g id="edge35" class="edge">
<title>Monad&#45;&#45;Writer</title>
<path fill="none" stroke="gray" d="M832.43,-71.7C836.15,-60.85 840.93,-46.92 844.64,-36.1"/>
</g>
<!-- Monad&#45;&#45;Traversable -->
<g id="edge40" class="edge">
<title>Monad&#45;&#45;Traversable</title>
<path fill="none" stroke="gray" d="M858.2,-81.24C908.08,-69.03 1005.26,-45.25 1063.98,-30.88"/>
</g>
<!-- Apply&#45;&#45;Applicative -->
<g id="edge7" class="edge">
<title>Apply&#45;&#45;Applicative</title>
<path fill="none" stroke="gray" d="M1234.4,-289.98C1213.65,-278.9 1185.37,-263.78 1163.71,-252.21"/>
</g>
<!-- Bind&#45;&#45;Monad -->
<g id="edge8" class="edge">
<title>Bind&#45;&#45;Monad</title>
<path fill="none" stroke="gray" d="M862.63,-143.7C855.19,-132.85 845.64,-118.92 838.23,-108.1"/>
</g>
<!-- Store -->
<g id="node28" class="node">
<title>Store</title>
<polygon fill="black" stroke="transparent" points="851.5,-252 797.5,-252 797.5,-216 851.5,-216 851.5,-252"/>
<text text-anchor="middle" x="824.5" y="-230.3" font-family="Helvetica,sans-Serif" font-size="14.00" fill="white">Store</text>
</g>
<!-- Comonad&#45;&#45;Store -->
<g id="edge36" class="edge">
<title>Comonad&#45;&#45;Store</title>
<path fill="none" stroke="gray" d="M822.24,-287.7C822.71,-276.85 823.3,-262.92 823.77,-252.1"/>
</g>
<!-- Env -->
<g id="node29" class="node">
<title>Env</title>
<polygon fill="black" stroke="transparent" points="923.5,-252 869.5,-252 869.5,-216 923.5,-216 923.5,-252"/>
<text text-anchor="middle" x="896.5" y="-230.3" font-family="Helvetica,sans-Serif" font-size="14.00" fill="white">Env</text>
</g>
<!-- Comonad&#45;&#45;Env -->
<g id="edge37" class="edge">
<title>Comonad&#45;&#45;Env</title>
<path fill="none" stroke="gray" d="M840.04,-287.7C851.66,-276.85 866.59,-262.92 878.17,-252.1"/>
</g>
<!-- Traced -->
<g id="node30" class="node">
<title>Traced</title>
<polygon fill="black" stroke="transparent" points="779.5,-252 717.5,-252 717.5,-216 779.5,-216 779.5,-252"/>
<text text-anchor="middle" x="748.5" y="-230.3" font-family="Helvetica,sans-Serif" font-size="14.00" fill="white">Traced</text>
</g>
<!-- Comonad&#45;&#45;Traced -->
<g id="edge38" class="edge">
<title>Comonad&#45;&#45;Traced</title>
<path fill="none" stroke="gray" d="M803.46,-287.7C792.14,-276.85 777.61,-262.92 766.34,-252.1"/>
</g>
<!-- Semigroup -->
<g id="node15" class="node">
<title>Semigroup</title>
<polygon fill="black" stroke="transparent" points="510.5,-252 418.5,-252 418.5,-216 510.5,-216 510.5,-252"/>
<text text-anchor="middle" x="464.5" y="-230.3" font-family="Helvetica,sans-Serif" font-size="14.00" fill="white">Semigroup</text>
</g>
<!-- Semigroup&#45;&#45;Alt -->
<g id="edge17" class="edge">
<title>Semigroup&#45;&#45;Alt</title>
<path fill="none" stroke="gray" stroke-dasharray="1,5" d="M510.51,-250.1C513.54,-250.82 516.55,-251.46 519.5,-252 780.58,-299.52 852.84,-250.16 1115.5,-288 1131.16,-290.26 1148.39,-294.13 1162.29,-297.61"/>
</g>
<!-- Monoid -->
<g id="node16" class="node">
<title>Monoid</title>
<polygon fill="black" stroke="transparent" points="587,-180 520,-180 520,-144 587,-144 587,-180"/>
<text text-anchor="middle" x="553.5" y="-158.3" font-family="Helvetica,sans-Serif" font-size="14.00" fill="white">Monoid</text>
</g>
<!-- Semigroup&#45;&#45;Monoid -->
<g id="edge14" class="edge">
<title>Semigroup&#45;&#45;Monoid</title>
<path fill="none" stroke="gray" d="M486.5,-215.7C500.3,-204.85 518.01,-190.92 531.75,-180.1"/>
</g>
<!-- Semigroupoid -->
<g id="node32" class="node">
<title>Semigroupoid</title>
<polygon fill="black" stroke="transparent" points="113,-324 0,-324 0,-288 113,-288 113,-324"/>
<text text-anchor="middle" x="56.5" y="-302.3" font-family="Helvetica,sans-Serif" font-size="14.00" fill="white">Semigroupoid</text>
</g>
<!-- Semigroup&#45;&#45;Semigroupoid -->
<g id="edge41" class="edge">
<title>Semigroup&#45;&#45;Semigroupoid</title>
<path fill="none" stroke="gray" stroke-dasharray="1,5" d="M418.5,-249.54C415.13,-250.43 411.77,-251.26 408.5,-252 380.32,-258.36 205.49,-283.71 113.29,-296.91"/>
</g>
<!-- Arrow_alt -->
<g id="node39" class="node">
<title>Arrow_alt</title>
<polygon fill="black" stroke="transparent" points="498.5,-108 418.5,-108 418.5,-72 498.5,-72 498.5,-108"/>
<text text-anchor="middle" x="458.5" y="-86.3" font-family="Helvetica,sans-Serif" font-size="14.00" fill="white">Arrow_alt</text>
</g>
<!-- Semigroup&#45;&#45;Arrow_alt -->
<g id="edge57" class="edge">
<title>Semigroup&#45;&#45;Arrow_alt</title>
<path fill="none" stroke="gray" stroke-dasharray="1,5" d="M463.78,-215.87C462.62,-188.58 460.38,-135.52 459.23,-108.19"/>
</g>
<!-- Monoid&#45;&#45;Monad -->
<g id="edge18" class="edge">
<title>Monoid&#45;&#45;Monad</title>
<path fill="none" stroke="gray" stroke-dasharray="1,5" d="M587.13,-147.15C590.28,-146.02 593.43,-144.95 596.5,-144 666.15,-122.34 750.14,-105.18 794.85,-96.73"/>
</g>
<!-- Monoid&#45;&#45;Alternative -->
<g id="edge15" class="edge">
<title>Monoid&#45;&#45;Alternative</title>
<path fill="none" stroke="gray" stroke-dasharray="1,5" d="M573.7,-180.26C582.75,-187.25 593.97,-194.4 605.5,-198 647.29,-211.05 957.15,-209.09 999.5,-198 1013.19,-194.41 1027.04,-187.17 1038.34,-180.11"/>
</g>
<!-- Monoid&#45;&#45;Monad_plus -->
<g id="edge16" class="edge">
<title>Monoid&#45;&#45;Monad_plus</title>
<path fill="none" stroke="gray" stroke-dasharray="1,5" d="M519.73,-158.9C429.46,-152.96 187.78,-134.67 164.5,-108 153.98,-95.95 153.47,-83.59 164.5,-72 220.1,-13.57 809.97,-49.44 889.5,-36 892.19,-35.55 894.93,-35.01 897.69,-34.41"/>
</g>
<!-- Foldable -->
<g id="node17" class="node">
<title>Foldable</title>
<polygon fill="black" stroke="transparent" points="590.5,-108 516.5,-108 516.5,-72 590.5,-72 590.5,-108"/>
<text text-anchor="middle" x="553.5" y="-86.3" font-family="Helvetica,sans-Serif" font-size="14.00" fill="white">Foldable</text>
</g>
<!-- Monoid&#45;&#45;Foldable -->
<g id="edge19" class="edge">
<title>Monoid&#45;&#45;Foldable</title>
<path fill="none" stroke="gray" d="M553.5,-143.7C553.5,-132.85 553.5,-118.92 553.5,-108.1"/>
</g>
<!-- Category -->
<g id="node33" class="node">
<title>Category</title>
<polygon fill="black" stroke="transparent" points="96.5,-252 16.5,-252 16.5,-216 96.5,-216 96.5,-252"/>
<text text-anchor="middle" x="56.5" y="-230.3" font-family="Helvetica,sans-Serif" font-size="14.00" fill="white">Category</text>
</g>
<!-- Monoid&#45;&#45;Category -->
<g id="edge42" class="edge">
<title>Monoid&#45;&#45;Category</title>
<path fill="none" stroke="gray" stroke-dasharray="1,5" d="M519.81,-164.89C445.29,-169.53 261.19,-183.56 110.5,-216 105.98,-216.97 101.31,-218.16 96.68,-219.45"/>
</g>
<!-- Arrow_plus -->
<g id="node40" class="node">
<title>Arrow_plus</title>
<polygon fill="black" stroke="transparent" points="311.5,-36 219.5,-36 219.5,0 311.5,0 311.5,-36"/>
<text text-anchor="middle" x="265.5" y="-14.3" font-family="Helvetica,sans-Serif" font-size="14.00" fill="white">Arrow_plus</text>
</g>
<!-- Monoid&#45;&#45;Arrow_plus -->
<g id="edge56" class="edge">
<title>Monoid&#45;&#45;Arrow_plus</title>
<path fill="none" stroke="gray" stroke-dasharray="1,5" d="M573.51,-143.88C593.34,-124.86 618.25,-93.96 599.5,-72 563.04,-29.3 394.65,-20.82 311.8,-19.26"/>
</g>
<!-- Free_selective&#45;&#45;Selective -->
<g id="edge23" class="edge">
<title>Free_selective&#45;&#45;Selective</title>
<path fill="none" stroke="gray" d="M700.38,-287.99C695.56,-268.21 691.39,-235.74 708.5,-216 768.22,-147.09 822.26,-203.02 910.5,-180 913.55,-179.2 916.68,-178.31 919.82,-177.36"/>
</g>
<!-- Free_applicative&#45;&#45;Applicative -->
<g id="edge25" class="edge">
<title>Free_applicative&#45;&#45;Applicative</title>
<path fill="none" stroke="gray" d="M990.25,-287.88C1019.33,-276.99 1056.85,-262.95 1085.9,-252.07"/>
</g>
<!-- Free_monad&#45;&#45;Monad -->
<g id="edge26" class="edge">
<title>Free_monad&#45;&#45;Monad</title>
<path fill="none" stroke="gray" d="M791.12,-143.7C798.4,-132.85 807.76,-118.92 815.02,-108.1"/>
</g>
<!-- Freer_selective -->
<g id="node21" class="node">
<title>Freer_selective</title>
<polygon fill="black" stroke="transparent" points="1061,-252 942,-252 942,-216 1061,-216 1061,-252"/>
<text text-anchor="middle" x="1001.5" y="-230.3" font-family="Helvetica,sans-Serif" font-size="14.00" fill="white">Freer_selective</text>
</g>
<!-- Freer_selective&#45;&#45;Selective -->
<g id="edge24" class="edge">
<title>Freer_selective&#45;&#45;Selective</title>
<path fill="none" stroke="gray" d="M991.12,-215.7C984.61,-204.85 976.25,-190.92 969.76,-180.1"/>
</g>
<!-- Freer_monad -->
<g id="node22" class="node">
<title>Freer_monad</title>
<polygon fill="black" stroke="transparent" points="711.5,-180 605.5,-180 605.5,-144 711.5,-144 711.5,-180"/>
<text text-anchor="middle" x="658.5" y="-158.3" font-family="Helvetica,sans-Serif" font-size="14.00" fill="white">Freer_monad</text>
</g>
<!-- Freer_monad&#45;&#45;Monad -->
<g id="edge27" class="edge">
<title>Freer_monad&#45;&#45;Monad</title>
<path fill="none" stroke="gray" d="M699.6,-143.88C728.93,-131.65 767.81,-115.45 794.77,-104.22"/>
</g>
<!-- Strong -->
<g id="node35" class="node">
<title>Strong</title>
<polygon fill="black" stroke="transparent" points="318.5,-252 256.5,-252 256.5,-216 318.5,-216 318.5,-252"/>
<text text-anchor="middle" x="287.5" y="-230.3" font-family="Helvetica,sans-Serif" font-size="14.00" fill="white">Strong</text>
</g>
<!-- Profunctor&#45;&#45;Strong -->
<g id="edge45" class="edge">
<title>Profunctor&#45;&#45;Strong</title>
<path fill="none" stroke="gray" d="M449.81,-292.07C415.95,-281.97 368.43,-267.16 327.5,-252 324.67,-250.95 321.75,-249.82 318.83,-248.65"/>
</g>
<!-- Choice -->
<g id="node36" class="node">
<title>Choice</title>
<polygon fill="black" stroke="transparent" points="400,-252 337,-252 337,-216 400,-216 400,-252"/>
<text text-anchor="middle" x="368.5" y="-230.3" font-family="Helvetica,sans-Serif" font-size="14.00" fill="white">Choice</text>
</g>
<!-- Profunctor&#45;&#45;Choice -->
<g id="edge46" class="edge">
<title>Profunctor&#45;&#45;Choice</title>
<path fill="none" stroke="gray" d="M463.68,-287.88C444.15,-277.03 418.99,-263.05 399.44,-252.19"/>
</g>
<!-- Closed -->
<g id="node37" class="node">
<title>Closed</title>
<polygon fill="black" stroke="transparent" points="592,-252 529,-252 529,-216 592,-216 592,-252"/>
<text text-anchor="middle" x="560.5" y="-230.3" font-family="Helvetica,sans-Serif" font-size="14.00" fill="white">Closed</text>
</g>
<!-- Profunctor&#45;&#45;Closed -->
<g id="edge47" class="edge">
<title>Profunctor&#45;&#45;Closed</title>
<path fill="none" stroke="gray" d="M510.81,-287.7C521.04,-276.85 534.18,-262.92 544.37,-252.1"/>
</g>
<!-- Semigroupoid&#45;&#45;Category -->
<g id="edge43" class="edge">
<title>Semigroupoid&#45;&#45;Category</title>
<path fill="none" stroke="gray" d="M56.5,-287.7C56.5,-276.85 56.5,-262.92 56.5,-252.1"/>
</g>
<!-- Arrow -->
<g id="node34" class="node">
<title>Arrow</title>
<polygon fill="black" stroke="transparent" points="255.5,-180 199.5,-180 199.5,-144 255.5,-144 255.5,-180"/>
<text text-anchor="middle" x="227.5" y="-158.3" font-family="Helvetica,sans-Serif" font-size="14.00" fill="white">Arrow</text>
</g>
<!-- Category&#45;&#45;Arrow -->
<g id="edge44" class="edge">
<title>Category&#45;&#45;Arrow</title>
<path fill="none" stroke="gray" d="M96.59,-216.59C128.18,-203.66 171.42,-185.96 199.41,-174.5"/>
</g>
<!-- Arrow_zero -->
<g id="node38" class="node">
<title>Arrow_zero</title>
<polygon fill="black" stroke="transparent" points="117.5,-108 25.5,-108 25.5,-72 117.5,-72 117.5,-108"/>
<text text-anchor="middle" x="71.5" y="-86.3" font-family="Helvetica,sans-Serif" font-size="14.00" fill="white">Arrow_zero</text>
</g>
<!-- Arrow&#45;&#45;Arrow_zero -->
<g id="edge49" class="edge">
<title>Arrow&#45;&#45;Arrow_zero</title>
<path fill="none" stroke="gray" d="M199.25,-148.32C174.14,-137.06 137.22,-120.49 109.52,-108.06"/>
</g>
<!-- Arrow&#45;&#45;Arrow_alt -->
<g id="edge50" class="edge">
<title>Arrow&#45;&#45;Arrow_alt</title>
<path fill="none" stroke="gray" d="M255.52,-153.2C291.19,-143.17 354.65,-125.03 408.5,-108 411.73,-106.98 415.08,-105.89 418.43,-104.79"/>
</g>
<!-- Arrow&#45;&#45;Arrow_plus -->
<g id="edge51" class="edge">
<title>Arrow&#45;&#45;Arrow_plus</title>
<path fill="none" stroke="gray" d="M199.36,-159.33C130.97,-154.26 -34.72,-135.27 16.5,-72 41.53,-41.08 154.46,-27.44 219.31,-22.07"/>
</g>
<!-- Arrow_choice -->
<g id="node41" class="node">
<title>Arrow_choice</title>
<polygon fill="black" stroke="transparent" points="281,-108 174,-108 174,-72 281,-72 281,-108"/>
<text text-anchor="middle" x="227.5" y="-86.3" font-family="Helvetica,sans-Serif" font-size="14.00" fill="white">Arrow_choice</text>
</g>
<!-- Arrow&#45;&#45;Arrow_choice -->
<g id="edge52" class="edge">
<title>Arrow&#45;&#45;Arrow_choice</title>
<path fill="none" stroke="gray" d="M227.5,-143.7C227.5,-132.85 227.5,-118.92 227.5,-108.1"/>
</g>
<!-- Arrow_apply -->
<g id="node42" class="node">
<title>Arrow_apply</title>
<polygon fill="black" stroke="transparent" points="400,-108 299,-108 299,-72 400,-72 400,-108"/>
<text text-anchor="middle" x="349.5" y="-86.3" font-family="Helvetica,sans-Serif" font-size="14.00" fill="white">Arrow_apply</text>
</g>
<!-- Arrow&#45;&#45;Arrow_apply -->
<g id="edge53" class="edge">
<title>Arrow&#45;&#45;Arrow_apply</title>
<path fill="none" stroke="gray" d="M255.8,-144.76C274.94,-133.78 300.19,-119.29 319.66,-108.12"/>
</g>
<!-- Strong&#45;&#45;Arrow -->
<g id="edge48" class="edge">
<title>Strong&#45;&#45;Arrow</title>
<path fill="none" stroke="gray" d="M272.67,-215.7C263.37,-204.85 251.43,-190.92 242.16,-180.1"/>
</g>
<!-- Arrow_zero&#45;&#45;Arrow_plus -->
<g id="edge54" class="edge">
<title>Arrow_zero&#45;&#45;Arrow_plus</title>
<path fill="none" stroke="gray" stroke-dasharray="1,5" d="M117.97,-72.23C148.68,-61.15 188.77,-46.68 219.41,-35.63"/>
</g>
<!-- Arrow_alt&#45;&#45;Arrow_plus -->
<g id="edge55" class="edge">
<title>Arrow_alt&#45;&#45;Arrow_plus</title>
<path fill="none" stroke="gray" stroke-dasharray="1,5" d="M418.04,-74.33C386.98,-63.06 344.07,-47.5 311.67,-35.74"/>
</g>
<!-- Meet_semilattice -->
<g id="node43" class="node">
<title>Meet_semilattice</title>
<polygon fill="black" stroke="transparent" points="843.5,-468 711.5,-468 711.5,-432 843.5,-432 843.5,-468"/>
<text text-anchor="middle" x="777.5" y="-446.3" font-family="Helvetica,sans-Serif" font-size="14.00" fill="white">Meet_semilattice</text>
</g>
<!-- Meet_semilattice&#45;&#45;Semigroup -->
<g id="edge58" class="edge">
<title>Meet_semilattice&#45;&#45;Semigroup</title>
<path fill="none" stroke="gray" stroke-dasharray="1,5" d="M843.67,-449.16C1012.15,-447.53 1434.75,-429.64 1299.5,-288 1239.58,-225.25 604.96,-266.93 519.5,-252 516.55,-251.48 513.53,-250.86 510.51,-250.15"/>
</g>
</g>
</svg>
