<?xml version="1.0" encoding="UTF-8" standalone="no"?>
<!DOCTYPE svg PUBLIC "-//W3C//DTD SVG 1.1//EN"
 "http://www.w3.org/Graphics/SVG/1.1/DTD/svg11.dtd">
<!-- Generated by graphviz version 2.43.0 (0)
 -->
<!-- Title: %3 Pages: 1 -->
<svg width="2838pt" height="476pt"
 viewBox="0.00 0.00 2837.50 476.00" xmlns="http://www.w3.org/2000/svg" xmlns:xlink="http://www.w3.org/1999/xlink">
<g id="graph0" class="graph" transform="scale(1 1) rotate(0) translate(4 472)">
<title>%3</title>
<polygon fill="white" stroke="transparent" points="-4,4 -4,-472 2833.5,-472 2833.5,4 -4,4"/>
<!-- Invariant -->
<g id="node1" class="node">
<title>Invariant</title>
<polygon fill="black" stroke="transparent" points="638,-468 559,-468 559,-432 638,-432 638,-468"/>
<text text-anchor="middle" x="598.5" y="-446.3" font-family="Helvetica,sans-Serif" font-size="14.00" fill="white">Invariant</text>
</g>
<!-- Functor -->
<g id="node2" class="node">
<title>Functor</title>
<polygon fill="black" stroke="transparent" points="895,-396 826,-396 826,-360 895,-360 895,-396"/>
<text text-anchor="middle" x="860.5" y="-374.3" font-family="Helvetica,sans-Serif" font-size="14.00" fill="white">Functor</text>
</g>
<!-- Invariant&#45;&#45;Functor -->
<g id="edge1" class="edge">
<title>Invariant&#45;&#45;Functor</title>
<path fill="none" stroke="gray" d="M638.01,-438.44C689.04,-424.81 777.08,-401.29 825.7,-388.3"/>
</g>
<!-- Contravariant -->
<g id="node3" class="node">
<title>Contravariant</title>
<polygon fill="black" stroke="transparent" points="372.5,-396 260.5,-396 260.5,-360 372.5,-360 372.5,-396"/>
<text text-anchor="middle" x="316.5" y="-374.3" font-family="Helvetica,sans-Serif" font-size="14.00" fill="white">Contravariant</text>
</g>
<!-- Invariant&#45;&#45;Contravariant -->
<g id="edge2" class="edge">
<title>Invariant&#45;&#45;Contravariant</title>
<path fill="none" stroke="gray" d="M558.99,-439.19C510.41,-427.13 427.63,-406.59 372.5,-392.9"/>
</g>
<!-- Applicative -->
<g id="node6" class="node">
<title>Applicative</title>
<polygon fill="black" stroke="transparent" points="1068,-252 975,-252 975,-216 1068,-216 1068,-252"/>
<text text-anchor="middle" x="1021.5" y="-230.3" font-family="Helvetica,sans-Serif" font-size="14.00" fill="white">Applicative</text>
</g>
<!-- Functor&#45;&#45;Applicative -->
<g id="edge3" class="edge">
<title>Functor&#45;&#45;Applicative</title>
<path fill="none" stroke="gray" d="M868.14,-359.67C877.46,-340.18 894.79,-308.58 917.5,-288 934.24,-272.83 956.13,-260.82 975.5,-252.09"/>
</g>
<!-- Apply -->
<g id="node9" class="node">
<title>Apply</title>
<polygon fill="black" stroke="transparent" points="1228.5,-324 1172.5,-324 1172.5,-288 1228.5,-288 1228.5,-324"/>
<text text-anchor="middle" x="1200.5" y="-302.3" font-family="Helvetica,sans-Serif" font-size="14.00" fill="white">Apply</text>
</g>
<!-- Functor&#45;&#45;Apply -->
<g id="edge6" class="edge">
<title>Functor&#45;&#45;Apply</title>
<path fill="none" stroke="gray" stroke-dasharray="1,5" d="M895.29,-369.84C962.82,-355.93 1110.45,-325.54 1172.33,-312.8"/>
</g>
<!-- Bind -->
<g id="node10" class="node">
<title>Bind</title>
<polygon fill="black" stroke="transparent" points="1268.5,-180 1214.5,-180 1214.5,-144 1268.5,-144 1268.5,-180"/>
<text text-anchor="middle" x="1241.5" y="-158.3" font-family="Helvetica,sans-Serif" font-size="14.00" fill="white">Bind</text>
</g>
<!-- Functor&#45;&#45;Bind -->
<g id="edge9" class="edge">
<title>Functor&#45;&#45;Bind</title>
<path fill="none" stroke="gray" stroke-dasharray="1,5" d="M862.32,-359.64C863.39,-339.21 861.61,-305.8 841.5,-288 773.84,-228.11 497.5,-318.66 436.5,-252 425.7,-240.2 425.45,-227.58 436.5,-216 495.55,-154.12 1122.5,-200.66 1205.5,-180 1208.45,-179.27 1211.45,-178.28 1214.4,-177.15"/>
</g>
<!-- Alt -->
<g id="node13" class="node">
<title>Alt</title>
<polygon fill="black" stroke="transparent" points="980.5,-324 926.5,-324 926.5,-288 980.5,-288 980.5,-324"/>
<text text-anchor="middle" x="953.5" y="-302.3" font-family="Helvetica,sans-Serif" font-size="14.00" fill="white">Alt</text>
</g>
<!-- Functor&#45;&#45;Alt -->
<g id="edge12" class="edge">
<title>Functor&#45;&#45;Alt</title>
<path fill="none" stroke="gray" d="M883.49,-359.7C897.9,-348.85 916.41,-334.92 930.78,-324.1"/>
</g>
<!-- Comonad -->
<g id="node14" class="node">
<title>Comonad</title>
<polygon fill="black" stroke="transparent" points="687,-324 604,-324 604,-288 687,-288 687,-324"/>
<text text-anchor="middle" x="645.5" y="-302.3" font-family="Helvetica,sans-Serif" font-size="14.00" fill="white">Comonad</text>
</g>
<!-- Functor&#45;&#45;Comonad -->
<g id="edge13" class="edge">
<title>Functor&#45;&#45;Comonad</title>
<path fill="none" stroke="gray" d="M826,-366.1C792.58,-355.51 740.49,-338.87 695.5,-324 692.8,-323.11 690.02,-322.18 687.22,-321.25"/>
</g>
<!-- Indexed_functor -->
<g id="node15" class="node">
<title>Indexed_functor</title>
<polygon fill="black" stroke="transparent" points="2135,-468 2006,-468 2006,-432 2135,-432 2135,-468"/>
<text text-anchor="middle" x="2070.5" y="-446.3" font-family="Helvetica,sans-Serif" font-size="14.00" fill="white">Indexed_functor</text>
</g>
<!-- Functor&#45;&#45;Indexed_functor -->
<g id="edge14" class="edge">
<title>Functor&#45;&#45;Indexed_functor</title>
<path fill="none" stroke="gray" stroke-dasharray="1,5" d="M895.35,-380.33C1025.45,-385.4 1495.09,-404.6 1881.5,-432 1922.91,-434.94 1969.34,-439.1 2005.82,-442.57"/>
</g>
<!-- Free_selective -->
<g id="node29" class="node">
<title>Free_selective</title>
<polygon fill="black" stroke="transparent" points="1360,-324 1247,-324 1247,-288 1360,-288 1360,-324"/>
<text text-anchor="middle" x="1303.5" y="-302.3" font-family="Helvetica,sans-Serif" font-size="14.00" fill="white">Free_selective</text>
</g>
<!-- Functor&#45;&#45;Free_selective -->
<g id="edge42" class="edge">
<title>Functor&#45;&#45;Free_selective</title>
<path fill="none" stroke="gray" stroke-dasharray="1,5" d="M895.02,-373.46C961.64,-366.34 1112.38,-348.83 1237.5,-324 1240.52,-323.4 1243.6,-322.75 1246.71,-322.06"/>
</g>
<!-- Free_applicative -->
<g id="node30" class="node">
<title>Free_applicative</title>
<polygon fill="black" stroke="transparent" points="832,-324 705,-324 705,-288 832,-288 832,-324"/>
<text text-anchor="middle" x="768.5" y="-302.3" font-family="Helvetica,sans-Serif" font-size="14.00" fill="white">Free_applicative</text>
</g>
<!-- Functor&#45;&#45;Free_applicative -->
<g id="edge43" class="edge">
<title>Functor&#45;&#45;Free_applicative</title>
<path fill="none" stroke="gray" stroke-dasharray="1,5" d="M837.76,-359.7C823.5,-348.85 805.19,-334.92 790.98,-324.1"/>
</g>
<!-- Free_monad -->
<g id="node31" class="node">
<title>Free_monad</title>
<polygon fill="black" stroke="transparent" points="1522.5,-180 1422.5,-180 1422.5,-144 1522.5,-144 1522.5,-180"/>
<text text-anchor="middle" x="1472.5" y="-158.3" font-family="Helvetica,sans-Serif" font-size="14.00" fill="white">Free_monad</text>
</g>
<!-- Functor&#45;&#45;Free_monad -->
<g id="edge44" class="edge">
<title>Functor&#45;&#45;Free_monad</title>
<path fill="none" stroke="gray" stroke-dasharray="1,5" d="M895.24,-376.06C995.5,-372.94 1283.7,-360.9 1369.5,-324 1414.67,-304.57 1428.38,-294.27 1453.5,-252 1466.82,-229.59 1470.86,-199.1 1472.05,-180.25"/>
</g>
<!-- Profunctor -->
<g id="node34" class="node">
<title>Profunctor</title>
<polygon fill="black" stroke="transparent" points="361,-324 272,-324 272,-288 361,-288 361,-324"/>
<text text-anchor="middle" x="316.5" y="-302.3" font-family="Helvetica,sans-Serif" font-size="14.00" fill="white">Profunctor</text>
</g>
<!-- Functor&#45;&#45;Profunctor -->
<g id="edge53" class="edge">
<title>Functor&#45;&#45;Profunctor</title>
<path fill="none" stroke="gray" d="M825.77,-372.88C753.22,-364.23 580.32,-343.37 435.5,-324 410.88,-320.71 383.44,-316.8 361.12,-313.57"/>
</g>
<!-- Bifunctor -->
<g id="node35" class="node">
<title>Bifunctor</title>
<polygon fill="black" stroke="transparent" points="1078.5,-324 998.5,-324 998.5,-288 1078.5,-288 1078.5,-324"/>
<text text-anchor="middle" x="1038.5" y="-302.3" font-family="Helvetica,sans-Serif" font-size="14.00" fill="white">Bifunctor</text>
</g>
<!-- Functor&#45;&#45;Bifunctor -->
<g id="edge54" class="edge">
<title>Functor&#45;&#45;Bifunctor</title>
<path fill="none" stroke="gray" d="M895.24,-363.34C924.79,-351.72 967.23,-335.03 998.24,-322.83"/>
</g>
<!-- Divisible -->
<g id="node4" class="node">
<title>Divisible</title>
<polygon fill="black" stroke="transparent" points="100,-324 25,-324 25,-288 100,-288 100,-324"/>
<text text-anchor="middle" x="62.5" y="-302.3" font-family="Helvetica,sans-Serif" font-size="14.00" fill="white">Divisible</text>
</g>
<!-- Contravariant&#45;&#45;Divisible -->
<g id="edge50" class="edge">
<title>Contravariant&#45;&#45;Divisible</title>
<path fill="none" stroke="gray" d="M260.44,-361.55C211.79,-348.14 142.7,-329.1 100.33,-317.42"/>
</g>
<!-- Contravariant&#45;&#45;Profunctor -->
<g id="edge52" class="edge">
<title>Contravariant&#45;&#45;Profunctor</title>
<path fill="none" stroke="gray" d="M316.5,-359.7C316.5,-348.85 316.5,-334.92 316.5,-324.1"/>
</g>
<!-- Decidable -->
<g id="node5" class="node">
<title>Decidable</title>
<polygon fill="black" stroke="transparent" points="85,-252 0,-252 0,-216 85,-216 85,-252"/>
<text text-anchor="middle" x="42.5" y="-230.3" font-family="Helvetica,sans-Serif" font-size="14.00" fill="white">Decidable</text>
</g>
<!-- Divisible&#45;&#45;Decidable -->
<g id="edge51" class="edge">
<title>Divisible&#45;&#45;Decidable</title>
<path fill="none" stroke="gray" d="M57.56,-287.7C54.46,-276.85 50.48,-262.92 47.39,-252.1"/>
</g>
<!-- Selective -->
<g id="node7" class="node">
<title>Selective</title>
<polygon fill="black" stroke="transparent" points="1404,-180 1325,-180 1325,-144 1404,-144 1404,-180"/>
<text text-anchor="middle" x="1364.5" y="-158.3" font-family="Helvetica,sans-Serif" font-size="14.00" fill="white">Selective</text>
</g>
<!-- Applicative&#45;&#45;Selective -->
<g id="edge4" class="edge">
<title>Applicative&#45;&#45;Selective</title>
<path fill="none" stroke="gray" d="M1068.18,-226.26C1125.63,-217.55 1225.96,-200.97 1310.5,-180 1315.17,-178.84 1320.04,-177.5 1324.85,-176.1"/>
</g>
<!-- Alternative -->
<g id="node11" class="node">
<title>Alternative</title>
<polygon fill="black" stroke="transparent" points="1072.5,-180 980.5,-180 980.5,-144 1072.5,-144 1072.5,-180"/>
<text text-anchor="middle" x="1026.5" y="-158.3" font-family="Helvetica,sans-Serif" font-size="14.00" fill="white">Alternative</text>
</g>
<!-- Applicative&#45;&#45;Alternative -->
<g id="edge10" class="edge">
<title>Applicative&#45;&#45;Alternative</title>
<path fill="none" stroke="gray" d="M1022.74,-215.7C1023.51,-204.85 1024.51,-190.92 1025.28,-180.1"/>
</g>
<!-- Indexed_applicative -->
<g id="node18" class="node">
<title>Indexed_applicative</title>
<polygon fill="black" stroke="transparent" points="1890.5,-396 1736.5,-396 1736.5,-360 1890.5,-360 1890.5,-396"/>
<text text-anchor="middle" x="1813.5" y="-374.3" font-family="Helvetica,sans-Serif" font-size="14.00" fill="white">Indexed_applicative</text>
</g>
<!-- Applicative&#45;&#45;Indexed_applicative -->
<g id="edge17" class="edge">
<title>Applicative&#45;&#45;Indexed_applicative</title>
<path fill="none" stroke="gray" stroke-dasharray="1,5" d="M974.77,-249.14C969.99,-250.25 965.17,-251.24 960.5,-252 806.6,-277.1 154.14,-211.87 262.5,-324 288.38,-350.78 1426.75,-370.84 1736.43,-375.81"/>
</g>
<!-- Traversable -->
<g id="node42" class="node">
<title>Traversable</title>
<polygon fill="black" stroke="transparent" points="1004,-36 907,-36 907,0 1004,0 1004,-36"/>
<text text-anchor="middle" x="955.5" y="-14.3" font-family="Helvetica,sans-Serif" font-size="14.00" fill="white">Traversable</text>
</g>
<!-- Applicative&#45;&#45;Traversable -->
<g id="edge61" class="edge">
<title>Applicative&#45;&#45;Traversable</title>
<path fill="none" stroke="gray" d="M999.75,-215.95C989.37,-206.53 977.85,-193.93 971.5,-180 949.48,-131.69 951.25,-66.96 953.69,-36.38"/>
</g>
<!-- Monad -->
<g id="node8" class="node">
<title>Monad</title>
<polygon fill="black" stroke="transparent" points="1222,-108 1159,-108 1159,-72 1222,-72 1222,-108"/>
<text text-anchor="middle" x="1190.5" y="-86.3" font-family="Helvetica,sans-Serif" font-size="14.00" fill="white">Monad</text>
</g>
<!-- Selective&#45;&#45;Monad -->
<g id="edge5" class="edge">
<title>Selective&#45;&#45;Monad</title>
<path fill="none" stroke="gray" d="M1324.58,-144.94C1293.48,-132.43 1250.89,-115.29 1222.12,-103.72"/>
</g>
<!-- Indexed_selective -->
<g id="node20" class="node">
<title>Indexed_selective</title>
<polygon fill="black" stroke="transparent" points="1801.5,-324 1661.5,-324 1661.5,-288 1801.5,-288 1801.5,-324"/>
<text text-anchor="middle" x="1731.5" y="-302.3" font-family="Helvetica,sans-Serif" font-size="14.00" fill="white">Indexed_selective</text>
</g>
<!-- Selective&#45;&#45;Indexed_selective -->
<g id="edge19" class="edge">
<title>Selective&#45;&#45;Indexed_selective</title>
<path fill="none" stroke="gray" stroke-dasharray="1,5" d="M1324.86,-172.15C1310.08,-175.19 1293.1,-178.24 1277.5,-180 1214.26,-187.13 176.79,-170.3 132.5,-216 121.37,-227.49 121.32,-240.55 132.5,-252 162.01,-282.22 1610.56,-283.04 1652.5,-288 1655.43,-288.35 1658.4,-288.75 1661.4,-289.2"/>
</g>
<!-- Monad_plus -->
<g id="node12" class="node">
<title>Monad_plus</title>
<polygon fill="black" stroke="transparent" points="1287,-36 1188,-36 1188,0 1287,0 1287,-36"/>
<text text-anchor="middle" x="1237.5" y="-14.3" font-family="Helvetica,sans-Serif" font-size="14.00" fill="white">Monad_plus</text>
</g>
<!-- Monad&#45;&#45;Monad_plus -->
<g id="edge11" class="edge">
<title>Monad&#45;&#45;Monad_plus</title>
<path fill="none" stroke="gray" d="M1202.12,-71.7C1209.4,-60.85 1218.76,-46.92 1226.02,-36.1"/>
</g>
<!-- Indexed_monad -->
<g id="node22" class="node">
<title>Indexed_monad</title>
<polygon fill="black" stroke="transparent" points="1740,-252 1613,-252 1613,-216 1740,-216 1740,-252"/>
<text text-anchor="middle" x="1676.5" y="-230.3" font-family="Helvetica,sans-Serif" font-size="14.00" fill="white">Indexed_monad</text>
</g>
<!-- Monad&#45;&#45;Indexed_monad -->
<g id="edge21" class="edge">
<title>Monad&#45;&#45;Indexed_monad</title>
<path fill="none" stroke="gray" stroke-dasharray="1,5" d="M1158.94,-90.88C1081.72,-91.32 886.68,-97.16 846.5,-144 836.08,-156.14 835.53,-168.36 846.5,-180 892.84,-229.17 1386.09,-211.43 1453.5,-216 1507.15,-219.64 1568.02,-224.31 1612.6,-227.84"/>
</g>
<!-- State -->
<g id="node36" class="node">
<title>State</title>
<polygon fill="black" stroke="transparent" points="1359.5,-36 1305.5,-36 1305.5,0 1359.5,0 1359.5,-36"/>
<text text-anchor="middle" x="1332.5" y="-14.3" font-family="Helvetica,sans-Serif" font-size="14.00" fill="white">State</text>
</g>
<!-- Monad&#45;&#45;State -->
<g id="edge55" class="edge">
<title>Monad&#45;&#45;State</title>
<path fill="none" stroke="gray" d="M1222.01,-73.46C1247.02,-61.14 1281.6,-44.09 1305.38,-32.37"/>
</g>
<!-- Reader -->
<g id="node37" class="node">
<title>Reader</title>
<polygon fill="black" stroke="transparent" points="1093,-36 1028,-36 1028,0 1093,0 1093,-36"/>
<text text-anchor="middle" x="1060.5" y="-14.3" font-family="Helvetica,sans-Serif" font-size="14.00" fill="white">Reader</text>
</g>
<!-- Monad&#45;&#45;Reader -->
<g id="edge56" class="edge">
<title>Monad&#45;&#45;Reader</title>
<path fill="none" stroke="gray" d="M1158.7,-71.88C1138.55,-61.03 1112.59,-47.05 1092.42,-36.19"/>
</g>
<!-- Writer -->
<g id="node38" class="node">
<title>Writer</title>
<polygon fill="black" stroke="transparent" points="1170,-36 1111,-36 1111,0 1170,0 1170,-36"/>
<text text-anchor="middle" x="1140.5" y="-14.3" font-family="Helvetica,sans-Serif" font-size="14.00" fill="white">Writer</text>
</g>
<!-- Monad&#45;&#45;Writer -->
<g id="edge57" class="edge">
<title>Monad&#45;&#45;Writer</title>
<path fill="none" stroke="gray" d="M1178.14,-71.7C1170.39,-60.85 1160.44,-46.92 1152.72,-36.1"/>
</g>
<!-- Monad&#45;&#45;Traversable -->
<g id="edge62" class="edge">
<title>Monad&#45;&#45;Traversable</title>
<path fill="none" stroke="gray" d="M1158.81,-79.56C1119.09,-67.73 1050.62,-47.33 1004.23,-33.51"/>
</g>
<!-- Apply&#45;&#45;Applicative -->
<g id="edge7" class="edge">
<title>Apply&#45;&#45;Applicative</title>
<path fill="none" stroke="gray" d="M1172.06,-293.42C1167.53,-291.59 1162.89,-289.74 1158.5,-288 1127.67,-275.8 1092.83,-262.32 1065.99,-252.01"/>
</g>
<!-- Indexed_apply -->
<g id="node17" class="node">
<title>Indexed_apply</title>
<polygon fill="black" stroke="transparent" points="1872,-468 1755,-468 1755,-432 1872,-432 1872,-468"/>
<text text-anchor="middle" x="1813.5" y="-446.3" font-family="Helvetica,sans-Serif" font-size="14.00" fill="white">Indexed_apply</text>
</g>
<!-- Apply&#45;&#45;Indexed_apply -->
<g id="edge16" class="edge">
<title>Apply&#45;&#45;Indexed_apply</title>
<path fill="none" stroke="gray" stroke-dasharray="1,5" d="M1228.88,-320.46C1232.09,-321.75 1235.34,-322.96 1238.5,-324 1422.66,-384.49 1649.72,-423.98 1754.91,-440.37"/>
</g>
<!-- Bind&#45;&#45;Monad -->
<g id="edge8" class="edge">
<title>Bind&#45;&#45;Monad</title>
<path fill="none" stroke="gray" d="M1228.89,-143.7C1220.99,-132.85 1210.84,-118.92 1202.96,-108.1"/>
</g>
<!-- Indexed_bind -->
<g id="node21" class="node">
<title>Indexed_bind</title>
<polygon fill="black" stroke="transparent" points="1643.5,-324 1533.5,-324 1533.5,-288 1643.5,-288 1643.5,-324"/>
<text text-anchor="middle" x="1588.5" y="-302.3" font-family="Helvetica,sans-Serif" font-size="14.00" fill="white">Indexed_bind</text>
</g>
<!-- Bind&#45;&#45;Indexed_bind -->
<g id="edge20" class="edge">
<title>Bind&#45;&#45;Indexed_bind</title>
<path fill="none" stroke="gray" stroke-dasharray="1,5" d="M1214.4,-177.15C1211.45,-178.28 1208.45,-179.26 1205.5,-180 1042.4,-220.69 335.99,-130.83 452.5,-252 487.84,-288.75 1318.6,-285.03 1369.5,-288 1425.27,-291.26 1488.93,-296.35 1533.19,-300.12"/>
</g>
<!-- Indexed_alternative -->
<g id="node19" class="node">
<title>Indexed_alternative</title>
<polygon fill="black" stroke="transparent" points="1971.5,-324 1819.5,-324 1819.5,-288 1971.5,-288 1971.5,-324"/>
<text text-anchor="middle" x="1895.5" y="-302.3" font-family="Helvetica,sans-Serif" font-size="14.00" fill="white">Indexed_alternative</text>
</g>
<!-- Alternative&#45;&#45;Indexed_alternative -->
<g id="edge18" class="edge">
<title>Alternative&#45;&#45;Indexed_alternative</title>
<path fill="none" stroke="gray" stroke-dasharray="1,5" d="M980.48,-171.3C910.54,-184.13 784.88,-208.12 778.5,-216 768.44,-228.44 767.39,-240.49 778.5,-252 818.35,-293.27 1753.52,-281.35 1810.5,-288 1813.34,-288.33 1816.23,-288.71 1819.14,-289.12"/>
</g>
<!-- Indexed_monad_plus -->
<g id="node23" class="node">
<title>Indexed_monad_plus</title>
<polygon fill="black" stroke="transparent" points="1758,-180 1595,-180 1595,-144 1758,-144 1758,-180"/>
<text text-anchor="middle" x="1676.5" y="-158.3" font-family="Helvetica,sans-Serif" font-size="14.00" fill="white">Indexed_monad_plus</text>
</g>
<!-- Monad_plus&#45;&#45;Indexed_monad_plus -->
<g id="edge22" class="edge">
<title>Monad_plus&#45;&#45;Indexed_monad_plus</title>
<path fill="none" stroke="gray" stroke-dasharray="1,5" d="M1187.69,-34.41C1184.93,-35.01 1182.19,-35.55 1179.5,-36 1016.14,-63.5 322.3,11.05 437.5,-108 479.79,-151.7 1470.86,-139.46 1531.5,-144 1552.1,-145.54 1574.28,-147.83 1594.94,-150.22"/>
</g>
<!-- Indexed_alt -->
<g id="node16" class="node">
<title>Indexed_alt</title>
<polygon fill="black" stroke="transparent" points="2118.5,-396 2022.5,-396 2022.5,-360 2118.5,-360 2118.5,-396"/>
<text text-anchor="middle" x="2070.5" y="-374.3" font-family="Helvetica,sans-Serif" font-size="14.00" fill="white">Indexed_alt</text>
</g>
<!-- Alt&#45;&#45;Indexed_alt -->
<g id="edge15" class="edge">
<title>Alt&#45;&#45;Indexed_alt</title>
<path fill="none" stroke="gray" stroke-dasharray="1,5" d="M980.6,-321.18C983.54,-322.3 986.55,-323.28 989.5,-324 1186.06,-372.18 1697.61,-345.98 1899.5,-360 1941.02,-362.88 1988.06,-367.67 2022.29,-371.43"/>
</g>
<!-- Indexed_comonad -->
<g id="node24" class="node">
<title>Indexed_comonad</title>
<polygon fill="black" stroke="transparent" points="2280,-396 2137,-396 2137,-360 2280,-360 2280,-396"/>
<text text-anchor="middle" x="2208.5" y="-374.3" font-family="Helvetica,sans-Serif" font-size="14.00" fill="white">Indexed_comonad</text>
</g>
<!-- Comonad&#45;&#45;Indexed_comonad -->
<g id="edge23" class="edge">
<title>Comonad&#45;&#45;Indexed_comonad</title>
<path fill="none" stroke="gray" stroke-dasharray="1,5" d="M687.27,-322.23C690.03,-322.91 692.79,-323.52 695.5,-324 1008.88,-379.87 1811.32,-323.16 2127.5,-360 2130.5,-360.35 2133.55,-360.76 2136.62,-361.21"/>
</g>
<!-- Store -->
<g id="node39" class="node">
<title>Store</title>
<polygon fill="black" stroke="transparent" points="841.5,-252 787.5,-252 787.5,-216 841.5,-216 841.5,-252"/>
<text text-anchor="middle" x="814.5" y="-230.3" font-family="Helvetica,sans-Serif" font-size="14.00" fill="white">Store</text>
</g>
<!-- Comonad&#45;&#45;Store -->
<g id="edge58" class="edge">
<title>Comonad&#45;&#45;Store</title>
<path fill="none" stroke="gray" d="M686.84,-287.88C718.11,-274.92 760.16,-257.51 787.3,-246.27"/>
</g>
<!-- Env -->
<g id="node40" class="node">
<title>Env</title>
<polygon fill="black" stroke="transparent" points="613.5,-252 559.5,-252 559.5,-216 613.5,-216 613.5,-252"/>
<text text-anchor="middle" x="586.5" y="-230.3" font-family="Helvetica,sans-Serif" font-size="14.00" fill="white">Env</text>
</g>
<!-- Comonad&#45;&#45;Env -->
<g id="edge59" class="edge">
<title>Comonad&#45;&#45;Env</title>
<path fill="none" stroke="gray" d="M630.92,-287.7C621.77,-276.85 610.03,-262.92 600.92,-252.1"/>
</g>
<!-- Traced -->
<g id="node41" class="node">
<title>Traced</title>
<polygon fill="black" stroke="transparent" points="693.5,-252 631.5,-252 631.5,-216 693.5,-216 693.5,-252"/>
<text text-anchor="middle" x="662.5" y="-230.3" font-family="Helvetica,sans-Serif" font-size="14.00" fill="white">Traced</text>
</g>
<!-- Comonad&#45;&#45;Traced -->
<g id="edge60" class="edge">
<title>Comonad&#45;&#45;Traced</title>
<path fill="none" stroke="gray" d="M649.7,-287.7C652.34,-276.85 655.72,-262.92 658.35,-252.1"/>
</g>
<!-- Indexed_functor&#45;&#45;Indexed_alt -->
<g id="edge34" class="edge">
<title>Indexed_functor&#45;&#45;Indexed_alt</title>
<path fill="none" stroke="gray" d="M2070.5,-431.7C2070.5,-420.85 2070.5,-406.92 2070.5,-396.1"/>
</g>
<!-- Indexed_functor&#45;&#45;Indexed_apply -->
<g id="edge28" class="edge">
<title>Indexed_functor&#45;&#45;Indexed_apply</title>
<path fill="none" stroke="gray" stroke-dasharray="1,5" d="M2005.83,-450C1961.3,-450 1916.76,-450 1872.23,-450"/>
</g>
<!-- Indexed_functor&#45;&#45;Indexed_applicative -->
<g id="edge25" class="edge">
<title>Indexed_functor&#45;&#45;Indexed_applicative</title>
<path fill="none" stroke="gray" d="M2007.96,-431.97C1967.99,-421.08 1916.34,-407.01 1876.32,-396.11"/>
</g>
<!-- Indexed_functor&#45;&#45;Indexed_bind -->
<g id="edge31" class="edge">
<title>Indexed_functor&#45;&#45;Indexed_bind</title>
<path fill="none" stroke="gray" stroke-dasharray="1,5" d="M2005.84,-442.24C1921.03,-432.82 1777.17,-414.78 1727.5,-396 1681.67,-378.67 1635.04,-344.78 1609.14,-324.19"/>
</g>
<!-- Indexed_functor&#45;&#45;Indexed_comonad -->
<g id="edge35" class="edge">
<title>Indexed_functor&#45;&#45;Indexed_comonad</title>
<path fill="none" stroke="gray" d="M2104.26,-431.88C2125.64,-421.03 2153.2,-407.05 2174.61,-396.19"/>
</g>
<!-- Indexed_apply&#45;&#45;Indexed_applicative -->
<g id="edge29" class="edge">
<title>Indexed_apply&#45;&#45;Indexed_applicative</title>
<path fill="none" stroke="gray" d="M1813.5,-431.7C1813.5,-420.85 1813.5,-406.92 1813.5,-396.1"/>
</g>
<!-- Indexed_applicative&#45;&#45;Indexed_alternative -->
<g id="edge32" class="edge">
<title>Indexed_applicative&#45;&#45;Indexed_alternative</title>
<path fill="none" stroke="gray" d="M1833.77,-359.7C1846.48,-348.85 1862.8,-334.92 1875.46,-324.1"/>
</g>
<!-- Indexed_applicative&#45;&#45;Indexed_selective -->
<g id="edge26" class="edge">
<title>Indexed_applicative&#45;&#45;Indexed_selective</title>
<path fill="none" stroke="gray" d="M1793.23,-359.7C1780.52,-348.85 1764.2,-334.92 1751.54,-324.1"/>
</g>
<!-- Indexed_selective&#45;&#45;Indexed_monad -->
<g id="edge27" class="edge">
<title>Indexed_selective&#45;&#45;Indexed_monad</title>
<path fill="none" stroke="gray" d="M1717.9,-287.7C1709.38,-276.85 1698.43,-262.92 1689.94,-252.1"/>
</g>
<!-- Indexed_bind&#45;&#45;Indexed_monad -->
<g id="edge30" class="edge">
<title>Indexed_bind&#45;&#45;Indexed_monad</title>
<path fill="none" stroke="gray" d="M1610.25,-287.7C1623.89,-276.85 1641.4,-262.92 1655,-252.1"/>
</g>
<!-- Indexed_monad&#45;&#45;Indexed_monad_plus -->
<g id="edge33" class="edge">
<title>Indexed_monad&#45;&#45;Indexed_monad_plus</title>
<path fill="none" stroke="gray" d="M1676.5,-215.7C1676.5,-204.85 1676.5,-190.92 1676.5,-180.1"/>
</g>
<!-- Foldable -->
<g id="node25" class="node">
<title>Foldable</title>
<polygon fill="black" stroke="transparent" points="924.5,-108 850.5,-108 850.5,-72 924.5,-72 924.5,-108"/>
<text text-anchor="middle" x="887.5" y="-86.3" font-family="Helvetica,sans-Serif" font-size="14.00" fill="white">Foldable</text>
</g>
<!-- Indexed_foldable -->
<g id="node26" class="node">
<title>Indexed_foldable</title>
<polygon fill="black" stroke="transparent" points="2829.5,-468 2695.5,-468 2695.5,-432 2829.5,-432 2829.5,-468"/>
<text text-anchor="middle" x="2762.5" y="-446.3" font-family="Helvetica,sans-Serif" font-size="14.00" fill="white">Indexed_foldable</text>
</g>
<!-- Foldable&#45;&#45;Indexed_foldable -->
<g id="edge24" class="edge">
<title>Foldable&#45;&#45;Indexed_foldable</title>
<path fill="none" stroke="gray" stroke-dasharray="1,5" d="M924.68,-93.31C1017.66,-99.46 1254.44,-117.59 1277.5,-144 1288.02,-156.05 1288.4,-168.29 1277.5,-180 1201.77,-261.39 854.23,-134.61 778.5,-216 767.6,-227.71 767.54,-240.35 778.5,-252 823.58,-299.91 1304.4,-278.52 1369.5,-288 1439.49,-298.19 1454.7,-312.6 1524.5,-324 1689.74,-351 1735.43,-326.61 1899.5,-360 1951.57,-370.6 1961.22,-386.51 2013.5,-396 2308.22,-449.53 2389.76,-391.17 2686.5,-432 2689.45,-432.41 2692.45,-432.87 2695.47,-433.37"/>
</g>
<!-- Semigroup -->
<g id="node27" class="node">
<title>Semigroup</title>
<polygon fill="black" stroke="transparent" points="951.5,-252 859.5,-252 859.5,-216 951.5,-216 951.5,-252"/>
<text text-anchor="middle" x="905.5" y="-230.3" font-family="Helvetica,sans-Serif" font-size="14.00" fill="white">Semigroup</text>
</g>
<!-- Semigroup&#45;&#45;Alt -->
<g id="edge39" class="edge">
<title>Semigroup&#45;&#45;Alt</title>
<path fill="none" stroke="gray" stroke-dasharray="1,5" d="M917.23,-252.1C924.64,-262.92 934.19,-276.85 941.63,-287.7"/>
</g>
<!-- Monoid -->
<g id="node28" class="node">
<title>Monoid</title>
<polygon fill="black" stroke="transparent" points="922,-180 855,-180 855,-144 922,-144 922,-180"/>
<text text-anchor="middle" x="888.5" y="-158.3" font-family="Helvetica,sans-Serif" font-size="14.00" fill="white">Monoid</text>
</g>
<!-- Semigroup&#45;&#45;Monoid -->
<g id="edge36" class="edge">
<title>Semigroup&#45;&#45;Monoid</title>
<path fill="none" stroke="gray" d="M901.3,-215.7C898.66,-204.85 895.28,-190.92 892.65,-180.1"/>
</g>
<!-- Semigroupoid -->
<g id="node43" class="node">
<title>Semigroupoid</title>
<polygon fill="black" stroke="transparent" points="558,-324 445,-324 445,-288 558,-288 558,-324"/>
<text text-anchor="middle" x="501.5" y="-302.3" font-family="Helvetica,sans-Serif" font-size="14.00" fill="white">Semigroupoid</text>
</g>
<!-- Semigroup&#45;&#45;Semigroupoid -->
<g id="edge63" class="edge">
<title>Semigroup&#45;&#45;Semigroupoid</title>
<path fill="none" stroke="gray" stroke-dasharray="1,5" d="M859.43,-249.83C856.42,-250.61 853.43,-251.35 850.5,-252 738.37,-277.05 707.93,-269.67 594.5,-288 582.83,-289.89 570.37,-292.06 558.49,-294.2"/>
</g>
<!-- Arrow_alt -->
<g id="node50" class="node">
<title>Arrow_alt</title>
<polygon fill="black" stroke="transparent" points="794.5,-108 714.5,-108 714.5,-72 794.5,-72 794.5,-108"/>
<text text-anchor="middle" x="754.5" y="-86.3" font-family="Helvetica,sans-Serif" font-size="14.00" fill="white">Arrow_alt</text>
</g>
<!-- Semigroup&#45;&#45;Arrow_alt -->
<g id="edge79" class="edge">
<title>Semigroup&#45;&#45;Arrow_alt</title>
<path fill="none" stroke="gray" stroke-dasharray="1,5" d="M886.21,-215.99C874.6,-205.68 859.59,-192.21 846.5,-180 820.17,-155.45 790.32,-126.33 771.95,-108.26"/>
</g>
<!-- Monoid&#45;&#45;Monad -->
<g id="edge40" class="edge">
<title>Monoid&#45;&#45;Monad</title>
<path fill="none" stroke="gray" stroke-dasharray="1,5" d="M922.26,-153.17C981.06,-139.55 1101.44,-111.64 1158.77,-98.35"/>
</g>
<!-- Monoid&#45;&#45;Alternative -->
<g id="edge37" class="edge">
<title>Monoid&#45;&#45;Alternative</title>
<path fill="none" stroke="gray" stroke-dasharray="1,5" d="M922.19,-162C941.61,-162 961.04,-162 980.46,-162"/>
</g>
<!-- Monoid&#45;&#45;Monad_plus -->
<g id="edge38" class="edge">
<title>Monoid&#45;&#45;Monad_plus</title>
<path fill="none" stroke="gray" stroke-dasharray="1,5" d="M854.87,-159.58C754.97,-155 465.2,-139.15 437.5,-108 426.87,-96.04 426.46,-83.58 437.5,-72 494.43,-12.24 1098.1,-49.7 1179.5,-36 1182.19,-35.55 1184.93,-35.01 1187.69,-34.41"/>
</g>
<!-- Monoid&#45;&#45;Foldable -->
<g id="edge41" class="edge">
<title>Monoid&#45;&#45;Foldable</title>
<path fill="none" stroke="gray" d="M888.25,-143.7C888.1,-132.85 887.9,-118.92 887.74,-108.1"/>
</g>
<!-- Category -->
<g id="node44" class="node">
<title>Category</title>
<polygon fill="black" stroke="transparent" points="541.5,-252 461.5,-252 461.5,-216 541.5,-216 541.5,-252"/>
<text text-anchor="middle" x="501.5" y="-230.3" font-family="Helvetica,sans-Serif" font-size="14.00" fill="white">Category</text>
</g>
<!-- Monoid&#45;&#45;Category -->
<g id="edge64" class="edge">
<title>Monoid&#45;&#45;Category</title>
<path fill="none" stroke="gray" stroke-dasharray="1,5" d="M854.52,-166.3C793.14,-172.71 659.99,-188.65 550.5,-216 547.62,-216.72 544.66,-217.54 541.7,-218.41"/>
</g>
<!-- Arrow_plus -->
<g id="node51" class="node">
<title>Arrow_plus</title>
<polygon fill="black" stroke="transparent" points="706.5,-36 614.5,-36 614.5,0 706.5,0 706.5,-36"/>
<text text-anchor="middle" x="660.5" y="-14.3" font-family="Helvetica,sans-Serif" font-size="14.00" fill="white">Arrow_plus</text>
</g>
<!-- Monoid&#45;&#45;Arrow_plus -->
<g id="edge78" class="edge">
<title>Monoid&#45;&#45;Arrow_plus</title>
<path fill="none" stroke="gray" stroke-dasharray="1,5" d="M872.97,-143.93C850.72,-119.6 811.58,-77.31 803.5,-72 773.86,-52.51 736.07,-38.9 706.78,-30.36"/>
</g>
<!-- Free_selective&#45;&#45;Selective -->
<g id="edge45" class="edge">
<title>Free_selective&#45;&#45;Selective</title>
<path fill="none" stroke="gray" d="M1303.1,-287.75C1303.32,-269.18 1305.58,-239.16 1316.5,-216 1322.96,-202.3 1334.16,-189.62 1344.12,-180.1"/>
</g>
<!-- Free_applicative&#45;&#45;Applicative -->
<g id="edge47" class="edge">
<title>Free_applicative&#45;&#45;Applicative</title>
<path fill="none" stroke="gray" d="M830.34,-287.97C867.97,-277.6 917.01,-264.06 960.5,-252 965.16,-250.71 970.02,-249.36 974.88,-248.01"/>
</g>
<!-- Free_monad&#45;&#45;Monad -->
<g id="edge48" class="edge">
<title>Free_monad&#45;&#45;Monad</title>
<path fill="none" stroke="gray" d="M1422.33,-146.37C1419.35,-145.55 1416.39,-144.76 1413.5,-144 1345.57,-126.15 1265.31,-107.72 1222.01,-98"/>
</g>
<!-- Freer_selective -->
<g id="node32" class="node">
<title>Freer_selective</title>
<polygon fill="black" stroke="transparent" points="1444,-252 1325,-252 1325,-216 1444,-216 1444,-252"/>
<text text-anchor="middle" x="1384.5" y="-230.3" font-family="Helvetica,sans-Serif" font-size="14.00" fill="white">Freer_selective</text>
</g>
<!-- Freer_selective&#45;&#45;Selective -->
<g id="edge46" class="edge">
<title>Freer_selective&#45;&#45;Selective</title>
<path fill="none" stroke="gray" d="M1379.56,-215.7C1376.46,-204.85 1372.48,-190.92 1369.39,-180.1"/>
</g>
<!-- Freer_monad -->
<g id="node33" class="node">
<title>Freer_monad</title>
<polygon fill="black" stroke="transparent" points="1196.5,-180 1090.5,-180 1090.5,-144 1196.5,-144 1196.5,-180"/>
<text text-anchor="middle" x="1143.5" y="-158.3" font-family="Helvetica,sans-Serif" font-size="14.00" fill="white">Freer_monad</text>
</g>
<!-- Freer_monad&#45;&#45;Monad -->
<g id="edge49" class="edge">
<title>Freer_monad&#45;&#45;Monad</title>
<path fill="none" stroke="gray" d="M1155.12,-143.7C1162.4,-132.85 1171.76,-118.92 1179.02,-108.1"/>
</g>
<!-- Strong -->
<g id="node46" class="node">
<title>Strong</title>
<polygon fill="black" stroke="transparent" points="285.5,-252 223.5,-252 223.5,-216 285.5,-216 285.5,-252"/>
<text text-anchor="middle" x="254.5" y="-230.3" font-family="Helvetica,sans-Serif" font-size="14.00" fill="white">Strong</text>
</g>
<!-- Profunctor&#45;&#45;Strong -->
<g id="edge67" class="edge">
<title>Profunctor&#45;&#45;Strong</title>
<path fill="none" stroke="gray" d="M301.17,-287.7C291.56,-276.85 279.23,-262.92 269.65,-252.1"/>
</g>
<!-- Choice -->
<g id="node47" class="node">
<title>Choice</title>
<polygon fill="black" stroke="transparent" points="367,-252 304,-252 304,-216 367,-216 367,-252"/>
<text text-anchor="middle" x="335.5" y="-230.3" font-family="Helvetica,sans-Serif" font-size="14.00" fill="white">Choice</text>
</g>
<!-- Profunctor&#45;&#45;Choice -->
<g id="edge68" class="edge">
<title>Profunctor&#45;&#45;Choice</title>
<path fill="none" stroke="gray" d="M321.2,-287.7C324.14,-276.85 327.92,-262.92 330.86,-252.1"/>
</g>
<!-- Closed -->
<g id="node48" class="node">
<title>Closed</title>
<polygon fill="black" stroke="transparent" points="205,-252 142,-252 142,-216 205,-216 205,-252"/>
<text text-anchor="middle" x="173.5" y="-230.3" font-family="Helvetica,sans-Serif" font-size="14.00" fill="white">Closed</text>
</g>
<!-- Profunctor&#45;&#45;Closed -->
<g id="edge69" class="edge">
<title>Profunctor&#45;&#45;Closed</title>
<path fill="none" stroke="gray" d="M281.52,-287.88C258.2,-276.46 227.8,-261.58 205.19,-250.51"/>
</g>
<!-- Semigroupoid&#45;&#45;Category -->
<g id="edge65" class="edge">
<title>Semigroupoid&#45;&#45;Category</title>
<path fill="none" stroke="gray" d="M501.5,-287.7C501.5,-276.85 501.5,-262.92 501.5,-252.1"/>
</g>
<!-- Arrow -->
<g id="node45" class="node">
<title>Arrow</title>
<polygon fill="black" stroke="transparent" points="529.5,-180 473.5,-180 473.5,-144 529.5,-144 529.5,-180"/>
<text text-anchor="middle" x="501.5" y="-158.3" font-family="Helvetica,sans-Serif" font-size="14.00" fill="white">Arrow</text>
</g>
<!-- Category&#45;&#45;Arrow -->
<g id="edge66" class="edge">
<title>Category&#45;&#45;Arrow</title>
<path fill="none" stroke="gray" d="M501.5,-215.7C501.5,-204.85 501.5,-190.92 501.5,-180.1"/>
</g>
<!-- Arrow_zero -->
<g id="node49" class="node">
<title>Arrow_zero</title>
<polygon fill="black" stroke="transparent" points="538.5,-108 446.5,-108 446.5,-72 538.5,-72 538.5,-108"/>
<text text-anchor="middle" x="492.5" y="-86.3" font-family="Helvetica,sans-Serif" font-size="14.00" fill="white">Arrow_zero</text>
</g>
<!-- Arrow&#45;&#45;Arrow_zero -->
<g id="edge71" class="edge">
<title>Arrow&#45;&#45;Arrow_zero</title>
<path fill="none" stroke="gray" d="M499.28,-143.7C497.88,-132.85 496.09,-118.92 494.7,-108.1"/>
</g>
<!-- Arrow&#45;&#45;Arrow_alt -->
<g id="edge72" class="edge">
<title>Arrow&#45;&#45;Arrow_alt</title>
<path fill="none" stroke="gray" d="M529.59,-154.35C568.93,-144.88 642.58,-126.58 704.5,-108 707.75,-107.02 711.1,-105.98 714.47,-104.9"/>
</g>
<!-- Arrow&#45;&#45;Arrow_plus -->
<g id="edge73" class="edge">
<title>Arrow&#45;&#45;Arrow_plus</title>
<path fill="none" stroke="gray" d="M515.76,-143.97C531.78,-125.31 559.02,-94.98 585.5,-72 600.55,-58.94 618.79,-46 633.51,-36.17"/>
</g>
<!-- Arrow_choice -->
<g id="node52" class="node">
<title>Arrow_choice</title>
<polygon fill="black" stroke="transparent" points="352,-108 245,-108 245,-72 352,-72 352,-108"/>
<text text-anchor="middle" x="298.5" y="-86.3" font-family="Helvetica,sans-Serif" font-size="14.00" fill="white">Arrow_choice</text>
</g>
<!-- Arrow&#45;&#45;Arrow_choice -->
<g id="edge74" class="edge">
<title>Arrow&#45;&#45;Arrow_choice</title>
<path fill="none" stroke="gray" d="M473.27,-151.27C440.92,-140.11 387.29,-121.62 347.96,-108.05"/>
</g>
<!-- Arrow_apply -->
<g id="node53" class="node">
<title>Arrow_apply</title>
<polygon fill="black" stroke="transparent" points="696,-108 595,-108 595,-72 696,-72 696,-108"/>
<text text-anchor="middle" x="645.5" y="-86.3" font-family="Helvetica,sans-Serif" font-size="14.00" fill="white">Arrow_apply</text>
</g>
<!-- Arrow&#45;&#45;Arrow_apply -->
<g id="edge75" class="edge">
<title>Arrow&#45;&#45;Arrow_apply</title>
<path fill="none" stroke="gray" d="M529.61,-147.34C552.69,-136.12 585.5,-120.17 610.32,-108.1"/>
</g>
<!-- Strong&#45;&#45;Arrow -->
<g id="edge70" class="edge">
<title>Strong&#45;&#45;Arrow</title>
<path fill="none" stroke="gray" d="M285.77,-219.18C288.7,-218.05 291.64,-216.97 294.5,-216 357.22,-194.78 433.12,-177.38 473.32,-168.8"/>
</g>
<!-- Arrow_zero&#45;&#45;Arrow_plus -->
<g id="edge76" class="edge">
<title>Arrow_zero&#45;&#45;Arrow_plus</title>
<path fill="none" stroke="gray" stroke-dasharray="1,5" d="M533.6,-71.88C559.73,-60.99 593.43,-46.95 619.54,-36.07"/>
</g>
<!-- Arrow_alt&#45;&#45;Arrow_plus -->
<g id="edge77" class="edge">
<title>Arrow_alt&#45;&#45;Arrow_plus</title>
<path fill="none" stroke="gray" stroke-dasharray="1,5" d="M731.26,-71.7C716.69,-60.85 697.99,-46.92 683.47,-36.1"/>
</g>
<!-- Meet_semilattice -->
<g id="node54" class="node">
<title>Meet_semilattice</title>
<polygon fill="black" stroke="transparent" points="2465.5,-468 2333.5,-468 2333.5,-432 2465.5,-432 2465.5,-468"/>
<text text-anchor="middle" x="2399.5" y="-446.3" font-family="Helvetica,sans-Serif" font-size="14.00" fill="white">Meet_semilattice</text>
</g>
<!-- Meet_semilattice&#45;&#45;Semigroup -->
<g id="edge80" class="edge">
<title>Meet_semilattice&#45;&#45;Semigroup</title>
<path fill="none" stroke="gray" stroke-dasharray="1,5" d="M2333.31,-443.44C2215.3,-433.21 1977.58,-411.09 1942.5,-396 1919.6,-386.15 1922.72,-369.06 1899.5,-360 1740.12,-297.83 1289.88,-386.17 1130.5,-324 1107.28,-314.94 1109.49,-299.73 1087.5,-288 1081.35,-284.72 1003.56,-262.55 951.69,-247.94"/>
</g>
<!-- Bounded_meet_semilattice -->
<g id="node55" class="node">
<title>Bounded_meet_semilattice</title>
<polygon fill="black" stroke="transparent" points="2501,-396 2298,-396 2298,-360 2501,-360 2501,-396"/>
<text text-anchor="middle" x="2399.5" y="-374.3" font-family="Helvetica,sans-Serif" font-size="14.00" fill="white">Bounded_meet_semilattice</text>
</g>
<!-- Meet_semilattice&#45;&#45;Bounded_meet_semilattice -->
<g id="edge81" class="edge">
<title>Meet_semilattice&#45;&#45;Bounded_meet_semilattice</title>
<path fill="none" stroke="gray" d="M2399.5,-431.7C2399.5,-420.85 2399.5,-406.92 2399.5,-396.1"/>
</g>
<!-- Bounded_lattice -->
<g id="node58" class="node">
<title>Bounded_lattice</title>
<polygon fill="black" stroke="transparent" points="2571.5,-324 2443.5,-324 2443.5,-288 2571.5,-288 2571.5,-324"/>
<text text-anchor="middle" x="2507.5" y="-302.3" font-family="Helvetica,sans-Serif" font-size="14.00" fill="white">Bounded_lattice</text>
</g>
<!-- Bounded_meet_semilattice&#45;&#45;Bounded_lattice -->
<g id="edge87" class="edge">
<title>Bounded_meet_semilattice&#45;&#45;Bounded_lattice</title>
<path fill="none" stroke="gray" d="M2425.92,-359.88C2442.66,-349.03 2464.22,-335.05 2480.98,-324.19"/>
</g>
<!-- Join_semilattice -->
<g id="node56" class="node">
<title>Join_semilattice</title>
<polygon fill="black" stroke="transparent" points="2677.5,-468 2553.5,-468 2553.5,-432 2677.5,-432 2677.5,-468"/>
<text text-anchor="middle" x="2615.5" y="-446.3" font-family="Helvetica,sans-Serif" font-size="14.00" fill="white">Join_semilattice</text>
</g>
<!-- Join_semilattice&#45;&#45;Semigroup -->
<g id="edge82" class="edge">
<title>Join_semilattice&#45;&#45;Semigroup</title>
<path fill="none" stroke="gray" stroke-dasharray="1,5" d="M2553.44,-440.95C2528.88,-437.91 2500.39,-434.57 2474.5,-432 2269.99,-411.7 2212.48,-447.39 2013.5,-396 1976.14,-386.35 1972.01,-369.06 1934.5,-360 1767.78,-319.71 1322.55,-388.19 1163.5,-324 1141.01,-314.92 1144.08,-299.06 1122.5,-288 1059.18,-255.54 1035.46,-269.56 966.5,-252 961.71,-250.78 956.71,-249.46 951.74,-248.12"/>
</g>
<!-- Join_semilattice&#45;&#45;Meet_semilattice -->
<g id="edge84" class="edge">
<title>Join_semilattice&#45;&#45;Meet_semilattice</title>
<path fill="none" stroke="gray" stroke-dasharray="1,5" d="M2553.49,-450C2524.24,-450 2494.99,-450 2465.73,-450"/>
</g>
<!-- Bounded_join_semilattice -->
<g id="node57" class="node">
<title>Bounded_join_semilattice</title>
<polygon fill="black" stroke="transparent" points="2711.5,-396 2519.5,-396 2519.5,-360 2711.5,-360 2711.5,-396"/>
<text text-anchor="middle" x="2615.5" y="-374.3" font-family="Helvetica,sans-Serif" font-size="14.00" fill="white">Bounded_join_semilattice</text>
</g>
<!-- Join_semilattice&#45;&#45;Bounded_join_semilattice -->
<g id="edge83" class="edge">
<title>Join_semilattice&#45;&#45;Bounded_join_semilattice</title>
<path fill="none" stroke="gray" d="M2615.5,-431.7C2615.5,-420.85 2615.5,-406.92 2615.5,-396.1"/>
</g>
<!-- Bounded_join_semilattice&#45;&#45;Bounded_meet_semilattice -->
<g id="edge85" class="edge">
<title>Bounded_join_semilattice&#45;&#45;Bounded_meet_semilattice</title>
<path fill="none" stroke="gray" stroke-dasharray="1,5" d="M2519.48,-378C2513.38,-378 2507.28,-378 2501.17,-378"/>
</g>
<!-- Bounded_join_semilattice&#45;&#45;Bounded_lattice -->
<g id="edge86" class="edge">
<title>Bounded_join_semilattice&#45;&#45;Bounded_lattice</title>
<path fill="none" stroke="gray" d="M2589.08,-359.88C2572.34,-349.03 2550.78,-335.05 2534.02,-324.19"/>
</g>
</g>
</svg>
