<?xml version="1.0" encoding="UTF-8" standalone="no"?>
<!DOCTYPE svg PUBLIC "-//W3C//DTD SVG 1.1//EN"
 "http://www.w3.org/Graphics/SVG/1.1/DTD/svg11.dtd">
<!-- Generated by graphviz version 2.43.0 (0)
 -->
<!-- Title: %3 Pages: 1 -->
<svg width="1119pt" height="476pt"
 viewBox="0.00 0.00 1119.32 476.00" xmlns="http://www.w3.org/2000/svg" xmlns:xlink="http://www.w3.org/1999/xlink">
<g id="graph0" class="graph" transform="scale(1 1) rotate(0) translate(4 472)">
<title>%3</title>
<polygon fill="white" stroke="transparent" points="-4,4 -4,-472 1115.32,-472 1115.32,4 -4,4"/>
<!-- Invariant -->
<g id="node1" class="node">
<title>Invariant</title>
<polygon fill="black" stroke="transparent" points="628.5,-468 549.5,-468 549.5,-432 628.5,-432 628.5,-468"/>
<text text-anchor="middle" x="589" y="-446.3" font-family="Helvetica,sans-Serif" font-size="14.00" fill="white">Invariant</text>
</g>
<!-- Functor -->
<g id="node2" class="node">
<title>Functor</title>
<polygon fill="black" stroke="transparent" points="445.5,-396 376.5,-396 376.5,-360 445.5,-360 445.5,-396"/>
<text text-anchor="middle" x="411" y="-374.3" font-family="Helvetica,sans-Serif" font-size="14.00" fill="white">Functor</text>
</g>
<!-- Invariant&#45;&#45;Functor -->
<g id="edge1" class="edge">
<title>Invariant&#45;&#45;Functor</title>
<path fill="none" stroke="gray" d="M549.5,-433.46C518.36,-421.22 475.37,-404.32 445.58,-392.6"/>
</g>
<!-- Contravariant -->
<g id="node3" class="node">
<title>Contravariant</title>
<polygon fill="black" stroke="transparent" points="823,-396 711,-396 711,-360 823,-360 823,-396"/>
<text text-anchor="middle" x="767" y="-374.3" font-family="Helvetica,sans-Serif" font-size="14.00" fill="white">Contravariant</text>
</g>
<!-- Invariant&#45;&#45;Contravariant -->
<g id="edge2" class="edge">
<title>Invariant&#45;&#45;Contravariant</title>
<path fill="none" stroke="gray" d="M628.5,-433.46C656.67,-422.39 694.53,-407.5 723.55,-396.09"/>
</g>
<!-- Applicative -->
<g id="node5" class="node">
<title>Applicative</title>
<polygon fill="black" stroke="transparent" points="212.5,-252 119.5,-252 119.5,-216 212.5,-216 212.5,-252"/>
<text text-anchor="middle" x="166" y="-230.3" font-family="Helvetica,sans-Serif" font-size="14.00" fill="white">Applicative</text>
</g>
<!-- Functor&#45;&#45;Applicative -->
<g id="edge3" class="edge">
<title>Functor&#45;&#45;Applicative</title>
<path fill="none" stroke="gray" d="M388.63,-359.78C375.67,-349.62 359.17,-336.37 345,-324 327.47,-308.7 326.72,-300.34 307,-288 277.73,-269.69 241.16,-256.17 212.6,-247.37"/>
</g>
<!-- Alt -->
<g id="node10" class="node">
<title>Alt</title>
<polygon fill="black" stroke="transparent" points="298,-324 244,-324 244,-288 298,-288 298,-324"/>
<text text-anchor="middle" x="271" y="-302.3" font-family="Helvetica,sans-Serif" font-size="14.00" fill="white">Alt</text>
</g>
<!-- Functor&#45;&#45;Alt -->
<g id="edge8" class="edge">
<title>Functor&#45;&#45;Alt</title>
<path fill="none" stroke="gray" d="M376.75,-359.88C352.63,-347.81 320.76,-331.88 298.34,-320.67"/>
</g>
<!-- Comonad -->
<g id="node11" class="node">
<title>Comonad</title>
<polygon fill="black" stroke="transparent" points="568.5,-324 485.5,-324 485.5,-288 568.5,-288 568.5,-324"/>
<text text-anchor="middle" x="527" y="-302.3" font-family="Helvetica,sans-Serif" font-size="14.00" fill="white">Comonad</text>
</g>
<!-- Functor&#45;&#45;Comonad -->
<g id="edge9" class="edge">
<title>Functor&#45;&#45;Comonad</title>
<path fill="none" stroke="gray" d="M439.38,-359.88C457.35,-349.03 480.52,-335.05 498.51,-324.19"/>
</g>
<!-- Free_selective -->
<g id="node15" class="node">
<title>Free_selective</title>
<polygon fill="black" stroke="transparent" points="467.5,-324 354.5,-324 354.5,-288 467.5,-288 467.5,-324"/>
<text text-anchor="middle" x="411" y="-302.3" font-family="Helvetica,sans-Serif" font-size="14.00" fill="white">Free_selective</text>
</g>
<!-- Functor&#45;&#45;Free_selective -->
<g id="edge16" class="edge">
<title>Functor&#45;&#45;Free_selective</title>
<path fill="none" stroke="gray" stroke-dasharray="1,5" d="M411,-359.7C411,-348.85 411,-334.92 411,-324.1"/>
</g>
<!-- Free_applicative -->
<g id="node16" class="node">
<title>Free_applicative</title>
<polygon fill="black" stroke="transparent" points="225.5,-324 98.5,-324 98.5,-288 225.5,-288 225.5,-324"/>
<text text-anchor="middle" x="162" y="-302.3" font-family="Helvetica,sans-Serif" font-size="14.00" fill="white">Free_applicative</text>
</g>
<!-- Functor&#45;&#45;Free_applicative -->
<g id="edge17" class="edge">
<title>Functor&#45;&#45;Free_applicative</title>
<path fill="none" stroke="gray" stroke-dasharray="1,5" d="M376.38,-367.27C336.69,-356.11 270.91,-337.62 222.66,-324.05"/>
</g>
<!-- Free_monad -->
<g id="node17" class="node">
<title>Free_monad</title>
<polygon fill="black" stroke="transparent" points="552,-180 452,-180 452,-144 552,-144 552,-180"/>
<text text-anchor="middle" x="502" y="-158.3" font-family="Helvetica,sans-Serif" font-size="14.00" fill="white">Free_monad</text>
</g>
<!-- Functor&#45;&#45;Free_monad -->
<g id="edge18" class="edge">
<title>Functor&#45;&#45;Free_monad</title>
<path fill="none" stroke="gray" stroke-dasharray="1,5" d="M445.58,-377.15C484.96,-375.24 547.73,-365.36 578,-324 606.35,-285.26 600.2,-258.56 578,-216 569.96,-200.6 555.18,-188.76 540.78,-180.22"/>
</g>
<!-- Profunctor -->
<g id="node19" class="node">
<title>Profunctor</title>
<polygon fill="black" stroke="transparent" points="811.5,-324 722.5,-324 722.5,-288 811.5,-288 811.5,-324"/>
<text text-anchor="middle" x="767" y="-302.3" font-family="Helvetica,sans-Serif" font-size="14.00" fill="white">Profunctor</text>
</g>
<!-- Functor&#45;&#45;Profunctor -->
<g id="edge25" class="edge">
<title>Functor&#45;&#45;Profunctor</title>
<path fill="none" stroke="gray" d="M445.78,-370.16C510.78,-357.38 650.57,-329.89 722.39,-315.77"/>
</g>
<!-- Bifunctor -->
<g id="node20" class="node">
<title>Bifunctor</title>
<polygon fill="black" stroke="transparent" points="80,-324 0,-324 0,-288 80,-288 80,-324"/>
<text text-anchor="middle" x="40" y="-302.3" font-family="Helvetica,sans-Serif" font-size="14.00" fill="white">Bifunctor</text>
</g>
<!-- Functor&#45;&#45;Bifunctor -->
<g id="edge26" class="edge">
<title>Functor&#45;&#45;Bifunctor</title>
<path fill="none" stroke="gray" d="M376.29,-373.26C316.84,-366.42 191.96,-350.13 89,-324 86.12,-323.27 83.17,-322.44 80.21,-321.56"/>
</g>
<!-- Divisible -->
<g id="node4" class="node">
<title>Divisible</title>
<polygon fill="black" stroke="transparent" points="904.5,-324 829.5,-324 829.5,-288 904.5,-288 904.5,-324"/>
<text text-anchor="middle" x="867" y="-302.3" font-family="Helvetica,sans-Serif" font-size="14.00" fill="white">Divisible</text>
</g>
<!-- Contravariant&#45;&#45;Divisible -->
<g id="edge23" class="edge">
<title>Contravariant&#45;&#45;Divisible</title>
<path fill="none" stroke="gray" d="M791.46,-359.88C806.96,-349.03 826.93,-335.05 842.44,-324.19"/>
</g>
<!-- Contravariant&#45;&#45;Profunctor -->
<g id="edge24" class="edge">
<title>Contravariant&#45;&#45;Profunctor</title>
<path fill="none" stroke="gray" d="M767,-359.7C767,-348.85 767,-334.92 767,-324.1"/>
</g>
<!-- Selective -->
<g id="node6" class="node">
<title>Selective</title>
<polygon fill="black" stroke="transparent" points="433.5,-180 354.5,-180 354.5,-144 433.5,-144 433.5,-180"/>
<text text-anchor="middle" x="394" y="-158.3" font-family="Helvetica,sans-Serif" font-size="14.00" fill="white">Selective</text>
</g>
<!-- Applicative&#45;&#45;Selective -->
<g id="edge4" class="edge">
<title>Applicative&#45;&#45;Selective</title>
<path fill="none" stroke="gray" d="M212.54,-219.86C248.77,-209.47 300.26,-194.38 345,-180 348.09,-179.01 351.27,-177.96 354.47,-176.89"/>
</g>
<!-- Alternative -->
<g id="node8" class="node">
<title>Alternative</title>
<polygon fill="black" stroke="transparent" points="212,-180 120,-180 120,-144 212,-144 212,-180"/>
<text text-anchor="middle" x="166" y="-158.3" font-family="Helvetica,sans-Serif" font-size="14.00" fill="white">Alternative</text>
</g>
<!-- Applicative&#45;&#45;Alternative -->
<g id="edge6" class="edge">
<title>Applicative&#45;&#45;Alternative</title>
<path fill="none" stroke="gray" d="M166,-215.7C166,-204.85 166,-190.92 166,-180.1"/>
</g>
<!-- Traversable -->
<g id="node27" class="node">
<title>Traversable</title>
<polygon fill="black" stroke="transparent" points="193.5,-36 96.5,-36 96.5,0 193.5,0 193.5,-36"/>
<text text-anchor="middle" x="145" y="-14.3" font-family="Helvetica,sans-Serif" font-size="14.00" fill="white">Traversable</text>
</g>
<!-- Applicative&#45;&#45;Traversable -->
<g id="edge33" class="edge">
<title>Applicative&#45;&#45;Traversable</title>
<path fill="none" stroke="gray" d="M140.62,-215.95C129.29,-206.79 117.12,-194.4 111,-180 89.88,-130.31 118.48,-66.24 134.89,-36.1"/>
</g>
<!-- Monad -->
<g id="node7" class="node">
<title>Monad</title>
<polygon fill="black" stroke="transparent" points="425.5,-108 362.5,-108 362.5,-72 425.5,-72 425.5,-108"/>
<text text-anchor="middle" x="394" y="-86.3" font-family="Helvetica,sans-Serif" font-size="14.00" fill="white">Monad</text>
</g>
<!-- Selective&#45;&#45;Monad -->
<g id="edge5" class="edge">
<title>Selective&#45;&#45;Monad</title>
<path fill="none" stroke="gray" d="M394,-143.7C394,-132.85 394,-118.92 394,-108.1"/>
</g>
<!-- Monad_plus -->
<g id="node9" class="node">
<title>Monad_plus</title>
<polygon fill="black" stroke="transparent" points="531.5,-36 432.5,-36 432.5,0 531.5,0 531.5,-36"/>
<text text-anchor="middle" x="482" y="-14.3" font-family="Helvetica,sans-Serif" font-size="14.00" fill="white">Monad_plus</text>
</g>
<!-- Monad&#45;&#45;Monad_plus -->
<g id="edge7" class="edge">
<title>Monad&#45;&#45;Monad_plus</title>
<path fill="none" stroke="gray" d="M415.75,-71.7C429.39,-60.85 446.9,-46.92 460.5,-36.1"/>
</g>
<!-- State -->
<g id="node21" class="node">
<title>State</title>
<polygon fill="black" stroke="transparent" points="604,-36 550,-36 550,0 604,0 604,-36"/>
<text text-anchor="middle" x="577" y="-14.3" font-family="Helvetica,sans-Serif" font-size="14.00" fill="white">State</text>
</g>
<!-- Monad&#45;&#45;State -->
<g id="edge27" class="edge">
<title>Monad&#45;&#45;State</title>
<path fill="none" stroke="gray" d="M425.59,-78.58C455.58,-68.46 501.79,-52.28 541,-36 543.94,-34.78 546.98,-33.45 550,-32.09"/>
</g>
<!-- Reader -->
<g id="node22" class="node">
<title>Reader</title>
<polygon fill="black" stroke="transparent" points="337.5,-36 272.5,-36 272.5,0 337.5,0 337.5,-36"/>
<text text-anchor="middle" x="305" y="-14.3" font-family="Helvetica,sans-Serif" font-size="14.00" fill="white">Reader</text>
</g>
<!-- Monad&#45;&#45;Reader -->
<g id="edge28" class="edge">
<title>Monad&#45;&#45;Reader</title>
<path fill="none" stroke="gray" d="M372,-71.7C358.2,-60.85 340.49,-46.92 326.75,-36.1"/>
</g>
<!-- Writer -->
<g id="node23" class="node">
<title>Writer</title>
<polygon fill="black" stroke="transparent" points="414.5,-36 355.5,-36 355.5,0 414.5,0 414.5,-36"/>
<text text-anchor="middle" x="385" y="-14.3" font-family="Helvetica,sans-Serif" font-size="14.00" fill="white">Writer</text>
</g>
<!-- Monad&#45;&#45;Writer -->
<g id="edge29" class="edge">
<title>Monad&#45;&#45;Writer</title>
<path fill="none" stroke="gray" d="M391.78,-71.7C390.38,-60.85 388.59,-46.92 387.2,-36.1"/>
</g>
<!-- Monad&#45;&#45;Traversable -->
<g id="edge34" class="edge">
<title>Monad&#45;&#45;Traversable</title>
<path fill="none" stroke="gray" d="M362.46,-80.13C319.93,-68.18 243.77,-46.77 193.82,-32.72"/>
</g>
<!-- Store -->
<g id="node24" class="node">
<title>Store</title>
<polygon fill="black" stroke="transparent" points="569,-252 515,-252 515,-216 569,-216 569,-252"/>
<text text-anchor="middle" x="542" y="-230.3" font-family="Helvetica,sans-Serif" font-size="14.00" fill="white">Store</text>
</g>
<!-- Comonad&#45;&#45;Store -->
<g id="edge30" class="edge">
<title>Comonad&#45;&#45;Store</title>
<path fill="none" stroke="gray" d="M530.71,-287.7C533.03,-276.85 536.02,-262.92 538.33,-252.1"/>
</g>
<!-- Env -->
<g id="node25" class="node">
<title>Env</title>
<polygon fill="black" stroke="transparent" points="417,-252 363,-252 363,-216 417,-216 417,-252"/>
<text text-anchor="middle" x="390" y="-230.3" font-family="Helvetica,sans-Serif" font-size="14.00" fill="white">Env</text>
</g>
<!-- Comonad&#45;&#45;Env -->
<g id="edge31" class="edge">
<title>Comonad&#45;&#45;Env</title>
<path fill="none" stroke="gray" d="M493.49,-287.88C470.04,-275.9 439.11,-260.09 417.19,-248.9"/>
</g>
<!-- Traced -->
<g id="node26" class="node">
<title>Traced</title>
<polygon fill="black" stroke="transparent" points="497,-252 435,-252 435,-216 497,-216 497,-252"/>
<text text-anchor="middle" x="466" y="-230.3" font-family="Helvetica,sans-Serif" font-size="14.00" fill="white">Traced</text>
</g>
<!-- Comonad&#45;&#45;Traced -->
<g id="edge32" class="edge">
<title>Comonad&#45;&#45;Traced</title>
<path fill="none" stroke="gray" d="M511.92,-287.7C502.47,-276.85 490.33,-262.92 480.91,-252.1"/>
</g>
<!-- Semigroup -->
<g id="node12" class="node">
<title>Semigroup</title>
<polygon fill="black" stroke="transparent" points="717,-252 625,-252 625,-216 717,-216 717,-252"/>
<text text-anchor="middle" x="671" y="-230.3" font-family="Helvetica,sans-Serif" font-size="14.00" fill="white">Semigroup</text>
</g>
<!-- Semigroup&#45;&#45;Alt -->
<g id="edge13" class="edge">
<title>Semigroup&#45;&#45;Alt</title>
<path fill="none" stroke="gray" stroke-dasharray="1,5" d="M624.69,-243.73C609.79,-246.46 593.21,-249.43 578,-252 474.67,-269.42 447.91,-268.26 345,-288 329.47,-290.98 312.23,-294.9 298.31,-298.23"/>
</g>
<!-- Monoid -->
<g id="node13" class="node">
<title>Monoid</title>
<polygon fill="black" stroke="transparent" points="637.5,-180 570.5,-180 570.5,-144 637.5,-144 637.5,-180"/>
<text text-anchor="middle" x="604" y="-158.3" font-family="Helvetica,sans-Serif" font-size="14.00" fill="white">Monoid</text>
</g>
<!-- Semigroup&#45;&#45;Monoid -->
<g id="edge10" class="edge">
<title>Semigroup&#45;&#45;Monoid</title>
<path fill="none" stroke="gray" d="M654.44,-215.7C644.05,-204.85 630.72,-190.92 620.37,-180.1"/>
</g>
<!-- Arrow_alt -->
<g id="node34" class="node">
<title>Arrow_alt</title>
<polygon fill="black" stroke="transparent" points="739,-108 659,-108 659,-72 739,-72 739,-108"/>
<text text-anchor="middle" x="699" y="-86.3" font-family="Helvetica,sans-Serif" font-size="14.00" fill="white">Arrow_alt</text>
</g>
<!-- Semigroup&#45;&#45;Arrow_alt -->
<g id="edge49" class="edge">
<title>Semigroup&#45;&#45;Arrow_alt</title>
<path fill="none" stroke="gray" stroke-dasharray="1,5" d="M674.38,-215.87C679.76,-188.58 690.22,-135.52 695.61,-108.19"/>
</g>
<!-- Monoid&#45;&#45;Monad -->
<g id="edge14" class="edge">
<title>Monoid&#45;&#45;Monad</title>
<path fill="none" stroke="gray" stroke-dasharray="1,5" d="M570.28,-147.41C567.15,-146.23 564.03,-145.08 561,-144 514.29,-127.38 459.36,-110.44 425.61,-100.32"/>
</g>
<!-- Monoid&#45;&#45;Alternative -->
<g id="edge11" class="edge">
<title>Monoid&#45;&#45;Alternative</title>
<path fill="none" stroke="gray" stroke-dasharray="1,5" d="M583.8,-180.26C574.75,-187.25 563.53,-194.4 552,-198 483.7,-219.34 299.22,-216.13 230,-198 216.31,-194.41 202.46,-187.17 191.16,-180.11"/>
</g>
<!-- Monoid&#45;&#45;Monad_plus -->
<g id="edge12" class="edge">
<title>Monoid&#45;&#45;Monad_plus</title>
<path fill="none" stroke="gray" stroke-dasharray="1,5" d="M570.63,-144C555.26,-134.92 537.67,-122.59 525,-108 506.32,-86.49 493.79,-55.45 487.28,-36.29"/>
</g>
<!-- Foldable -->
<g id="node14" class="node">
<title>Foldable</title>
<polygon fill="black" stroke="transparent" points="641,-108 567,-108 567,-72 641,-72 641,-108"/>
<text text-anchor="middle" x="604" y="-86.3" font-family="Helvetica,sans-Serif" font-size="14.00" fill="white">Foldable</text>
</g>
<!-- Monoid&#45;&#45;Foldable -->
<g id="edge15" class="edge">
<title>Monoid&#45;&#45;Foldable</title>
<path fill="none" stroke="gray" d="M604,-143.7C604,-132.85 604,-118.92 604,-108.1"/>
</g>
<!-- Category -->
<g id="node28" class="node">
<title>Category</title>
<polygon fill="black" stroke="transparent" points="977,-252 897,-252 897,-216 977,-216 977,-252"/>
<text text-anchor="middle" x="937" y="-230.3" font-family="Helvetica,sans-Serif" font-size="14.00" fill="white">Category</text>
</g>
<!-- Monoid&#45;&#45;Category -->
<g id="edge35" class="edge">
<title>Monoid&#45;&#45;Category</title>
<path fill="none" stroke="gray" stroke-dasharray="1,5" d="M637.59,-167.61C691.11,-175.31 798.79,-192.34 888,-216 890.87,-216.76 893.82,-217.61 896.77,-218.51"/>
</g>
<!-- Arrow_plus -->
<g id="node35" class="node">
<title>Arrow_plus</title>
<polygon fill="black" stroke="transparent" points="919,-36 827,-36 827,0 919,0 919,-36"/>
<text text-anchor="middle" x="873" y="-14.3" font-family="Helvetica,sans-Serif" font-size="14.00" fill="white">Arrow_plus</text>
</g>
<!-- Monoid&#45;&#45;Arrow_plus -->
<g id="edge48" class="edge">
<title>Monoid&#45;&#45;Arrow_plus</title>
<path fill="none" stroke="gray" stroke-dasharray="1,5" d="M584.03,-143.91C564.23,-124.92 539.35,-94.04 558,-72 591.89,-31.93 747.82,-22.14 826.83,-19.76"/>
</g>
<!-- Free_selective&#45;&#45;Selective -->
<g id="edge19" class="edge">
<title>Free_selective&#45;&#45;Selective</title>
<path fill="none" stroke="gray" d="M384.42,-287.91C372.76,-278.81 360.31,-266.49 354,-252 347.61,-237.33 348.92,-231.17 354,-216 358.47,-202.66 367.76,-190 376.27,-180.4"/>
</g>
<!-- Free_applicative&#45;&#45;Applicative -->
<g id="edge20" class="edge">
<title>Free_applicative&#45;&#45;Applicative</title>
<path fill="none" stroke="gray" d="M162.99,-287.7C163.61,-276.85 164.4,-262.92 165.02,-252.1"/>
</g>
<!-- Free_monad&#45;&#45;Monad -->
<g id="edge21" class="edge">
<title>Free_monad&#45;&#45;Monad</title>
<path fill="none" stroke="gray" d="M475.58,-143.88C458.84,-133.03 437.28,-119.05 420.52,-108.19"/>
</g>
<!-- Freer_monad -->
<g id="node18" class="node">
<title>Freer_monad</title>
<polygon fill="black" stroke="transparent" points="336,-180 230,-180 230,-144 336,-144 336,-180"/>
<text text-anchor="middle" x="283" y="-158.3" font-family="Helvetica,sans-Serif" font-size="14.00" fill="white">Freer_monad</text>
</g>
<!-- Freer_monad&#45;&#45;Monad -->
<g id="edge22" class="edge">
<title>Freer_monad&#45;&#45;Monad</title>
<path fill="none" stroke="gray" d="M310.15,-143.88C327.35,-133.03 349.52,-119.05 366.74,-108.19"/>
</g>
<!-- Strong -->
<g id="node30" class="node">
<title>Strong</title>
<polygon fill="black" stroke="transparent" points="879,-252 817,-252 817,-216 879,-216 879,-252"/>
<text text-anchor="middle" x="848" y="-230.3" font-family="Helvetica,sans-Serif" font-size="14.00" fill="white">Strong</text>
</g>
<!-- Profunctor&#45;&#45;Strong -->
<g id="edge37" class="edge">
<title>Profunctor&#45;&#45;Strong</title>
<path fill="none" stroke="gray" d="M787.02,-287.7C799.58,-276.85 815.7,-262.92 828.21,-252.1"/>
</g>
<!-- Choice -->
<g id="node31" class="node">
<title>Choice</title>
<polygon fill="black" stroke="transparent" points="798.5,-252 735.5,-252 735.5,-216 798.5,-216 798.5,-252"/>
<text text-anchor="middle" x="767" y="-230.3" font-family="Helvetica,sans-Serif" font-size="14.00" fill="white">Choice</text>
</g>
<!-- Profunctor&#45;&#45;Choice -->
<g id="edge38" class="edge">
<title>Profunctor&#45;&#45;Choice</title>
<path fill="none" stroke="gray" d="M767,-287.7C767,-276.85 767,-262.92 767,-252.1"/>
</g>
<!-- Closed -->
<g id="node32" class="node">
<title>Closed</title>
<polygon fill="black" stroke="transparent" points="1058.5,-252 995.5,-252 995.5,-216 1058.5,-216 1058.5,-252"/>
<text text-anchor="middle" x="1027" y="-230.3" font-family="Helvetica,sans-Serif" font-size="14.00" fill="white">Closed</text>
</g>
<!-- Profunctor&#45;&#45;Closed -->
<g id="edge39" class="edge">
<title>Profunctor&#45;&#45;Closed</title>
<path fill="none" stroke="gray" d="M811.7,-290.59C814.84,-289.68 817.96,-288.81 821,-288 893.54,-268.71 914.38,-274.46 986,-252 989.09,-251.03 992.27,-249.92 995.42,-248.75"/>
</g>
<!-- Arrow -->
<g id="node29" class="node">
<title>Arrow</title>
<polygon fill="black" stroke="transparent" points="961,-180 905,-180 905,-144 961,-144 961,-180"/>
<text text-anchor="middle" x="933" y="-158.3" font-family="Helvetica,sans-Serif" font-size="14.00" fill="white">Arrow</text>
</g>
<!-- Category&#45;&#45;Arrow -->
<g id="edge36" class="edge">
<title>Category&#45;&#45;Arrow</title>
<path fill="none" stroke="gray" d="M936.01,-215.7C935.39,-204.85 934.6,-190.92 933.98,-180.1"/>
</g>
<!-- Arrow_zero -->
<g id="node33" class="node">
<title>Arrow_zero</title>
<polygon fill="black" stroke="transparent" points="1094,-108 1002,-108 1002,-72 1094,-72 1094,-108"/>
<text text-anchor="middle" x="1048" y="-86.3" font-family="Helvetica,sans-Serif" font-size="14.00" fill="white">Arrow_zero</text>
</g>
<!-- Arrow&#45;&#45;Arrow_zero -->
<g id="edge41" class="edge">
<title>Arrow&#45;&#45;Arrow_zero</title>
<path fill="none" stroke="gray" d="M961.13,-143.88C978.95,-133.03 1001.92,-119.05 1019.76,-108.19"/>
</g>
<!-- Arrow&#45;&#45;Arrow_alt -->
<g id="edge42" class="edge">
<title>Arrow&#45;&#45;Arrow_alt</title>
<path fill="none" stroke="gray" d="M904.82,-153.33C868.61,-143.37 803.87,-125.22 749,-108 745.76,-106.98 742.42,-105.91 739.06,-104.81"/>
</g>
<!-- Arrow&#45;&#45;Arrow_plus -->
<g id="edge43" class="edge">
<title>Arrow&#45;&#45;Arrow_plus</title>
<path fill="none" stroke="gray" d="M961.11,-157.38C1019.29,-148.75 1144.18,-123.74 1103,-72 1080.48,-43.7 979.69,-29.23 919.25,-22.97"/>
</g>
<!-- Arrow_choice -->
<g id="node36" class="node">
<title>Arrow_choice</title>
<polygon fill="black" stroke="transparent" points="864.5,-108 757.5,-108 757.5,-72 864.5,-72 864.5,-108"/>
<text text-anchor="middle" x="811" y="-86.3" font-family="Helvetica,sans-Serif" font-size="14.00" fill="white">Arrow_choice</text>
</g>
<!-- Arrow&#45;&#45;Arrow_choice -->
<g id="edge44" class="edge">
<title>Arrow&#45;&#45;Arrow_choice</title>
<path fill="none" stroke="gray" d="M904.7,-144.76C885.56,-133.78 860.31,-119.29 840.84,-108.12"/>
</g>
<!-- Arrow_apply -->
<g id="node37" class="node">
<title>Arrow_apply</title>
<polygon fill="black" stroke="transparent" points="983.5,-108 882.5,-108 882.5,-72 983.5,-72 983.5,-108"/>
<text text-anchor="middle" x="933" y="-86.3" font-family="Helvetica,sans-Serif" font-size="14.00" fill="white">Arrow_apply</text>
</g>
<!-- Arrow&#45;&#45;Arrow_apply -->
<g id="edge45" class="edge">
<title>Arrow&#45;&#45;Arrow_apply</title>
<path fill="none" stroke="gray" d="M933,-143.7C933,-132.85 933,-118.92 933,-108.1"/>
</g>
<!-- Strong&#45;&#45;Arrow -->
<g id="edge40" class="edge">
<title>Strong&#45;&#45;Arrow</title>
<path fill="none" stroke="gray" d="M869.01,-215.7C882.19,-204.85 899.1,-190.92 912.23,-180.1"/>
</g>
<!-- Arrow_zero&#45;&#45;Arrow_plus -->
<g id="edge46" class="edge">
<title>Arrow_zero&#45;&#45;Arrow_plus</title>
<path fill="none" stroke="gray" stroke-dasharray="1,5" d="M1005.19,-71.88C977.97,-60.99 942.86,-46.95 915.67,-36.07"/>
</g>
<!-- Arrow_alt&#45;&#45;Arrow_plus -->
<g id="edge47" class="edge">
<title>Arrow_alt&#45;&#45;Arrow_plus</title>
<path fill="none" stroke="gray" stroke-dasharray="1,5" d="M739.36,-72.76C766.76,-61.74 802.94,-47.19 830.74,-36"/>
</g>
</g>
</svg>
