<?xml version="1.0" encoding="UTF-8" standalone="no"?>
<!DOCTYPE svg PUBLIC "-//W3C//DTD SVG 1.1//EN"
 "http://www.w3.org/Graphics/SVG/1.1/DTD/svg11.dtd">
<!-- Generated by graphviz version 2.43.0 (0)
 -->
<!-- Title: %3 Pages: 1 -->
<svg width="1287pt" height="476pt"
 viewBox="0.00 0.00 1287.00 476.00" xmlns="http://www.w3.org/2000/svg" xmlns:xlink="http://www.w3.org/1999/xlink">
<g id="graph0" class="graph" transform="scale(1 1) rotate(0) translate(4 472)">
<title>%3</title>
<polygon fill="white" stroke="transparent" points="-4,4 -4,-472 1283,-472 1283,4 -4,4"/>
<!-- Invariant -->
<g id="node1" class="node">
<title>Invariant</title>
<polygon fill="black" stroke="transparent" points="804.5,-468 725.5,-468 725.5,-432 804.5,-432 804.5,-468"/>
<text text-anchor="middle" x="765" y="-446.3" font-family="Helvetica,sans-Serif" font-size="14.00" fill="white">Invariant</text>
</g>
<!-- Functor -->
<g id="node2" class="node">
<title>Functor</title>
<polygon fill="black" stroke="transparent" points="557.5,-396 488.5,-396 488.5,-360 557.5,-360 557.5,-396"/>
<text text-anchor="middle" x="523" y="-374.3" font-family="Helvetica,sans-Serif" font-size="14.00" fill="white">Functor</text>
</g>
<!-- Invariant&#45;&#45;Functor -->
<g id="edge1" class="edge">
<title>Invariant&#45;&#45;Functor</title>
<path fill="none" stroke="gray" d="M725.31,-437.52C678.65,-424.02 601.95,-401.84 557.61,-389.01"/>
</g>
<!-- Contravariant -->
<g id="node3" class="node">
<title>Contravariant</title>
<polygon fill="black" stroke="transparent" points="1088,-396 976,-396 976,-360 1088,-360 1088,-396"/>
<text text-anchor="middle" x="1032" y="-374.3" font-family="Helvetica,sans-Serif" font-size="14.00" fill="white">Contravariant</text>
</g>
<!-- Invariant&#45;&#45;Contravariant -->
<g id="edge2" class="edge">
<title>Invariant&#45;&#45;Contravariant</title>
<path fill="none" stroke="gray" d="M804.68,-438.6C850.01,-426.71 924.5,-407.18 975.79,-393.74"/>
</g>
<!-- Applicative -->
<g id="node6" class="node">
<title>Applicative</title>
<polygon fill="black" stroke="transparent" points="370.5,-252 277.5,-252 277.5,-216 370.5,-216 370.5,-252"/>
<text text-anchor="middle" x="324" y="-230.3" font-family="Helvetica,sans-Serif" font-size="14.00" fill="white">Applicative</text>
</g>
<!-- Functor&#45;&#45;Applicative -->
<g id="edge3" class="edge">
<title>Functor&#45;&#45;Applicative</title>
<path fill="none" stroke="gray" d="M488.3,-376.09C417.81,-373.43 261.72,-363.15 229,-324 218.74,-311.72 220.9,-301.8 229,-288 239.62,-269.92 258.89,-257.56 277.31,-249.35"/>
</g>
<!-- Apply -->
<g id="node9" class="node">
<title>Apply</title>
<polygon fill="black" stroke="transparent" points="294,-324 238,-324 238,-288 294,-288 294,-324"/>
<text text-anchor="middle" x="266" y="-302.3" font-family="Helvetica,sans-Serif" font-size="14.00" fill="white">Apply</text>
</g>
<!-- Functor&#45;&#45;Apply -->
<g id="edge6" class="edge">
<title>Functor&#45;&#45;Apply</title>
<path fill="none" stroke="gray" stroke-dasharray="1,5" d="M488.32,-370.05C445.46,-361.1 370.54,-344.25 308,-324 303.51,-322.55 298.82,-320.84 294.26,-319.08"/>
</g>
<!-- Bind -->
<g id="node10" class="node">
<title>Bind</title>
<polygon fill="black" stroke="transparent" points="260,-180 206,-180 206,-144 260,-144 260,-180"/>
<text text-anchor="middle" x="233" y="-158.3" font-family="Helvetica,sans-Serif" font-size="14.00" fill="white">Bind</text>
</g>
<!-- Functor&#45;&#45;Bind -->
<g id="edge9" class="edge">
<title>Functor&#45;&#45;Bind</title>
<path fill="none" stroke="gray" stroke-dasharray="1,5" d="M488.3,-372.05C450.3,-365.49 388.57,-351.39 342,-324 337.09,-321.11 272.16,-256.74 269,-252 253.74,-229.12 243.19,-198.76 237.63,-180.07"/>
</g>
<!-- Alt -->
<g id="node13" class="node">
<title>Alt</title>
<polygon fill="black" stroke="transparent" points="550,-324 496,-324 496,-288 550,-288 550,-324"/>
<text text-anchor="middle" x="523" y="-302.3" font-family="Helvetica,sans-Serif" font-size="14.00" fill="white">Alt</text>
</g>
<!-- Functor&#45;&#45;Alt -->
<g id="edge12" class="edge">
<title>Functor&#45;&#45;Alt</title>
<path fill="none" stroke="gray" d="M523,-359.7C523,-348.85 523,-334.92 523,-324.1"/>
</g>
<!-- Comonad -->
<g id="node14" class="node">
<title>Comonad</title>
<polygon fill="black" stroke="transparent" points="181.5,-324 98.5,-324 98.5,-288 181.5,-288 181.5,-324"/>
<text text-anchor="middle" x="140" y="-302.3" font-family="Helvetica,sans-Serif" font-size="14.00" fill="white">Comonad</text>
</g>
<!-- Functor&#45;&#45;Comonad -->
<g id="edge13" class="edge">
<title>Functor&#45;&#45;Comonad</title>
<path fill="none" stroke="gray" d="M488.34,-372.93C428.31,-365.55 301.33,-348.41 196,-324 191.35,-322.92 186.52,-321.67 181.73,-320.34"/>
</g>
<!-- Free_selective -->
<g id="node18" class="node">
<title>Free_selective</title>
<polygon fill="black" stroke="transparent" points="681.5,-324 568.5,-324 568.5,-288 681.5,-288 681.5,-324"/>
<text text-anchor="middle" x="625" y="-302.3" font-family="Helvetica,sans-Serif" font-size="14.00" fill="white">Free_selective</text>
</g>
<!-- Functor&#45;&#45;Free_selective -->
<g id="edge20" class="edge">
<title>Functor&#45;&#45;Free_selective</title>
<path fill="none" stroke="gray" stroke-dasharray="1,5" d="M547.95,-359.88C563.76,-349.03 584.13,-335.05 599.95,-324.19"/>
</g>
<!-- Free_applicative -->
<g id="node19" class="node">
<title>Free_applicative</title>
<polygon fill="black" stroke="transparent" points="477.5,-324 350.5,-324 350.5,-288 477.5,-288 477.5,-324"/>
<text text-anchor="middle" x="414" y="-302.3" font-family="Helvetica,sans-Serif" font-size="14.00" fill="white">Free_applicative</text>
</g>
<!-- Functor&#45;&#45;Free_applicative -->
<g id="edge21" class="edge">
<title>Functor&#45;&#45;Free_applicative</title>
<path fill="none" stroke="gray" stroke-dasharray="1,5" d="M496.34,-359.88C479.44,-349.03 457.68,-335.05 440.77,-324.19"/>
</g>
<!-- Free_monad -->
<g id="node20" class="node">
<title>Free_monad</title>
<polygon fill="black" stroke="transparent" points="710,-180 610,-180 610,-144 710,-144 710,-180"/>
<text text-anchor="middle" x="660" y="-158.3" font-family="Helvetica,sans-Serif" font-size="14.00" fill="white">Free_monad</text>
</g>
<!-- Functor&#45;&#45;Free_monad -->
<g id="edge22" class="edge">
<title>Functor&#45;&#45;Free_monad</title>
<path fill="none" stroke="gray" stroke-dasharray="1,5" d="M557.78,-377.22C597.39,-375.37 660.53,-365.56 691,-324 719.38,-285.29 703.55,-262.33 691,-216 687.49,-203.04 679.92,-189.99 673.15,-180.09"/>
</g>
<!-- Profunctor -->
<g id="node23" class="node">
<title>Profunctor</title>
<polygon fill="black" stroke="transparent" points="1076.5,-324 987.5,-324 987.5,-288 1076.5,-288 1076.5,-324"/>
<text text-anchor="middle" x="1032" y="-302.3" font-family="Helvetica,sans-Serif" font-size="14.00" fill="white">Profunctor</text>
</g>
<!-- Functor&#45;&#45;Profunctor -->
<g id="edge31" class="edge">
<title>Functor&#45;&#45;Profunctor</title>
<path fill="none" stroke="gray" d="M557.52,-373.85C630.84,-366.91 807.4,-348.93 954,-324 964.79,-322.16 976.35,-319.84 987.18,-317.51"/>
</g>
<!-- Bifunctor -->
<g id="node24" class="node">
<title>Bifunctor</title>
<polygon fill="black" stroke="transparent" points="80,-324 0,-324 0,-288 80,-288 80,-324"/>
<text text-anchor="middle" x="40" y="-302.3" font-family="Helvetica,sans-Serif" font-size="14.00" fill="white">Bifunctor</text>
</g>
<!-- Functor&#45;&#45;Bifunctor -->
<g id="edge32" class="edge">
<title>Functor&#45;&#45;Bifunctor</title>
<path fill="none" stroke="gray" d="M488.25,-375.26C414.06,-371.01 235.05,-357.85 89,-324 86.11,-323.33 83.14,-322.55 80.18,-321.7"/>
</g>
<!-- Divisible -->
<g id="node4" class="node">
<title>Divisible</title>
<polygon fill="black" stroke="transparent" points="1218.5,-324 1143.5,-324 1143.5,-288 1218.5,-288 1218.5,-324"/>
<text text-anchor="middle" x="1181" y="-302.3" font-family="Helvetica,sans-Serif" font-size="14.00" fill="white">Divisible</text>
</g>
<!-- Contravariant&#45;&#45;Divisible -->
<g id="edge28" class="edge">
<title>Contravariant&#45;&#45;Divisible</title>
<path fill="none" stroke="gray" d="M1068.45,-359.88C1091.63,-348.99 1121.52,-334.95 1144.67,-324.07"/>
</g>
<!-- Contravariant&#45;&#45;Profunctor -->
<g id="edge30" class="edge">
<title>Contravariant&#45;&#45;Profunctor</title>
<path fill="none" stroke="gray" d="M1032,-359.7C1032,-348.85 1032,-334.92 1032,-324.1"/>
</g>
<!-- Decidable -->
<g id="node5" class="node">
<title>Decidable</title>
<polygon fill="black" stroke="transparent" points="1273.5,-252 1188.5,-252 1188.5,-216 1273.5,-216 1273.5,-252"/>
<text text-anchor="middle" x="1231" y="-230.3" font-family="Helvetica,sans-Serif" font-size="14.00" fill="white">Decidable</text>
</g>
<!-- Divisible&#45;&#45;Decidable -->
<g id="edge29" class="edge">
<title>Divisible&#45;&#45;Decidable</title>
<path fill="none" stroke="gray" d="M1193.36,-287.7C1201.11,-276.85 1211.06,-262.92 1218.78,-252.1"/>
</g>
<!-- Selective -->
<g id="node7" class="node">
<title>Selective</title>
<polygon fill="black" stroke="transparent" points="591.5,-180 512.5,-180 512.5,-144 591.5,-144 591.5,-180"/>
<text text-anchor="middle" x="552" y="-158.3" font-family="Helvetica,sans-Serif" font-size="14.00" fill="white">Selective</text>
</g>
<!-- Applicative&#45;&#45;Selective -->
<g id="edge4" class="edge">
<title>Applicative&#45;&#45;Selective</title>
<path fill="none" stroke="gray" d="M370.54,-219.86C406.77,-209.47 458.26,-194.38 503,-180 506.09,-179.01 509.27,-177.96 512.47,-176.89"/>
</g>
<!-- Alternative -->
<g id="node11" class="node">
<title>Alternative</title>
<polygon fill="black" stroke="transparent" points="370,-180 278,-180 278,-144 370,-144 370,-180"/>
<text text-anchor="middle" x="324" y="-158.3" font-family="Helvetica,sans-Serif" font-size="14.00" fill="white">Alternative</text>
</g>
<!-- Applicative&#45;&#45;Alternative -->
<g id="edge10" class="edge">
<title>Applicative&#45;&#45;Alternative</title>
<path fill="none" stroke="gray" d="M324,-215.7C324,-204.85 324,-190.92 324,-180.1"/>
</g>
<!-- Traversable -->
<g id="node31" class="node">
<title>Traversable</title>
<polygon fill="black" stroke="transparent" points="302.5,-36 205.5,-36 205.5,0 302.5,0 302.5,-36"/>
<text text-anchor="middle" x="254" y="-14.3" font-family="Helvetica,sans-Serif" font-size="14.00" fill="white">Traversable</text>
</g>
<!-- Applicative&#45;&#45;Traversable -->
<g id="edge39" class="edge">
<title>Applicative&#45;&#45;Traversable</title>
<path fill="none" stroke="gray" d="M277.37,-226.59C248.97,-220.01 214.82,-206.74 197,-180 165.76,-133.12 212.29,-67.14 238.36,-36.24"/>
</g>
<!-- Monad -->
<g id="node8" class="node">
<title>Monad</title>
<polygon fill="black" stroke="transparent" points="527.5,-108 464.5,-108 464.5,-72 527.5,-72 527.5,-108"/>
<text text-anchor="middle" x="496" y="-86.3" font-family="Helvetica,sans-Serif" font-size="14.00" fill="white">Monad</text>
</g>
<!-- Selective&#45;&#45;Monad -->
<g id="edge5" class="edge">
<title>Selective&#45;&#45;Monad</title>
<path fill="none" stroke="gray" d="M538.16,-143.7C529.48,-132.85 518.33,-118.92 509.68,-108.1"/>
</g>
<!-- Monad_plus -->
<g id="node12" class="node">
<title>Monad_plus</title>
<polygon fill="black" stroke="transparent" points="621.5,-36 522.5,-36 522.5,0 621.5,0 621.5,-36"/>
<text text-anchor="middle" x="572" y="-14.3" font-family="Helvetica,sans-Serif" font-size="14.00" fill="white">Monad_plus</text>
</g>
<!-- Monad&#45;&#45;Monad_plus -->
<g id="edge11" class="edge">
<title>Monad&#45;&#45;Monad_plus</title>
<path fill="none" stroke="gray" d="M514.79,-71.7C526.57,-60.85 541.69,-46.92 553.43,-36.1"/>
</g>
<!-- State -->
<g id="node25" class="node">
<title>State</title>
<polygon fill="black" stroke="transparent" points="694,-36 640,-36 640,0 694,0 694,-36"/>
<text text-anchor="middle" x="667" y="-14.3" font-family="Helvetica,sans-Serif" font-size="14.00" fill="white">State</text>
</g>
<!-- Monad&#45;&#45;State -->
<g id="edge33" class="edge">
<title>Monad&#45;&#45;State</title>
<path fill="none" stroke="gray" d="M527.61,-77.28C555.13,-66.91 595.98,-51.12 631,-36 633.92,-34.74 636.95,-33.38 639.96,-32.01"/>
</g>
<!-- Reader -->
<g id="node26" class="node">
<title>Reader</title>
<polygon fill="black" stroke="transparent" points="427.5,-36 362.5,-36 362.5,0 427.5,0 427.5,-36"/>
<text text-anchor="middle" x="395" y="-14.3" font-family="Helvetica,sans-Serif" font-size="14.00" fill="white">Reader</text>
</g>
<!-- Monad&#45;&#45;Reader -->
<g id="edge34" class="edge">
<title>Monad&#45;&#45;Reader</title>
<path fill="none" stroke="gray" d="M471.29,-71.88C455.64,-61.03 435.47,-47.05 419.8,-36.19"/>
</g>
<!-- Writer -->
<g id="node27" class="node">
<title>Writer</title>
<polygon fill="black" stroke="transparent" points="504.5,-36 445.5,-36 445.5,0 504.5,0 504.5,-36"/>
<text text-anchor="middle" x="475" y="-14.3" font-family="Helvetica,sans-Serif" font-size="14.00" fill="white">Writer</text>
</g>
<!-- Monad&#45;&#45;Writer -->
<g id="edge35" class="edge">
<title>Monad&#45;&#45;Writer</title>
<path fill="none" stroke="gray" d="M490.81,-71.7C487.55,-60.85 483.38,-46.92 480.13,-36.1"/>
</g>
<!-- Monad&#45;&#45;Traversable -->
<g id="edge40" class="edge">
<title>Monad&#45;&#45;Traversable</title>
<path fill="none" stroke="gray" d="M464.36,-79.85C423.24,-67.95 350.99,-47.06 302.81,-33.12"/>
</g>
<!-- Apply&#45;&#45;Applicative -->
<g id="edge7" class="edge">
<title>Apply&#45;&#45;Applicative</title>
<path fill="none" stroke="gray" d="M280.34,-287.7C289.33,-276.85 300.87,-262.92 309.83,-252.1"/>
</g>
<!-- Bind&#45;&#45;Monad -->
<g id="edge8" class="edge">
<title>Bind&#45;&#45;Monad</title>
<path fill="none" stroke="gray" d="M260.27,-147.39C263.18,-146.16 266.13,-145 269,-144 336.83,-120.36 419.73,-104.03 464.19,-96.23"/>
</g>
<!-- Store -->
<g id="node28" class="node">
<title>Store</title>
<polygon fill="black" stroke="transparent" points="149,-252 95,-252 95,-216 149,-216 149,-252"/>
<text text-anchor="middle" x="122" y="-230.3" font-family="Helvetica,sans-Serif" font-size="14.00" fill="white">Store</text>
</g>
<!-- Comonad&#45;&#45;Store -->
<g id="edge36" class="edge">
<title>Comonad&#45;&#45;Store</title>
<path fill="none" stroke="gray" d="M135.55,-287.7C132.76,-276.85 129.18,-262.92 126.4,-252.1"/>
</g>
<!-- Env -->
<g id="node29" class="node">
<title>Env</title>
<polygon fill="black" stroke="transparent" points="221,-252 167,-252 167,-216 221,-216 221,-252"/>
<text text-anchor="middle" x="194" y="-230.3" font-family="Helvetica,sans-Serif" font-size="14.00" fill="white">Env</text>
</g>
<!-- Comonad&#45;&#45;Env -->
<g id="edge37" class="edge">
<title>Comonad&#45;&#45;Env</title>
<path fill="none" stroke="gray" d="M153.35,-287.7C161.72,-276.85 172.46,-262.92 180.81,-252.1"/>
</g>
<!-- Traced -->
<g id="node30" class="node">
<title>Traced</title>
<polygon fill="black" stroke="transparent" points="77,-252 15,-252 15,-216 77,-216 77,-252"/>
<text text-anchor="middle" x="46" y="-230.3" font-family="Helvetica,sans-Serif" font-size="14.00" fill="white">Traced</text>
</g>
<!-- Comonad&#45;&#45;Traced -->
<g id="edge38" class="edge">
<title>Comonad&#45;&#45;Traced</title>
<path fill="none" stroke="gray" d="M116.76,-287.7C102.19,-276.85 83.49,-262.92 68.97,-252.1"/>
</g>
<!-- Semigroup -->
<g id="node15" class="node">
<title>Semigroup</title>
<polygon fill="black" stroke="transparent" points="830,-252 738,-252 738,-216 830,-216 830,-252"/>
<text text-anchor="middle" x="784" y="-230.3" font-family="Helvetica,sans-Serif" font-size="14.00" fill="white">Semigroup</text>
</g>
<!-- Semigroup&#45;&#45;Alt -->
<g id="edge17" class="edge">
<title>Semigroup&#45;&#45;Alt</title>
<path fill="none" stroke="gray" stroke-dasharray="1,5" d="M737.77,-243.15C691.94,-251.88 620.08,-267.32 560,-288 556.79,-289.1 553.49,-290.39 550.23,-291.76"/>
</g>
<!-- Monoid -->
<g id="node16" class="node">
<title>Monoid</title>
<polygon fill="black" stroke="transparent" points="795.5,-180 728.5,-180 728.5,-144 795.5,-144 795.5,-180"/>
<text text-anchor="middle" x="762" y="-158.3" font-family="Helvetica,sans-Serif" font-size="14.00" fill="white">Monoid</text>
</g>
<!-- Semigroup&#45;&#45;Monoid -->
<g id="edge14" class="edge">
<title>Semigroup&#45;&#45;Monoid</title>
<path fill="none" stroke="gray" d="M778.56,-215.7C775.15,-204.85 770.77,-190.92 767.38,-180.1"/>
</g>
<!-- Semigroupoid -->
<g id="node32" class="node">
<title>Semigroupoid</title>
<polygon fill="black" stroke="transparent" points="944.5,-324 831.5,-324 831.5,-288 944.5,-288 944.5,-324"/>
<text text-anchor="middle" x="888" y="-302.3" font-family="Helvetica,sans-Serif" font-size="14.00" fill="white">Semigroupoid</text>
</g>
<!-- Semigroup&#45;&#45;Semigroupoid -->
<g id="edge41" class="edge">
<title>Semigroup&#45;&#45;Semigroupoid</title>
<path fill="none" stroke="gray" stroke-dasharray="1,5" d="M809.54,-252.19C825.67,-263.05 846.44,-277.03 862.56,-287.88"/>
</g>
<!-- Arrow_alt -->
<g id="node39" class="node">
<title>Arrow_alt</title>
<polygon fill="black" stroke="transparent" points="886,-108 806,-108 806,-72 886,-72 886,-108"/>
<text text-anchor="middle" x="846" y="-86.3" font-family="Helvetica,sans-Serif" font-size="14.00" fill="white">Arrow_alt</text>
</g>
<!-- Semigroup&#45;&#45;Arrow_alt -->
<g id="edge57" class="edge">
<title>Semigroup&#45;&#45;Arrow_alt</title>
<path fill="none" stroke="gray" stroke-dasharray="1,5" d="M791.48,-215.87C803.4,-188.58 826.56,-135.52 838.49,-108.19"/>
</g>
<!-- Monoid&#45;&#45;Monad -->
<g id="edge18" class="edge">
<title>Monoid&#45;&#45;Monad</title>
<path fill="none" stroke="gray" stroke-dasharray="1,5" d="M728.36,-147.17C725.22,-146.04 722.06,-144.96 719,-144 652,-122.91 571.39,-105.71 527.78,-97.06"/>
</g>
<!-- Monoid&#45;&#45;Alternative -->
<g id="edge15" class="edge">
<title>Monoid&#45;&#45;Alternative</title>
<path fill="none" stroke="gray" stroke-dasharray="1,5" d="M741.8,-180.26C732.75,-187.25 721.53,-194.4 710,-198 641.7,-219.34 457.22,-216.13 388,-198 374.31,-194.41 360.46,-187.17 349.16,-180.11"/>
</g>
<!-- Monoid&#45;&#45;Monad_plus -->
<g id="edge16" class="edge">
<title>Monoid&#45;&#45;Monad_plus</title>
<path fill="none" stroke="gray" stroke-dasharray="1,5" d="M728.46,-146.85C725.29,-145.79 722.11,-144.81 719,-144 661.94,-129.05 494.78,-152.45 456,-108 445.48,-95.94 447.35,-85.46 456,-72 463.9,-59.71 494.49,-46 522.28,-35.6"/>
</g>
<!-- Foldable -->
<g id="node17" class="node">
<title>Foldable</title>
<polygon fill="black" stroke="transparent" points="788,-108 714,-108 714,-72 788,-72 788,-108"/>
<text text-anchor="middle" x="751" y="-86.3" font-family="Helvetica,sans-Serif" font-size="14.00" fill="white">Foldable</text>
</g>
<!-- Monoid&#45;&#45;Foldable -->
<g id="edge19" class="edge">
<title>Monoid&#45;&#45;Foldable</title>
<path fill="none" stroke="gray" d="M759.28,-143.7C757.58,-132.85 755.39,-118.92 753.69,-108.1"/>
</g>
<!-- Category -->
<g id="node33" class="node">
<title>Category</title>
<polygon fill="black" stroke="transparent" points="928,-252 848,-252 848,-216 928,-216 928,-252"/>
<text text-anchor="middle" x="888" y="-230.3" font-family="Helvetica,sans-Serif" font-size="14.00" fill="white">Category</text>
</g>
<!-- Monoid&#45;&#45;Category -->
<g id="edge42" class="edge">
<title>Monoid&#45;&#45;Category</title>
<path fill="none" stroke="gray" stroke-dasharray="1,5" d="M792.94,-180.19C812.49,-191.05 837.65,-205.03 857.18,-215.88"/>
</g>
<!-- Arrow_plus -->
<g id="node40" class="node">
<title>Arrow_plus</title>
<polygon fill="black" stroke="transparent" points="1048,-36 956,-36 956,0 1048,0 1048,-36"/>
<text text-anchor="middle" x="1002" y="-14.3" font-family="Helvetica,sans-Serif" font-size="14.00" fill="white">Arrow_plus</text>
</g>
<!-- Monoid&#45;&#45;Arrow_plus -->
<g id="edge56" class="edge">
<title>Monoid&#45;&#45;Arrow_plus</title>
<path fill="none" stroke="gray" stroke-dasharray="1,5" d="M737.72,-143.72C714.51,-125.11 685.68,-95.07 705,-72 736.44,-34.45 880.42,-23.48 955.75,-20.29"/>
</g>
<!-- Free_selective&#45;&#45;Selective -->
<g id="edge23" class="edge">
<title>Free_selective&#45;&#45;Selective</title>
<path fill="none" stroke="gray" d="M590,-287.86C576.21,-279.16 561.82,-267.18 554,-252 542.31,-229.33 544.86,-198.91 548.15,-180.15"/>
</g>
<!-- Free_applicative&#45;&#45;Applicative -->
<g id="edge25" class="edge">
<title>Free_applicative&#45;&#45;Applicative</title>
<path fill="none" stroke="gray" d="M391.75,-287.7C377.8,-276.85 359.89,-262.92 345.99,-252.1"/>
</g>
<!-- Free_monad&#45;&#45;Monad -->
<g id="edge26" class="edge">
<title>Free_monad&#45;&#45;Monad</title>
<path fill="none" stroke="gray" d="M619.88,-143.88C591.53,-131.77 554.04,-115.77 527.76,-104.56"/>
</g>
<!-- Freer_selective -->
<g id="node21" class="node">
<title>Freer_selective</title>
<polygon fill="black" stroke="transparent" points="681.5,-252 562.5,-252 562.5,-216 681.5,-216 681.5,-252"/>
<text text-anchor="middle" x="622" y="-230.3" font-family="Helvetica,sans-Serif" font-size="14.00" fill="white">Freer_selective</text>
</g>
<!-- Freer_selective&#45;&#45;Selective -->
<g id="edge24" class="edge">
<title>Freer_selective&#45;&#45;Selective</title>
<path fill="none" stroke="gray" d="M604.7,-215.7C593.85,-204.85 579.92,-190.92 569.1,-180.1"/>
</g>
<!-- Freer_monad -->
<g id="node22" class="node">
<title>Freer_monad</title>
<polygon fill="black" stroke="transparent" points="494,-180 388,-180 388,-144 494,-144 494,-180"/>
<text text-anchor="middle" x="441" y="-158.3" font-family="Helvetica,sans-Serif" font-size="14.00" fill="white">Freer_monad</text>
</g>
<!-- Freer_monad&#45;&#45;Monad -->
<g id="edge27" class="edge">
<title>Freer_monad&#45;&#45;Monad</title>
<path fill="none" stroke="gray" d="M454.6,-143.7C463.12,-132.85 474.07,-118.92 482.56,-108.1"/>
</g>
<!-- Strong -->
<g id="node35" class="node">
<title>Strong</title>
<polygon fill="black" stroke="transparent" points="1008,-252 946,-252 946,-216 1008,-216 1008,-252"/>
<text text-anchor="middle" x="977" y="-230.3" font-family="Helvetica,sans-Serif" font-size="14.00" fill="white">Strong</text>
</g>
<!-- Profunctor&#45;&#45;Strong -->
<g id="edge45" class="edge">
<title>Profunctor&#45;&#45;Strong</title>
<path fill="none" stroke="gray" d="M1018.4,-287.7C1009.88,-276.85 998.93,-262.92 990.44,-252.1"/>
</g>
<!-- Choice -->
<g id="node36" class="node">
<title>Choice</title>
<polygon fill="black" stroke="transparent" points="1089.5,-252 1026.5,-252 1026.5,-216 1089.5,-216 1089.5,-252"/>
<text text-anchor="middle" x="1058" y="-230.3" font-family="Helvetica,sans-Serif" font-size="14.00" fill="white">Choice</text>
</g>
<!-- Profunctor&#45;&#45;Choice -->
<g id="edge46" class="edge">
<title>Profunctor&#45;&#45;Choice</title>
<path fill="none" stroke="gray" d="M1038.43,-287.7C1042.46,-276.85 1047.63,-262.92 1051.65,-252.1"/>
</g>
<!-- Closed -->
<g id="node37" class="node">
<title>Closed</title>
<polygon fill="black" stroke="transparent" points="1170.5,-252 1107.5,-252 1107.5,-216 1170.5,-216 1170.5,-252"/>
<text text-anchor="middle" x="1139" y="-230.3" font-family="Helvetica,sans-Serif" font-size="14.00" fill="white">Closed</text>
</g>
<!-- Profunctor&#45;&#45;Closed -->
<g id="edge47" class="edge">
<title>Profunctor&#45;&#45;Closed</title>
<path fill="none" stroke="gray" d="M1058.18,-287.88C1074.76,-277.03 1096.12,-263.05 1112.72,-252.19"/>
</g>
<!-- Semigroupoid&#45;&#45;Category -->
<g id="edge43" class="edge">
<title>Semigroupoid&#45;&#45;Category</title>
<path fill="none" stroke="gray" d="M888,-287.7C888,-276.85 888,-262.92 888,-252.1"/>
</g>
<!-- Arrow -->
<g id="node34" class="node">
<title>Arrow</title>
<polygon fill="black" stroke="transparent" points="1005,-180 949,-180 949,-144 1005,-144 1005,-180"/>
<text text-anchor="middle" x="977" y="-158.3" font-family="Helvetica,sans-Serif" font-size="14.00" fill="white">Arrow</text>
</g>
<!-- Category&#45;&#45;Arrow -->
<g id="edge44" class="edge">
<title>Category&#45;&#45;Arrow</title>
<path fill="none" stroke="gray" d="M910,-215.7C923.8,-204.85 941.51,-190.92 955.25,-180.1"/>
</g>
<!-- Arrow_zero -->
<g id="node38" class="node">
<title>Arrow_zero</title>
<polygon fill="black" stroke="transparent" points="1279,-108 1187,-108 1187,-72 1279,-72 1279,-108"/>
<text text-anchor="middle" x="1233" y="-86.3" font-family="Helvetica,sans-Serif" font-size="14.00" fill="white">Arrow_zero</text>
</g>
<!-- Arrow&#45;&#45;Arrow_zero -->
<g id="edge49" class="edge">
<title>Arrow&#45;&#45;Arrow_zero</title>
<path fill="none" stroke="gray" d="M1005.27,-153.47C1043.39,-143.29 1113.38,-124.51 1173,-108 1177.49,-106.76 1182.16,-105.45 1186.83,-104.14"/>
</g>
<!-- Arrow&#45;&#45;Arrow_alt -->
<g id="edge50" class="edge">
<title>Arrow&#45;&#45;Arrow_alt</title>
<path fill="none" stroke="gray" d="M948.9,-145.98C928.15,-134.9 899.87,-119.78 878.21,-108.21"/>
</g>
<!-- Arrow&#45;&#45;Arrow_plus -->
<g id="edge51" class="edge">
<title>Arrow&#45;&#45;Arrow_plus</title>
<path fill="none" stroke="gray" d="M1005.14,-161.15C1042.97,-159.64 1109.05,-150.61 1140,-108 1149.4,-95.05 1149.06,-85.19 1140,-72 1119.51,-42.18 1079.72,-29.13 1048.12,-23.42"/>
</g>
<!-- Arrow_choice -->
<g id="node41" class="node">
<title>Arrow_choice</title>
<polygon fill="black" stroke="transparent" points="1011.5,-108 904.5,-108 904.5,-72 1011.5,-72 1011.5,-108"/>
<text text-anchor="middle" x="958" y="-86.3" font-family="Helvetica,sans-Serif" font-size="14.00" fill="white">Arrow_choice</text>
</g>
<!-- Arrow&#45;&#45;Arrow_choice -->
<g id="edge52" class="edge">
<title>Arrow&#45;&#45;Arrow_choice</title>
<path fill="none" stroke="gray" d="M972.3,-143.7C969.36,-132.85 965.58,-118.92 962.64,-108.1"/>
</g>
<!-- Arrow_apply -->
<g id="node42" class="node">
<title>Arrow_apply</title>
<polygon fill="black" stroke="transparent" points="1130.5,-108 1029.5,-108 1029.5,-72 1130.5,-72 1130.5,-108"/>
<text text-anchor="middle" x="1080" y="-86.3" font-family="Helvetica,sans-Serif" font-size="14.00" fill="white">Arrow_apply</text>
</g>
<!-- Arrow&#45;&#45;Arrow_apply -->
<g id="edge53" class="edge">
<title>Arrow&#45;&#45;Arrow_apply</title>
<path fill="none" stroke="gray" d="M1002.2,-143.88C1018.16,-133.03 1038.73,-119.05 1054.71,-108.19"/>
</g>
<!-- Strong&#45;&#45;Arrow -->
<g id="edge48" class="edge">
<title>Strong&#45;&#45;Arrow</title>
<path fill="none" stroke="gray" d="M977,-215.7C977,-204.85 977,-190.92 977,-180.1"/>
</g>
<!-- Arrow_zero&#45;&#45;Arrow_plus -->
<g id="edge54" class="edge">
<title>Arrow_zero&#45;&#45;Arrow_plus</title>
<path fill="none" stroke="gray" stroke-dasharray="1,5" d="M1186.81,-75C1146.52,-62.79 1088.38,-45.17 1048.11,-32.97"/>
</g>
<!-- Arrow_alt&#45;&#45;Arrow_plus -->
<g id="edge55" class="edge">
<title>Arrow_alt&#45;&#45;Arrow_plus</title>
<path fill="none" stroke="gray" stroke-dasharray="1,5" d="M884.16,-71.88C908.43,-60.99 939.72,-46.95 963.96,-36.07"/>
</g>
</g>
</svg>
