<?xml version="1.0" encoding="UTF-8" standalone="no"?>
<!DOCTYPE svg PUBLIC "-//W3C//DTD SVG 1.1//EN"
 "http://www.w3.org/Graphics/SVG/1.1/DTD/svg11.dtd">
<!-- Generated by graphviz version 2.43.0 (0)
 -->
<!-- Title: %3 Pages: 1 -->
<svg width="2288pt" height="476pt"
 viewBox="0.00 0.00 2287.87 476.00" xmlns="http://www.w3.org/2000/svg" xmlns:xlink="http://www.w3.org/1999/xlink">
<g id="graph0" class="graph" transform="scale(1 1) rotate(0) translate(4 472)">
<title>%3</title>
<polygon fill="white" stroke="transparent" points="-4,4 -4,-472 2283.87,-472 2283.87,4 -4,4"/>
<!-- Invariant -->
<g id="node1" class="node">
<title>Invariant</title>
<polygon fill="black" stroke="transparent" points="695.37,-468 616.37,-468 616.37,-432 695.37,-432 695.37,-468"/>
<text text-anchor="middle" x="655.87" y="-446.3" font-family="Helvetica,sans-Serif" font-size="14.00" fill="white">Invariant</text>
</g>
<!-- Functor -->
<g id="node2" class="node">
<title>Functor</title>
<polygon fill="black" stroke="transparent" points="547.37,-396 478.37,-396 478.37,-360 547.37,-360 547.37,-396"/>
<text text-anchor="middle" x="512.87" y="-374.3" font-family="Helvetica,sans-Serif" font-size="14.00" fill="white">Functor</text>
</g>
<!-- Invariant&#45;&#45;Functor -->
<g id="edge1" class="edge">
<title>Invariant&#45;&#45;Functor</title>
<path fill="none" stroke="gray" d="M620.89,-431.88C598.57,-420.95 569.75,-406.84 547.49,-395.95"/>
</g>
<!-- Contravariant -->
<g id="node3" class="node">
<title>Contravariant</title>
<polygon fill="black" stroke="transparent" points="948.87,-396 836.87,-396 836.87,-360 948.87,-360 948.87,-396"/>
<text text-anchor="middle" x="892.87" y="-374.3" font-family="Helvetica,sans-Serif" font-size="14.00" fill="white">Contravariant</text>
</g>
<!-- Invariant&#45;&#45;Contravariant -->
<g id="edge2" class="edge">
<title>Invariant&#45;&#45;Contravariant</title>
<path fill="none" stroke="gray" d="M695.54,-437.28C734.15,-425.88 793.2,-408.44 836.64,-395.61"/>
</g>
<!-- Applicative -->
<g id="node6" class="node">
<title>Applicative</title>
<polygon fill="black" stroke="transparent" points="109.37,-252 16.37,-252 16.37,-216 109.37,-216 109.37,-252"/>
<text text-anchor="middle" x="62.87" y="-230.3" font-family="Helvetica,sans-Serif" font-size="14.00" fill="white">Applicative</text>
</g>
<!-- Functor&#45;&#45;Applicative -->
<g id="edge3" class="edge">
<title>Functor&#45;&#45;Applicative</title>
<path fill="none" stroke="gray" d="M478.28,-376C369.29,-372.49 38.43,-359.03 6.87,-324 -13.29,-301.62 15.81,-271.12 39.03,-252.26"/>
</g>
<!-- Apply -->
<g id="node9" class="node">
<title>Apply</title>
<polygon fill="black" stroke="transparent" points="71.87,-324 15.87,-324 15.87,-288 71.87,-288 71.87,-324"/>
<text text-anchor="middle" x="43.87" y="-302.3" font-family="Helvetica,sans-Serif" font-size="14.00" fill="white">Apply</text>
</g>
<!-- Functor&#45;&#45;Apply -->
<g id="edge6" class="edge">
<title>Functor&#45;&#45;Apply</title>
<path fill="none" stroke="gray" stroke-dasharray="1,5" d="M478.26,-375.76C404.84,-372.46 228.49,-361.03 85.87,-324 81.31,-322.81 76.57,-321.25 72,-319.55"/>
</g>
<!-- Bind -->
<g id="node10" class="node">
<title>Bind</title>
<polygon fill="black" stroke="transparent" points="222.87,-180 168.87,-180 168.87,-144 222.87,-144 222.87,-180"/>
<text text-anchor="middle" x="195.87" y="-158.3" font-family="Helvetica,sans-Serif" font-size="14.00" fill="white">Bind</text>
</g>
<!-- Functor&#45;&#45;Bind -->
<g id="edge9" class="edge">
<title>Functor&#45;&#45;Bind</title>
<path fill="none" stroke="gray" stroke-dasharray="1,5" d="M478.35,-374.92C386.66,-369.03 142.44,-350.95 118.87,-324 108.34,-311.96 114.51,-303.39 118.87,-288 130.96,-245.33 162.19,-202.92 180.95,-180.12"/>
</g>
<!-- Alt -->
<g id="node13" class="node">
<title>Alt</title>
<polygon fill="black" stroke="transparent" points="594.87,-324 540.87,-324 540.87,-288 594.87,-288 594.87,-324"/>
<text text-anchor="middle" x="567.87" y="-302.3" font-family="Helvetica,sans-Serif" font-size="14.00" fill="white">Alt</text>
</g>
<!-- Functor&#45;&#45;Alt -->
<g id="edge12" class="edge">
<title>Functor&#45;&#45;Alt</title>
<path fill="none" stroke="gray" d="M526.47,-359.7C534.99,-348.85 545.94,-334.92 554.43,-324.1"/>
</g>
<!-- Comonad -->
<g id="node14" class="node">
<title>Comonad</title>
<polygon fill="black" stroke="transparent" points="696.37,-324 613.37,-324 613.37,-288 696.37,-288 696.37,-324"/>
<text text-anchor="middle" x="654.87" y="-302.3" font-family="Helvetica,sans-Serif" font-size="14.00" fill="white">Comonad</text>
</g>
<!-- Functor&#45;&#45;Comonad -->
<g id="edge13" class="edge">
<title>Functor&#45;&#45;Comonad</title>
<path fill="none" stroke="gray" d="M547.61,-359.88C569.62,-349.03 597.97,-335.05 620,-324.19"/>
</g>
<!-- Indexed_functor -->
<g id="node15" class="node">
<title>Indexed_functor</title>
<polygon fill="black" stroke="transparent" points="1511.37,-468 1382.37,-468 1382.37,-432 1511.37,-432 1511.37,-468"/>
<text text-anchor="middle" x="1446.87" y="-446.3" font-family="Helvetica,sans-Serif" font-size="14.00" fill="white">Indexed_functor</text>
</g>
<!-- Functor&#45;&#45;Indexed_functor -->
<g id="edge14" class="edge">
<title>Functor&#45;&#45;Indexed_functor</title>
<path fill="none" stroke="gray" stroke-dasharray="1,5" d="M547.42,-381.59C685.62,-391.95 1200,-430.5 1382.31,-444.16"/>
</g>
<!-- Free_selective -->
<g id="node29" class="node">
<title>Free_selective</title>
<polygon fill="black" stroke="transparent" points="386.37,-324 273.37,-324 273.37,-288 386.37,-288 386.37,-324"/>
<text text-anchor="middle" x="329.87" y="-302.3" font-family="Helvetica,sans-Serif" font-size="14.00" fill="white">Free_selective</text>
</g>
<!-- Functor&#45;&#45;Free_selective -->
<g id="edge42" class="edge">
<title>Functor&#45;&#45;Free_selective</title>
<path fill="none" stroke="gray" stroke-dasharray="1,5" d="M478.02,-363.67C448.57,-352.4 406.21,-336.2 374.32,-324"/>
</g>
<!-- Free_applicative -->
<g id="node30" class="node">
<title>Free_applicative</title>
<polygon fill="black" stroke="transparent" points="255.37,-324 128.37,-324 128.37,-288 255.37,-288 255.37,-324"/>
<text text-anchor="middle" x="191.87" y="-302.3" font-family="Helvetica,sans-Serif" font-size="14.00" fill="white">Free_applicative</text>
</g>
<!-- Functor&#45;&#45;Free_applicative -->
<g id="edge43" class="edge">
<title>Functor&#45;&#45;Free_applicative</title>
<path fill="none" stroke="gray" stroke-dasharray="1,5" d="M478.33,-369.82C430.37,-359.82 340.93,-340.98 264.87,-324 261.83,-323.32 258.71,-322.62 255.56,-321.9"/>
</g>
<!-- Free_monad -->
<g id="node31" class="node">
<title>Free_monad</title>
<polygon fill="black" stroke="transparent" points="562.87,-180 462.87,-180 462.87,-144 562.87,-144 562.87,-180"/>
<text text-anchor="middle" x="512.87" y="-158.3" font-family="Helvetica,sans-Serif" font-size="14.00" fill="white">Free_monad</text>
</g>
<!-- Functor&#45;&#45;Free_monad -->
<g id="edge44" class="edge">
<title>Functor&#45;&#45;Free_monad</title>
<path fill="none" stroke="gray" stroke-dasharray="1,5" d="M512.87,-359.85C512.87,-319.78 512.87,-220.38 512.87,-180.23"/>
</g>
<!-- Profunctor -->
<g id="node34" class="node">
<title>Profunctor</title>
<polygon fill="black" stroke="transparent" points="937.37,-324 848.37,-324 848.37,-288 937.37,-288 937.37,-324"/>
<text text-anchor="middle" x="892.87" y="-302.3" font-family="Helvetica,sans-Serif" font-size="14.00" fill="white">Profunctor</text>
</g>
<!-- Functor&#45;&#45;Profunctor -->
<g id="edge53" class="edge">
<title>Functor&#45;&#45;Profunctor</title>
<path fill="none" stroke="gray" d="M547.6,-370.6C616.77,-357.86 771.64,-329.33 848.23,-315.22"/>
</g>
<!-- Bifunctor -->
<g id="node35" class="node">
<title>Bifunctor</title>
<polygon fill="black" stroke="transparent" points="484.87,-324 404.87,-324 404.87,-288 484.87,-288 484.87,-324"/>
<text text-anchor="middle" x="444.87" y="-302.3" font-family="Helvetica,sans-Serif" font-size="14.00" fill="white">Bifunctor</text>
</g>
<!-- Functor&#45;&#45;Bifunctor -->
<g id="edge54" class="edge">
<title>Functor&#45;&#45;Bifunctor</title>
<path fill="none" stroke="gray" d="M496.06,-359.7C485.52,-348.85 471.99,-334.92 461.49,-324.1"/>
</g>
<!-- Divisible -->
<g id="node4" class="node">
<title>Divisible</title>
<polygon fill="black" stroke="transparent" points="1143.37,-324 1068.37,-324 1068.37,-288 1143.37,-288 1143.37,-324"/>
<text text-anchor="middle" x="1105.87" y="-302.3" font-family="Helvetica,sans-Serif" font-size="14.00" fill="white">Divisible</text>
</g>
<!-- Contravariant&#45;&#45;Divisible -->
<g id="edge50" class="edge">
<title>Contravariant&#45;&#45;Divisible</title>
<path fill="none" stroke="gray" d="M944.71,-359.97C982.88,-347.42 1033.91,-330.65 1068.24,-319.37"/>
</g>
<!-- Contravariant&#45;&#45;Profunctor -->
<g id="edge52" class="edge">
<title>Contravariant&#45;&#45;Profunctor</title>
<path fill="none" stroke="gray" d="M892.87,-359.7C892.87,-348.85 892.87,-334.92 892.87,-324.1"/>
</g>
<!-- Decidable -->
<g id="node5" class="node">
<title>Decidable</title>
<polygon fill="black" stroke="transparent" points="1318.37,-252 1233.37,-252 1233.37,-216 1318.37,-216 1318.37,-252"/>
<text text-anchor="middle" x="1275.87" y="-230.3" font-family="Helvetica,sans-Serif" font-size="14.00" fill="white">Decidable</text>
</g>
<!-- Divisible&#45;&#45;Decidable -->
<g id="edge51" class="edge">
<title>Divisible&#45;&#45;Decidable</title>
<path fill="none" stroke="gray" d="M1143.6,-289.46C1170.5,-278.39 1206.66,-263.5 1234.38,-252.09"/>
</g>
<!-- Selective -->
<g id="node7" class="node">
<title>Selective</title>
<polygon fill="black" stroke="transparent" points="444.37,-180 365.37,-180 365.37,-144 444.37,-144 444.37,-180"/>
<text text-anchor="middle" x="404.87" y="-158.3" font-family="Helvetica,sans-Serif" font-size="14.00" fill="white">Selective</text>
</g>
<!-- Applicative&#45;&#45;Selective -->
<g id="edge4" class="edge">
<title>Applicative&#45;&#45;Selective</title>
<path fill="none" stroke="gray" d="M109.54,-226.84C167.77,-218.63 270.12,-202.49 355.87,-180 358.92,-179.2 362.05,-178.3 365.19,-177.35"/>
</g>
<!-- Alternative -->
<g id="node11" class="node">
<title>Alternative</title>
<polygon fill="black" stroke="transparent" points="150.87,-180 58.87,-180 58.87,-144 150.87,-144 150.87,-180"/>
<text text-anchor="middle" x="104.87" y="-158.3" font-family="Helvetica,sans-Serif" font-size="14.00" fill="white">Alternative</text>
</g>
<!-- Applicative&#45;&#45;Alternative -->
<g id="edge10" class="edge">
<title>Applicative&#45;&#45;Alternative</title>
<path fill="none" stroke="gray" d="M73.26,-215.7C79.77,-204.85 88.12,-190.92 94.61,-180.1"/>
</g>
<!-- Indexed_applicative -->
<g id="node18" class="node">
<title>Indexed_applicative</title>
<polygon fill="black" stroke="transparent" points="1704.87,-396 1550.87,-396 1550.87,-360 1704.87,-360 1704.87,-396"/>
<text text-anchor="middle" x="1627.87" y="-374.3" font-family="Helvetica,sans-Serif" font-size="14.00" fill="white">Indexed_applicative</text>
</g>
<!-- Applicative&#45;&#45;Indexed_applicative -->
<g id="edge17" class="edge">
<title>Applicative&#45;&#45;Indexed_applicative</title>
<path fill="none" stroke="gray" stroke-dasharray="1,5" d="M109.59,-237.97C166.38,-241.54 265.14,-247.59 349.87,-252 706.64,-270.56 797.99,-247 1152.87,-288 1172.54,-290.27 1421.42,-337.58 1550.83,-362.27"/>
</g>
<!-- Traversable -->
<g id="node42" class="node">
<title>Traversable</title>
<polygon fill="black" stroke="transparent" points="152.37,-36 55.37,-36 55.37,0 152.37,0 152.37,-36"/>
<text text-anchor="middle" x="103.87" y="-14.3" font-family="Helvetica,sans-Serif" font-size="14.00" fill="white">Traversable</text>
</g>
<!-- Applicative&#45;&#45;Traversable -->
<g id="edge61" class="edge">
<title>Applicative&#45;&#45;Traversable</title>
<path fill="none" stroke="gray" d="M56.83,-215.83C51.32,-197.83 44.75,-168.77 49.87,-144 58.3,-103.26 80.66,-59.45 93.82,-36.05"/>
</g>
<!-- Monad -->
<g id="node8" class="node">
<title>Monad</title>
<polygon fill="black" stroke="transparent" points="380.37,-108 317.37,-108 317.37,-72 380.37,-72 380.37,-108"/>
<text text-anchor="middle" x="348.87" y="-86.3" font-family="Helvetica,sans-Serif" font-size="14.00" fill="white">Monad</text>
</g>
<!-- Selective&#45;&#45;Monad -->
<g id="edge5" class="edge">
<title>Selective&#45;&#45;Monad</title>
<path fill="none" stroke="gray" d="M391.03,-143.7C382.35,-132.85 371.21,-118.92 362.56,-108.1"/>
</g>
<!-- Indexed_selective -->
<g id="node20" class="node">
<title>Indexed_selective</title>
<polygon fill="black" stroke="transparent" points="1696.87,-324 1556.87,-324 1556.87,-288 1696.87,-288 1696.87,-324"/>
<text text-anchor="middle" x="1626.87" y="-302.3" font-family="Helvetica,sans-Serif" font-size="14.00" fill="white">Indexed_selective</text>
</g>
<!-- Selective&#45;&#45;Indexed_selective -->
<g id="edge19" class="edge">
<title>Selective&#45;&#45;Indexed_selective</title>
<path fill="none" stroke="gray" stroke-dasharray="1,5" d="M444.46,-177.77C447.62,-178.63 450.78,-179.39 453.87,-180 740.37,-236.4 822.55,-163.98 1109.87,-216 1162.57,-225.54 1172.58,-240.46 1224.87,-252 1256.49,-258.98 1450.33,-283.31 1556.87,-296.44"/>
</g>
<!-- Monad_plus -->
<g id="node12" class="node">
<title>Monad_plus</title>
<polygon fill="black" stroke="transparent" points="381.37,-36 282.37,-36 282.37,0 381.37,0 381.37,-36"/>
<text text-anchor="middle" x="331.87" y="-14.3" font-family="Helvetica,sans-Serif" font-size="14.00" fill="white">Monad_plus</text>
</g>
<!-- Monad&#45;&#45;Monad_plus -->
<g id="edge11" class="edge">
<title>Monad&#45;&#45;Monad_plus</title>
<path fill="none" stroke="gray" d="M344.67,-71.7C342.04,-60.85 338.65,-46.92 336.03,-36.1"/>
</g>
<!-- Indexed_monad -->
<g id="node22" class="node">
<title>Indexed_monad</title>
<polygon fill="black" stroke="transparent" points="1846.37,-252 1719.37,-252 1719.37,-216 1846.37,-216 1846.37,-252"/>
<text text-anchor="middle" x="1782.87" y="-230.3" font-family="Helvetica,sans-Serif" font-size="14.00" fill="white">Indexed_monad</text>
</g>
<!-- Monad&#45;&#45;Indexed_monad -->
<g id="edge21" class="edge">
<title>Monad&#45;&#45;Indexed_monad</title>
<path fill="none" stroke="gray" stroke-dasharray="1,5" d="M380.55,-94.01C458.24,-101.5 664.43,-121.93 835.87,-144 943.72,-157.88 969.81,-167.92 1077.87,-180 1313.6,-206.36 1595.18,-223.12 1719.05,-229.76"/>
</g>
<!-- State -->
<g id="node36" class="node">
<title>State</title>
<polygon fill="black" stroke="transparent" points="453.87,-36 399.87,-36 399.87,0 453.87,0 453.87,-36"/>
<text text-anchor="middle" x="426.87" y="-14.3" font-family="Helvetica,sans-Serif" font-size="14.00" fill="white">State</text>
</g>
<!-- Monad&#45;&#45;State -->
<g id="edge55" class="edge">
<title>Monad&#45;&#45;State</title>
<path fill="none" stroke="gray" d="M368.15,-71.7C380.25,-60.85 395.77,-46.92 407.81,-36.1"/>
</g>
<!-- Reader -->
<g id="node37" class="node">
<title>Reader</title>
<polygon fill="black" stroke="transparent" points="537.37,-36 472.37,-36 472.37,0 537.37,0 537.37,-36"/>
<text text-anchor="middle" x="504.87" y="-14.3" font-family="Helvetica,sans-Serif" font-size="14.00" fill="white">Reader</text>
</g>
<!-- Monad&#45;&#45;Reader -->
<g id="edge56" class="edge">
<title>Monad&#45;&#45;Reader</title>
<path fill="none" stroke="gray" d="M380.44,-74.83C407.15,-62.85 445.28,-45.74 472.28,-33.63"/>
</g>
<!-- Writer -->
<g id="node38" class="node">
<title>Writer</title>
<polygon fill="black" stroke="transparent" points="264.37,-36 205.37,-36 205.37,0 264.37,0 264.37,-36"/>
<text text-anchor="middle" x="234.87" y="-14.3" font-family="Helvetica,sans-Serif" font-size="14.00" fill="white">Writer</text>
</g>
<!-- Monad&#45;&#45;Writer -->
<g id="edge57" class="edge">
<title>Monad&#45;&#45;Writer</title>
<path fill="none" stroke="gray" d="M320.99,-71.88C303.32,-61.03 280.55,-47.05 262.87,-36.19"/>
</g>
<!-- Monad&#45;&#45;Traversable -->
<g id="edge62" class="edge">
<title>Monad&#45;&#45;Traversable</title>
<path fill="none" stroke="gray" d="M317.35,-79.99C275.6,-68.07 201.57,-46.91 152.6,-32.92"/>
</g>
<!-- Apply&#45;&#45;Applicative -->
<g id="edge7" class="edge">
<title>Apply&#45;&#45;Applicative</title>
<path fill="none" stroke="gray" d="M48.57,-287.7C51.52,-276.85 55.3,-262.92 58.23,-252.1"/>
</g>
<!-- Indexed_apply -->
<g id="node17" class="node">
<title>Indexed_apply</title>
<polygon fill="black" stroke="transparent" points="1686.37,-468 1569.37,-468 1569.37,-432 1686.37,-432 1686.37,-468"/>
<text text-anchor="middle" x="1627.87" y="-446.3" font-family="Helvetica,sans-Serif" font-size="14.00" fill="white">Indexed_apply</text>
</g>
<!-- Apply&#45;&#45;Indexed_apply -->
<g id="edge16" class="edge">
<title>Apply&#45;&#45;Indexed_apply</title>
<path fill="none" stroke="gray" stroke-dasharray="1,5" d="M72.13,-314.81C86.08,-318.31 103.24,-322.07 118.87,-324 162.86,-329.43 1682.89,-328.31 1713.87,-360 1725.06,-371.44 1721.67,-382.03 1713.87,-396 1704.98,-411.93 1689.12,-423.66 1673.42,-431.98"/>
</g>
<!-- Bind&#45;&#45;Monad -->
<g id="edge8" class="edge">
<title>Bind&#45;&#45;Monad</title>
<path fill="none" stroke="gray" d="M222.98,-148.14C225.98,-146.74 228.99,-145.33 231.87,-144 260.61,-130.71 293.47,-115.85 317.03,-105.26"/>
</g>
<!-- Indexed_bind -->
<g id="node21" class="node">
<title>Indexed_bind</title>
<polygon fill="black" stroke="transparent" points="1994.87,-324 1884.87,-324 1884.87,-288 1994.87,-288 1994.87,-324"/>
<text text-anchor="middle" x="1939.87" y="-302.3" font-family="Helvetica,sans-Serif" font-size="14.00" fill="white">Indexed_bind</text>
</g>
<!-- Bind&#45;&#45;Indexed_bind -->
<g id="edge20" class="edge">
<title>Bind&#45;&#45;Indexed_bind</title>
<path fill="none" stroke="gray" stroke-dasharray="1,5" d="M222.97,-177.2C225.91,-178.32 228.92,-179.29 231.87,-180 350.31,-208.61 1215.44,-169.05 1327.87,-216 1349.34,-224.97 1344.58,-242.63 1365.87,-252 1469.87,-297.75 1763.8,-269.33 1875.87,-288 1878.82,-288.49 1881.83,-289.06 1884.86,-289.68"/>
</g>
<!-- Indexed_alternative -->
<g id="node19" class="node">
<title>Indexed_alternative</title>
<polygon fill="black" stroke="transparent" points="1866.87,-324 1714.87,-324 1714.87,-288 1866.87,-288 1866.87,-324"/>
<text text-anchor="middle" x="1790.87" y="-302.3" font-family="Helvetica,sans-Serif" font-size="14.00" fill="white">Indexed_alternative</text>
</g>
<!-- Alternative&#45;&#45;Indexed_alternative -->
<g id="edge18" class="edge">
<title>Alternative&#45;&#45;Indexed_alternative</title>
<path fill="none" stroke="gray" stroke-dasharray="1,5" d="M150.87,-178.18C153.9,-178.88 156.92,-179.5 159.87,-180 576.39,-251 693.48,-144.25 1109.87,-216 1162.65,-225.09 1172.27,-241.94 1224.87,-252 1435.43,-292.29 1493.48,-258.92 1705.87,-288 1708.71,-288.39 1711.59,-288.81 1714.49,-289.26"/>
</g>
<!-- Indexed_monad_plus -->
<g id="node23" class="node">
<title>Indexed_monad_plus</title>
<polygon fill="black" stroke="transparent" points="1864.37,-180 1701.37,-180 1701.37,-144 1864.37,-144 1864.37,-180"/>
<text text-anchor="middle" x="1782.87" y="-158.3" font-family="Helvetica,sans-Serif" font-size="14.00" fill="white">Indexed_monad_plus</text>
</g>
<!-- Monad_plus&#45;&#45;Indexed_monad_plus -->
<g id="edge22" class="edge">
<title>Monad_plus&#45;&#45;Indexed_monad_plus</title>
<path fill="none" stroke="gray" stroke-dasharray="1,5" d="M381.58,-34.23C384.7,-34.91 387.82,-35.51 390.87,-36 788.7,-100.25 896.34,-27.59 1296.87,-72 1443.94,-88.3 1613.48,-123.05 1708.43,-143.98"/>
</g>
<!-- Indexed_alt -->
<g id="node16" class="node">
<title>Indexed_alt</title>
<polygon fill="black" stroke="transparent" points="1494.87,-396 1398.87,-396 1398.87,-360 1494.87,-360 1494.87,-396"/>
<text text-anchor="middle" x="1446.87" y="-374.3" font-family="Helvetica,sans-Serif" font-size="14.00" fill="white">Indexed_alt</text>
</g>
<!-- Alt&#45;&#45;Indexed_alt -->
<g id="edge15" class="edge">
<title>Alt&#45;&#45;Indexed_alt</title>
<path fill="none" stroke="gray" stroke-dasharray="1,5" d="M594.93,-320.85C598.21,-322.1 601.58,-323.2 604.87,-324 944.26,-406.43 1045.53,-301.66 1389.87,-360 1392.83,-360.5 1395.84,-361.11 1398.87,-361.79"/>
</g>
<!-- Indexed_comonad -->
<g id="node24" class="node">
<title>Indexed_comonad</title>
<polygon fill="black" stroke="transparent" points="1380.37,-396 1237.37,-396 1237.37,-360 1380.37,-360 1380.37,-396"/>
<text text-anchor="middle" x="1308.87" y="-374.3" font-family="Helvetica,sans-Serif" font-size="14.00" fill="white">Indexed_comonad</text>
</g>
<!-- Comonad&#45;&#45;Indexed_comonad -->
<g id="edge23" class="edge">
<title>Comonad&#45;&#45;Indexed_comonad</title>
<path fill="none" stroke="gray" stroke-dasharray="1,5" d="M696.43,-311.45C805.41,-323.11 1100.44,-354.69 1237.33,-369.34"/>
</g>
<!-- Store -->
<g id="node39" class="node">
<title>Store</title>
<polygon fill="black" stroke="transparent" points="674.87,-252 620.87,-252 620.87,-216 674.87,-216 674.87,-252"/>
<text text-anchor="middle" x="647.87" y="-230.3" font-family="Helvetica,sans-Serif" font-size="14.00" fill="white">Store</text>
</g>
<!-- Comonad&#45;&#45;Store -->
<g id="edge58" class="edge">
<title>Comonad&#45;&#45;Store</title>
<path fill="none" stroke="gray" d="M653.14,-287.7C652.06,-276.85 650.67,-262.92 649.58,-252.1"/>
</g>
<!-- Env -->
<g id="node40" class="node">
<title>Env</title>
<polygon fill="black" stroke="transparent" points="746.87,-252 692.87,-252 692.87,-216 746.87,-216 746.87,-252"/>
<text text-anchor="middle" x="719.87" y="-230.3" font-family="Helvetica,sans-Serif" font-size="14.00" fill="white">Env</text>
</g>
<!-- Comonad&#45;&#45;Env -->
<g id="edge59" class="edge">
<title>Comonad&#45;&#45;Env</title>
<path fill="none" stroke="gray" d="M670.94,-287.7C681.02,-276.85 693.95,-262.92 703.99,-252.1"/>
</g>
<!-- Traced -->
<g id="node41" class="node">
<title>Traced</title>
<polygon fill="black" stroke="transparent" points="602.87,-252 540.87,-252 540.87,-216 602.87,-216 602.87,-252"/>
<text text-anchor="middle" x="571.87" y="-230.3" font-family="Helvetica,sans-Serif" font-size="14.00" fill="white">Traced</text>
</g>
<!-- Comonad&#45;&#45;Traced -->
<g id="edge60" class="edge">
<title>Comonad&#45;&#45;Traced</title>
<path fill="none" stroke="gray" d="M634.36,-287.7C621.49,-276.85 604.98,-262.92 592.15,-252.1"/>
</g>
<!-- Indexed_functor&#45;&#45;Indexed_alt -->
<g id="edge34" class="edge">
<title>Indexed_functor&#45;&#45;Indexed_alt</title>
<path fill="none" stroke="gray" d="M1446.87,-431.7C1446.87,-420.85 1446.87,-406.92 1446.87,-396.1"/>
</g>
<!-- Indexed_functor&#45;&#45;Indexed_apply -->
<g id="edge28" class="edge">
<title>Indexed_functor&#45;&#45;Indexed_apply</title>
<path fill="none" stroke="gray" stroke-dasharray="1,5" d="M1511.57,-450C1530.8,-450 1550.03,-450 1569.27,-450"/>
</g>
<!-- Indexed_functor&#45;&#45;Indexed_applicative -->
<g id="edge25" class="edge">
<title>Indexed_functor&#45;&#45;Indexed_applicative</title>
<path fill="none" stroke="gray" d="M1491.15,-431.88C1519.3,-420.99 1555.61,-406.95 1583.74,-396.07"/>
</g>
<!-- Indexed_functor&#45;&#45;Indexed_bind -->
<g id="edge31" class="edge">
<title>Indexed_functor&#45;&#45;Indexed_bind</title>
<path fill="none" stroke="gray" stroke-dasharray="1,5" d="M1465.4,-431.86C1476.57,-421.5 1491.07,-408.02 1503.87,-396 1520.84,-380.08 1520.76,-369.76 1541.87,-360 1677.41,-297.37 1729.08,-351.24 1875.87,-324 1878.81,-323.45 1881.81,-322.84 1884.84,-322.19"/>
</g>
<!-- Indexed_functor&#45;&#45;Indexed_comonad -->
<g id="edge35" class="edge">
<title>Indexed_functor&#45;&#45;Indexed_comonad</title>
<path fill="none" stroke="gray" d="M1413.12,-431.88C1391.73,-421.03 1364.17,-407.05 1342.76,-396.19"/>
</g>
<!-- Indexed_apply&#45;&#45;Indexed_applicative -->
<g id="edge29" class="edge">
<title>Indexed_apply&#45;&#45;Indexed_applicative</title>
<path fill="none" stroke="gray" d="M1627.87,-431.7C1627.87,-420.85 1627.87,-406.92 1627.87,-396.1"/>
</g>
<!-- Indexed_applicative&#45;&#45;Indexed_alternative -->
<g id="edge32" class="edge">
<title>Indexed_applicative&#45;&#45;Indexed_alternative</title>
<path fill="none" stroke="gray" d="M1667.75,-359.88C1693.1,-348.99 1725.8,-334.95 1751.13,-324.07"/>
</g>
<!-- Indexed_applicative&#45;&#45;Indexed_selective -->
<g id="edge26" class="edge">
<title>Indexed_applicative&#45;&#45;Indexed_selective</title>
<path fill="none" stroke="gray" d="M1627.63,-359.7C1627.47,-348.85 1627.27,-334.92 1627.12,-324.1"/>
</g>
<!-- Indexed_selective&#45;&#45;Indexed_monad -->
<g id="edge27" class="edge">
<title>Indexed_selective&#45;&#45;Indexed_monad</title>
<path fill="none" stroke="gray" d="M1665.04,-287.88C1689.3,-276.99 1720.6,-262.95 1744.84,-252.07"/>
</g>
<!-- Indexed_bind&#45;&#45;Indexed_monad -->
<g id="edge30" class="edge">
<title>Indexed_bind&#45;&#45;Indexed_monad</title>
<path fill="none" stroke="gray" d="M1901.47,-287.88C1877.05,-276.99 1845.55,-262.95 1821.16,-252.07"/>
</g>
<!-- Indexed_monad&#45;&#45;Indexed_monad_plus -->
<g id="edge33" class="edge">
<title>Indexed_monad&#45;&#45;Indexed_monad_plus</title>
<path fill="none" stroke="gray" d="M1782.87,-215.7C1782.87,-204.85 1782.87,-190.92 1782.87,-180.1"/>
</g>
<!-- Foldable -->
<g id="node25" class="node">
<title>Foldable</title>
<polygon fill="black" stroke="transparent" points="796.87,-108 722.87,-108 722.87,-72 796.87,-72 796.87,-108"/>
<text text-anchor="middle" x="759.87" y="-86.3" font-family="Helvetica,sans-Serif" font-size="14.00" fill="white">Foldable</text>
</g>
<!-- Indexed_foldable -->
<g id="node26" class="node">
<title>Indexed_foldable</title>
<polygon fill="black" stroke="transparent" points="1122.87,-468 988.87,-468 988.87,-432 1122.87,-432 1122.87,-468"/>
<text text-anchor="middle" x="1055.87" y="-446.3" font-family="Helvetica,sans-Serif" font-size="14.00" fill="white">Indexed_foldable</text>
</g>
<!-- Foldable&#45;&#45;Indexed_foldable -->
<g id="edge24" class="edge">
<title>Foldable&#45;&#45;Indexed_foldable</title>
<path fill="none" stroke="gray" stroke-dasharray="1,5" d="M797.12,-100.85C876.75,-122.45 1060.33,-175.3 1109.87,-216 1149.79,-248.8 1169.61,-275.12 1152.87,-324 1137.57,-368.7 1099.04,-409.76 1075.41,-431.89"/>
</g>
<!-- Semigroup -->
<g id="node27" class="node">
<title>Semigroup</title>
<polygon fill="black" stroke="transparent" points="938.87,-252 846.87,-252 846.87,-216 938.87,-216 938.87,-252"/>
<text text-anchor="middle" x="892.87" y="-230.3" font-family="Helvetica,sans-Serif" font-size="14.00" fill="white">Semigroup</text>
</g>
<!-- Semigroup&#45;&#45;Alt -->
<g id="edge39" class="edge">
<title>Semigroup&#45;&#45;Alt</title>
<path fill="none" stroke="gray" stroke-dasharray="1,5" d="M846.79,-249.78C843.79,-250.58 840.8,-251.33 837.87,-252 735.77,-275.53 705.22,-257.84 604.87,-288 601.62,-288.98 598.29,-290.18 595.02,-291.5"/>
</g>
<!-- Monoid -->
<g id="node28" class="node">
<title>Monoid</title>
<polygon fill="black" stroke="transparent" points="826.37,-180 759.37,-180 759.37,-144 826.37,-144 826.37,-180"/>
<text text-anchor="middle" x="792.87" y="-158.3" font-family="Helvetica,sans-Serif" font-size="14.00" fill="white">Monoid</text>
</g>
<!-- Semigroup&#45;&#45;Monoid -->
<g id="edge36" class="edge">
<title>Semigroup&#45;&#45;Monoid</title>
<path fill="none" stroke="gray" d="M868.41,-215.88C852.91,-205.03 832.95,-191.05 817.43,-180.19"/>
</g>
<!-- Semigroupoid -->
<g id="node43" class="node">
<title>Semigroupoid</title>
<polygon fill="black" stroke="transparent" points="1471.37,-324 1358.37,-324 1358.37,-288 1471.37,-288 1471.37,-324"/>
<text text-anchor="middle" x="1414.87" y="-302.3" font-family="Helvetica,sans-Serif" font-size="14.00" fill="white">Semigroupoid</text>
</g>
<!-- Semigroup&#45;&#45;Semigroupoid -->
<g id="edge63" class="edge">
<title>Semigroup&#45;&#45;Semigroupoid</title>
<path fill="none" stroke="gray" stroke-dasharray="1,5" d="M938.91,-249.98C941.93,-250.73 944.93,-251.41 947.87,-252 1113.8,-285.16 1159.39,-263.93 1326.87,-288 1337.04,-289.46 1347.81,-291.3 1358.2,-293.22"/>
</g>
<!-- Arrow_alt -->
<g id="node50" class="node">
<title>Arrow_alt</title>
<polygon fill="black" stroke="transparent" points="932.87,-108 852.87,-108 852.87,-72 932.87,-72 932.87,-108"/>
<text text-anchor="middle" x="892.87" y="-86.3" font-family="Helvetica,sans-Serif" font-size="14.00" fill="white">Arrow_alt</text>
</g>
<!-- Semigroup&#45;&#45;Arrow_alt -->
<g id="edge79" class="edge">
<title>Semigroup&#45;&#45;Arrow_alt</title>
<path fill="none" stroke="gray" stroke-dasharray="1,5" d="M892.87,-215.87C892.87,-188.58 892.87,-135.52 892.87,-108.19"/>
</g>
<!-- Monoid&#45;&#45;Monad -->
<g id="edge40" class="edge">
<title>Monoid&#45;&#45;Monad</title>
<path fill="none" stroke="gray" stroke-dasharray="1,5" d="M759.14,-155.68C675.86,-142.55 461.43,-108.75 380.46,-95.98"/>
</g>
<!-- Monoid&#45;&#45;Alternative -->
<g id="edge37" class="edge">
<title>Monoid&#45;&#45;Alternative</title>
<path fill="none" stroke="gray" stroke-dasharray="1,5" d="M759.16,-168.96C714.51,-177.79 633.19,-192.53 562.87,-198 475.58,-204.79 253.57,-220.19 168.87,-198 155.19,-194.41 141.33,-187.17 130.04,-180.11"/>
</g>
<!-- Monoid&#45;&#45;Monad_plus -->
<g id="edge38" class="edge">
<title>Monoid&#45;&#45;Monad_plus</title>
<path fill="none" stroke="gray" stroke-dasharray="1,5" d="M759.35,-150.67C679.16,-125.97 475.97,-63.39 381.53,-34.3"/>
</g>
<!-- Monoid&#45;&#45;Foldable -->
<g id="edge41" class="edge">
<title>Monoid&#45;&#45;Foldable</title>
<path fill="none" stroke="gray" d="M784.72,-143.7C779.6,-132.85 773.03,-118.92 767.94,-108.1"/>
</g>
<!-- Category -->
<g id="node44" class="node">
<title>Category</title>
<polygon fill="black" stroke="transparent" points="1454.87,-252 1374.87,-252 1374.87,-216 1454.87,-216 1454.87,-252"/>
<text text-anchor="middle" x="1414.87" y="-230.3" font-family="Helvetica,sans-Serif" font-size="14.00" fill="white">Category</text>
</g>
<!-- Monoid&#45;&#45;Category -->
<g id="edge64" class="edge">
<title>Monoid&#45;&#45;Category</title>
<path fill="none" stroke="gray" stroke-dasharray="1,5" d="M826.7,-165.74C940.98,-175.03 1308.51,-205.44 1360.87,-216 1365.4,-216.91 1370.09,-218.06 1374.72,-219.33"/>
</g>
<!-- Arrow_plus -->
<g id="node51" class="node">
<title>Arrow_plus</title>
<polygon fill="black" stroke="transparent" points="990.87,-36 898.87,-36 898.87,0 990.87,0 990.87,-36"/>
<text text-anchor="middle" x="944.87" y="-14.3" font-family="Helvetica,sans-Serif" font-size="14.00" fill="white">Arrow_plus</text>
</g>
<!-- Monoid&#45;&#45;Arrow_plus -->
<g id="edge78" class="edge">
<title>Monoid&#45;&#45;Arrow_plus</title>
<path fill="none" stroke="gray" stroke-dasharray="1,5" d="M799.31,-143.69C807.28,-124.22 822.46,-92.64 843.87,-72 859.7,-56.75 880.79,-44.76 899.61,-36.07"/>
</g>
<!-- Free_selective&#45;&#45;Selective -->
<g id="edge45" class="edge">
<title>Free_selective&#45;&#45;Selective</title>
<path fill="none" stroke="gray" d="M330.8,-287.89C332.46,-269.16 337.06,-238.77 349.87,-216 357.74,-202.02 370.46,-189.41 381.68,-180.01"/>
</g>
<!-- Free_applicative&#45;&#45;Applicative -->
<g id="edge47" class="edge">
<title>Free_applicative&#45;&#45;Applicative</title>
<path fill="none" stroke="gray" d="M160.32,-287.88C140.33,-277.03 114.57,-263.05 94.55,-252.19"/>
</g>
<!-- Free_monad&#45;&#45;Monad -->
<g id="edge48" class="edge">
<title>Free_monad&#45;&#45;Monad</title>
<path fill="none" stroke="gray" d="M472.75,-143.88C444.4,-131.77 406.92,-115.77 380.63,-104.56"/>
</g>
<!-- Freer_selective -->
<g id="node32" class="node">
<title>Freer_selective</title>
<polygon fill="black" stroke="transparent" points="477.37,-252 358.37,-252 358.37,-216 477.37,-216 477.37,-252"/>
<text text-anchor="middle" x="417.87" y="-230.3" font-family="Helvetica,sans-Serif" font-size="14.00" fill="white">Freer_selective</text>
</g>
<!-- Freer_selective&#45;&#45;Selective -->
<g id="edge46" class="edge">
<title>Freer_selective&#45;&#45;Selective</title>
<path fill="none" stroke="gray" d="M414.66,-215.7C412.65,-204.85 410.06,-190.92 408.05,-180.1"/>
</g>
<!-- Freer_monad -->
<g id="node33" class="node">
<title>Freer_monad</title>
<polygon fill="black" stroke="transparent" points="346.87,-180 240.87,-180 240.87,-144 346.87,-144 346.87,-180"/>
<text text-anchor="middle" x="293.87" y="-158.3" font-family="Helvetica,sans-Serif" font-size="14.00" fill="white">Freer_monad</text>
</g>
<!-- Freer_monad&#45;&#45;Monad -->
<g id="edge49" class="edge">
<title>Freer_monad&#45;&#45;Monad</title>
<path fill="none" stroke="gray" d="M307.47,-143.7C315.99,-132.85 326.94,-118.92 335.43,-108.1"/>
</g>
<!-- Strong -->
<g id="node46" class="node">
<title>Strong</title>
<polygon fill="black" stroke="transparent" points="1018.87,-252 956.87,-252 956.87,-216 1018.87,-216 1018.87,-252"/>
<text text-anchor="middle" x="987.87" y="-230.3" font-family="Helvetica,sans-Serif" font-size="14.00" fill="white">Strong</text>
</g>
<!-- Profunctor&#45;&#45;Strong -->
<g id="edge67" class="edge">
<title>Profunctor&#45;&#45;Strong</title>
<path fill="none" stroke="gray" d="M916.36,-287.7C931.08,-276.85 949.99,-262.92 964.66,-252.1"/>
</g>
<!-- Choice -->
<g id="node47" class="node">
<title>Choice</title>
<polygon fill="black" stroke="transparent" points="1100.37,-252 1037.37,-252 1037.37,-216 1100.37,-216 1100.37,-252"/>
<text text-anchor="middle" x="1068.87" y="-230.3" font-family="Helvetica,sans-Serif" font-size="14.00" fill="white">Choice</text>
</g>
<!-- Profunctor&#45;&#45;Choice -->
<g id="edge68" class="edge">
<title>Profunctor&#45;&#45;Choice</title>
<path fill="none" stroke="gray" d="M937.04,-287.9C963.45,-277.62 997.64,-264.2 1027.87,-252 1030.88,-250.79 1034,-249.52 1037.11,-248.24"/>
</g>
<!-- Closed -->
<g id="node48" class="node">
<title>Closed</title>
<polygon fill="black" stroke="transparent" points="828.37,-252 765.37,-252 765.37,-216 828.37,-216 828.37,-252"/>
<text text-anchor="middle" x="796.87" y="-230.3" font-family="Helvetica,sans-Serif" font-size="14.00" fill="white">Closed</text>
</g>
<!-- Profunctor&#45;&#45;Closed -->
<g id="edge69" class="edge">
<title>Profunctor&#45;&#45;Closed</title>
<path fill="none" stroke="gray" d="M869.14,-287.7C854.26,-276.85 835.16,-262.92 820.33,-252.1"/>
</g>
<!-- Semigroupoid&#45;&#45;Category -->
<g id="edge65" class="edge">
<title>Semigroupoid&#45;&#45;Category</title>
<path fill="none" stroke="gray" d="M1414.87,-287.7C1414.87,-276.85 1414.87,-262.92 1414.87,-252.1"/>
</g>
<!-- Arrow -->
<g id="node45" class="node">
<title>Arrow</title>
<polygon fill="black" stroke="transparent" points="1142.87,-180 1086.87,-180 1086.87,-144 1142.87,-144 1142.87,-180"/>
<text text-anchor="middle" x="1114.87" y="-158.3" font-family="Helvetica,sans-Serif" font-size="14.00" fill="white">Arrow</text>
</g>
<!-- Category&#45;&#45;Arrow -->
<g id="edge66" class="edge">
<title>Category&#45;&#45;Arrow</title>
<path fill="none" stroke="gray" d="M1374.6,-219.87C1369.99,-218.5 1365.34,-217.18 1360.87,-216 1282.74,-195.33 1189.06,-176.86 1143.11,-168.2"/>
</g>
<!-- Arrow_zero -->
<g id="node49" class="node">
<title>Arrow_zero</title>
<polygon fill="black" stroke="transparent" points="1042.87,-108 950.87,-108 950.87,-72 1042.87,-72 1042.87,-108"/>
<text text-anchor="middle" x="996.87" y="-86.3" font-family="Helvetica,sans-Serif" font-size="14.00" fill="white">Arrow_zero</text>
</g>
<!-- Arrow&#45;&#45;Arrow_zero -->
<g id="edge71" class="edge">
<title>Arrow&#45;&#45;Arrow_zero</title>
<path fill="none" stroke="gray" d="M1086.61,-144.23C1068.2,-133.31 1044.25,-119.11 1025.73,-108.12"/>
</g>
<!-- Arrow&#45;&#45;Arrow_alt -->
<g id="edge72" class="edge">
<title>Arrow&#45;&#45;Arrow_alt</title>
<path fill="none" stroke="gray" d="M1086.61,-152.69C1052.27,-142.51 992.64,-124.58 941.87,-108 938.96,-107.05 935.96,-106.05 932.94,-105.04"/>
</g>
<!-- Arrow&#45;&#45;Arrow_plus -->
<g id="edge73" class="edge">
<title>Arrow&#45;&#45;Arrow_plus</title>
<path fill="none" stroke="gray" d="M1143.31,-157.8C1205.18,-149.77 1342.88,-125.45 1296.87,-72 1257.92,-26.74 1077.19,-19.61 990.93,-18.83"/>
</g>
<!-- Arrow_choice -->
<g id="node52" class="node">
<title>Arrow_choice</title>
<polygon fill="black" stroke="transparent" points="1168.37,-108 1061.37,-108 1061.37,-72 1168.37,-72 1168.37,-108"/>
<text text-anchor="middle" x="1114.87" y="-86.3" font-family="Helvetica,sans-Serif" font-size="14.00" fill="white">Arrow_choice</text>
</g>
<!-- Arrow&#45;&#45;Arrow_choice -->
<g id="edge74" class="edge">
<title>Arrow&#45;&#45;Arrow_choice</title>
<path fill="none" stroke="gray" d="M1114.87,-143.7C1114.87,-132.85 1114.87,-118.92 1114.87,-108.1"/>
</g>
<!-- Arrow_apply -->
<g id="node53" class="node">
<title>Arrow_apply</title>
<polygon fill="black" stroke="transparent" points="1287.37,-108 1186.37,-108 1186.37,-72 1287.37,-72 1287.37,-108"/>
<text text-anchor="middle" x="1236.87" y="-86.3" font-family="Helvetica,sans-Serif" font-size="14.00" fill="white">Arrow_apply</text>
</g>
<!-- Arrow&#45;&#45;Arrow_apply -->
<g id="edge75" class="edge">
<title>Arrow&#45;&#45;Arrow_apply</title>
<path fill="none" stroke="gray" d="M1143.17,-144.76C1162.32,-133.78 1187.57,-119.29 1207.03,-108.12"/>
</g>
<!-- Strong&#45;&#45;Arrow -->
<g id="edge70" class="edge">
<title>Strong&#45;&#45;Arrow</title>
<path fill="none" stroke="gray" d="M1018.94,-215.88C1039.65,-204.46 1066.65,-189.58 1086.73,-178.51"/>
</g>
<!-- Arrow_zero&#45;&#45;Arrow_plus -->
<g id="edge76" class="edge">
<title>Arrow_zero&#45;&#45;Arrow_plus</title>
<path fill="none" stroke="gray" stroke-dasharray="1,5" d="M984.02,-71.7C975.96,-60.85 965.61,-46.92 957.58,-36.1"/>
</g>
<!-- Arrow_alt&#45;&#45;Arrow_plus -->
<g id="edge77" class="edge">
<title>Arrow_alt&#45;&#45;Arrow_plus</title>
<path fill="none" stroke="gray" stroke-dasharray="1,5" d="M905.73,-71.7C913.79,-60.85 924.14,-46.92 932.17,-36.1"/>
</g>
<!-- Meet_semilattice -->
<g id="node54" class="node">
<title>Meet_semilattice</title>
<polygon fill="black" stroke="transparent" points="1993.87,-468 1861.87,-468 1861.87,-432 1993.87,-432 1993.87,-468"/>
<text text-anchor="middle" x="1927.87" y="-446.3" font-family="Helvetica,sans-Serif" font-size="14.00" fill="white">Meet_semilattice</text>
</g>
<!-- Meet_semilattice&#45;&#45;Semigroup -->
<g id="edge80" class="edge">
<title>Meet_semilattice&#45;&#45;Semigroup</title>
<path fill="none" stroke="gray" stroke-dasharray="1,5" d="M1863.06,-431.95C1845.37,-424 1828.25,-412.51 1817.87,-396 1809.36,-382.45 1807.69,-372.34 1817.87,-360 1871.46,-295.05 1950.29,-388.95 2003.87,-324 2014.06,-311.66 2014.99,-299.5 2003.87,-288 1963.08,-245.79 1005.76,-261.75 947.87,-252 945.02,-251.52 942.1,-250.93 939.17,-250.26"/>
</g>
<!-- Bounded_meet_semilattice -->
<g id="node55" class="node">
<title>Bounded_meet_semilattice</title>
<polygon fill="black" stroke="transparent" points="2029.37,-396 1826.37,-396 1826.37,-360 2029.37,-360 2029.37,-396"/>
<text text-anchor="middle" x="1927.87" y="-374.3" font-family="Helvetica,sans-Serif" font-size="14.00" fill="white">Bounded_meet_semilattice</text>
</g>
<!-- Meet_semilattice&#45;&#45;Bounded_meet_semilattice -->
<g id="edge81" class="edge">
<title>Meet_semilattice&#45;&#45;Bounded_meet_semilattice</title>
<path fill="none" stroke="gray" d="M1927.87,-431.7C1927.87,-420.85 1927.87,-406.92 1927.87,-396.1"/>
</g>
<!-- Join_semilattice -->
<g id="node56" class="node">
<title>Join_semilattice</title>
<polygon fill="black" stroke="transparent" points="2245.87,-468 2121.87,-468 2121.87,-432 2245.87,-432 2245.87,-468"/>
<text text-anchor="middle" x="2183.87" y="-446.3" font-family="Helvetica,sans-Serif" font-size="14.00" fill="white">Join_semilattice</text>
</g>
<!-- Join_semilattice&#45;&#45;Semigroup -->
<g id="edge82" class="edge">
<title>Join_semilattice&#45;&#45;Semigroup</title>
<path fill="none" stroke="gray" stroke-dasharray="1,5" d="M2135.27,-431.89C2116.02,-423.34 2094.74,-411.47 2078.87,-396 2039.86,-357.97 2067.16,-316.74 2020.87,-288 1919.54,-225.07 1065.51,-271.79 947.87,-252 945.02,-251.52 942.1,-250.93 939.17,-250.26"/>
</g>
<!-- Join_semilattice&#45;&#45;Meet_semilattice -->
<g id="edge84" class="edge">
<title>Join_semilattice&#45;&#45;Meet_semilattice</title>
<path fill="none" stroke="gray" stroke-dasharray="1,5" d="M2121.69,-450C2079.25,-450 2036.81,-450 1994.37,-450"/>
</g>
<!-- Bounded_join_semilattice -->
<g id="node57" class="node">
<title>Bounded_join_semilattice</title>
<polygon fill="black" stroke="transparent" points="2279.87,-396 2087.87,-396 2087.87,-360 2279.87,-360 2279.87,-396"/>
<text text-anchor="middle" x="2183.87" y="-374.3" font-family="Helvetica,sans-Serif" font-size="14.00" fill="white">Bounded_join_semilattice</text>
</g>
<!-- Join_semilattice&#45;&#45;Bounded_join_semilattice -->
<g id="edge83" class="edge">
<title>Join_semilattice&#45;&#45;Bounded_join_semilattice</title>
<path fill="none" stroke="gray" d="M2183.87,-431.7C2183.87,-420.85 2183.87,-406.92 2183.87,-396.1"/>
</g>
<!-- Bounded_join_semilattice&#45;&#45;Bounded_meet_semilattice -->
<g id="edge85" class="edge">
<title>Bounded_join_semilattice&#45;&#45;Bounded_meet_semilattice</title>
<path fill="none" stroke="gray" stroke-dasharray="1,5" d="M2087.62,-378C2068.37,-378 2049.12,-378 2029.87,-378"/>
</g>
</g>
</svg>
